<svg width="207" height="207" viewBox="0 0 207 207" fill="none" xmlns="http://www.w3.org/2000/svg">
<rect width="207" height="207" fill="white"/>
<path d="M91.0801 26.1547C91.5459 29.7875 93.7815 30.3568 93.7815 30.3568C97.435 30.6052 96.1516 27.3449 96.1516 27.3449C92.4049 19.8412 83.2659 22.3355 83.2659 22.3355C83.2659 22.3355 90.573 22.5218 91.0801 26.1547ZM144.02 40.1686C149.257 32.996 139.963 27.5105 139.963 27.5105C140.575 30.3029 140.575 33.1948 139.963 35.9872C139.466 42.7871 144.02 40.1686 144.02 40.1686Z" fill="black"/>
<path d="M191.475 46.7719C191.475 46.7719 181.125 20.5864 144.093 10.0294C107.06 -0.527623 79.0534 21.4144 79.0534 21.4144C114.533 10.0294 121.271 19.2098 121.271 19.2098C121.271 19.2098 127.336 26.1133 132.915 25.2749C138.493 24.4366 134.778 19.0649 134.778 19.0649C148.16 21.7352 150.355 29.5702 153.646 36.2252C156.937 42.8803 160.891 39.4751 164.658 35.7284C168.426 31.9817 172.39 36.4736 172.39 36.4736C175.757 41.1369 177.918 46.5609 178.68 52.2622C179.442 57.9634 178.782 63.7646 176.757 69.1486C169.895 88.1098 181.746 89.2276 181.746 89.2276C205.81 84.9323 191.475 46.7719 191.475 46.7719ZM159.173 31.2469C157.186 31.8782 156.182 28.3178 156.182 28.3178C155.95 27.8474 155.899 27.3084 156.038 26.8029C156.178 26.2975 156.497 25.8606 156.937 25.5751C159.214 24.5401 160.042 27.4795 160.042 27.4795C160.042 27.4795 161.16 30.6569 159.162 31.2779L159.173 31.2469ZM189.405 60.0302C189.661 60.0323 189.914 60.0961 190.14 60.2164C190.367 60.3367 190.561 60.5098 190.706 60.7211C190.851 60.9324 190.943 61.1756 190.975 61.4301C191.006 61.6846 190.975 61.9429 190.885 62.183C190.347 64.253 188.142 62.6074 188.142 62.6074C187.986 62.3646 187.895 62.0857 187.879 61.7976C187.862 61.5094 187.92 61.2219 188.047 60.9627C188.174 60.7035 188.366 60.4815 188.604 60.3182C188.842 60.1548 189.118 60.0556 189.405 60.0302ZM186.6 82.2413C186.6 82.2413 185.669 81.4961 186.6 79.1363C187.37 76.7356 187.934 74.2738 188.287 71.7775C189.467 67.7203 192.024 70.5976 192.024 70.5976C192.024 70.5976 193.835 73.4645 191.092 79.0121C188.349 84.5597 186.6 82.2517 186.6 82.2517V82.2413ZM76.9523 62.1002C76.9743 62.1002 76.9954 62.0915 77.0109 62.076C77.0264 62.0604 77.0351 62.0394 77.0351 62.0174C77.0351 61.9955 77.0264 61.9744 77.0109 61.9589C76.9954 61.9433 76.9743 61.9346 76.9523 61.9346C76.9304 61.9346 76.9093 61.9433 76.8938 61.9589C76.8783 61.9744 76.8695 61.9955 76.8695 62.0174C76.8695 62.0394 76.8783 62.0604 76.8938 62.076C76.9093 62.0915 76.9304 62.1002 76.9523 62.1002ZM86.1224 68.8277C86.0244 68.9185 85.9168 68.9983 85.8016 69.0658C85.7884 69.0773 85.7791 69.0927 85.7752 69.1098C85.7713 69.1269 85.7729 69.1447 85.7798 69.1609C85.7867 69.177 85.7986 69.1905 85.8136 69.1994C85.8287 69.2084 85.8462 69.2123 85.8637 69.2107C87.2299 68.8381 85.9568 67.7513 85.8637 67.0268C85.8637 66.8716 85.5118 67.0268 86.257 68.2481C86.294 68.3473 86.301 68.4551 86.2771 68.5582C86.2532 68.6613 86.1994 68.755 86.1224 68.8277ZM87.5093 65.6296C87.4366 65.9917 87.4366 66.3646 87.5093 66.7267C87.5218 66.7438 87.5382 66.7577 87.5571 66.7673C87.5759 66.7769 87.5968 66.7819 87.618 66.7819C87.6392 66.7819 87.6601 66.7769 87.679 66.7673C87.6978 66.7577 87.7142 66.7438 87.7267 66.7267C87.7742 66.3833 87.7742 66.035 87.7267 65.6917C87.7991 65.5054 87.53 65.464 87.5093 65.6296ZM83.2141 65.7434C83.1282 66.1442 83.1755 66.5621 83.3486 66.9337C83.3685 66.9525 83.3927 66.9661 83.4191 66.9733C83.4454 66.9805 83.4732 66.9811 83.4999 66.9749C83.5265 66.9688 83.5512 66.9561 83.5718 66.9381C83.5924 66.92 83.6081 66.8972 83.6177 66.8716C83.6459 66.4904 83.6002 66.1073 83.4832 65.7434C83.4696 65.7198 83.45 65.7001 83.4263 65.6865C83.4027 65.6728 83.3759 65.6656 83.3486 65.6656C83.3213 65.6656 83.2945 65.6728 83.2709 65.6865C83.2473 65.7001 83.2277 65.7198 83.2141 65.7434ZM82.0549 64.874C82.2826 64.6567 83.2762 63.9425 83.4832 63.7459C83.6902 63.5492 83.2141 63.2698 81.91 64.7291C81.8168 64.8223 81.9617 64.9775 82.0549 64.874ZM88.2959 64.4186C88.0463 64.0759 87.7203 63.796 87.3437 63.601C87.1988 63.5389 87.085 63.7976 87.2402 63.8597C87.3955 63.9218 88.4098 64.9879 88.2959 64.4186ZM82.4275 71.6429C82.4896 71.7154 82.5931 71.6429 82.5517 71.5498C82.2323 71.134 82.0578 70.6251 82.0549 70.1008C83.2141 71.3738 84.4871 71.0633 83.9903 70.9288C83.2707 70.77 82.6106 70.4112 82.0859 69.8938C81.8272 69.6454 81.6719 70.7528 82.4275 71.6429ZM76.0829 63.3422C76.0445 63.3422 76.0076 63.3575 75.9805 63.3847C75.9533 63.4118 75.938 63.4487 75.938 63.4871C75.938 63.5256 75.9533 63.5624 75.9805 63.5896C76.0076 63.6168 76.0445 63.632 76.0829 63.632C76.1214 63.632 76.1582 63.6168 76.1854 63.5896C76.2126 63.5624 76.2278 63.5256 76.2278 63.4871C76.2278 63.4487 76.2126 63.4118 76.1854 63.3847C76.1582 63.3575 76.1214 63.3422 76.0829 63.3422ZM77.2732 64.429C77.3171 64.429 77.3592 64.4115 77.3903 64.3805C77.4213 64.3494 77.4388 64.3073 77.4388 64.2634C77.4388 64.2195 77.4213 64.1773 77.3903 64.1463C77.3592 64.1152 77.3171 64.0978 77.2732 64.0978C77.2293 64.0978 77.1871 64.1152 77.1561 64.1463C77.125 64.1773 77.1076 64.2195 77.1076 64.2634C77.1076 64.3073 77.125 64.3494 77.1561 64.3805C77.1871 64.4115 77.2293 64.429 77.2732 64.429ZM77.4595 63.0421C77.4926 63.0333 77.5219 63.0138 77.5428 62.9867C77.5637 62.9595 77.575 62.9263 77.575 62.892C77.575 62.8577 77.5637 62.8245 77.5428 62.7973C77.5219 62.7702 77.4926 62.7507 77.4595 62.7419C77.4264 62.7507 77.3971 62.7702 77.3762 62.7973C77.3553 62.8245 77.344 62.8577 77.344 62.892C77.344 62.9263 77.3553 62.9595 77.3762 62.9867C77.3971 63.0138 77.4264 63.0333 77.4595 63.0421ZM79.1051 63.2698C79.1408 63.2607 79.1723 63.2399 79.1949 63.2109C79.2174 63.1818 79.2297 63.1461 79.2297 63.1093C79.2297 63.0726 79.2174 63.0369 79.1949 63.0078C79.1723 62.9788 79.1408 62.958 79.1051 62.9489C79.0695 62.958 79.0379 62.9788 79.0154 63.0078C78.9928 63.0369 78.9806 63.0726 78.9806 63.1093C78.9806 63.1461 78.9928 63.1818 79.0154 63.2109C79.0379 63.2399 79.0695 63.2607 79.1051 63.2698ZM79.4777 66.085C79.7779 65.9815 79.3846 65.6399 79.3018 65.909C79.2707 65.9918 79.3742 66.1264 79.4777 66.085ZM78.9809 64.8533C79.0056 64.8533 79.0293 64.8435 79.0468 64.826C79.0643 64.8086 79.0741 64.7849 79.0741 64.7602C79.0741 64.7355 79.0643 64.7118 79.0468 64.6943C79.0293 64.6768 79.0056 64.667 78.9809 64.667C78.9562 64.667 78.9325 64.6768 78.9151 64.6943C78.8976 64.7118 78.8878 64.7355 78.8878 64.7602C78.8878 64.7849 78.8976 64.8086 78.9151 64.826C78.9325 64.8435 78.9562 64.8533 78.9809 64.8533ZM75.9898 65.2052C75.9623 65.2052 75.936 65.2161 75.9166 65.2355C75.8972 65.255 75.8863 65.2813 75.8863 65.3087C75.8863 65.3362 75.8972 65.3625 75.9166 65.3819C75.936 65.4013 75.9623 65.4122 75.9898 65.4122C76.0172 65.4122 76.0436 65.4013 76.063 65.3819C76.0824 65.3625 76.0933 65.3362 76.0933 65.3087C76.0933 65.2813 76.0824 65.255 76.063 65.2355C76.0436 65.2161 76.0172 65.2052 75.9898 65.2052ZM77.0765 69.4177C77.0509 69.4253 77.0284 69.441 77.0124 69.4625C76.9964 69.4839 76.9878 69.51 76.9878 69.5367C76.9878 69.5634 76.9964 69.5895 77.0124 69.6109C77.0284 69.6324 77.0509 69.6481 77.0765 69.6557C77.1022 69.6481 77.1246 69.6324 77.1406 69.6109C77.1566 69.5895 77.1653 69.5634 77.1653 69.5367C77.1653 69.51 77.1566 69.4839 77.1406 69.4625C77.1246 69.441 77.1022 69.4253 77.0765 69.4177ZM75.7414 66.6232C75.6975 66.6232 75.6553 66.6406 75.6243 66.6717C75.5932 66.7027 75.5758 66.7449 75.5758 66.7888C75.5758 66.8327 75.5932 66.8748 75.6243 66.9059C75.6553 66.9369 75.6975 66.9544 75.7414 66.9544C75.7853 66.9544 75.8274 66.9369 75.8585 66.9059C75.8895 66.8748 75.907 66.8327 75.907 66.7888C75.907 66.7449 75.8895 66.7027 75.8585 66.6717C75.8274 66.6406 75.7853 66.6232 75.7414 66.6232ZM77.2732 65.2052C77.2517 65.1993 77.2291 65.1985 77.2072 65.2027C77.1853 65.207 77.1647 65.2162 77.147 65.2297C77.1292 65.2432 77.1148 65.2607 77.1049 65.2807C77.095 65.3006 77.0899 65.3226 77.0899 65.345C77.0899 65.3673 77.095 65.3893 77.1049 65.4092C77.1148 65.4292 77.1292 65.4467 77.147 65.4602C77.1647 65.4737 77.1853 65.483 77.2072 65.4872C77.2291 65.4914 77.2517 65.4906 77.2732 65.4847C77.3038 65.4763 77.3308 65.458 77.35 65.4328C77.3693 65.4076 77.3797 65.3767 77.3797 65.345C77.3797 65.3132 77.3693 65.2823 77.35 65.2571C77.3308 65.2319 77.3038 65.2136 77.2732 65.2052ZM78.422 64.3358C78.4577 64.3358 78.4919 64.3217 78.5172 64.2964C78.5424 64.2712 78.5566 64.237 78.5566 64.2013C78.5566 64.1656 78.5424 64.1314 78.5172 64.1061C78.4919 64.0809 78.4577 64.0667 78.422 64.0667C78.3863 64.0667 78.3521 64.0809 78.3269 64.1061C78.3017 64.1314 78.2875 64.1656 78.2875 64.2013C78.2875 64.237 78.3017 64.2712 78.3269 64.2964C78.3521 64.3217 78.3863 64.3358 78.422 64.3358ZM64.3564 98.822C64.3659 98.7742 64.3659 98.725 64.3564 98.6771C64.2425 97.6421 62.5762 98.5322 63.3214 99.3809C63.3918 99.4512 63.4821 99.4981 63.5801 99.5155C63.6794 99.5373 63.7824 99.5353 63.8808 99.5096C63.9791 99.4838 64.0699 99.4351 64.1457 99.3674C64.2215 99.2996 64.2801 99.2149 64.3167 99.1201C64.3534 99.0253 64.367 98.9231 64.3564 98.822ZM65.557 93.0053C65.6329 93.0807 65.7279 93.134 65.8319 93.1595C65.9358 93.1851 66.0447 93.1818 66.1469 93.1502C66.228 93.1221 66.3022 93.0773 66.3648 93.0186C66.4273 92.9599 66.4768 92.8887 66.51 92.8096C66.5432 92.7305 66.5594 92.6453 66.5574 92.5595C66.5555 92.4738 66.5355 92.3894 66.4988 92.3119C66.3125 91.5356 64.8325 92.2498 65.557 93.0053ZM67.9478 96.5864C68.0113 96.4162 68.0113 96.2288 67.9478 96.0586C66.6334 94.9097 66.7369 98.0872 67.9478 96.5864ZM58.1464 101.254C58.7984 101.72 59.4194 101.078 58.8502 100.406C58.6328 100.147 57.3598 100.664 58.1464 101.254ZM64.0459 103.707C62.7004 102.734 62.5037 105.653 63.9113 104.742C64.0508 104.613 64.143 104.441 64.173 104.253C64.203 104.066 64.1692 103.873 64.0769 103.707H64.0459ZM68.0617 87.8096C67.7512 88.4513 68.7758 89.0102 69.0139 88.0166C69.0139 87.7889 69.0139 87.4888 68.486 87.4474C68.3876 87.4597 68.295 87.5005 68.2196 87.5649C68.1441 87.6293 68.0893 87.7144 68.0617 87.8096ZM67.2751 83.8352C67.3749 83.8903 67.4897 83.9122 67.6028 83.8978C67.7159 83.8834 67.8215 83.8334 67.9044 83.7552C67.9873 83.6769 68.0432 83.5743 68.064 83.4622C68.0848 83.3501 68.0695 83.2343 68.0203 83.1314C67.7098 82.5311 66.5816 83.2142 67.2751 83.8352ZM69.2312 79.4572C69.2312 80.0471 70.3283 79.9643 70.2662 79.2916C70.2655 79.2237 70.2482 79.1571 70.2157 79.0976C70.1832 79.038 70.1366 78.9873 70.0799 78.95C69.8419 78.6602 68.9621 78.8776 69.2312 79.4572ZM73.7231 73.4231C74.3131 73.0712 73.9301 72.2122 73.3609 72.5227C72.6157 72.5951 73.0504 73.8164 73.7231 73.4231ZM69.697 68.8381C69.7015 68.8037 69.7015 68.7689 69.697 68.7346C69.713 68.6532 69.7083 68.569 69.6834 68.4899C69.6586 68.4107 69.6143 68.339 69.5546 68.2814C69.4949 68.2238 69.4217 68.182 69.3417 68.1599C69.2617 68.1378 69.1775 68.1361 69.0967 68.155C69.0122 68.1771 68.9353 68.2214 68.8739 68.2835C68.8125 68.3455 68.769 68.423 68.7478 68.5076C68.7266 68.5923 68.7286 68.6811 68.7536 68.7648C68.7786 68.8484 68.8256 68.9238 68.8897 68.983C68.9293 69.0677 68.9958 69.137 69.0789 69.18C69.162 69.223 69.257 69.2374 69.349 69.2209C69.4411 69.2043 69.5252 69.1579 69.5881 69.0886C69.651 69.0194 69.6893 68.9313 69.697 68.8381ZM63.1351 64.1702C62.6486 63.5389 61.862 64.3255 62.3485 64.843C62.3924 64.8832 62.4411 64.918 62.4934 64.9465C62.8349 65.2777 63.5801 64.6877 63.1351 64.1702ZM63.7768 57.8671C63.5284 58.1051 63.5594 58.7572 63.9941 58.8089C64.0947 58.855 64.2076 58.867 64.3156 58.8429C64.4237 58.8189 64.5208 58.7601 64.5924 58.6757C64.6639 58.5913 64.7058 58.4858 64.7118 58.3753C64.7178 58.2648 64.6875 58.1554 64.6255 58.0637C64.5878 57.9898 64.5343 57.925 64.4689 57.8739C64.4035 57.8228 64.3278 57.7866 64.2469 57.7679C64.166 57.7491 64.0821 57.7483 64.0009 57.7654C63.9196 57.7826 63.8432 57.8173 63.7768 57.8671ZM65.5052 51.3673C65.3935 51.3123 65.2661 51.2978 65.1449 51.3262C65.0236 51.3546 64.916 51.4242 64.8403 51.5231C64.7646 51.622 64.7256 51.7441 64.7298 51.8685C64.734 51.993 64.7813 52.1121 64.8635 52.2056C64.8895 52.3103 64.9423 52.4063 65.0167 52.4844C65.0912 52.5624 65.1846 52.6197 65.2879 52.6507C65.3546 52.6593 65.4223 52.6547 65.4872 52.6369C65.552 52.6192 65.6127 52.5887 65.6657 52.5473C65.7186 52.5059 65.7628 52.4543 65.7957 52.3957C65.8286 52.337 65.8495 52.2724 65.8571 52.2056C65.8796 52.1036 65.8772 51.9978 65.8501 51.8969C65.8231 51.796 65.7723 51.7031 65.7019 51.626C65.6713 51.5181 65.6011 51.4257 65.5052 51.3673ZM61.7585 55.0208C62.0069 54.2239 60.6614 54.1411 60.6614 54.8863C60.6638 55.022 60.7174 55.1518 60.8114 55.2497C60.9055 55.3476 61.0331 55.4063 61.1686 55.4141C61.2969 55.425 61.4251 55.392 61.5323 55.3205C61.6394 55.2491 61.7192 55.1434 61.7585 55.0208ZM61.2514 95.303C61.6861 96.0586 62.6383 94.7027 61.5205 94.6303C61.3445 94.7441 61.0651 94.8373 61.2514 95.303ZM86.5157 98.9566C86.6213 98.9391 86.7199 98.8923 86.8 98.8214C86.8802 98.7506 86.9388 98.6585 86.9691 98.5559C86.9993 98.4532 87 98.3441 86.9711 98.2411C86.9422 98.138 86.8848 98.0452 86.8055 97.9733C86.288 97.4144 85.4186 98.9048 86.5157 98.9566ZM87.706 91.2044C87.8302 90.956 87.8302 90.6352 87.5197 90.5317C86.0293 90.304 86.8055 92.581 87.706 91.2044ZM85.2634 85.0876C85.1615 85.0617 85.0548 85.0617 84.9529 85.0876C83.359 86.195 86.7848 86.5469 85.2634 85.0876ZM89.0101 83.3902C89.3827 83.059 89.4034 82.2931 88.6789 82.3552C87.9544 82.4173 88.1407 83.9077 89.0101 83.3902ZM90.9455 87.2507C90.9359 87.1829 90.9114 87.1181 90.8738 87.0609C90.8363 87.0036 90.7865 86.9554 90.7282 86.9195C90.652 86.8656 90.561 86.8364 90.4676 86.8359C90.3743 86.8353 90.283 86.8635 90.2062 86.9166C90.1293 86.9697 90.0707 87.0451 90.0382 87.1327C90.0057 87.2202 90.0009 87.3156 90.0244 87.406C90.045 87.5281 90.1132 87.6371 90.2142 87.7089C90.3151 87.7807 90.4404 87.8095 90.5626 87.7889C90.6847 87.7683 90.7937 87.7001 90.8655 87.5991C90.9373 87.4982 90.9661 87.3729 90.9455 87.2507ZM93.9056 90.4178C94.0062 90.3931 94.096 90.3363 94.1613 90.256C94.2267 90.1757 94.2641 90.0763 94.2679 89.9728C94.2994 89.8643 94.2866 89.7478 94.2323 89.6488C94.178 89.5498 94.0865 89.4765 93.9781 89.4449C93.8697 89.4134 93.7531 89.4262 93.6541 89.4805C93.5551 89.5349 93.4818 89.6263 93.4502 89.7347C93.295 89.89 93.3778 90.5524 93.9056 90.4178ZM93.0362 95.2823C92.9311 95.3308 92.8467 95.4152 92.7982 95.5204C92.1772 97.6318 94.9406 95.3134 93.0362 95.2823ZM100.54 95.6756C100.525 95.5622 100.47 95.4579 100.384 95.3818C100.299 95.3058 100.189 95.2631 100.074 95.2616C98.3975 95.7274 100.25 97.2902 100.54 95.6756ZM102.041 89.6726C102.486 89.8796 102.848 88.9999 102.32 88.7618C102.03 88.5341 101.409 89.0413 101.792 89.5484C101.856 89.6203 101.945 89.6648 102.041 89.6726ZM105.974 91.3286C106.439 91.3286 106.74 90.2936 105.974 90.2936C105.756 90.2936 105.518 90.4178 105.467 90.8111C105.46 90.8797 105.469 90.9489 105.492 91.0137C105.516 91.0786 105.553 91.1377 105.601 91.1869C105.649 91.2361 105.707 91.2743 105.772 91.2987C105.836 91.3232 105.905 91.3334 105.974 91.3286ZM91.2767 105.632C91.414 105.619 91.5402 105.551 91.6275 105.444C91.7148 105.337 91.7562 105.2 91.7425 105.063C91.7288 104.926 91.6611 104.8 91.5543 104.712C91.4476 104.625 91.3105 104.584 91.1732 104.597C91.036 104.611 90.9098 104.679 90.8225 104.785C90.7351 104.892 90.6938 105.029 90.7075 105.167C90.7212 105.304 90.7889 105.43 90.8956 105.517C91.0024 105.605 91.1395 105.646 91.2767 105.632ZM86.6917 111.511C87.1367 111.873 88.0061 111.18 87.5093 110.559C87.1678 109.969 86.081 110.807 86.6917 111.511ZM92.7671 113.043C92.8762 112.971 92.9573 112.864 92.9968 112.74C93.0364 112.616 93.032 112.481 92.9845 112.36C92.9845 112.06 92.2807 111.594 92.084 112.267C92.0213 112.365 91.9923 112.481 92.0012 112.597C92.0102 112.714 92.0567 112.824 92.1338 112.912C92.2109 112.999 92.3143 113.059 92.4285 113.083C92.5428 113.107 92.6616 113.093 92.7671 113.043ZM85.9775 104.101C85.8533 104.028 85.8016 104.018 85.4911 104.101C85.1806 104.183 85.1495 104.546 85.4911 104.856C85.8326 105.167 86.7331 104.535 85.9775 104.101ZM123.103 73.7647C123.129 73.5987 123.113 73.429 123.059 73.2702C123.004 73.1114 122.912 72.9683 122.79 72.8532C122.667 72.738 122.519 72.6544 122.357 72.6094C122.195 72.5645 122.025 72.5596 121.861 72.5951C121.653 72.6746 121.483 72.8299 121.385 73.0298C121.302 73.1093 121.239 73.2065 121.199 73.3141C121.16 73.4217 121.146 73.5368 121.157 73.6508C120.867 74.7997 122.824 75.1826 123.103 73.7647ZM125.701 77.1595C126.922 78.0185 128.444 76.228 127.636 75.1619C127.445 74.8919 127.168 74.6954 126.849 74.605C126.531 74.5146 126.192 74.5359 125.887 74.6651C125.028 75.1205 124.666 76.642 125.701 77.1595ZM126.684 82.9969C127.346 84.4769 129.789 82.1896 128.164 81.1649C127.098 80.4818 126.167 82.1378 126.684 82.9969ZM123.641 88.4617C123.823 88.482 124.008 88.4638 124.182 88.4081C124.357 88.3524 124.518 88.2605 124.655 88.1384C124.791 88.0164 124.901 87.8668 124.976 87.6996C125.051 87.5324 125.09 87.3512 125.09 87.1679C125.566 85.9052 124.179 85.16 123.341 85.367C122.068 85.6775 122.378 88.6169 123.641 88.4617ZM118.083 89.921C118.296 90.0855 118.557 90.1747 118.825 90.1745C119.094 90.1743 119.355 90.0848 119.567 89.92C119.78 89.7552 119.931 89.5245 119.998 89.2643C120.064 89.004 120.043 88.7289 119.936 88.4824C119.346 87.1058 117.452 87.6751 117.69 89.3C117.769 89.5359 117.904 89.749 118.083 89.921ZM114.885 85.1186C114.757 85.105 114.627 85.1183 114.504 85.1575C114.381 85.1967 114.268 85.261 114.171 85.3463C113.633 85.8224 113.622 87.1369 114.44 87.2818C115.475 87.7061 116.427 86.0708 115.547 85.3877C115.355 85.2404 115.126 85.1474 114.885 85.1186Z" fill="black"/>
<path d="M112.246 154.495C106.771 153.874 100.965 153.398 95.5412 154.702L86.7747 135.192C88.8447 132.149 90.1281 127.388 91.0079 123.227C95.4687 123.848 99.9606 122.099 98.3874 117.918C97.4456 115.465 95.9034 112.95 95.1686 110.424C94.4043 107.643 94.1036 104.754 94.2785 101.875C94.7951 102.079 95.3393 102.205 95.8931 102.248C97.8803 102.382 99.4121 101.213 100.851 100.023C104.216 97.1845 106.988 93.7093 109.007 89.7968C108.786 89.2544 108.527 88.7286 108.23 88.2236C109.159 87.8952 110.029 87.42 110.807 86.816C111.201 92.0945 115.827 95.3547 119.263 94.7337C124.076 93.8747 127.191 90.7179 130.193 86.8263C131.665 85.0859 132.638 82.9792 133.008 80.7302C133.474 76.9628 132.843 71.6843 129.179 69.635C128.239 69.1231 127.192 68.8429 126.122 68.8177C125.053 68.7925 123.993 69.023 123.031 69.4901C120.761 70.4491 118.954 72.2529 117.99 74.5202C116.189 71.6636 109.866 73.6094 111.573 79.6952C110.4 80.14 109.392 80.935 108.686 81.9722C108.273 82.5584 107.817 83.112 107.319 83.6282C106.905 84.0008 106.378 84.2078 105.943 84.5597C105.86 84.4941 105.787 84.4175 105.726 84.332H105.591C102.52 86.158 99.6567 88.3132 97.0523 90.7593C94.5993 85.6878 90.4904 78.9189 85.9053 75.9899C85.8432 75.0273 85.7604 73.9199 85.7708 73.9199C87.1059 73.154 88.8758 73.0091 89.445 69.7799C89.8453 67.1836 89.6972 64.5323 89.0103 61.9967C91.8566 60.9617 92.4155 56.9666 91.6496 57.7946C91.2854 58.2476 90.7716 58.5558 90.2006 58.664C90.9978 57.6713 91.4069 56.4226 91.3517 55.1506C91.2965 53.8786 90.7807 52.6701 89.9004 51.7502C89.8638 51.7055 89.8139 51.6737 89.7579 51.6596C89.7019 51.6455 89.6428 51.6498 89.5894 51.6719C89.536 51.6939 89.4911 51.7326 89.4614 51.7821C89.4317 51.8316 89.4187 51.8894 89.4243 51.9468C89.5427 52.6121 89.4105 53.2977 89.053 53.8711C88.6956 54.4446 88.1383 54.8652 87.4889 55.0518V53.903C87.4907 53.8605 87.478 53.8187 87.4528 53.7845C87.4276 53.7502 87.3915 53.7256 87.3504 53.7148C87.3093 53.7039 87.2658 53.7074 87.2269 53.7247C87.1881 53.742 87.1564 53.772 87.137 53.8099C86.8589 54.2824 86.4897 54.695 86.0508 55.0237C85.612 55.3524 85.1122 55.5906 84.5805 55.7246C84.7238 55.2308 84.8412 54.7299 84.9324 54.2238C84.9374 54.1694 84.9275 54.1147 84.9037 54.0655C84.8799 54.0163 84.8431 53.9745 84.7973 53.9447C84.7515 53.9149 84.6984 53.8981 84.6438 53.8962C84.5892 53.8944 84.5351 53.9074 84.4874 53.934L82.1276 55.3624C82.1276 55.3624 82.5002 54.4102 81.372 54.493C81.372 54.493 77.6978 57.9085 76.3833 57.836C75.4415 57.836 75.0378 59.5541 76.5386 60.941C73.7751 63.011 74.5824 68.6725 77.2527 70.5665C76.58 71.6015 76.4765 71.7153 76.6214 71.7464C76.9919 71.8693 77.3798 71.9322 77.7702 71.9327C77.3326 72.0519 76.9144 72.2331 76.5282 72.4709C73.8761 69.2066 71.0024 66.1288 67.9274 63.2594C67.6893 55.9212 67.4306 49.1627 66.7889 48.9247C66.613 48.8639 66.4332 48.8155 66.2507 48.7798C66.8613 46.7926 66.2507 43.967 64.1807 43.0873C71.7155 34.7038 72.6987 34.4554 72.3261 32.9029C73.682 33.7619 75.4311 32.789 76.2695 31.6505C79.8609 30.3257 79.2606 22.025 78.1532 23.1532C77.7392 23.5775 78.0393 25.1093 75.7416 25.1714C74.4479 25.1714 73.061 24.7263 72.3779 25.3266C69.7904 25.4612 68.8175 29.6943 70.0802 31.4021C69.663 31.484 69.268 31.6533 68.921 31.8989L61.6035 41.4002C61.3344 41.4002 60.1545 40.6757 59.844 41.8556C59.7786 42.1032 59.7786 42.3635 59.844 42.6111C59.5369 42.497 59.1989 42.497 58.8918 42.6111C58.6699 42.6757 58.4759 42.8127 58.3409 43.0002C58.2058 43.1878 58.1374 43.4152 58.1466 43.6461C58.1399 43.8169 58.183 43.986 58.2708 44.1326C58.1201 44.1476 57.9789 44.2129 57.8699 44.3181C57.761 44.4233 57.6907 44.5621 57.6705 44.7122C57.635 44.9084 57.6425 45.11 57.6925 45.303C57.7426 45.496 57.8339 45.6758 57.9603 45.83L49.2974 55.2589C49.2974 55.2589 48.0864 56.594 48.7385 57.2461C48.7385 57.2461 49.3698 57.8774 50.8085 56.4387L60.5478 47.4032C60.5497 47.7098 60.6332 48.0104 60.7896 48.2741C60.946 48.5379 61.1698 48.7552 61.4379 48.9039C61.178 48.9127 60.9188 48.9369 60.6617 48.9764C60.5996 48.9764 60.6617 49.0799 60.6617 49.0799C66.5922 48.9039 66.7578 49.1938 66.7889 49.1834C66.8717 51.4811 67.7411 60.8272 67.6479 63.1973C67.6437 63.2213 67.6437 63.2458 67.6479 63.2698C67.6479 63.4975 72.5021 68.1032 76.2695 72.5847C75.0602 73.5121 74.0589 74.6826 73.3301 76.0209C70.4424 80.8026 69.3971 95.3961 69.3453 100.209C68.5173 107.733 63.1353 109.431 61.4379 107.381C60.1862 105.976 58.7996 104.697 57.2979 103.562C56.2008 102.32 54.4517 100.592 53.0855 101.078C55.4039 98.9048 59.4921 97.9733 61.9865 92.9639C65.9712 84.9426 65.7539 74.1994 65.3399 78.8258C61.8815 74.7838 59.6092 69.8636 58.7744 64.61C57.9396 59.3563 58.5749 53.9741 60.6099 49.0592C60.6099 48.9557 60.465 48.8729 60.4236 48.9868C52.9095 66.0436 65.2053 79.0846 65.2571 79.1881C64.9688 81.8959 64.4423 84.5732 63.6839 87.1886C60.8583 97.2902 58.2398 96.6589 53.4581 100.302C52.7723 100.733 52.2257 101.353 51.8842 102.088C51.5427 102.822 51.4207 103.64 51.533 104.442C37.9641 109.617 40.6965 121.333 40.6965 121.333L44.3294 143.979C33.6068 148.202 23.0187 152.745 12.6066 157.693C12.5342 157.693 12.5549 157.879 12.6584 157.869C20.3898 157.227 27.7901 159.225 34.6004 162.64C32.6987 163.13 30.8399 163.774 29.0424 164.565C27.2519 165.269 25.482 166.045 23.7432 166.873C20.0364 168.662 16.4755 170.738 13.0931 173.083C12.9482 173.083 13.0103 173.321 13.0931 173.29C18.9926 172.255 23.3499 171.51 29.0114 172.09C23.4534 175.081 12.1823 181.332 12.0891 181.332L12.7619 183.909H56.708C56.708 183.909 57.536 180.742 59.8647 184.323C59.8647 184.323 78.1532 186.983 98.522 201.784V198.793C98.522 198.793 84.032 186.052 58.571 181.456C66.0747 181.084 73.9614 179.925 81.341 182.15C92.6742 185.586 100.758 191.465 101.099 191.196C114.016 179.283 109.534 184.013 122.027 172.876C123.713 173.629 125.441 174.285 127.202 174.843C125.753 175.795 113.995 183.682 98.8946 198.648L99.0602 201.804C99.0602 201.804 115.072 184.303 127.347 176.757C127.347 176.757 127.347 174.688 127.285 174.688C125.598 174.035 123.879 173.311 122.11 172.804C125.711 169.616 127.078 169.316 126.519 169.078C124.219 167.916 121.839 166.92 119.398 166.097C122.669 163.437 129.634 158.107 129.468 158.045C122.658 155.602 122.13 155.623 112.246 154.495ZM72.1398 25.5647C72.0032 25.7593 71.9186 25.9854 71.8938 26.2218C71.869 26.4582 71.9049 26.697 71.9982 26.9157C72.0915 27.1343 72.239 27.3256 72.4267 27.4713C72.6145 27.617 72.8364 27.7125 73.0713 27.7485C75.0068 27.7485 72.8126 28.887 72.7298 29.1251C72.7013 29.25 72.7167 29.3808 72.7732 29.4958C72.8297 29.6107 72.924 29.7027 73.0403 29.7565C73.6302 30.0359 74.1374 29.4563 74.6342 29.3425C74.9447 29.27 75.338 29.4149 75.369 29.7254C75.4001 30.0359 74.955 30.305 74.7998 30.6466C74.7373 30.8081 74.7332 30.9864 74.7879 31.1507C74.8427 31.3151 74.953 31.4552 75.0999 31.547C75.2798 31.659 75.4883 31.7165 75.7002 31.7126C75.3134 32.2348 74.7595 32.6089 74.1306 32.7727C73.5017 32.9365 72.8358 32.8802 72.2433 32.613C72.135 32.2308 71.9019 31.8959 71.5812 31.6614C71.2604 31.427 70.8705 31.3065 70.4735 31.3193C69.6144 30.481 69.0038 26.6308 72.1398 25.5647ZM61.1585 41.5037C61.2741 41.5409 61.3915 41.5719 61.5104 41.5968C62.0279 41.8763 61.9865 42.725 61.9554 43.0148C61.6139 43.0148 61.5 43.4081 61.4586 43.6772C60.9722 43.5427 60.7755 43.5944 60.4236 43.0769C60.352 42.9867 60.2896 42.8897 60.2373 42.7871C59.7716 41.9798 60.1442 41.1518 61.1585 41.5037ZM58.9953 42.7871C59.3541 42.7246 59.7232 42.7984 60.0303 42.9941C60.1497 43.2577 60.3436 43.4806 60.5883 43.6351C60.833 43.7896 61.1175 43.869 61.4069 43.8635C61.3932 44.0257 61.4181 44.1888 61.4793 44.3396C61.3854 44.5242 61.2327 44.6723 61.0453 44.7604C60.8578 44.8484 60.6464 44.8716 60.4443 44.8261C60.1057 44.8597 59.7639 44.8177 59.4435 44.7032C59.1231 44.5886 58.8322 44.4043 58.5917 44.1636C58.5023 44.0542 58.4409 43.9247 58.4129 43.7862C58.3848 43.6478 58.3909 43.5046 58.4307 43.369C58.4704 43.2334 58.5426 43.1096 58.641 43.0082C58.7394 42.9068 58.861 42.8309 58.9953 42.7871ZM58.1673 45.7782C58.0001 45.5843 57.9019 45.3405 57.8879 45.0848C57.8879 44.7433 58.0121 44.2361 58.4571 44.3706C58.6997 44.6072 58.9886 44.7909 59.3057 44.9103C59.6227 45.0296 59.9611 45.082 60.2994 45.0641C60.2317 45.2706 60.1167 45.4585 59.9636 45.6128C59.8105 45.7671 59.6235 45.8835 59.4175 45.9528C59.2115 46.0222 58.9922 46.0425 58.7769 46.0122C58.5617 45.9819 58.3565 45.9018 58.1777 45.7782H58.1673ZM66.023 48.6969L61.7381 48.8108C61.4331 48.6916 61.1671 48.4902 60.9698 48.2289C60.7724 47.9676 60.6514 47.6567 60.6203 47.3307L62.4626 45.6334C62.8662 46.6684 64.2842 46.6684 63.8495 46.4717C63.4148 46.2751 62.7524 46.1612 62.6075 45.3746C62.5927 45.1951 62.6484 45.017 62.7627 44.8778C62.4125 44.7563 62.0815 44.5855 61.7795 44.3706C61.6409 44.1797 61.5818 43.9425 61.6147 43.709C61.6475 43.4754 61.7696 43.2636 61.9554 43.1183H63.9426C66.1472 44.3706 66.2403 46.3785 66.0333 48.6969H66.023ZM95.6964 159.214C95.9316 160.005 96.2186 160.78 96.5555 161.533C95.5459 162.498 94.3623 163.264 93.0675 163.789C91.722 162.216 92.0325 162.557 91.722 162.185C93.1548 161.348 94.4881 160.351 95.6964 159.214ZM96.2864 166.345C95.4687 167.091 92.1464 169.906 91.1114 170.485C90.6974 170.185 91.1114 169.192 91.2459 168.86C92.0739 167.432 92.6742 167.546 92.7467 164.006C93.999 163.913 96.4106 162.071 96.8867 161.46C97.5167 162.59 98.0166 163.788 98.3771 165.031C98.2011 165.145 97.9734 165.29 97.8285 165.404C97.6624 164.969 97.4167 164.569 97.104 164.224C96.9488 164.037 96.7314 163.748 96.452 163.882C96.1725 164.017 96.0794 164.544 96.0483 164.793C96.0062 165.319 96.0768 165.848 96.2553 166.345H96.2864ZM97.8285 120.743C96.7935 123.093 93.3573 123.041 91.1217 122.71C91.7945 119.439 92.105 117.141 92.1567 116.5C94.5476 116.769 98.0976 118.135 97.8285 120.743ZM112.319 74.8824C113.602 73.3196 116.583 72.6779 117.752 74.6961C117.761 74.715 117.773 74.7315 117.79 74.7441C117.806 74.7568 117.825 74.7652 117.845 74.7686C117.853 74.7838 117.865 74.7966 117.88 74.8055C117.894 74.8144 117.911 74.8191 117.928 74.8191C117.945 74.8191 117.962 74.8144 117.977 74.8055C117.991 74.7966 118.003 74.7838 118.011 74.7686C121.737 67.2027 132.832 66.0953 132.687 79.395C132.687 83.535 129.955 86.7953 127.274 89.6726C116.924 100.747 108.168 89.9624 111.873 82.1792C111.889 82.1392 111.889 82.095 111.873 82.055C112.441 81.7382 113.062 81.5278 113.705 81.434C113.24 83.68 117.235 83.8041 117.556 81.1753C117.607 80.6529 117.478 80.1287 117.19 79.69C116.901 79.2512 116.472 78.9243 115.972 78.7637C115.519 78.6545 115.041 78.7294 114.644 78.972C114.246 79.2145 113.961 79.6048 113.85 80.0574C113.217 79.6268 112.443 79.4563 111.687 79.5813C111.511 77.9564 111.252 76.2486 112.37 74.8824H112.319ZM113.923 80.192C114.045 79.779 114.326 79.4314 114.705 79.2257C115.083 79.02 115.528 78.9729 115.941 79.0949C116.308 79.2216 116.629 79.4546 116.863 79.7643C117.097 80.0739 117.234 80.4462 117.255 80.8337C117.328 82.9037 113.685 83.7628 113.799 81.4444H113.902C113.985 81.4444 114.099 81.3098 114.109 81.2787C114.191 81.1031 114.221 80.9082 114.197 80.7161C114.174 80.524 114.096 80.3424 113.975 80.192H113.923ZM108.52 82.3345C109.186 81.3436 110.09 80.5358 111.149 79.985C111.946 79.6331 114.254 79.6642 113.85 81.1856C113.096 81.2189 112.371 81.4906 111.78 81.9619C111.428 81.9619 110.673 84.5804 110.745 86.5469C109.907 87.1161 108.986 87.5819 108.147 88.1408C105.032 82.2517 105.353 86.3606 108.572 82.3345H108.52ZM88.8551 62.0381C90.1695 72.0983 88.4307 72.2432 85.6052 73.6301C85.5826 73.6418 85.5638 73.6597 85.551 73.6817C85.5381 73.7037 85.5318 73.7289 85.5327 73.7543C85.5216 74.916 85.5804 76.0773 85.7087 77.2319C84.6348 78.4799 83.4726 79.649 82.2311 80.7302C80.1285 79.2001 78.5925 77.0162 77.8634 74.5202C78.0056 73.6443 78.0334 72.7537 77.9462 71.8706C78.5879 71.8706 79.2606 71.7775 79.8195 71.7464C79.9334 71.7464 79.9851 71.5084 79.9748 71.4876C79.5901 70.4043 79.0941 69.3637 78.4947 68.3826C78.4947 68.4861 78.2877 68.7449 78.236 68.8484C78.2265 68.8429 78.2158 68.8401 78.2049 68.8401C78.194 68.8401 78.1833 68.8429 78.1739 68.8484C76.3212 68.8484 76.0004 66.1574 77.6667 66.0643C78.7017 66.0022 78.7017 67.151 79.4573 67.4615C79.467 67.4661 79.4776 67.4685 79.4883 67.4685C79.4991 67.4685 79.5097 67.4661 79.5194 67.4615C80.0265 67.5857 80.4509 67.1303 80.5544 66.5921C80.6889 65.6916 79.7781 64.5221 80.7303 62.8454C84.2183 63.5182 86.7126 62.5763 88.8654 62.0381H88.8551ZM76.6421 60.9306C77.7765 61.8061 79.0918 62.4177 80.4923 62.7212C79.6746 63.8907 80.3991 65.4122 80.3991 66.116C80.3854 66.3768 80.2871 66.626 80.119 66.8258C79.9509 67.0257 79.7222 67.1653 79.4676 67.2234C79.0019 66.7784 78.8673 66.116 78.2049 65.8676C77.9181 65.7663 77.6063 65.7599 77.3156 65.8493C77.0248 65.9388 76.7706 66.1194 76.5903 66.3644C76.4405 66.6337 76.3654 66.9381 76.3728 67.2462C76.3802 67.5543 76.4698 67.8548 76.6323 68.1166C76.7949 68.3784 77.0245 68.5919 77.2974 68.7352C77.5702 68.8784 77.8764 68.9461 78.1842 68.9312C77.9358 69.3969 77.6564 69.8316 77.3769 70.2767C76.1318 69.0788 75.3693 67.4658 75.2339 65.7433C75.0984 64.0208 75.5995 62.3084 76.6421 60.9306ZM76.8077 71.529C77.4449 70.6909 78.0225 69.809 78.5361 68.8898C78.681 69.2624 79.4469 70.9598 79.6953 71.4048C79.1675 71.4152 77.232 71.4669 76.8077 71.529ZM77.7392 72.15C77.7392 72.3984 77.4908 74.4063 77.7392 74.5512C78.0019 75.8692 78.5254 77.1213 79.279 78.234C80.0327 79.3467 81.0012 80.2974 82.1276 81.0303C83.5789 79.9995 84.8545 78.7413 85.9053 77.3044C85.9236 77.2938 85.9389 77.2788 85.9498 77.2607C85.9606 77.2425 85.9667 77.222 85.9674 77.2008C85.9674 77.0145 85.9674 76.6316 85.9053 76.1658C90.8112 80.5646 92.5914 82.4897 96.8142 90.8318C96.8867 90.9663 97.0523 90.8939 97.073 90.7697C99.9503 88.6997 102.538 86.2261 105.612 84.3941C106.647 86.195 107.682 87.9131 108.717 89.7243C106.274 94.1852 101.151 100.685 97.5594 101.803C95.0547 102.579 92.2188 100.488 91.4115 99.7328L91.3494 99.7949C92.1179 100.673 93.0631 101.378 94.1232 101.865C93.2642 105.808 94.6821 110.248 96.0897 113.871C96.7935 115.672 98.3771 118.011 98.0459 120.081C97.7768 117.204 94.1439 115.247 80.8545 114.513L81.7653 107.64C82.407 104.318 81.0822 100.043 81.4031 92.2704C81.8688 81.2477 84.9635 80.2334 87.2094 77.5734C87.2176 77.566 87.2242 77.557 87.2289 77.5469C87.2335 77.5369 87.2362 77.5261 87.2367 77.515C87.2371 77.504 87.2354 77.4929 87.2317 77.4825C87.2279 77.4721 87.2221 77.4626 87.2146 77.4544C87.2071 77.4463 87.1981 77.4397 87.1881 77.435C87.1781 77.4303 87.1672 77.4277 87.1562 77.4272C87.1451 77.4267 87.1341 77.4284 87.1237 77.4322C87.1133 77.436 87.1037 77.4418 87.0956 77.4492C83.7318 80.4818 81.9206 82.1895 81.2271 90.4074C80.6165 97.4454 81.8688 102.931 81.5894 106.688L69.5627 100.281C70.3803 87.9131 70.6494 75.3068 77.7392 72.15ZM52.3403 101.855C53.7893 100.581 55.1658 101.855 56.3871 103.055C54.8329 103.371 53.3039 103.8 51.8124 104.339C51.7045 103.912 51.696 103.466 51.7875 103.035C51.879 102.605 52.0681 102.201 52.3403 101.855ZM55.2279 123.341C59.8751 122.906 68.3207 119.688 68.3207 119.688C68.3207 119.688 68.6312 110.714 69.0038 110.062C69.3764 109.41 69.3143 110.062 69.3143 110.062C67.4513 137.365 74.6756 145.159 74.6756 145.159L84.8703 157.32C84.1398 157.56 83.4244 157.843 82.7279 158.169C80.0971 153.406 76.7139 149.1 72.7091 145.418C70.8089 143.654 68.7273 142.096 66.4991 140.771C64.2738 139.477 61.7277 138.256 59.0988 138.452C59.0264 138.328 59.2955 138.255 54.0377 140.222L55.2279 123.341ZM13.3725 173.021C16.69 170.858 20.1476 168.919 23.7225 167.215C25.6373 166.304 27.5934 165.466 29.5703 164.71C31.3401 164.027 33.2238 163.551 34.9523 162.795C43.48 167.265 51.1001 173.284 57.4221 180.546C51.6882 176.406 44.319 174.884 37.5501 173.301C28.6388 171.2 23.6501 170.941 13.3725 173.063V173.021ZM12.8757 181.301C12.9792 181.249 29.4978 172.245 29.5806 172.141C35.2421 172.793 50.8292 176.074 57.8258 181.322C56.9253 181.322 39.3303 180.421 12.8757 181.353V181.301ZM13.1138 157.589C23.381 152.759 33.7965 148.274 44.3604 144.134L44.94 147.715L46.3476 147.767C46.5086 148.693 46.7689 149.599 47.1239 150.468C46.6064 150.468 46.2752 151.503 45.354 152.538C44.72 153.112 44.026 153.615 43.284 154.039C42.3732 154.702 42.6216 155.416 43.6152 155.737C45.3437 156.285 47.631 155.261 49.2146 154.702C49.3975 154.13 49.6223 153.573 49.8873 153.035C50.4773 152.476 50.5808 154.215 50.5601 154.474C51.021 154.557 51.4909 154.577 51.9573 154.536C52.2049 153.108 52.145 151.644 51.7814 150.241H51.564C51.6847 149.502 51.747 148.754 51.7503 148.005L53.4477 148.067L53.9859 140.512C58.9953 138.69 58.9953 138.783 59.0885 138.69C64.4084 138.804 69.4385 142.83 73.0817 146.308C76.7498 149.87 79.9056 153.925 82.4588 158.355C78.3188 160.425 74.955 163.892 71.5706 166.915C66.6114 171.163 62.1183 175.926 58.1673 181.125C47.6103 168.705 29.3529 155.643 13.1138 157.641V157.589ZM49.1939 154.484C47.8069 154.946 46.3841 155.292 44.94 155.519C44.4846 155.519 42.2387 155.519 43.3668 154.153C44.9755 153.434 46.267 152.154 46.9997 150.551C48.5702 150.785 50.1717 150.7 51.7089 150.303C51.7089 151.234 51.8228 150.541 51.7917 154.329C51.4873 154.325 51.183 154.343 50.8809 154.381C50.9948 152.28 49.6182 152.031 49.1939 154.567V154.484ZM51.3881 150.21C50.0445 150.401 48.6877 150.484 47.3309 150.458C47.3309 150.458 46.8755 148.647 46.6167 147.767L51.5847 147.943C51.4709 148.761 51.3777 150.272 51.3881 150.293V150.21ZM126.156 169.181C121.716 172.028 118.187 176.116 114.047 179.345C109.388 182.839 105.023 186.709 100.996 190.916C94.7213 187.179 88.0623 184.129 81.134 181.819C75.3587 180.049 64.2221 180.308 58.6641 181.229C66.023 178.124 71.1359 177.689 78.4637 178.465C85.7915 179.241 90.8112 180.401 97.3317 184.675C97.7664 184.965 104.887 177.772 119.222 166.118C121.582 167.132 123.859 168.229 126.156 169.264V169.181ZM129.003 158.107C118.187 166.49 107.63 175.153 97.6112 184.468C97.6059 184.446 97.5957 184.425 97.5814 184.407C97.5671 184.389 97.549 184.375 97.5284 184.365C91.7427 180.515 85.305 178.9 78.4637 178.155C71.2187 177.389 65.6814 177.803 58.3847 181.084C62.3104 176.221 66.6008 171.664 71.2187 167.453C78.5775 160.725 80.9063 158.852 85.067 157.486L89.5796 162.889C90.2436 162.759 90.8829 162.525 91.4736 162.195L92.9019 163.758C92.8502 163.758 92.5914 163.82 92.5914 163.913C92.3223 167.339 92.4051 166.449 91.0389 168.85C90.8358 169.14 90.7393 169.491 90.7657 169.844C90.7921 170.197 90.9399 170.529 91.1838 170.786C91.2459 170.786 96.5762 166.397 96.5555 166.366C96.5348 166.335 95.9241 164.172 96.6383 164.131C97.1661 164.131 97.8285 165.538 97.8803 165.517C98.1213 165.419 98.345 165.283 98.5427 165.114C98.2536 163.714 97.7061 162.38 96.9281 161.181C96.9281 161.181 96.7314 161.264 96.7004 161.295C96.4416 160.508 96.1725 159.721 95.8724 158.945C96.5658 158.303 97.0005 157.848 97.0005 157.848L95.6136 154.743C101.126 153.936 106.725 153.904 112.246 154.65C121.706 155.861 122.565 155.85 129.003 158.19V158.107Z" fill="black"/>
<path d="M170.051 110.683V110.621H169.978C169.954 110.617 169.929 110.623 169.908 110.636C169.887 110.649 169.871 110.67 169.864 110.693L157.579 117.566C157.02 120.422 157.682 120.247 156.709 130.959C155.819 132.056 155.26 133.629 152.093 134.809C150.319 135.334 148.588 135.999 146.918 136.796C144.745 138.028 144.176 140.305 146.359 141.971C146.313 142.004 146.272 142.042 146.235 142.085L145.925 142.261C145.883 142.29 145.851 142.332 145.833 142.379C145.815 142.427 145.811 142.478 145.822 142.528C145.833 142.578 145.858 142.623 145.895 142.659C145.932 142.694 145.978 142.718 146.028 142.727C146.163 142.851 146.277 142.789 146.401 142.727C146.406 142.799 146.406 142.872 146.401 142.944C146.401 143.004 146.425 143.062 146.468 143.105C146.51 143.148 146.568 143.172 146.629 143.172C146.689 143.172 146.747 143.148 146.79 143.105C146.832 143.062 146.856 143.004 146.856 142.944V142.509L147.043 142.406C148.585 143.296 150.8 143.72 151.265 145.728C151.607 147.219 150.448 149.04 148.978 150.086C148.978 150.086 148.802 148.626 148.792 148.606C148.719 148.399 148.378 148.399 148.388 148.657V149.144L148.005 148.502C147.969 148.46 147.919 148.432 147.863 148.422C147.808 148.413 147.752 148.424 147.704 148.452C147.656 148.481 147.619 148.525 147.6 148.578C147.582 148.63 147.582 148.688 147.601 148.74C147.871 149.32 148.129 149.899 148.409 150.479C144.662 152.549 143.317 147.943 140.967 145.997C141.267 144.403 141.34 144.434 141.278 144.29C141.286 144.258 141.289 144.224 141.285 144.191C141.281 144.158 141.27 144.127 141.254 144.098C141.238 144.069 141.216 144.044 141.19 144.023C141.163 144.003 141.134 143.988 141.102 143.979C141.07 143.97 141.036 143.968 141.003 143.972C140.971 143.976 140.939 143.986 140.91 144.003C140.881 144.019 140.856 144.041 140.835 144.067C140.815 144.093 140.8 144.123 140.791 144.155C140.719 144.331 140.667 144.517 140.605 144.704C140.543 144.89 140.532 144.807 140.481 145.004L140.367 144.662C140.353 144.611 140.32 144.568 140.274 144.542C140.228 144.516 140.174 144.509 140.124 144.522C140.073 144.536 140.03 144.57 140.003 144.615C139.977 144.661 139.97 144.715 139.984 144.766C139.932 144.869 139.984 145.035 140.077 145.376C139.578 145.061 139.043 144.807 138.483 144.621C137.027 144.194 135.466 144.304 134.084 144.931C134.002 144.538 133.939 144.134 133.888 143.741C133.836 143.348 133.515 143.555 133.463 143.741C133.398 143.769 133.347 143.821 133.318 143.886C133.246 143.782 133.163 143.617 132.967 143.7C132.934 143.689 132.899 143.687 132.866 143.696C132.833 143.704 132.803 143.722 132.78 143.748C132.757 143.773 132.742 143.804 132.736 143.838C132.731 143.872 132.735 143.906 132.749 143.938C133.008 144.352 133.256 144.766 133.505 145.18C131.765 146.097 130.21 147.328 128.92 148.813C128.907 148.834 128.902 148.859 128.906 148.884C128.909 148.909 128.921 148.932 128.938 148.949C128.956 148.967 128.979 148.978 129.003 148.982C129.028 148.985 129.053 148.98 129.075 148.968C130.471 147.725 131.978 146.613 133.577 145.645C133.66 146.142 133.763 146.68 133.867 147.125C133.867 147.405 134.395 147.343 134.353 147.063C134.359 147.001 134.359 146.939 134.353 146.877C134.393 146.84 134.421 146.794 134.436 146.743L134.529 146.887C134.556 146.938 134.599 146.977 134.651 147.001C134.703 147.024 134.761 147.03 134.816 147.017C134.872 147.004 134.921 146.973 134.957 146.929C134.993 146.885 135.014 146.83 135.016 146.774V146.722C135.016 146.694 135.01 146.666 134.997 146.641C134.985 146.615 134.966 146.594 134.943 146.577C134.736 146.16 134.505 145.756 134.25 145.366C135.21 144.918 136.275 144.74 137.329 144.852C138.383 144.963 139.386 145.359 140.232 145.997V146.08C140.232 146.308 140.149 146.536 140.098 146.763C140.046 146.991 140.015 147.157 139.984 147.353C139.953 147.55 140.439 147.84 140.491 147.498V147.353C140.533 147.321 140.565 147.278 140.584 147.229L140.895 148.036C141.008 148.326 141.474 148.212 141.371 147.902C141.267 147.591 141.091 147.053 140.946 146.639C142.934 148.606 144.59 152.973 148.46 150.996C148.533 151.69 148.543 151.897 148.636 152.756C148.648 152.814 148.68 152.867 148.726 152.905C148.772 152.943 148.83 152.963 148.89 152.963C148.95 152.963 149.008 152.943 149.054 152.905C149.1 152.867 149.132 152.814 149.144 152.756C149.144 152.539 149.144 152.321 149.092 152.104C149.102 152.06 149.102 152.014 149.092 151.969C149.118 151.98 149.148 151.98 149.175 151.969C149.351 152.083 149.651 151.969 149.568 151.69C149.425 151.316 149.262 150.95 149.081 150.593C150.913 149.33 152.342 146.929 151.296 144.962C150.52 143.513 148.812 143.048 147.301 142.282C147.788 141.95 148.554 141.816 148.098 141.454C147.964 140.926 147.519 141.454 146.804 141.816V141.381C146.804 141.348 146.791 141.317 146.768 141.293C146.745 141.27 146.713 141.257 146.68 141.257C146.647 141.257 146.616 141.27 146.592 141.293C146.569 141.317 146.556 141.348 146.556 141.381C146.556 141.526 146.504 141.661 146.473 141.806C144.559 140.398 145.035 138.338 147.001 137.189C148.968 136.041 151.358 135.616 153.46 134.747C154.236 134.397 154.936 133.897 155.519 133.275C156.102 132.653 156.555 131.922 156.854 131.124L171.23 124.004C171.258 124.01 171.287 124.007 171.312 123.993C171.337 123.98 171.356 123.958 171.365 123.931C171.158 122.989 170.154 110.745 170.051 110.683ZM164.213 120.909L156.968 130.907C157.175 129.023 158.003 119.915 157.713 117.649L164.234 120.909L169.906 110.963C170.142 115.268 170.594 119.558 171.262 123.817L164.213 120.909ZM19.4581 132.159L18.3299 130.286L17.9159 132.325L16.0529 132.739L17.5226 133.784L17.0879 135.772L18.8267 134.343L20.8657 135.275L19.9238 133.401L21.1658 131.87L19.4581 132.159ZM127.44 130.39L125.846 127.854L125.256 130.617L122.585 131.176L124.676 132.594L124.066 135.295L126.539 133.35L129.448 134.623L128.102 132.087L129.862 129.996L127.44 130.39ZM54.5342 21.3833C55.652 21.5696 57.0803 21.3212 57.7117 22.4701L57.4012 22.6874C57.3382 22.9749 57.3785 23.2754 57.515 23.5361C57.7056 23.9432 57.976 24.3078 58.3103 24.6083C58.6446 24.9088 59.0358 25.139 59.4608 25.2853L59.6989 25.2232C60.2888 25.6061 61.0961 25.8752 61.655 25.2749C62.2139 24.6746 61.8413 23.7224 61.8517 23.7017C63.0419 22.0561 60.5683 20.4829 60.5683 20.4829L60.2785 20.6899C59.1814 18.6199 62.1415 16.6327 59.554 13.0619C56.5421 8.92193 48.5209 10.8367 50.8186 17.8643C51.0509 18.7377 51.5214 19.5292 52.1775 20.1506C52.8336 20.772 53.6496 21.1988 54.5342 21.3833ZM58.5914 21.8698C57.2305 20.5126 55.763 19.2666 54.203 18.1438C54.6377 18.2473 54.8965 18.475 55.238 18.092V17.9471C55.6417 16.9121 55.8901 17.9989 56.4179 17.2123V16.9949C56.7077 16.5809 56.6663 16.9225 56.9458 16.8914C57.079 16.8997 57.2125 16.8821 57.3391 16.8397C57.6599 16.6948 57.5978 16.1773 58.1567 16.2394C58.4088 17.9581 58.8568 19.6423 59.4919 21.2591L58.5914 21.8698ZM61.5826 24.0329C61.666 24.2289 61.6927 24.4443 61.6598 24.6547C61.6268 24.8651 61.5355 25.0621 61.3963 25.2232C60.9616 25.6268 60.3613 25.3991 59.9473 25.13C60.5667 24.8895 61.1251 24.5148 61.5826 24.0329ZM60.1957 15.2665C60.6511 17.3365 58.9951 19.4065 60.0404 20.8555L59.6989 21.0935C58.7881 18.0817 57.7634 13.4345 58.0843 15.9806C57.1114 15.9185 57.3494 16.3118 57.1735 16.4567C56.9975 16.6016 56.5214 16.4567 56.2006 16.612C56.1074 16.612 56.2006 16.8293 56.1074 16.8707C55.4761 17.5331 55.6727 17.0467 55.1449 17.2226C54.9482 17.2951 54.9379 17.3468 54.8447 17.5124C54.7516 17.678 55.0931 17.8747 54.7516 18.061C54.7516 18.061 54.1823 17.9782 53.965 17.9678C51.895 16.3532 56.2834 20.3276 58.3016 22.1078L57.8876 22.3976C56.6767 19.9757 51.3257 23.0704 50.7565 15.8875C50.3011 9.92589 58.9951 9.64644 60.1957 15.2665ZM134.229 178.9C134.205 179.141 134.267 179.383 134.403 179.584C134.539 179.784 134.741 179.93 134.974 179.997C136.154 180.09 136.258 179.242 136.258 179.242L136.786 177.275L134.716 177.058L134.229 178.9ZM54.2858 5.27874C54.2858 5.12349 53.9857 5.14419 54.0064 5.27874C54.1237 6.40352 54.3104 7.52 54.5653 8.62178C54.6895 8.98404 55.3829 9.06684 54.2858 5.27874ZM59.9266 11.1368C60.3848 10.3241 60.7329 9.45393 60.9616 8.54934C60.9581 8.52227 60.9476 8.4966 60.931 8.47491C60.9145 8.45321 60.8925 8.43627 60.8673 8.42577C60.8421 8.41528 60.8146 8.41161 60.7875 8.41513C60.7605 8.41865 60.7348 8.42924 60.7132 8.44583C60.2082 9.23402 59.8212 10.0918 59.5643 10.9919C59.5022 11.1886 59.8334 11.3852 59.9266 11.1368ZM48.4484 11.5301C48.4711 11.5389 48.4957 11.5418 48.5198 11.5385C48.5439 11.5353 48.5669 11.526 48.5865 11.5116C48.606 11.4971 48.6217 11.478 48.6319 11.4559C48.6422 11.4338 48.6467 11.4095 48.6451 11.3852C47.9527 10.3185 47.1514 9.32647 46.2542 8.42514C46.1404 8.33199 45.9437 8.42514 46.0369 8.59074C46.4095 9.05649 47.9827 11.0644 48.4484 11.5301ZM43.9255 18.7855C47.372 18.3094 47.0305 17.7505 46.7924 17.7505C45.7574 17.8747 44.8259 18.2887 43.8427 18.4853C43.6357 18.5164 43.7288 18.8165 43.9255 18.7855ZM50.9221 22.8737C51.0152 22.7495 50.86 22.5632 50.7151 22.615C49.8935 23.1284 49.1116 23.7027 48.376 24.3331C48.2104 24.4676 48.376 24.7367 48.5933 24.6229C49.4109 24.0969 50.1892 23.5124 50.9221 22.8737ZM54.5342 23.857C54.3583 24.7264 54.3893 25.6475 54.2651 26.5273C54.2651 26.7446 54.5653 26.8481 54.6067 26.6204C54.8388 25.7189 54.9227 24.7855 54.8551 23.857C54.8551 23.8144 54.8382 23.7736 54.8081 23.7435C54.778 23.7135 54.7372 23.6966 54.6946 23.6966C54.6521 23.6966 54.6113 23.7135 54.5812 23.7435C54.5511 23.7736 54.5342 23.8144 54.5342 23.857ZM50.653 35.9872C50.9021 36.008 51.1529 35.9755 51.3885 35.8918C51.6241 35.8081 51.8392 35.6752 52.0194 35.5018C52.1996 35.3285 52.3408 35.1187 52.4336 34.8865C52.5263 34.6543 52.5685 34.405 52.5574 34.1552C52.3711 31.5988 48.7279 31.93 48.6347 34.0207C48.6607 34.5427 48.8832 35.0356 49.2576 35.4004C49.6319 35.7651 50.1304 35.9748 50.653 35.9872ZM52.1227 33.9172C52.1745 34.1312 52.1745 34.3544 52.1229 34.5685C52.0713 34.7825 51.9695 34.9812 51.8259 35.1481C51.6823 35.3149 51.501 35.4452 51.297 35.5282C51.0931 35.6111 50.8723 35.6443 50.653 35.6249C50.2361 35.6338 49.8305 35.4888 49.5136 35.2178C49.1967 34.9467 48.9907 34.5685 48.9349 34.1552C48.9573 33.7663 49.1195 33.3985 49.3918 33.1198C49.664 32.8411 50.0278 32.6702 50.4162 32.6387C50.8045 32.6072 51.1911 32.7171 51.5048 32.9483C51.8184 33.1795 52.0378 33.5162 52.1227 33.8965V33.9172ZM98.6149 57.1322C98.6977 57.3806 109.493 57.8464 111.873 57.7946C111.564 58.0844 111.343 58.4562 111.236 58.8667C111.13 59.2772 111.143 59.7094 111.273 60.113C111.583 60.8893 112.556 61.0445 113.281 61.148C117.162 61.6655 121.023 62.4418 125.318 61.5724C131.176 60.3925 128.071 54.5758 124.542 57.2564C124.673 56.4966 124.575 55.7148 124.26 55.0111C123.944 54.3075 123.426 53.7141 122.771 53.3071C122.116 52.9001 121.354 52.698 120.583 52.7267C119.813 52.7554 119.068 53.0137 118.445 53.4683C118.445 50.8291 114.533 48.6245 112.877 50.9947C113.302 47.2273 109.958 44.8571 106.346 45.5609C102.465 46.2958 101.772 50.7152 103.5 53.696C102.975 53.2712 102.326 53.0291 101.651 53.0063C100.976 52.9835 100.313 53.1814 99.7603 53.5699C99.2079 53.9584 98.7973 54.5163 98.5907 55.1591C98.384 55.802 98.3925 56.4947 98.6149 57.1322ZM118.652 53.7167C121.447 52.0504 124.459 53.7167 124.19 57.5566C124.19 57.5566 124.448 57.6601 124.469 57.6394C127.771 54.9898 130.462 60.0716 125.659 61.1687C121.757 62.0588 117.069 61.4792 113.063 60.7754C109.958 60.2269 112.298 56.1076 114.647 57.7222C114.823 57.8464 114.885 56.4284 116.055 56.4181C116.624 56.4181 117.4 56.6147 117.586 57.215C117.586 57.215 117.793 56.9459 117.773 56.8838C117.504 55.7246 117.493 54.4102 118.652 53.7167ZM112.442 51.3673C112.442 51.5743 112.763 51.4294 112.774 51.3673C114.647 48.935 117.949 51.0671 118.052 53.6546C117.641 53.9589 117.345 54.3941 117.213 54.8887C117.081 55.3834 117.122 55.9081 117.328 56.3767C116.293 55.6832 114.626 55.9834 114.512 57.4117C114.333 57.2555 114.125 57.1366 113.899 57.0618C113.673 56.9871 113.435 56.958 113.198 56.9763C112.961 56.9946 112.73 57.06 112.519 57.1685C112.307 57.277 112.119 57.4265 111.966 57.6083C107.826 57.0287 99.3394 57.0805 98.8943 56.8838C98.4493 56.6872 98.8943 55.0208 99.2048 54.524C99.4611 54.1858 99.7887 53.9082 100.164 53.711C100.54 53.5138 100.955 53.4018 101.379 53.383C101.803 53.3643 102.226 53.4391 102.617 53.6024C103.009 53.7656 103.36 54.0131 103.645 54.3274C103.811 54.4723 103.862 54.0583 103.852 54.0479C99.0496 43.0976 113.943 43.6979 112.494 51.3673H112.442ZM123.745 33.3479C123.554 32.0012 122.996 30.7332 122.13 29.684C118.176 26.0822 109.917 30.0566 114.047 37.964C114.506 38.6877 115.015 39.3793 115.568 40.034C116.5 41.3795 116.924 44.3914 117.121 46.0163C117.121 46.0575 117.137 46.097 117.166 46.1261C117.195 46.1552 117.235 46.1716 117.276 46.1716H120.246C120.733 46.1716 120.091 42.4663 120.702 40.7792C121.592 38.1917 124.438 36.4219 123.745 33.3479ZM117.431 28.7629C118.114 28.6194 118.819 28.6194 119.501 28.7629C120.212 30.6823 120.526 32.7263 120.423 34.7706C120.319 36.815 119.802 38.817 118.901 40.655H118.063C117.162 38.8173 116.643 36.8168 116.534 34.7733C116.426 32.7299 116.731 30.6856 117.431 28.7629ZM114.026 37.1257C112.794 34.0207 112.774 31.3193 115.558 29.5391C113.86 31.7437 114.264 37.5811 117.628 40.6654C117.152 40.6654 116.686 40.5205 116.21 40.4687C115.411 39.4023 114.682 38.2857 114.026 37.1257ZM119.998 45.9025C119.336 45.9749 118.694 45.9025 118.031 45.9025C117.369 45.9025 117.504 46.2647 117.162 44.1119C118.167 44.2722 119.19 44.2722 120.195 44.1119C120.211 44.715 120.145 45.3174 119.998 45.9025ZM120.195 43.8325C119.16 43.967 118.125 43.8325 117.09 43.936C116.862 42.8043 116.565 41.6878 116.2 40.5929C117.569 41.0586 119.05 41.0803 120.433 40.655C120.177 41.697 120.096 42.7744 120.195 43.8428V43.8325ZM120.578 40.3652C120.23 40.401 119.884 40.4563 119.543 40.5308C122.875 37.2602 123.031 31.547 121.416 29.4977C123.062 30.6466 124.117 34.2691 123.124 36.2563C122.399 37.6846 121.24 38.8748 120.619 40.3963L120.578 40.3652ZM129.023 48.0139C129.241 48.5314 129.437 45.2504 131.673 44.971C131.756 44.971 131.828 44.8882 131.756 44.8157C131.3 44.3707 130.027 44.35 129.872 41.5969C129.872 41.483 129.655 41.4416 129.655 41.5969C129.592 44.7019 125.784 44.795 126.55 45.0227C128.433 45.5402 128.754 47.3825 129.023 48.0139ZM129.758 42.4352C129.787 42.9136 129.931 43.3778 130.178 43.7886C130.425 44.1994 130.767 44.5447 131.176 44.795C130.668 45.0745 130.223 45.4545 129.867 45.9118C129.511 46.3691 129.252 46.8942 129.106 47.455C128.935 46.9152 128.657 46.4153 128.289 45.985C127.921 45.5547 127.47 45.2028 126.964 44.9503C127.608 44.8105 128.205 44.505 128.695 44.0639C129.185 43.6228 129.551 43.0614 129.758 42.4352ZM142.654 59.5024C142.571 59.5024 142.592 59.668 142.654 59.6887C143.236 59.8171 143.757 60.1387 144.133 60.6009C144.509 61.0632 144.717 61.639 144.724 62.2348C144.724 62.3072 144.879 62.3279 144.9 62.2348C144.921 62.1416 144.9 60.1648 146.183 59.3989C146.266 59.3989 146.308 59.1712 146.183 59.1815C144.776 59.3885 143.958 56.5837 143.948 56.5423C143.938 56.5009 143.741 56.4802 143.772 56.5423C143.89 57.0909 143.847 57.6619 143.649 58.1869C143.451 58.7119 143.105 59.1687 142.654 59.5024ZM144.145 57.4324C144.476 58.2604 145.014 59.2954 145.821 59.4299C145.322 59.9108 144.989 60.5378 144.869 61.2205C144.53 60.4734 143.914 59.8872 143.151 59.5852C143.74 59.0047 144.094 58.2269 144.145 57.4013V57.4324ZM73.6921 43.7186V43.8118C74.2064 43.9061 74.6798 44.1546 75.0495 44.5243C75.4192 44.8941 75.6678 45.3675 75.7621 45.8818C75.7689 45.9025 75.7821 45.9205 75.7997 45.9333C75.8174 45.9461 75.8386 45.953 75.8604 45.953C75.8822 45.953 75.9034 45.9461 75.9211 45.9333C75.9387 45.9205 75.9519 45.9025 75.9587 45.8818C76.2485 44.9399 76.4452 43.9256 78.0287 43.6979C78.0908 43.6979 78.1115 43.5634 78.0287 43.5634C76.1554 43.3771 75.7931 41.0587 75.7207 40.8931C75.6482 40.7275 75.5447 40.8931 75.5551 40.8931C75.8345 42.6526 74.251 43.3978 73.6921 43.7186ZM75.8449 41.8142C75.9714 42.2021 76.1789 42.5587 76.4537 42.8603C76.7285 43.1618 77.0643 43.4015 77.4388 43.5634C77.0757 43.7216 76.7526 43.9589 76.493 44.2579C76.2333 44.5569 76.0437 44.9102 75.938 45.2918C75.762 44.896 75.4933 44.5483 75.1546 44.2781C74.816 44.0079 74.4173 43.8231 73.9922 43.7393C74.4363 43.597 74.8381 43.3466 75.1615 43.0106C75.4848 42.6745 75.7197 42.2635 75.8449 41.8142ZM170.237 81.3616C169.202 77.8012 169.057 74.4892 168.643 74.9032C167.339 76.1969 164.503 78.7637 164.503 78.7741C164.503 78.7844 168.281 80.5957 169.968 81.5479C170.009 81.5789 170.268 81.4547 170.237 81.3616ZM164.907 78.712C166.288 77.6433 167.561 76.4402 168.705 75.1205C168.825 77.1715 169.219 79.1973 169.875 81.1442C168.177 80.2438 166.563 79.6952 164.907 78.712ZM160.425 80.9269C160.142 81.947 159.924 82.9841 159.773 84.0319C159.773 84.2492 160.063 84.3424 160.104 84.125C160.375 83.0717 160.535 81.9928 160.58 80.9062C160.573 80.8907 160.56 80.8781 160.545 80.87C160.53 80.862 160.512 80.8588 160.495 80.8611C160.478 80.8634 160.462 80.871 160.45 80.8828C160.437 80.8945 160.428 80.91 160.425 80.9269ZM158.955 88.5652C159.29 87.5529 159.54 86.5142 159.701 85.4602C159.701 85.3256 159.514 85.3153 159.473 85.4602C159.141 86.4521 158.891 87.4699 158.728 88.5031C158.729 88.5292 158.739 88.5543 158.755 88.5746C158.771 88.595 158.794 88.6097 158.819 88.6166C158.844 88.6235 158.871 88.6222 158.896 88.613C158.92 88.6037 158.941 88.587 158.955 88.5652ZM162.692 85.988C162.73 86.0002 162.772 85.9977 162.809 85.9811C162.846 85.9644 162.876 85.9348 162.892 85.8978C162.909 85.8608 162.911 85.8189 162.899 85.7803C162.887 85.7416 162.861 85.7087 162.826 85.6879C162.008 85.2719 161.127 84.9923 160.218 84.8599C159.463 84.8702 162.174 85.9052 162.692 85.988ZM158.79 84.2803C157.889 84.0319 156.999 83.711 156.099 83.473C155.902 83.473 155.198 83.6696 158.686 84.6632C158.737 84.677 158.791 84.67 158.837 84.6437C158.882 84.6175 158.916 84.5743 158.929 84.5235C158.943 84.4727 158.936 84.4186 158.91 84.373C158.884 84.3273 158.841 84.294 158.79 84.2803ZM132.573 97.6421C131.093 98.3977 129.851 100.871 130.41 102.476C130.41 102.476 130.493 102.548 130.514 102.558C132.998 102.807 148.109 102.786 153.097 102.683C153.133 102.682 153.168 102.671 153.198 102.652C153.228 102.633 153.252 102.606 153.268 102.574C153.284 102.542 153.291 102.506 153.288 102.471C153.286 102.435 153.273 102.401 153.253 102.372C153.413 101.678 153.347 100.951 153.064 100.297C152.781 99.6429 152.295 99.0971 151.679 98.7392C150.989 98.4764 150.25 98.3644 149.513 98.4108C148.776 98.4572 148.057 98.661 147.405 99.0083C148.119 97.7353 147.405 96.3277 146.535 95.2306C145.5 93.8851 144.362 92.5913 142.571 92.4671C140.988 92.2546 139.382 92.6222 138.048 93.5021C136.734 94.5992 136.848 96.2138 137.075 97.7353C136.082 96.3794 133.908 96.959 132.573 97.6421ZM138.09 94.0196C138.63 93.5264 139.27 93.1535 139.965 92.9255C140.66 92.6974 141.396 92.6195 142.124 92.6968C142.852 92.774 143.555 93.0048 144.187 93.3737C144.819 93.7427 145.365 94.2415 145.79 94.8373C146.742 96.0172 148.046 97.6732 146.898 99.1636C146.763 99.3395 147.218 99.3085 147.229 99.2981C151.731 97.8802 152.88 99.4223 152.952 102.3C148.005 102.579 131.673 102.206 130.545 102.372C130.224 97.4558 135.72 96.1621 137.241 98.377C137.303 98.4701 137.438 98.377 137.345 98.201C137.2 96.8141 137.034 95.096 138.09 94.0196ZM148.864 111.511C148.978 111.439 148.864 111.263 148.812 111.294C147.053 111.915 146.028 109.41 145.956 109.307C145.883 109.203 145.769 109.307 145.801 109.369C146.287 110.59 146.142 112.029 144.766 112.546C144.747 112.552 144.731 112.564 144.72 112.58C144.709 112.596 144.703 112.615 144.703 112.634C144.703 112.653 144.709 112.672 144.72 112.688C144.731 112.704 144.747 112.716 144.766 112.722C145.347 112.635 145.94 112.756 146.441 113.062C146.943 113.369 147.32 113.842 147.508 114.399C147.508 114.523 147.757 114.502 147.746 114.399C147.736 114.295 147.446 112.339 148.864 111.511ZM147.467 113.685C147.235 113.345 146.927 113.065 146.568 112.865C146.209 112.666 145.808 112.553 145.397 112.536C145.723 112.278 145.976 111.938 146.128 111.551C146.281 111.163 146.329 110.743 146.266 110.331C146.476 110.702 146.775 111.015 147.137 111.241C147.498 111.467 147.911 111.599 148.336 111.625C148.063 111.894 147.846 112.215 147.697 112.568C147.547 112.922 147.469 113.301 147.467 113.685ZM108.323 151.793C110.693 144.61 116.427 138.338 122.648 134.198C122.844 134.064 122.648 133.753 122.461 133.877C109.565 142.458 107.547 154.215 108.323 151.793ZM104.39 144.476C107.92 139.084 111.325 136.92 116.965 133.909C117.183 133.795 116.965 133.474 116.779 133.588C111.987 135.979 106.698 139.446 104.287 144.414C104.283 144.427 104.283 144.441 104.288 144.454C104.293 144.467 104.302 144.478 104.314 144.486C104.326 144.493 104.34 144.496 104.354 144.494C104.368 144.492 104.38 144.486 104.39 144.476ZM120.453 129.582C120.94 129.52 120.526 128.806 116.127 129.81C106.74 131.88 104.566 136.206 105.073 135.647C109.596 130.7 116.262 130.12 120.453 129.582ZM25.5439 110.228C24.0742 111.004 22.9253 109.834 22.532 108.51C22.532 108.406 22.3147 108.416 22.325 108.51C22.5941 111.76 27.5621 111.677 26.8376 107.475C26.327 105.359 25.4589 103.347 24.2708 101.523C21.6523 97.0625 19.3339 95.4376 19.7996 96.0172C22.4906 99.3602 29.2078 108.303 25.5439 110.228ZM37.6327 115.982C38.2537 115.599 37.9121 114.626 37.9742 114.037C37.9742 113.892 37.7569 113.871 37.7258 114.037C37.6863 114.339 37.6621 114.643 37.6534 114.947C37.4464 115.982 36.4528 115.703 35.7593 115.372C34.6872 114.744 33.7819 113.867 33.1201 112.815C31.7849 110.963 30.6257 108.965 29.4665 107.009C22.2215 94.9304 21.704 95.686 21.8489 95.8619C25.4093 100.488 28.1624 105.57 31.2364 110.518C32.3852 112.381 33.6376 114.72 35.7386 115.693C36.2251 115.92 37.1152 116.293 37.6327 115.982ZM26.4029 99.1015C26.3305 99.0083 26.1752 99.1015 26.2373 99.2257C31.2157 106.346 30.4187 103.935 26.4029 99.1015ZM15.2249 91.9496C13.01 95.2927 16.8809 96.8452 16.8809 96.8452C16.5971 96.4302 16.4849 95.9215 16.5679 95.4256C16.6508 94.9297 16.9225 94.4852 17.326 94.1852C17.6235 94.3893 17.9347 94.5725 18.2575 94.7338C19.2273 94.3977 20.0937 93.8166 20.7725 93.0467C20.6614 92.6637 20.5123 92.2927 20.3275 91.9393C20.7601 91.651 21.2885 91.5437 21.7993 91.6404C22.3101 91.7372 22.7626 92.0303 23.0599 92.4568C23.0599 92.4568 23.0599 88.1512 18.9199 89.1758C14.3038 81.0718 7.08983 78.3601 14.4901 90.7283C14.6867 91.1423 14.9455 91.546 15.2249 91.9496ZM14.252 83.7628C15.4216 85.0669 17.8228 86.371 20.5345 92.9018C19.8451 93.5376 19.0886 94.0964 18.2782 94.5682C13.6414 89.6209 13.9312 88.6583 11.9543 85.4084L14.252 83.7628ZM38.5952 65.5985C36.5252 65.909 33.2753 68.1653 34.0619 70.6183C33.4074 70.0893 32.5997 69.7855 31.7589 69.752C30.918 69.7184 30.0887 69.9569 29.3941 70.432C28.5483 71.0809 27.9337 71.9847 27.6411 73.0098C27.3485 74.0349 27.3934 75.1269 27.7691 76.1245H46.306C48.0758 76.1245 48.6658 68.0722 42.4972 70.5148C42.7382 69.9233 42.8176 69.2783 42.7273 68.6459C42.6369 68.0136 42.38 67.4167 41.9829 66.9164C41.5858 66.416 41.0628 66.0303 40.4675 65.7987C39.8722 65.5672 39.226 65.4981 38.5952 65.5985ZM42.3005 70.9184C45.5711 68.8484 48.7382 72.3364 46.3474 75.9175C46.3474 75.9175 29.0008 75.6691 28.0589 75.8554C26.4443 70.6804 32.023 68.1757 34.3414 71.2807C34.4138 71.3842 34.3414 70.9391 34.2586 70.8253C33.296 67.3891 39.1438 64.0771 41.6381 66.8405C43.2941 68.6621 41.8141 71.2393 42.3005 70.9184ZM21.8489 42.9527C21.7873 43.0582 21.7498 43.176 21.739 43.2977C21.7283 43.4194 21.7446 43.5419 21.7868 43.6565C21.4039 44.0809 22.0663 45.3022 23.0599 44.6294C24.7936 45.3528 26.6246 45.8166 28.4936 46.006C27.9658 47.6827 26.7548 52.0814 28.2659 52.9715C29.777 53.8616 31.8781 48.8315 32.4991 47.3308C32.9382 47.1795 33.3453 46.9478 33.6997 46.6477C36.3389 46.865 42.1039 47.0513 40.334 44.4742C39.6199 43.4392 35.5316 42.6629 34.2896 42.4663C34.9831 40.3445 36.8461 33.9896 33.7514 35.2213C32.437 35.7284 31.1846 38.8127 30.3152 40.9759C29.7534 41.106 29.2401 41.3932 28.8352 41.8039C27.1481 41.6383 22.5424 41.4002 21.8489 42.9527ZM34.3724 42.7043C35.573 42.8906 39.682 43.7393 40.1167 44.5984C41.2966 46.8547 36.4217 46.4407 34.0205 46.3061C34.4969 45.8451 34.7938 45.2297 34.8583 44.5699C34.9227 43.9101 34.7505 43.2489 34.3724 42.7043ZM33.8135 35.4593C36.3389 34.7245 34.7036 39.9305 33.9688 42.28C33.5455 41.8107 33.0205 41.4445 32.4338 41.2094C31.8472 40.9744 31.2145 40.8768 30.5843 40.9241C31.0501 39.7753 32.6647 35.7698 33.8135 35.4386V35.4593ZM32.1472 47.4653C29.2595 55.3727 26.2994 54.0065 28.7317 46.1509C29.0831 46.7084 29.6066 47.1362 30.2228 47.3696C30.8391 47.603 31.5146 47.6294 32.1472 47.4446V47.4653ZM28.6799 42.0523C28.3151 42.5815 28.1003 43.1996 28.0584 43.841C28.0165 44.4825 28.149 45.1233 28.4419 45.6955C28.4419 45.6955 24.1363 45.0227 23.2669 44.4328C23.6084 44.1119 23.3704 43.2218 22.118 43.3978C21.911 42.8285 22.739 42.5077 23.1013 42.3628C24.92 41.8809 26.8169 41.7683 28.6799 42.0316V42.0523ZM20.9795 29.8496C21.4737 30.0612 21.9075 30.3924 22.2417 30.8134C22.576 31.2344 22.8003 31.7319 22.8943 32.2612C23.1737 32.8511 22.8943 29.9324 24.5399 29.8082C24.6124 29.8082 24.6538 29.684 24.5399 29.6426C23.8154 29.27 22.8115 29.1562 22.1698 26.2996C22.1698 26.134 21.8386 26.2168 21.9214 26.372C22.5631 27.614 20.9588 29.7047 20.9485 29.7047C20.9293 29.7089 20.9125 29.7204 20.9018 29.7369C20.8911 29.7534 20.8874 29.7735 20.8916 29.7927C20.8957 29.8119 20.9072 29.8287 20.9237 29.8394C20.9402 29.8501 20.9603 29.8538 20.9795 29.8496ZM22.2629 27.5105C22.3767 27.9831 22.5921 28.4251 22.8942 28.8058C23.1963 29.1866 23.5778 29.4969 24.0121 29.7151C23.6961 29.8863 23.4271 30.1326 23.2285 30.4321C23.03 30.7317 22.9081 31.0755 22.8736 31.4332C22.7557 31.0147 22.5288 30.6351 22.216 30.3333C21.9031 30.0314 21.5157 29.818 21.0934 29.7151C21.7357 29.1448 22.1509 28.3621 22.2629 27.5105ZM20.8346 18.6302C22.6906 18.2075 24.5163 17.6612 26.2994 16.9949C27.4069 17.5538 23.0702 12.8549 21.4246 11.7164C21.3521 11.6647 21.2693 11.7785 21.3211 11.8406C21.0002 14.0365 20.7929 16.2474 20.7001 18.4646C20.7001 18.4646 20.7932 18.6302 20.8346 18.6302ZM21.4349 11.9441C24.9332 15.4528 24.7262 15.6184 26.051 16.7776C24.3536 17.3261 22.6769 18.0403 20.9485 18.4543C21.0727 16.2704 21.2279 14.0969 21.4349 11.9338V11.9441ZM20.4827 73.0712C20.5006 73.0932 20.5264 73.1072 20.5545 73.1101C20.5827 73.113 20.6108 73.1046 20.6328 73.0868C20.6548 73.0689 20.6687 73.0431 20.6716 73.0149C20.6746 72.9868 20.6662 72.9586 20.6483 72.9367C20.5585 72.4228 20.5996 71.8945 20.7678 71.4007C20.936 70.9068 21.226 70.4633 21.6109 70.1111C21.7351 69.9973 21.6109 69.7592 21.497 69.842C19.7996 70.7839 18.6094 68.8795 18.5887 68.807C18.568 68.7346 18.3713 68.807 18.4127 68.8795C19.2097 70.9495 17.9987 71.7257 17.4709 71.9845C17.4191 71.9845 17.4709 72.1087 17.4709 72.088C18.0047 71.8442 18.6107 71.8099 19.1686 71.992C19.7265 72.1742 20.1956 72.5594 20.4827 73.0712ZM18.8164 69.5108C19.1054 69.8351 19.4746 70.0776 19.8871 70.2138C20.2995 70.3501 20.7405 70.3754 21.1658 70.2871C20.6186 70.8942 20.3194 71.6847 20.3275 72.502C20.08 72.2307 19.772 72.0218 19.4284 71.8923C19.0849 71.7628 18.7155 71.7164 18.3506 71.7568C18.6137 71.4534 18.7947 71.0877 18.8762 70.6945C18.9577 70.3013 18.9371 69.8938 18.8164 69.5108ZM33.3374 92.9018C33.2857 92.9018 33.3374 93.0053 33.3374 93.0053C33.8533 92.7442 34.4499 92.6921 35.0032 92.8599C35.5565 93.0276 36.0238 93.4022 36.3079 93.9058C36.3803 94.0093 36.5252 93.9058 36.4735 93.7712C36.3973 93.2576 36.445 92.7333 36.6124 92.2418C36.7798 91.7504 37.0622 91.306 37.436 90.9457C37.5499 90.8318 37.436 90.6145 37.3222 90.6766C37.064 90.8037 36.7829 90.8778 36.4956 90.8944C36.2083 90.9111 35.9205 90.8699 35.6494 90.7734C35.3782 90.6769 35.1292 90.5271 34.917 90.3326C34.7047 90.1382 34.5337 89.9033 34.4138 89.6416C34.4138 89.5484 34.1965 89.6416 34.2379 89.714C35.1073 91.784 33.8756 92.5913 33.3374 92.9018ZM34.6829 90.3454C34.9719 90.6697 35.3412 90.9121 35.7536 91.0484C36.166 91.1846 36.6071 91.2099 37.0324 91.1216C36.5383 91.7574 36.256 92.532 36.2251 93.3365C35.982 93.0597 35.6745 92.8469 35.3297 92.717C34.985 92.587 34.6136 92.5439 34.2482 92.5913C34.506 92.285 34.6813 91.9179 34.7574 91.5248C34.8335 91.1318 34.8078 90.7258 34.6829 90.3454ZM14.7592 104.949C14.777 104.971 14.8029 104.985 14.831 104.988C14.8591 104.991 14.8873 104.983 14.9093 104.965C14.9312 104.947 14.9452 104.921 14.9481 104.893C14.951 104.865 14.9426 104.837 14.9248 104.815C14.7074 103.707 14.9248 103.252 15.908 102.01C16.0115 101.886 15.908 101.679 15.7942 101.741C15.5358 101.871 15.2536 101.948 14.9648 101.966C14.676 101.984 14.3864 101.944 14.1137 101.847C13.8409 101.75 13.5906 101.599 13.3778 101.403C13.165 101.207 12.9941 100.97 12.8755 100.706C12.8755 100.613 12.6685 100.706 12.7099 100.778C12.8671 101.045 12.9676 101.34 13.0052 101.647C13.0427 101.954 13.0165 102.266 12.928 102.562C12.8396 102.859 12.6909 103.133 12.4913 103.37C12.2917 103.606 12.0455 103.798 11.768 103.935V104.038C12.2891 103.782 12.8881 103.734 13.4435 103.903C13.999 104.072 14.4693 104.446 14.7592 104.949ZM13.1032 101.43C13.3906 101.754 13.758 101.996 14.1687 102.132C14.5793 102.268 15.0186 102.294 15.4423 102.206C15.1632 102.504 14.9455 102.854 14.8016 103.236C14.6578 103.617 14.5906 104.024 14.6039 104.432C14.3586 104.16 14.0527 103.95 13.711 103.819C13.3693 103.688 13.0015 103.639 12.6374 103.676C12.8988 103.372 13.0786 103.006 13.1601 102.613C13.2415 102.22 13.222 101.813 13.1032 101.43ZM22.4596 133.702C25.0703 134.538 27.4585 135.953 29.4458 137.842C31.2488 139.716 32.9388 141.697 34.507 143.772C34.6105 143.896 34.7968 143.772 34.714 143.617C32.1058 139.073 27.6139 134.923 22.4803 133.619C22.4285 133.608 22.4182 133.691 22.4596 133.702ZM34.4138 136.154C34.5277 136.217 34.6622 136.051 34.5587 135.968C32.6787 134.191 30.237 133.125 27.6553 132.956C27.5414 132.956 27.5414 133.132 27.6553 133.143C30.2842 133.329 32.2817 134.788 34.4138 136.154ZM34.8278 131.87C32.9855 130.577 30.8447 129.775 28.6068 129.538C26.369 129.3 24.1075 129.636 22.0352 130.514C21.9628 130.514 22.0352 130.669 22.0352 130.648C24.1166 129.941 26.3278 129.699 28.513 129.938C30.6982 130.178 32.8043 130.894 34.6829 132.035C34.7049 132.054 34.7336 132.064 34.7627 132.062C34.7918 132.06 34.819 132.047 34.8382 132.025C34.8574 132.003 34.8671 131.974 34.8652 131.945C34.8632 131.916 34.8498 131.889 34.8278 131.87ZM139.932 157.61C139.332 159.038 138.038 161.843 138.028 161.864C136.731 166.438 135.715 171.087 134.985 175.785C134.985 175.785 137.055 176.168 137.055 176.147C138.483 171.531 139.27 166.687 140.553 162.05C140.553 162.05 140.098 157.682 140.108 157.662C140.118 157.641 139.963 157.517 139.932 157.61ZM140.025 157.879C140.005 158.182 140.005 158.487 140.025 158.79H139.694C139.839 158.448 139.932 158.159 140.025 157.879ZM135.109 175.619C135.709 173.094 137.883 163.986 138.214 161.967C138.214 161.967 138.856 161.895 139.177 161.895C137.903 166.428 135.968 175.712 135.968 175.723C135.687 175.655 135.398 175.62 135.109 175.619ZM136.972 175.888L136.154 175.754C137.189 171.148 139.332 161.895 139.332 161.885C139.685 161.927 140.032 162.011 140.367 162.133C139.487 164.224 137.541 173.508 136.972 175.888ZM138.204 161.76C138.752 160.88 139.226 159.956 139.622 158.997C139.772 159.048 139.929 159.079 140.087 159.09C140.087 159.245 140.253 161.16 140.336 161.905C139.632 161.779 138.917 161.731 138.204 161.76ZM136.786 176.261C136.166 176.135 135.541 176.042 134.912 175.981C134.84 175.981 134.798 176.085 134.912 176.126C135.507 176.339 136.126 176.474 136.755 176.53C136.889 176.571 136.962 176.292 136.786 176.261ZM134.788 176.664C135.275 177.089 136.02 176.892 136.579 177.13C136.597 177.143 136.619 177.151 136.641 177.155C136.664 177.158 136.687 177.157 136.708 177.151C136.73 177.144 136.75 177.133 136.767 177.118C136.784 177.104 136.798 177.085 136.807 177.064C136.816 177.044 136.821 177.021 136.821 176.999C136.82 176.976 136.815 176.954 136.805 176.933C136.795 176.913 136.781 176.895 136.763 176.881C136.745 176.866 136.725 176.856 136.703 176.851C136.392 176.747 134.55 176.416 134.788 176.664ZM152.311 167.888C151.734 167.763 151.133 167.851 150.616 168.134C150.099 168.417 149.701 168.877 149.495 169.43C148.636 172.535 153.428 173.756 154.091 170.682C154.221 170.076 154.107 169.443 153.774 168.92C153.441 168.397 152.915 168.026 152.311 167.888ZM149.889 169.088C150.365 168.053 151.959 167.991 152.259 168.053C152.743 168.206 153.161 168.518 153.445 168.94C153.729 169.361 153.862 169.865 153.822 170.372C153.625 173.611 148.46 172.121 149.889 169.088ZM161.802 174.739C161.915 172.887 161.45 171.417 161.367 172.017C161.26 172.942 161.298 173.878 161.481 174.791C161.522 174.967 161.791 174.915 161.802 174.739ZM161.771 179.469C161.771 179.666 162.112 179.614 162.112 179.417C162.118 178.566 162.039 177.717 161.874 176.882C161.574 176.137 161.646 178.652 161.771 179.469ZM164.669 175.102C160.529 175.774 161.967 175.971 164.772 175.474C165.02 175.433 164.907 175.06 164.669 175.102ZM161.056 175.743C160.235 175.755 159.415 175.827 158.603 175.961C158.585 175.967 158.569 175.979 158.558 175.995C158.547 176.01 158.541 176.029 158.541 176.049C158.541 176.068 158.547 176.087 158.558 176.103C158.569 176.118 158.585 176.13 158.603 176.137C159.435 176.251 160.281 176.209 161.098 176.012C161.115 176.01 161.132 176.003 161.148 175.994C161.163 175.985 161.176 175.973 161.187 175.958C161.197 175.944 161.205 175.928 161.209 175.91C161.214 175.893 161.214 175.875 161.212 175.857C161.209 175.839 161.203 175.822 161.193 175.807C161.184 175.792 161.172 175.779 161.158 175.768C161.143 175.757 161.127 175.75 161.109 175.746C161.092 175.741 161.074 175.741 161.056 175.743Z" fill="black"/>
<path d="M16.705 90.9147C16.7263 91.0932 16.8123 91.2578 16.9468 91.3772C17.0813 91.4966 17.2549 91.5625 17.4347 91.5625C17.6145 91.5625 17.7881 91.4966 17.9225 91.3772C18.057 91.2578 18.143 91.0932 18.1643 90.9147C18.1643 90.511 16.705 89.9418 16.705 90.9147ZM15.1111 88.4307C15.1326 88.6119 15.2198 88.7789 15.3562 88.9001C15.4925 89.0213 15.6687 89.0882 15.8511 89.0882C16.0336 89.0882 16.2097 89.0213 16.3461 88.9001C16.4825 88.7789 16.5697 88.6119 16.5911 88.4307C16.5697 88.2495 16.4825 88.0825 16.3461 87.9613C16.2097 87.8401 16.0336 87.7732 15.8511 87.7732C15.6687 87.7732 15.4925 87.8401 15.3562 87.9613C15.2198 88.0825 15.1326 88.2495 15.1111 88.4307ZM13.2688 86.1226C13.2688 86.3175 13.3462 86.5044 13.484 86.6423C13.6218 86.7801 13.8088 86.8575 14.0036 86.8575C14.1985 86.8575 14.3855 86.7801 14.5233 86.6423C14.6611 86.5044 14.7385 86.3175 14.7385 86.1226C14.7385 85.719 13.2688 85.1497 13.2688 86.1226ZM64.5841 72.1812C64.7625 72.1812 64.9336 72.1103 65.0598 71.9841C65.186 71.858 65.2568 71.6869 65.2568 71.5084C65.2568 71.33 65.186 71.1589 65.0598 71.0327C64.9336 70.9066 64.7625 70.8357 64.5841 70.8357C64.1701 70.8357 63.694 72.1812 64.5841 72.1812ZM70.0282 74.6962C70.0398 74.6058 70.0319 74.514 70.0052 74.4269C69.9785 74.3397 69.9335 74.2593 69.8733 74.1909C69.8131 74.1225 69.739 74.0677 69.6559 74.0302C69.5729 73.9926 69.4828 73.9732 69.3917 73.9732C69.3005 73.9732 69.2104 73.9926 69.1274 74.0302C69.0443 74.0677 68.9702 74.1225 68.91 74.1909C68.8498 74.2593 68.8048 74.3397 68.7781 74.4269C68.7514 74.514 68.7436 74.6058 68.7551 74.6962C68.7551 75.0792 70.0282 75.5553 70.0282 74.6962Z" fill="black"/>
</svg>
