<svg width="359" height="260" viewBox="0 0 359 260" fill="none" xmlns="http://www.w3.org/2000/svg">
    <path
        d="M375.917 188.805C372.738 175.879 366.037 164.087 356.56 154.739C347.082 145.391 335.199 138.854 322.23 135.853C309.261 132.852 295.714 133.506 283.094 137.741C270.474 141.976 259.275 149.627 250.741 159.843C242.207 170.06 236.673 182.442 234.753 195.614C232.833 208.787 234.602 222.234 239.864 234.461C245.126 246.689 253.675 257.218 264.561 264.88C275.447 272.541 288.244 277.035 301.53 277.861L302.221 266.742C290.991 266.043 280.174 262.245 270.973 255.769C261.771 249.293 254.545 240.393 250.097 230.057C245.65 219.722 244.154 208.356 245.777 197.221C247.4 186.087 252.078 175.621 259.291 166.985C266.505 158.349 275.971 151.882 286.638 148.303C297.306 144.723 308.756 144.171 319.719 146.707C330.681 149.243 340.726 154.769 348.737 162.671C356.748 170.572 362.411 180.539 365.098 191.466L375.917 188.805Z"
        fill="#D9D9D9" />
    <path
        d="M229.164 225.944C243.313 226.502 257.312 222.875 269.411 215.518C281.509 208.161 291.169 197.399 297.183 184.58C303.197 171.761 305.298 157.453 303.222 143.446C301.147 129.439 294.987 116.355 285.514 105.83C276.04 95.3063 263.674 87.809 249.962 84.2765C236.25 80.744 221.8 81.3332 208.421 85.9703C195.042 90.6074 183.327 99.0866 174.742 110.347C166.157 121.608 161.083 135.15 160.155 149.279L164.48 149.563C165.352 136.284 170.121 123.558 178.189 112.975C186.257 102.392 197.267 94.4235 209.841 90.0656C222.414 85.7076 235.994 85.1539 248.881 88.4738C261.767 91.7936 273.389 98.8396 282.292 108.73C291.195 118.621 296.984 130.917 298.935 144.081C300.885 157.245 298.911 170.691 293.259 182.739C287.607 194.787 278.529 204.9 267.158 211.815C255.788 218.729 242.632 222.137 229.335 221.613L229.164 225.944Z"
        fill="#D9D9D9" />
    <path
        d="M144.258 173.998C126.045 182.198 110.525 195.032 99.3881 211.104C88.2511 227.175 81.9234 245.868 81.0936 265.149C80.2638 284.43 84.9637 303.56 94.6818 320.457C104.4 337.354 118.764 351.371 136.211 360.982C153.658 370.594 173.519 375.432 193.634 374.97C213.748 374.508 233.346 368.763 250.293 358.362C267.24 347.96 280.888 333.299 289.751 315.976C298.615 298.652 302.354 279.328 300.563 260.107L293.968 260.673C295.651 278.736 292.137 296.897 283.807 313.178C275.477 329.459 262.65 343.237 246.723 353.012C230.796 362.788 212.379 368.186 193.475 368.621C174.572 369.055 155.906 364.508 139.509 355.475C123.113 346.442 109.613 333.269 100.48 317.389C91.347 301.509 86.93 283.531 87.7098 265.411C88.4897 247.291 94.4364 229.723 104.903 214.619C115.37 199.515 129.955 187.454 147.072 179.747L144.258 173.998Z"
        fill="#D9D9D9" />
    <path
        d="M126.219 207.869C125.464 214.962 126.668 222.127 129.702 228.584C132.735 235.04 137.481 240.541 143.423 244.488C149.366 248.434 156.277 250.675 163.404 250.967C170.532 251.259 177.603 249.591 183.848 246.143C190.093 242.695 195.273 237.601 198.824 231.414C202.376 225.227 204.162 218.185 203.989 211.053C203.815 203.922 201.69 196.975 197.842 190.967C193.995 184.96 188.574 180.123 182.169 176.983L181.136 179.091C187.155 182.042 192.25 186.588 195.865 192.233C199.481 197.879 201.479 204.408 201.641 211.11C201.804 217.813 200.126 224.431 196.788 230.245C193.451 236.06 188.583 240.848 182.714 244.088C176.844 247.328 170.199 248.896 163.5 248.622C156.802 248.347 150.307 246.241 144.722 242.532C139.138 238.823 134.677 233.653 131.826 227.585C128.976 221.518 127.844 214.784 128.554 208.118L126.219 207.869Z"
        fill="#D9D9D9" />
    <path
        d="M158.737 149.429C160.009 145.905 164.991 145.905 166.263 149.429L171.178 163.053C171.386 163.628 171.723 164.148 172.163 164.573L181.812 173.887C184.676 176.652 182.184 181.448 178.275 180.693L163.259 177.792C162.758 177.695 162.242 177.695 161.741 177.792L146.725 180.693C142.816 181.448 140.324 176.652 143.188 173.887L152.837 164.573C153.277 164.148 153.614 163.628 153.822 163.053L158.737 149.429Z"
        fill="#D9D9D9" />
    <path
        d="M231.487 137.912C231.898 137.683 232.23 137.335 232.44 136.915C232.651 136.494 232.729 136.02 232.666 135.553C232.537 134.613 231.939 133.698 232.526 132.778C232.725 132.467 232.985 132.198 233.18 131.885C233.653 131.117 233.847 130.135 233.525 129.266C233.231 128.502 232.465 127.994 232.584 127.22C232.658 126.738 232.992 126.353 233.059 125.715C233.113 125.232 233.03 124.743 232.819 124.305C232.608 123.867 232.277 123.498 231.866 123.24C231.454 122.981 230.978 122.844 230.492 122.844C230.006 122.844 229.529 122.982 229.118 123.24C230.708 124.474 230.43 126.675 229.05 128.096C228.366 128.802 227.272 129.329 226.067 129.663L226.126 129.545C227.25 129.212 228.486 128.418 228.922 127.969C230.489 126.339 230.459 123.9 228.315 122.839C227.017 122.19 225.218 121.966 223.937 122.776C223.555 123.018 222.714 124.092 223.163 124.421C222.881 124.893 222.252 125.976 222.036 126.426C221.552 127.446 221.499 128.684 222.606 129.284C222.522 129.513 222.423 129.737 222.311 129.953C219.031 129.439 216.305 130.754 215.037 131.623C214.893 130.807 214.676 130.006 214.389 129.229C214.521 129.135 214.711 128.661 214.785 128.489C214.932 128.688 215.86 129.554 216.116 129.638C216.153 129.654 216.196 129.656 216.234 129.641C216.273 129.626 216.304 129.597 216.321 129.56C216.329 129.545 216.336 129.528 216.34 129.511C216.321 129.297 216.245 129.092 216.121 128.918C216.173 128.868 216.207 128.802 216.216 128.73C216.226 128.658 216.21 128.585 216.173 128.523C215.956 128.198 215.721 127.886 215.469 127.587C215.447 127.559 215.394 127.592 215.416 127.623L216.013 128.505C216.086 128.606 216.137 128.706 216.05 128.815C215.803 128.396 215.528 127.993 215.227 127.611C214.978 127.293 214.906 127.342 214.953 127.037C214.984 126.846 215.127 126.452 214.784 126.469C214.762 126.34 214.16 126.102 214.033 126.312C213.589 125.866 213.113 125.452 212.61 125.075C212.569 125.059 212.522 125.106 212.539 125.144C212.787 125.732 213.201 126.24 213.565 126.757C213.518 126.755 213.471 126.766 213.431 126.79C213.39 126.815 213.358 126.85 213.338 126.893C213.041 126.578 212.209 126.833 212.325 128.247C212.341 128.447 212.379 128.644 212.439 128.836C211.235 130.506 210.521 132.702 210.117 134.71C209.761 136.485 209.514 138.631 210.834 140.092C211.402 140.718 212.368 141.193 213.194 140.791L213.262 141.676C212.822 142.146 211.887 143.824 211.652 144.392C211.638 144.431 211.69 144.451 211.711 144.414C212.193 143.475 212.745 142.572 213.361 141.714C216.058 143.572 220.381 145.337 224.348 145.486C224.737 145.83 225.163 146.128 225.619 146.375C225.737 146.745 225.771 148.379 225.709 148.777C225.708 148.786 225.712 148.795 225.718 148.802C225.724 148.809 225.732 148.813 225.742 148.814C225.749 148.814 225.757 148.812 225.763 148.807C225.77 148.803 225.775 148.797 225.778 148.789C225.893 148.016 225.892 147.229 225.776 146.455C228.212 147.661 230.63 146.663 231.623 144.195C232.401 142.265 232.107 139.857 231.486 137.921L231.487 137.912ZM215.688 129.123C215.771 129.045 215.858 128.965 215.938 128.895C215.996 128.859 216.114 128.942 215.837 129.159C215.662 129.286 215.651 129.162 215.688 129.123ZM213.284 126.203L212.878 125.603L212.987 125.522L213.518 125.987C213.437 126.055 213.359 126.127 213.284 126.203ZM226.238 131.22C225.33 132.004 224.211 132.501 223.021 132.649C222.913 132.148 222.835 131.641 222.789 131.131C223.354 131.291 225.273 131.32 225.576 130.912C225.802 131.003 226.023 131.105 226.239 131.218L226.238 131.22ZM221.845 127.587C221.9 126.583 222.745 125.378 223.23 124.462C223.736 124.751 225.057 124.512 225.564 124.053C225.611 124.806 226.216 125.567 226.885 125.893C226.586 126.344 226.393 127.342 226.995 127.355C227.157 127.359 227.381 127.28 227.492 127.438C227.53 127.517 227.545 127.606 227.536 127.694C227.527 127.781 227.494 127.865 227.441 127.935C227.016 128.599 226.406 128.231 225.559 130.494L225.431 130.877C224.547 131.133 223.614 131.177 222.71 131.005C222.558 130.672 222.454 130.32 222.399 129.958C222.439 129.898 222.844 129.297 222.702 129.209C222.693 129.103 221.775 128.834 221.845 127.587ZM221.428 129.973C221.533 129.98 222.287 130.058 222.319 130.039C222.349 130.388 222.447 130.727 222.606 131.039C222.16 131.147 221.731 131.318 221.334 131.548C221.281 131.021 221.313 130.49 221.428 129.973ZM214.669 126.508C214.567 126.553 214.482 126.631 214.431 126.731C214.318 126.612 214.201 126.496 214.085 126.376C214.186 126.352 214.291 126.352 214.392 126.374C214.493 126.397 214.588 126.443 214.669 126.508ZM213.96 127.498C213.911 128.212 213.561 128.154 213.5 127.783C213.556 127.52 213.523 127.244 213.405 127.001C213.69 126.622 213.983 127.077 213.964 127.488L213.96 127.498ZM212.441 127.85C212.462 127.544 212.531 127.156 212.813 126.978C213.399 126.609 213.487 127.429 213.379 127.831C213.292 128.134 213.15 128.035 213.097 127.87C213.044 127.705 213.019 127.489 212.888 127.406C212.758 127.323 212.924 127.669 212.929 127.68C212.957 127.757 212.966 127.839 212.993 127.927C213.09 128.209 213.364 128.233 213.465 127.926C213.518 128.073 213.624 128.21 213.779 128.148C213.647 128.443 213.773 128.34 213.775 128.336C213.965 127.872 214.259 127.748 214.384 127.321C214.408 127.13 214.463 126.944 214.545 126.77C214.618 126.655 214.784 126.522 214.915 126.621C214.924 126.903 214.783 127.034 214.847 127.486C214.91 127.938 214.84 128.089 214.645 128.523C214.558 128.712 214.452 128.895 214.361 129.082C214.046 129.325 212.813 129.094 212.526 128.847C212.47 128.514 212.443 128.177 212.445 127.84L212.441 127.85ZM212.492 128.918C212.827 129.211 213.862 129.467 214.316 129.27C214.457 129.747 214.61 130.217 214.729 130.699C213.663 131.055 212.35 130.566 211.72 130.261C211.957 129.792 212.221 129.361 212.496 128.909L212.492 128.918ZM230.404 145.822C228.864 147.293 226.82 147.087 225.145 145.965C223.844 145.095 222.476 143.479 221.684 142.11C222.793 141.677 223.645 140.505 223.898 139.613C225.477 139.956 226.769 140.319 228.302 140.808C228.309 140.81 228.317 140.81 228.324 140.807C228.331 140.804 228.337 140.798 228.339 140.791C228.342 140.784 228.342 140.776 228.339 140.768C228.336 140.761 228.33 140.756 228.323 140.753C227.582 140.489 226.826 140.263 226.069 140.051C226.152 139.951 225.711 139.295 225.613 138.109C225.612 138.072 225.547 138.061 225.544 138.104C225.55 138.768 225.699 139.423 225.982 140.024C224.744 139.662 223.485 139.378 222.212 139.173C222.102 138.539 221.676 137.811 221.101 137.496C221.205 136.801 221.466 135.304 221.517 134.651C221.523 134.57 220.711 134.428 220.602 134.4C220.572 134.558 220.524 134.854 220.298 134.812C219.806 134.722 217.74 134.283 217.252 134.097C217.057 134.023 217.146 133.756 217.186 133.626C217.082 133.602 216.45 133.426 216.4 133.496C216.28 133.673 215.352 139.798 215.272 140.346C215.259 140.426 215.732 140.54 215.81 140.565C217.308 141.062 218.832 141.478 220.374 141.811C220.387 141.815 220.4 141.813 220.412 141.806C220.423 141.8 220.431 141.789 220.434 141.776C220.437 141.773 220.438 141.769 220.439 141.765C220.493 141.739 220.63 140.679 220.649 140.54C220.729 140.584 220.817 140.639 220.903 140.681C221.617 142.957 223.476 144.735 224.227 145.4C220.069 145.004 216.833 143.812 213.346 141.606C213.307 140.019 213.334 138.247 213.801 136.73C214.495 134.47 216.387 132.573 218.447 131.486C218.481 131.467 218.457 131.412 218.422 131.429C216.457 132.382 214.528 134.313 213.777 136.378C213.321 137.634 213.189 139.301 213.201 140.662C212.483 141.043 211.619 140.687 211.074 140.165C209.679 138.834 209.849 136.728 210.173 135.007C210.456 133.385 210.964 131.811 211.681 130.329C212.55 130.838 213.781 131.084 214.759 130.813C214.941 131.575 215.069 132.348 215.142 133.128C215.142 133.208 215.154 133.287 215.175 133.363C215.18 133.374 215.189 133.382 215.2 133.386C215.211 133.39 215.223 133.39 215.233 133.386C215.24 133.383 215.247 133.379 215.252 133.373C215.257 133.368 215.261 133.362 215.263 133.355C215.312 133.15 215.096 131.888 215.064 131.72C216.917 130.495 219.107 129.881 221.327 129.964C221.239 130.091 221.079 131.698 221.298 131.641C221.74 131.435 222.198 131.265 222.668 131.134C222.694 131.674 222.789 132.209 222.952 132.725C223.016 132.943 225.464 132.259 226.341 131.266C228.618 132.519 230.308 135.005 231.193 137.399C232.143 139.991 232.577 143.737 230.408 145.812L230.404 145.822ZM220.042 139.264C219.752 138.855 219.315 138.319 219.346 137.776C219.356 137.557 219.666 137.932 219.744 137.972C219.855 138.272 220.007 138.555 220.196 138.813C220.22 138.844 220.268 138.807 220.247 138.774C220.021 138.448 219.66 137.729 219.79 137.324C219.88 137.053 220.104 137.564 220.187 137.674C220.27 137.783 220.75 138.574 220.973 138.456C221.081 138.402 221.019 138.173 221.015 138.078C221.044 137.902 221.071 137.727 221.095 137.552C221.799 138.043 221.856 138.43 222.114 139.185C222.082 139.779 221.268 140.546 220.94 140.597C220.436 140.271 219.878 139.994 219.544 139.473C219.396 139.243 219.123 138.823 219.179 138.532C219.219 138.305 219.568 138.754 219.614 138.822C219.732 138.99 219.859 139.151 219.996 139.304C220.001 139.31 220.009 139.314 220.017 139.315C220.025 139.315 220.033 139.313 220.039 139.307C220.045 139.302 220.049 139.295 220.05 139.286C220.05 139.278 220.047 139.27 220.042 139.264ZM221.368 140.46C221.779 140.167 222.074 139.739 222.2 139.251L223.821 139.579C223.373 140.705 222.727 141.465 221.615 141.992C221.372 141.561 221.161 141.113 220.983 140.652C221.127 140.621 221.262 140.556 221.376 140.463L221.368 140.46Z"
        fill="black" />
    <path
        d="M220.491 134.206C220.486 133.879 220.085 133.867 219.849 133.815C219.67 133.775 219.429 133.8 219.418 133.626C219.399 133.307 219.336 133.016 218.964 132.947C218.442 132.844 218.448 133.477 218.253 133.456C217.904 133.419 217.451 133.07 217.285 133.711C217.268 133.756 217.227 133.929 217.296 133.958C217.745 134.129 219.79 134.565 220.318 134.664C220.456 134.689 220.492 134.284 220.494 134.203L220.491 134.206ZM218.717 133.601C218.546 133.329 218.901 133.117 219.01 133.339C219.171 133.659 218.841 133.794 218.726 133.605L218.717 133.601ZM223.79 127.188C223.855 127.199 223.885 127.09 223.82 127.074C223.468 126.982 223.547 126.903 223.742 126.519C223.864 126.27 224.008 126.032 224.171 125.807C224.174 125.8 224.174 125.793 224.171 125.786C224.169 125.779 224.164 125.773 224.158 125.769C224.152 125.765 224.145 125.763 224.138 125.764C224.131 125.764 224.124 125.767 224.118 125.772C223.865 126.087 223.651 126.431 223.48 126.798C223.38 127.031 223.586 127.15 223.79 127.188ZM223.776 124.94C223.651 124.915 223.521 124.934 223.408 124.993C223.252 125.087 223.317 125.181 223.355 125.131C223.467 125.058 223.602 125.03 223.733 125.052C223.861 125.057 223.84 124.964 223.776 124.94ZM225.269 125.669C225.4 125.739 225.5 125.857 225.548 125.998C225.563 126.048 225.642 126.051 225.598 125.868C225.583 125.798 225.551 125.733 225.507 125.678C225.463 125.622 225.406 125.578 225.342 125.547C225.259 125.536 225.208 125.623 225.269 125.669ZM224.793 126.596C224.88 126.63 225.055 126.393 224.955 126.311C224.855 126.228 224.695 126.559 224.793 126.596ZM223.35 125.584C223.276 125.555 223.103 125.828 223.195 125.863C223.286 125.898 223.453 125.634 223.35 125.584ZM224.17 128.014C224.873 128.395 225.103 127.565 224.89 127.638C224.788 127.677 224.855 128.175 224.195 127.966C224.166 127.954 224.137 128.001 224.17 128.014Z"
        fill="black" />
    <path fill-rule="evenodd" clip-rule="evenodd"
        d="M166.428 209.313C166.763 209.361 167.087 209.477 167.386 209.641L167.386 209.641C168.247 210.152 168.659 211.222 168.816 212.211C168.822 212.233 168.806 212.246 168.788 212.246C168.79 212.259 168.792 212.272 168.794 212.285C168.691 212.306 168.585 212.329 168.48 212.351L168.48 212.351L168.48 212.351L168.48 212.351C168.261 212.398 168.05 212.443 167.885 212.474L167.885 212.474C167.814 212.487 167.74 212.509 167.67 212.55C167.658 212.558 167.648 212.567 167.638 212.576L167.303 212.625L167.303 212.625C167.238 212.627 167.202 212.662 167.172 212.72C167.159 212.745 167.147 212.771 167.137 212.798L166.891 212.803L166.891 212.803C166.833 212.805 166.771 212.789 166.733 212.737C166.445 212.505 166.076 212.381 165.701 212.403C165.559 212.402 165.417 212.419 165.279 212.451C164.666 211.573 164.015 210.715 163.292 209.96C161.794 210.754 160.334 211.711 159.196 212.975C159.623 213.771 160.252 214.741 160.988 215.659C160.952 215.734 160.921 215.811 160.896 215.89C160.758 216.24 160.76 216.629 160.89 216.976C160.909 217.002 160.915 217.038 160.916 217.067L160.915 217.075C160.914 217.081 160.913 217.087 160.912 217.092C160.907 217.117 160.899 217.141 160.85 217.278L160.85 217.279L160.85 217.279C160.84 217.307 160.829 217.339 160.816 217.376C160.786 217.378 160.756 217.381 160.726 217.385L160.726 217.385C160.671 217.387 160.623 217.417 160.601 217.475L160.45 217.778C160.438 217.785 160.427 217.792 160.415 217.8C160.354 217.854 160.311 217.917 160.276 217.981C160.202 218.116 160.099 218.334 159.989 218.572C159.768 218.149 159.587 217.814 159.156 217.43C158.773 217.088 158.287 216.837 157.812 216.721C157.644 216.679 157.477 216.635 157.318 216.577C156.701 216.352 156.333 215.728 156.23 215.102C156.075 214.159 156.436 213.054 156.963 212.379C157.141 212.151 157.331 211.981 157.526 211.807C157.822 211.542 158.129 211.268 158.418 210.765C158.631 210.377 158.712 210.132 158.792 209.891C158.84 209.746 158.887 209.602 158.963 209.429C159.138 209.049 159.531 208.601 159.825 208.324C160.301 207.86 160.819 207.415 161.44 207.166C162.326 206.814 163.37 206.92 163.964 207.652C164.072 207.788 164.151 207.94 164.229 208.092C164.32 208.268 164.411 208.444 164.545 208.593C164.945 209.04 165.553 209.151 166.122 209.255C166.226 209.274 166.328 209.292 166.428 209.313ZM167.78 213.961C167.95 214.002 168.33 214.085 168.732 214.166C168.587 214.684 168.309 215.151 167.85 215.54C167.87 215.455 167.858 215.384 167.79 215.316L167.79 215.316C167.429 214.952 166.949 214.606 166.492 214.368C165.953 214.539 165.314 214.813 164.81 215.053C165.332 214.651 165.816 214.303 166.318 213.989L166.276 213.925C166.227 213.852 166.179 213.779 166.13 213.706L166.13 213.706C166.196 213.723 166.262 213.739 166.327 213.752C166.422 213.773 166.521 213.771 166.615 213.763C166.668 213.759 166.7 213.738 166.733 213.716C166.76 213.699 166.787 213.681 166.828 213.669C166.832 213.669 166.837 213.668 166.842 213.667C166.857 213.663 166.876 213.66 166.893 213.662C166.984 213.664 167.078 213.666 167.171 213.67C167.185 213.697 167.2 213.723 167.216 213.749C167.249 213.795 167.282 213.837 167.348 213.834C167.451 213.855 167.556 213.87 167.659 213.878C167.701 213.935 167.718 213.941 167.754 213.952C167.761 213.955 167.77 213.958 167.78 213.961ZM161.534 220.029C161.63 220.032 161.727 220.025 161.822 220.006C162.236 219.92 162.534 219.628 162.805 219.361C162.773 219.336 162.752 219.295 162.747 219.237C162.64 218.743 162.592 218.247 162.608 217.745C162.609 217.723 162.609 217.704 162.609 217.687L162.609 217.687L162.609 217.687L162.609 217.687C162.608 217.586 162.608 217.567 162.71 217.399C162.988 216.94 163.345 216.409 163.672 215.958C163.477 216.116 163.275 216.282 163.062 216.455L163.062 216.455L163.062 216.455L163.061 216.455L163.061 216.456L163.061 216.456L163.06 216.456C162.815 216.656 162.558 216.866 162.284 217.089C162.186 216.995 162.089 216.898 161.993 216.8C161.99 216.836 161.986 216.872 161.982 216.907C161.972 217.004 161.94 217.097 161.902 217.184C161.882 217.233 161.852 217.257 161.821 217.282C161.796 217.301 161.77 217.322 161.747 217.357C161.745 217.361 161.743 217.365 161.74 217.369C161.732 217.383 161.723 217.399 161.72 217.417C161.689 217.507 161.661 217.599 161.637 217.689C161.655 217.708 161.673 217.728 161.69 217.749C161.725 217.797 161.745 217.83 161.736 217.895C161.722 217.996 161.705 218.097 161.682 218.194L161.682 218.195C161.733 218.262 161.733 218.279 161.733 218.32L161.733 218.32L161.733 218.32C161.733 218.328 161.733 218.337 161.733 218.348C161.71 218.626 161.623 219.452 161.534 220.029ZM165.471 212.729L165.473 212.732C165.485 212.732 165.497 212.732 165.509 212.732C165.496 212.731 165.484 212.73 165.471 212.729ZM159.099 211.263C159.149 211.271 159.934 211.563 159.979 211.586L159.979 211.586C160.1 211.648 160.023 211.702 159.942 211.694C159.841 211.683 159.147 211.469 159.037 211.399C158.969 211.347 159.024 211.257 159.099 211.263ZM160.956 210.841C160.805 210.558 160.447 210.028 160.351 209.936C160.3 209.893 160.214 209.956 160.246 210.012C160.255 210.028 160.828 210.779 160.905 210.867C160.922 210.905 160.973 210.878 160.956 210.841ZM162.08 209.476C162.099 209.587 162.097 210.031 162.057 210.243C162.044 210.315 161.987 210.298 161.983 210.235C161.973 210.09 161.969 209.564 161.975 209.482C161.987 209.443 162.06 209.42 162.08 209.476Z"
        fill="black" />
    <path
        d="M167.165 218.341C167.124 218.49 167.085 218.513 167.035 218.646C167.032 218.669 167.054 218.686 167.083 218.646C167.13 218.583 167.19 218.469 167.22 218.362C167.234 218.335 167.188 218.298 167.165 218.341Z"
        fill="black" />
    <path
        d="M167.277 218.505C167.189 218.743 167.164 218.761 167.135 218.808C167.13 218.816 167.163 218.856 167.194 218.826C167.284 218.735 167.321 218.595 167.339 218.545C167.391 218.406 167.295 218.397 167.277 218.505L167.277 218.505Z"
        fill="black" />
    <path
        d="M164.527 215.477C164.834 215.916 165.101 216.291 165.456 216.685C165.475 216.711 165.541 216.657 165.511 216.628C165.158 216.223 164.907 215.86 164.59 215.429C164.549 215.374 164.481 215.412 164.527 215.477Z"
        fill="black" />
    <path fill-rule="evenodd" clip-rule="evenodd"
        d="M163.596 216.02C163.218 216.558 162.696 217.368 162.59 217.548C162.567 217.586 162.568 217.605 162.568 217.627C162.568 217.63 162.568 217.635 162.568 217.639C162.537 218.166 162.61 218.688 162.705 219.207C162.722 219.296 162.739 219.392 162.839 219.42C162.93 219.434 163.018 219.431 163.109 219.405C163.109 219.405 163.656 219.319 163.763 219.301C163.923 219.471 164.036 219.569 164.123 219.644C164.143 219.661 164.161 219.677 164.178 219.693C164.232 219.753 164.315 219.784 164.389 219.79C164.501 219.779 164.609 219.761 164.711 219.737C164.801 219.721 164.887 219.706 164.969 219.691C165.79 219.546 166.277 219.459 167.23 219.246C167.252 219.239 167.257 219.219 167.251 219.197C167.614 218.554 167.881 217.865 168.076 217.152C168.085 217.121 168.093 217.09 168.102 217.059C168.141 216.921 168.18 216.781 168.205 216.638C168.231 216.489 168.146 216.363 168.064 216.242C168.047 216.217 168.03 216.191 168.014 216.166C167.995 216.136 167.977 216.107 167.958 216.077C167.907 215.996 167.857 215.914 167.803 215.833C167.828 215.761 167.853 215.688 167.875 215.615C167.911 215.539 167.919 215.453 167.891 215.373C167.845 215.296 167.781 215.222 167.709 215.164L167.709 215.164C167.374 214.847 167 214.562 166.577 214.36C166.51 214.328 166.477 214.324 166.436 214.339C166.056 214.478 165.412 214.747 164.887 214.994C164.8 215.061 164.713 215.128 164.624 215.198C164.633 215.193 164.642 215.189 164.651 215.185C165.273 214.876 165.811 214.634 166.466 214.4C166.249 215.066 165.974 215.706 165.636 216.325C165.571 216.443 165.48 216.572 165.392 216.695C165.352 216.75 165.314 216.804 165.279 216.856C165.234 216.855 164.523 217.064 164.021 217.211C163.948 217.232 163.879 217.252 163.817 217.27C163.74 217.293 163.662 217.317 163.584 217.341C163.276 217.434 162.963 217.53 162.642 217.569C163.052 216.914 163.23 216.659 163.427 216.379C163.516 216.252 163.608 216.12 163.728 215.943L163.728 215.943C163.743 215.92 163.759 215.897 163.775 215.874C163.716 215.922 163.657 215.971 163.596 216.02ZM162.787 219.278C162.832 219.395 162.939 219.376 163.035 219.358C163.346 219.301 163.609 219.257 163.84 219.219C164.287 219.145 164.613 219.09 164.928 218.999C164.965 218.989 165.002 218.98 165.04 218.97C165.103 218.954 165.165 218.939 165.22 218.918C165.24 218.911 165.262 218.904 165.285 218.897C165.36 218.873 165.444 218.847 165.485 218.787C165.527 218.724 165.514 218.645 165.501 218.574C165.498 218.556 165.495 218.538 165.493 218.521C165.462 218.366 165.43 218.096 165.393 217.791C165.359 217.515 165.322 217.211 165.28 216.938C165.245 216.942 164.622 217.116 163.638 217.41C163.584 217.426 163.529 217.443 163.475 217.46C163.201 217.544 162.923 217.629 162.64 217.654C162.622 218.095 162.643 218.537 162.725 218.972C162.738 219.072 162.756 219.18 162.787 219.278ZM164.531 219.701C164.549 219.696 164.568 219.692 164.586 219.688L164.587 219.688C165.445 219.536 166.303 219.384 167.146 219.187C166.601 218.609 165.95 217.821 165.364 216.985C165.396 217.216 165.425 217.447 165.454 217.678C165.486 217.937 165.519 218.197 165.556 218.455C165.58 218.558 165.588 218.652 165.578 218.749C165.559 218.833 165.49 218.903 165.41 218.931C164.944 219.09 164.312 219.207 163.83 219.289C163.925 219.384 164.169 219.625 164.282 219.697C164.355 219.744 164.447 219.721 164.531 219.701ZM167.975 216.258C167.937 216.202 167.894 216.138 167.845 216.057C167.82 216.016 167.794 215.976 167.767 215.935C167.737 216.018 167.707 216.1 167.676 216.183L167.673 216.192C167.41 216.898 167.014 217.559 166.818 217.792C166.768 217.848 166.681 217.851 166.625 217.802C166.612 217.792 166.58 217.766 166.533 217.727C166.324 217.555 165.819 217.138 165.409 216.923C165.422 216.939 165.453 216.982 165.501 217.049C165.721 217.357 166.302 218.171 167.2 219.136C167.628 218.402 167.891 217.653 168.086 216.804C168.116 216.722 168.131 216.632 168.127 216.544C168.099 216.443 168.047 216.366 167.975 216.258ZM167.634 216.07C167.704 215.889 167.77 215.714 167.814 215.529L167.814 215.529C167.836 215.433 167.783 215.372 167.725 215.306C167.719 215.3 167.713 215.293 167.707 215.286C167.543 215.094 167.064 214.709 166.538 214.434C166.466 214.681 166.202 215.429 165.924 215.99C165.79 216.275 165.603 216.568 165.412 216.831C165.792 216.986 166.527 217.612 166.632 217.701C166.64 217.708 166.644 217.712 166.644 217.712C166.701 217.751 166.74 217.768 166.783 217.717C166.818 217.682 166.841 217.645 166.865 217.608C167.195 217.121 167.463 216.555 167.634 216.07Z"
        fill="black" />
    <path fill-rule="evenodd" clip-rule="evenodd"
        d="M160.771 216.631C160.728 216.292 160.807 215.938 160.963 215.628C160.977 215.645 160.991 215.662 161.005 215.68C160.832 216.042 160.768 216.439 160.867 216.833C160.874 216.859 160.885 216.886 160.897 216.913C160.924 216.978 160.951 217.045 160.932 217.116C160.905 217.205 160.877 217.291 160.843 217.375C160.827 217.375 160.811 217.376 160.795 217.377C160.833 217.255 160.845 217.223 160.854 217.198C160.86 217.181 160.865 217.167 160.878 217.125C160.89 217.086 160.886 217.039 160.869 217.001C160.824 216.884 160.785 216.762 160.771 216.631ZM161.668 217.723C161.683 217.664 161.699 217.606 161.716 217.55C161.725 217.493 161.746 217.438 161.771 217.39C161.791 217.362 161.815 217.34 161.839 217.318C161.851 217.307 161.863 217.296 161.875 217.285C161.939 217.208 161.976 217.121 161.993 217.019C162.003 216.955 162.013 216.891 162.02 216.828C162.001 216.809 161.982 216.789 161.963 216.769C161.938 217.009 161.92 217.172 161.764 217.284C161.7 217.361 161.656 217.453 161.64 217.555C161.629 217.591 161.618 217.626 161.608 217.661C161.629 217.681 161.649 217.701 161.668 217.723Z"
        fill="black" />
    <path fill-rule="evenodd" clip-rule="evenodd"
        d="M166.758 213.715C166.593 213.834 166.356 213.785 166.146 213.731L166.1 213.661C166.132 213.668 166.162 213.675 166.189 213.682C166.301 213.709 166.385 213.73 166.551 213.73C166.591 213.73 166.64 213.715 166.685 213.693C166.812 213.601 166.948 213.612 167.152 213.631C167.161 213.65 167.171 213.67 167.181 213.689C167.101 213.684 167.021 213.68 166.944 213.68C166.88 213.676 166.815 213.683 166.758 213.715ZM167.149 212.769C167.106 212.768 167.037 212.767 166.922 212.765L166.922 212.765C166.886 212.771 166.841 212.764 166.802 212.752C166.749 212.72 166.703 212.683 166.658 212.636C166.529 212.534 166.193 212.386 165.842 212.365C165.66 212.353 165.452 212.369 165.253 212.414L165.281 212.454C165.753 212.352 166.29 212.425 166.656 212.713C166.696 212.754 166.749 212.786 166.804 212.806C166.867 212.81 166.93 212.815 166.995 212.808C167.043 212.808 167.089 212.807 167.134 212.805C167.139 212.793 167.144 212.781 167.149 212.769ZM165.502 212.737C165.494 212.737 165.485 212.737 165.477 212.738C165.463 212.717 165.448 212.695 165.433 212.674C165.455 212.675 165.478 212.676 165.5 212.678C165.54 212.679 165.538 212.731 165.502 212.737Z"
        fill="black" />
    <path
        d="M163.369 212.889C163.326 212.84 163.254 212.812 163.189 212.819C163.122 212.837 163.069 212.875 163.026 212.927C162.841 213.134 162.416 213.431 162.209 213.528C162.143 213.546 162.079 213.582 162.024 213.632C161.901 213.789 162.04 213.988 162.217 213.953C162.223 213.948 162.228 213.955 162.235 213.95C162.33 213.924 162.379 213.79 162.533 213.934C162.575 213.96 163 214.274 163.055 214.31C163.076 214.324 163.104 214.269 163.089 214.253C163.011 214.172 162.762 214.027 162.665 213.949C162.599 213.896 162.53 213.846 162.45 213.804C162.384 213.782 162.312 213.794 162.258 213.843C162.192 213.891 162.093 213.892 162.06 213.806C162.025 213.701 162.12 213.653 162.202 213.613C162.454 213.515 162.89 213.2 163.062 212.991C163.119 212.93 163.201 212.85 163.289 212.917C163.361 212.975 163.329 213.068 163.263 213.116C163.206 213.147 163.172 213.211 163.168 213.275C163.201 213.478 163.379 213.886 163.408 214.01C163.42 214.063 163.477 214.013 163.47 213.988C163.425 213.82 163.306 213.53 163.261 213.348C163.243 213.31 163.244 213.269 163.261 213.237C163.289 213.207 163.315 213.188 163.348 213.164C163.429 213.096 163.439 212.968 163.369 212.889Z"
        fill="black" />
    <path
        d="M161.67 217.693C161.462 217.465 161.081 217.305 160.694 217.368C160.658 217.374 160.627 217.387 160.605 217.412C160.582 217.449 160.563 217.493 160.545 217.536C160.503 217.61 160.468 217.686 160.435 217.764C160.187 217.904 160.061 218.419 159.494 219.598C159.492 219.61 159.519 219.62 159.528 219.604C159.794 219.117 160.01 218.554 160.253 218.088C160.292 217.989 160.359 217.901 160.435 217.826C160.549 217.763 160.681 217.738 160.812 217.753C161.072 217.766 161.31 217.874 161.497 218.049C161.543 218.085 161.588 218.133 161.626 218.186C161.651 218.207 161.67 218.233 161.688 218.271C161.695 218.296 161.696 218.325 161.691 218.359C161.688 218.411 161.686 218.463 161.672 218.513C161.572 219.438 161.518 219.921 161.394 220.536C161.381 220.586 161.455 220.592 161.462 220.547C161.545 220.224 161.563 219.991 161.622 219.62C161.7 219.082 161.726 218.737 161.757 218.381C161.764 218.336 161.758 218.3 161.748 218.258C161.739 218.241 161.729 218.225 161.719 218.209C161.75 218.063 161.757 217.995 161.767 217.883C161.762 217.807 161.732 217.738 161.67 217.693L161.67 217.693ZM161.683 218.084C161.678 218.103 161.674 218.122 161.669 218.14C161.489 217.919 161.242 217.777 160.975 217.715C160.79 217.676 160.586 217.701 160.492 217.737C160.589 217.563 160.579 217.525 160.658 217.444C160.703 217.422 160.751 217.407 160.803 217.409C161.19 217.389 161.506 217.562 161.678 217.787C161.737 217.865 161.704 217.989 161.683 218.084L161.683 218.084Z"
        fill="black" />
    <path
        d="M169.328 212.171C168.815 212.237 167.903 212.439 167.793 212.471C167.732 212.487 167.677 212.518 167.63 212.559C167.506 212.568 167.316 212.59 167.279 212.597C167.247 212.603 167.217 212.613 167.198 212.631C167.148 212.687 167.113 212.762 167.095 212.835C167.029 213.032 167.013 213.219 167.065 213.458C167.083 213.525 167.107 213.598 167.143 213.662C167.172 213.73 167.215 213.79 167.266 213.833C167.347 213.875 167.437 213.889 167.523 213.897C167.678 213.931 167.607 213.883 167.672 213.95C167.725 213.982 167.791 214.004 167.847 214.013C167.885 214.019 169.43 214.379 169.936 214.394C169.981 214.401 169.994 214.322 169.946 214.326C169.689 214.302 169.434 214.261 169.181 214.209C168.874 214.147 168.207 214.028 167.854 213.938C167.781 213.921 167.718 213.917 167.67 213.851C167.599 213.752 167.552 213.646 167.512 213.535C167.436 213.32 167.433 213.081 167.504 212.86C167.528 212.742 167.603 212.638 167.692 212.553C167.787 212.505 167.892 212.469 167.997 212.463C168.437 212.365 168.881 212.273 169.319 212.187C169.353 212.192 169.352 212.163 169.328 212.171L169.328 212.171ZM167.496 213.666C167.543 213.755 167.505 213.703 167.588 213.841C167.568 213.839 167.548 213.837 167.528 213.834C167.437 213.819 167.307 213.823 167.247 213.737C167.15 213.596 167.098 213.434 167.089 213.27C167.06 213.024 167.158 212.757 167.246 212.668C167.285 212.647 167.489 212.62 167.581 212.609C167.384 212.844 167.327 213.296 167.496 213.666L167.496 213.666Z"
        fill="black" />
    <path
        d="M163.066 211.446C162 210.739 160.467 211.763 160.722 213.022C160.837 213.61 161.366 214.008 161.892 214.238C162.2 214.371 162.512 214.472 162.801 214.625C162.767 214.659 162.747 214.688 162.765 214.738C162.826 214.864 162.894 214.985 162.981 215.092C163.065 215.222 163.162 215.342 163.259 215.462C163.268 215.475 163.284 215.483 163.298 215.474C163.54 215.364 164.181 214.974 164.503 214.621C164.511 214.605 164.513 214.594 164.504 214.581C164.361 214.36 164.159 214.068 163.97 213.885C163.925 213.85 163.888 213.865 163.846 213.886C163.717 213.02 163.847 212.828 163.585 212.122C163.484 211.844 163.306 211.612 163.066 211.446L163.066 211.446ZM163.972 213.984C164.138 214.173 164.296 214.377 164.431 214.589C164.196 214.845 163.625 215.244 163.289 215.396C163.227 215.319 163.166 215.24 163.107 215.16C163.447 214.917 164 214.538 164.189 214.408C164.202 214.399 164.199 214.381 164.189 214.368C164.184 214.361 164.173 214.359 164.155 214.362C164.088 214.41 163.196 215.028 163.076 215.116C163.029 215.049 162.984 214.981 162.941 214.912C163.113 214.786 163.277 214.646 163.456 214.516C163.942 214.164 163.865 214.233 164.001 214.135C164.027 214.116 163.998 214.076 163.972 214.095C163.57 214.344 163.214 214.626 162.919 214.877C162.898 214.841 162.878 214.806 162.858 214.77C162.807 214.699 162.809 214.686 162.893 214.625C163.237 214.304 163.74 213.991 163.9 213.926C163.922 213.93 163.946 213.963 163.972 213.984L163.972 213.984ZM163.694 212.964C163.717 213.28 163.689 213.62 163.79 213.917C163.293 214.194 163.208 214.253 162.849 214.58C162.471 214.304 161.992 214.308 161.336 213.829C160.876 213.492 160.638 212.936 160.825 212.347C161.109 211.475 162.197 210.999 162.979 211.479C163.482 211.786 163.648 212.416 163.694 212.964Z"
        fill="black" />
    <path
        d="M160.795 217.609C160.824 217.589 160.83 217.549 160.809 217.52C160.789 217.492 160.749 217.485 160.72 217.506C160.692 217.527 160.685 217.566 160.706 217.595C160.727 217.624 160.767 217.63 160.795 217.609Z"
        fill="black" />
    <path
        d="M167.344 212.884C167.373 212.863 167.379 212.823 167.359 212.794C167.338 212.766 167.298 212.76 167.27 212.78C167.241 212.801 167.235 212.841 167.255 212.869C167.276 212.898 167.316 212.904 167.344 212.884Z"
        fill="black" />
    <path
        d="M161.783 215.539C161.733 215.484 161.677 215.503 161.627 215.531C161.556 215.571 161.491 215.62 161.43 215.674C161.177 215.876 160.956 216.199 160.888 216.557C160.873 216.578 160.9 216.588 160.915 216.567C160.971 216.396 161.052 216.233 161.151 216.076C161.296 215.844 161.467 215.727 161.626 215.612C161.665 215.584 161.722 215.552 161.723 215.622C161.68 215.887 161.569 216.142 161.392 216.382C161.384 216.398 161.382 216.41 161.391 216.423C161.531 216.616 161.578 216.845 161.558 217.083C161.552 217.157 161.528 217.235 161.511 217.307C161.494 217.34 161.559 217.366 161.577 217.33C161.614 217.255 161.632 217.17 161.633 217.089C161.656 216.844 161.616 216.621 161.465 216.401C161.611 216.204 161.712 215.984 161.779 215.741C161.795 215.68 161.832 215.593 161.783 215.539L161.783 215.539Z"
        fill="black" />
    <path fill-rule="evenodd" clip-rule="evenodd"
        d="M163.322 209.919C163.308 209.899 163.285 209.895 163.266 209.91C161.727 210.737 160.355 211.654 159.168 212.936C159.143 212.959 159.156 212.992 159.178 213.005C159.398 213.441 159.856 214.155 160.143 214.573C160.468 215.045 160.818 215.516 161.193 215.965C161.212 215.94 161.232 215.915 161.253 215.891C160.445 214.931 159.901 214.043 159.413 213.247C159.356 213.156 159.301 213.065 159.246 212.976C159.909 212.262 160.472 211.8 161.145 211.317C161.178 211.363 161.227 211.425 161.301 211.517C161.473 211.734 161.778 212.115 162.298 212.833C163.304 214.188 163.601 214.656 164.063 215.38C164.09 215.423 164.118 215.466 164.146 215.511C163.491 216.038 162.753 216.648 162.408 216.933L162.408 216.934L162.406 216.935C162.366 216.968 162.332 216.996 162.303 217.02C162.025 216.749 161.771 216.482 161.538 216.22C161.521 216.249 161.503 216.277 161.485 216.305C161.733 216.585 161.99 216.854 162.257 217.108C162.273 217.116 162.285 217.118 162.298 217.108C162.813 216.686 163.326 216.274 163.846 215.858L163.93 215.79C164.766 215.12 165.498 214.533 166.332 214.008C166.352 213.994 166.355 213.972 166.341 213.952C166.206 213.758 166.057 213.534 165.894 213.289L165.894 213.289C165.859 213.237 165.823 213.183 165.787 213.129C165.766 213.134 165.744 213.138 165.722 213.141C165.828 213.298 165.929 213.459 166.031 213.62L166.031 213.62C166.103 213.735 166.176 213.85 166.25 213.964C165.542 214.416 164.875 214.926 164.222 215.45C163.508 214.283 161.484 211.61 161.201 211.277C161.639 210.966 162.238 210.569 163.277 210.003C164.08 210.867 164.809 211.828 165.486 212.8C165.506 212.79 165.526 212.78 165.547 212.77C164.963 211.906 164.227 210.872 163.322 209.919L163.322 209.919Z"
        fill="black" />
    <path
        d="M166.337 212.603C166.015 212.546 165.667 212.647 165.392 212.806C165.322 212.847 165.245 212.893 165.184 212.947C165.138 212.98 165.083 213.03 165.086 213.088C165.088 213.147 165.17 213.177 165.222 213.18C165.487 213.211 165.757 213.183 166.014 213.098C166.112 213.226 166.239 213.325 166.378 213.394C166.516 213.462 166.715 213.523 166.866 213.502C166.884 213.499 166.897 213.489 166.895 213.471C166.892 213.453 166.882 213.44 166.864 213.443C166.785 213.43 166.715 213.431 166.636 213.418C166.397 213.361 166.208 213.235 166.061 213.053C166.052 213.04 166.036 213.031 166.022 213.041C165.845 213.1 165.659 213.134 165.472 213.139C165.425 213.143 165.373 213.14 165.328 213.133C165.281 213.137 165.236 213.13 165.197 213.118C165.131 213.096 165.185 213.046 165.218 213.022C165.561 212.774 165.865 212.646 166.347 212.646C166.36 212.636 166.359 212.607 166.337 212.603L166.337 212.603Z"
        fill="black" />
    <path fill-rule="evenodd" clip-rule="evenodd"
        d="M349.911 229.534C349.978 229.672 350.231 229.714 350.397 229.743C351.753 229.988 357.629 230.125 358.196 229.64C358.691 229.225 358.432 222.429 357.95 222.153C357.327 221.782 350.523 221.696 350.048 222.074C349.702 222.36 349.473 228.573 349.911 229.534ZM350.152 222.161C350.531 221.846 357.177 222.098 357.775 222.39C358.093 223.247 358.289 228.629 357.976 229.394C357.468 229.742 351.25 229.716 350.165 229.377C349.743 228.357 349.914 222.36 350.152 222.161ZM333.389 221.397C333.224 221.679 333 221.922 332.734 222.112C332.468 222.301 332.164 222.432 331.844 222.496C331.834 222.493 331.824 222.493 331.814 222.495C331.804 222.497 331.794 222.501 331.786 222.507C331.778 222.514 331.772 222.522 331.767 222.531C331.763 222.54 331.761 222.55 331.761 222.56C331.761 222.57 331.763 222.58 331.767 222.589C331.772 222.598 331.778 222.606 331.786 222.613C331.794 222.619 331.804 222.623 331.813 222.625C331.823 222.627 331.834 222.627 331.843 222.625C332.575 222.817 333.529 222.154 333.53 221.422C333.534 221.403 333.53 221.384 333.519 221.368C333.508 221.353 333.491 221.342 333.472 221.339C333.454 221.335 333.434 221.34 333.419 221.351C333.403 221.361 333.392 221.378 333.389 221.397ZM329.999 217.667L329.999 218.083C329.998 218.138 330.02 218.191 330.059 218.23C330.098 218.269 330.151 218.291 330.206 218.292C330.261 218.291 330.313 218.268 330.352 218.23C330.391 218.191 330.413 218.139 330.414 218.084L330.415 217.668C330.415 217.613 330.394 217.56 330.355 217.521C330.316 217.482 330.263 217.46 330.208 217.46C330.153 217.46 330.1 217.481 330.061 217.52C330.022 217.559 330 217.612 329.999 217.667ZM334.145 218.071C334.145 218.127 334.167 218.179 334.206 218.219C334.244 218.258 334.297 218.28 334.352 218.28C334.408 218.28 334.461 218.258 334.5 218.219C334.539 218.18 334.561 218.127 334.561 218.072L334.562 217.557C334.562 217.501 334.54 217.449 334.501 217.409C334.462 217.37 334.41 217.348 334.354 217.348C334.299 217.348 334.246 217.37 334.207 217.409C334.168 217.448 334.146 217.501 334.146 217.556C334.129 217.735 334.145 217.942 334.145 218.071Z"
        fill="black" />
    <path fill-rule="evenodd" clip-rule="evenodd"
        d="M358.193 248.209C358.165 248.163 358.127 248.124 358.081 248.097C357.723 247.921 355.777 248.005 355.373 248.02C355.468 237.112 349.735 230.295 341.397 228.326C339.867 227.965 339.863 227.941 339.821 227.965L339.54 227.187C340.339 227.164 340.993 226.55 341.725 226.676C342.277 226.769 342.555 227.26 343.099 227.469C344.022 227.821 345.666 227.288 346.171 226.411C346.43 225.954 346.202 225.48 346.365 225.164C346.657 224.911 347.485 224.505 347.723 224.21C348.211 223.604 348.235 222.244 348.016 221.508C347.62 220.674 347.079 219.917 346.419 219.271C345.702 218.576 345.066 217.802 344.524 216.963C343.857 215.626 343.836 213.78 343.286 212.385C342.679 211.126 341.738 210.058 340.565 209.298C339.419 208.485 338.037 208.074 336.633 208.129C335.323 208.209 334.81 208.765 334.198 208.955C333.586 209.145 333.458 208.954 332.463 209.388C332.068 209.628 331.716 209.932 331.421 210.288C331.296 210.421 331.305 210.429 331.092 210.437C330.864 210.42 330.635 210.419 330.406 210.436C330.017 210.521 329.644 210.671 329.303 210.878C326.984 212.262 327.601 215.059 326.723 217.111C326.126 218.507 324.468 219.847 324.323 221.306C324.271 221.978 324.414 222.649 324.735 223.241C325.741 225.019 327.196 223.629 327.946 224.716C328.183 225.058 328.361 225.391 328.801 225.458C329.363 225.535 330.129 225.091 330.587 224.764C330.683 224.876 330.792 224.977 330.911 225.064C331.316 225.338 331.75 225.565 332.207 225.74L331.147 227.214C329.168 226.986 326.127 227.619 324.166 228.218C324.097 227.719 323.49 223.596 323.025 223.396C322.381 223.111 315.613 223.883 315.2 224.327C314.896 224.65 315.427 230.828 316.016 231.752C316.103 231.894 316.402 231.899 316.568 231.903C315.594 232.566 314.652 233.238 314.315 233.483C314.055 232.575 312.689 227.777 312.183 226.99C312.038 226.761 311.905 226.765 311.235 226.988C310.857 225.083 310.378 223.199 309.8 221.345C310.019 220.987 310.195 220.603 310.322 220.203C310.479 219.569 310.503 218.909 310.393 218.265C310.9 218.437 313.93 219.275 314.421 219.035C314.553 218.941 314.651 218.807 314.701 218.653C315.24 217.481 316.168 213.478 316.241 212.21C316.271 212.048 316.243 211.88 316.163 211.736C315.678 211.227 309.136 209.329 308.582 209.577C308.245 209.73 307.328 212.719 307.231 213.072C306.431 215.736 306.836 215.151 306.395 215.303C305.887 215.481 305.448 216.549 305.268 217.044C305.088 217.538 304.899 218.203 305.111 218.595C305.024 218.753 304.989 218.935 305.01 219.115C305.031 219.294 305.108 219.463 305.229 219.597C305.096 219.744 305.01 219.927 304.98 220.123C304.95 220.318 304.978 220.519 305.06 220.699C305.18 221.078 305.932 221.329 306.306 221.438C306.009 222.233 305.761 223.047 305.565 223.873C305.23 225.155 304.962 226.454 304.762 227.764C304.638 228.401 304.596 229.051 304.637 229.698L303.954 230.004C303.928 230.016 303.906 230.035 303.89 230.06C303.875 230.084 303.867 230.112 303.867 230.141C303.867 230.141 303.985 235.182 305.635 239.374C307.629 244.448 310.923 246.152 315.947 244.266C315.991 244.664 316.088 245.055 316.235 245.427C316.31 245.56 316.564 245.586 316.734 245.603C318.21 245.654 319.688 245.612 321.159 245.475L322.39 253.38C322.051 254.352 318.205 265.432 318.256 266.463C318.256 266.571 318.298 266.654 318.476 266.738C319.577 267.252 330.017 268.639 330.415 267.5C330.515 267.222 330.76 265.446 330.807 265.11L336.685 264.474L342.286 264.856C342.345 265.417 342.444 265.973 342.582 266.52C342.631 266.645 342.689 266.712 342.835 266.7C343.388 266.647 346.338 266.121 347.154 265.969C350.282 265.385 350.212 265.335 350.121 265.027C349.902 264.299 347.868 258.617 347.076 255.966C348.243 256.094 349.421 256.096 350.59 255.974C350.602 256.019 350.626 256.06 350.659 256.094C350.691 256.127 350.732 256.152 350.777 256.166C351.537 256.446 358.338 256.074 358.896 255.518C359.4 255.074 358.57 248.842 358.193 248.209ZM308.59 209.756C308.636 209.686 308.619 209.656 308.985 209.711C310.511 209.931 315.498 211.551 315.93 211.931C316.011 212.883 314.764 218.108 314.276 218.739C313.923 218.859 311.578 218.255 311.217 218.159C308.465 217.433 308.574 217.321 307.946 217.174C307.622 217.061 307.588 217.057 307.597 217.011C307.598 217.001 307.603 216.991 307.61 216.984C307.618 216.978 307.628 216.974 307.639 216.974C308.013 216.975 309.015 216.948 309.261 216.657C309.315 216.598 309.356 216.528 309.38 216.451C309.404 216.375 309.411 216.294 309.4 216.214C309.389 216.135 309.36 216.059 309.317 215.991C309.273 215.924 309.215 215.867 309.147 215.825C308.613 215.61 308.054 215.461 307.484 215.381C307.314 215.347 307.106 215.288 306.898 215.263C307.188 213.966 308.144 210.446 308.59 209.756ZM304.974 229.561L304.976 228.917C305.015 228.127 305.398 226.052 305.511 225.483C305.696 224.56 305.738 224.352 306.275 222.348C306.275 222.294 306.597 221.401 306.597 221.401C306.603 221.385 306.606 221.369 306.605 221.352C306.603 221.336 306.599 221.32 306.591 221.305C306.583 221.29 306.572 221.278 306.559 221.268C306.546 221.258 306.531 221.251 306.515 221.247C306.469 221.247 305.388 220.978 305.268 220.633C305.148 220.287 305.124 219.871 305.428 219.689C305.44 219.681 305.449 219.67 305.455 219.658C305.461 219.646 305.465 219.632 305.465 219.618C305.465 219.605 305.461 219.591 305.455 219.579C305.449 219.566 305.44 219.556 305.429 219.548C305.296 219.438 305.207 219.285 305.178 219.115C305.148 218.946 305.18 218.772 305.269 218.624C305.365 218.429 304.853 218.523 305.463 217.123C305.618 216.778 306.14 215.719 306.494 215.603C306.807 215.573 307.123 215.609 307.421 215.709C307.942 215.792 308.454 215.924 308.95 216.103C308.982 216.12 309.009 216.145 309.03 216.174C309.051 216.203 309.064 216.237 309.07 216.272C309.075 216.308 309.073 216.344 309.062 216.378C309.051 216.412 309.033 216.444 309.008 216.469C308.825 216.573 308.625 216.641 308.417 216.672C307.106 216.927 307.34 216.641 307.168 217.085C306.668 217.055 306.167 217.143 305.708 217.344C305.529 217.381 305.604 217.498 305.733 217.477C306.29 217.296 306.886 217.267 307.459 217.394C307.791 217.455 308.116 217.552 308.427 217.683C308.71 217.798 308.96 217.98 309.158 218.212C309.193 218.3 309.206 218.396 309.196 218.49C309.185 218.584 309.152 218.675 309.099 218.753C308.998 218.907 308.516 218.802 308.333 218.751C308.084 218.676 307.822 218.613 307.577 218.533C307.232 218.424 307.269 218.395 307.161 218.404C306.78 218.457 306.406 218.558 306.05 218.705C306.04 218.706 306.03 218.709 306.022 218.715C306.013 218.72 306.006 218.727 306.001 218.736C305.996 218.745 305.992 218.754 305.991 218.765C305.99 218.775 305.992 218.785 305.995 218.794C305.999 218.804 306.005 218.812 306.012 218.819C306.019 218.826 306.028 218.831 306.038 218.834C306.048 218.837 306.058 218.838 306.068 218.837C306.078 218.835 306.087 218.831 306.096 218.825C306.414 218.736 306.74 218.674 307.069 218.64C307.256 218.641 307.136 218.641 307.605 218.829C307.817 218.908 308.021 218.971 308.245 219.046C308.39 219.096 308.539 219.131 308.69 219.151C308.956 219.401 309.146 219.984 308.788 220.087C308.647 220.111 308.503 220.094 308.372 220.036C307.42 219.722 308.066 219.499 305.998 219.919C305.981 219.921 305.965 219.929 305.954 219.943C305.944 219.956 305.938 219.973 305.939 219.99C305.939 220.098 306.01 220.031 307.154 219.992C307.292 219.979 307.431 219.979 307.57 219.993C307.927 220.177 308.458 220.49 308.87 220.37C309.374 220.209 309.359 219.652 309.035 219.244C308.919 219.102 308.906 219.143 309.006 219.127C309.079 219.119 309.15 219.096 309.214 219.06C309.277 219.024 309.333 218.975 309.377 218.916C309.476 218.78 309.531 218.618 309.536 218.45C309.541 218.282 309.495 218.117 309.404 217.976L310.102 218.185C310.239 218.83 310.226 219.497 310.065 220.136C310.02 220.292 309.961 220.443 309.889 220.589C309.584 221.229 309.472 221.249 309.509 221.37C310.083 223.25 310.555 225.16 310.923 227.091C309.354 227.637 306.477 228.895 304.974 229.561ZM337.821 258.533C339.6 258.612 343.426 258.757 345.181 258.707C345.06 259.231 344.984 259.564 344.963 259.638C344.127 259.636 338.727 258.689 337.821 258.533ZM345.856 258.339C344.741 258.598 330.273 258.001 329.035 257.47C329.166 256.539 330.392 251.305 330.64 250.237C331.73 250.574 332.866 250.744 334.007 250.743C334.423 250.961 335.108 251.336 335.519 251.533C335.473 251.886 335.359 252.722 335.608 252.972C335.857 253.222 341.595 255.343 346.631 255.945C346.426 256.759 346.167 257.559 345.856 258.339ZM330.511 248.295C330.319 248.236 330.142 248.138 329.991 248.006C329.884 247.89 329.922 247.536 329.993 247.37C330.032 247.289 330.1 247.227 330.185 247.196C330.286 247.152 330.395 247.126 330.505 247.118C330.538 247.117 330.57 247.106 330.597 247.087C330.624 247.067 330.644 247.04 330.655 247.009C330.666 246.978 330.667 246.944 330.658 246.912C330.649 246.88 330.631 246.852 330.605 246.831C330.363 246.625 330.194 246.346 330.125 246.035C330.125 245.807 330.213 245.57 330.58 245.363C330.995 245.397 332.241 246.431 332.82 245.838C333.4 245.244 332.72 243.849 333.365 243.734C334.01 243.619 334.33 245.558 334.442 245.77C334.815 246.499 335.82 247.021 336.393 247.621C336.044 248.86 335.763 250.117 335.553 251.387C334.722 250.941 334.107 250.552 334.045 250.552C333.176 250.521 330.843 250.275 330.237 249.654C330.13 249.57 330.056 249.45 330.03 249.316C330.005 249.182 330.028 249.043 330.098 248.926C330.142 248.848 330.202 248.78 330.273 248.725C330.345 248.671 330.427 248.632 330.514 248.611C330.55 248.602 330.582 248.582 330.604 248.553C330.627 248.524 330.639 248.488 330.638 248.451C330.638 248.415 330.625 248.379 330.602 248.351C330.579 248.322 330.547 248.302 330.511 248.295ZM335.174 234.456C334.401 234.38 333.625 234.348 332.849 234.359C332.75 234.359 332.666 234.409 332.637 234.504C332.566 234.77 331.37 243.418 331.311 243.842C331.07 239.683 330.822 235.303 330.638 232.092C332.08 234.403 332.204 234.632 332.433 234.47C333.206 233.838 333.937 233.156 334.621 232.429C334.745 232.891 334.943 233.644 335.174 234.456ZM338.982 233.004C338.701 232.588 338.423 232.171 338.319 232.017L339.67 228.639L338.982 233.004ZM339.962 228.232C341.534 228.56 343.067 229.055 344.534 229.71C344.471 229.905 343.663 232.357 342.696 235.283C342.255 235.228 339.731 234.915 338.954 234.83L339.962 228.232ZM338.252 232.479L338.907 233.47L338.696 234.8L338.051 234.716C338.149 233.813 338.217 232.957 338.252 232.479ZM349.725 236.891C349.718 237.433 349.664 237.973 349.563 238.504C348.138 238.135 335.701 235.047 334.435 235.764C333.802 236.129 331.704 244.658 331.503 245.427L331.353 245.352C332.02 240.733 332.907 234.675 332.907 234.659C334.325 234.499 347.984 236.076 349.725 236.891ZM342.449 245.572C341.517 245.507 337.82 245.316 337.041 245.83C336.921 245.913 336.871 245.93 336.439 247.467C335.887 246.88 334.961 246.325 334.65 245.671C334.51 245.384 334.285 243.287 333.316 243.447C332.01 243.665 333.672 246.359 331.744 245.523C331.87 244.995 333.935 236.191 334.505 235.868C335.713 235.185 348.86 238.561 350.523 239.035C350.425 240.049 349.19 245.462 348.964 246.451C346.811 246.032 344.635 245.739 342.449 245.572ZM336.107 216.466C336.34 216.625 336.331 217.003 336.289 217.278C335.993 219.136 334.128 220.259 332.838 218.476C332.544 218.06 332.318 216.737 332.518 216.446C332.652 216.276 333.725 216.27 333.941 216.27C334.34 216.275 335.9 216.341 336.091 216.466L336.107 216.466ZM331.153 216.755C331.152 217.537 330.887 218.834 330.192 219.207C329.072 219.786 327.938 218.861 327.912 217.659C327.87 217.22 327.892 216.777 327.977 216.345L328.019 216.324C327.952 216.207 330.876 216.176 331.138 216.439C331.146 216.544 331.146 216.65 331.137 216.755L331.153 216.755ZM332.581 225.812C333.3 226.021 334.461 225.924 335.019 225.356C335.031 225.343 335.037 225.327 335.037 225.31C335.037 225.293 335.031 225.276 335.019 225.264C334.924 225.147 335.019 225.372 333.937 225.532C332.856 225.692 332.203 225.528 331.111 224.815C330.609 224.352 330.234 223.768 330.021 223.12C329.575 222.022 329.298 220.863 329.197 219.683C329.588 219.748 329.99 219.683 330.341 219.498C330.681 219.3 330.946 218.993 331.091 218.626C330.95 219.065 330.834 219.512 330.743 219.965C330.723 220.023 330.72 220.085 330.734 220.144C330.748 220.204 330.778 220.258 330.821 220.302C331.109 220.478 331.447 220.552 331.782 220.512C331.791 220.514 331.802 220.515 331.812 220.512C331.822 220.51 331.831 220.506 331.839 220.5C331.847 220.494 331.853 220.486 331.858 220.477C331.862 220.468 331.865 220.458 331.865 220.447C331.865 220.437 331.862 220.427 331.858 220.418C331.854 220.409 331.847 220.401 331.839 220.395C331.831 220.389 331.822 220.384 331.812 220.382C331.802 220.38 331.792 220.38 331.782 220.383C331.535 220.355 331.297 220.275 331.084 220.148C330.988 220.082 331.03 220.123 331.059 219.986C331.088 219.849 331.633 217.866 331.663 217.742C331.792 217.742 332.283 217.676 332.283 217.556C332.283 217.435 331.892 217.401 331.747 217.409C331.747 217.355 331.772 217.309 331.784 217.268C331.791 217.251 331.791 217.233 331.784 217.216C331.777 217.2 331.764 217.187 331.747 217.18C331.731 217.174 331.712 217.174 331.696 217.181C331.679 217.188 331.666 217.201 331.66 217.218C331.514 217.5 331.614 217.396 331.418 217.446C331.494 217.061 331.495 216.666 331.421 216.281C331.184 215.915 329.758 215.995 329.292 216.023C329.532 214.63 330.457 213.946 331.025 212.833C331.184 212.574 331.395 212.352 331.646 212.181C331.771 212.148 332.015 212.461 332.165 212.536C332.315 212.611 332.455 213.023 332.579 213.165C332.971 213.612 333.422 214.004 333.92 214.328C334.336 214.624 334.984 214.671 335.266 215.05C335.385 215.372 335.442 215.714 335.434 216.057C334.898 216.023 332.661 215.985 332.394 216.367C332.152 216.674 332.253 218.08 332.605 218.621C333.492 219.971 334.86 220.057 335.932 218.845C336.047 218.702 336.145 218.546 336.224 218.38C337.02 219.629 337.646 220.375 337.672 221.839C337.701 223.694 337.17 226.766 339.178 227.157L339.521 228.11C337.849 232.29 337.937 232.029 337.936 232.07C337.936 232.112 337.855 233.318 337.706 234.698C336.908 234.613 336.164 234.541 335.502 234.485C335.453 234.315 334.838 232.109 334.851 232.064C334.913 231.856 334.602 231.447 334.362 231.085C333.46 229.774 332.475 228.521 331.413 227.336L332.581 225.812ZM331.113 227.447C331.184 227.556 334.171 230.856 334.535 232.067C333.86 232.811 333.132 233.505 332.355 234.142C332.077 233.775 331.327 232.567 330.614 231.439C330.49 229.263 330.406 227.749 330.386 227.433C330.619 227.417 330.881 227.43 331.097 227.447L331.113 227.447ZM316.253 231.574C315.781 230.741 315.135 225.333 315.291 224.502C315.291 224.427 315.291 224.402 315.641 224.307C317.131 223.923 322.355 223.49 322.904 223.678C323.318 224.49 324.217 229.786 323.999 230.601C323.574 230.941 317.475 231.789 316.236 231.574L316.253 231.574ZM316.514 245.257C316.038 244.316 315.698 238.289 315.935 238.061C316.29 237.721 322.928 237.444 323.555 237.691C323.969 238.565 324.548 243.931 324.301 244.659C323.735 245.082 317.495 245.484 316.498 245.257L316.514 245.257ZM326.024 238.308C326.324 238.229 328.413 237.701 328.663 237.552C328.842 237.449 329.045 237.786 325.568 228.18C325.985 227.798 329.621 227.315 330.194 227.495C330.194 227.724 330.717 237.432 331.129 245.222C330.925 245.122 330.63 244.968 330.443 245.071C329.66 245.485 329.609 246.176 330.185 246.851C330.077 246.877 329.977 246.928 329.892 247C329.808 247.072 329.741 247.163 329.698 247.266C329.631 247.422 329.602 247.591 329.614 247.761C329.626 247.93 329.678 248.094 329.766 248.239C329.863 248.332 329.974 248.409 330.094 248.468C329.97 248.551 329.872 248.668 329.811 248.805C329.756 248.922 329.723 249.049 329.714 249.179L326.024 238.308ZM336.319 264.211L330.886 264.802C330.912 264.603 331.534 259.784 331.733 258.15C332.864 258.252 334.228 258.342 335.687 258.424C335.922 261.424 336.342 263.496 336.303 264.211L336.319 264.211ZM336.606 264.178C336.667 263.23 335.895 258.475 335.891 258.433L336.307 258.455C337.72 258.72 341.362 259.373 341.757 259.44C341.887 260.779 342.213 263.899 342.291 264.54C336.091 264.127 336.76 264.162 336.586 264.178L336.606 264.178ZM358.693 255.326C358.276 255.658 352.166 256.202 350.906 255.925C350.421 254.98 350.089 248.957 350.327 248.729C350.685 248.384 357.324 248.116 357.943 248.359C358.332 249.229 358.923 254.616 358.676 255.326L358.693 255.326Z"
        fill="black" />
    <path fill-rule="evenodd" clip-rule="evenodd"
        d="M316.508 252.178C316.475 252.028 316.429 251.811 316.309 251.761C315.893 251.511 313.153 251.455 312.666 251.446C312.563 249.462 312.376 247.17 312.066 246.553C311.863 246.137 298.421 246.066 297.96 246.061C297.998 243.824 298.009 240.413 297.977 238.159C298.563 238.16 301.491 238.167 301.895 237.835C302.412 237.42 302.079 231.867 301.848 230.765C301.815 230.615 301.766 230.399 301.65 230.348C301.043 229.985 294.231 229.883 293.748 230.269C293.494 230.48 293.392 233.079 293.379 233.408C292.427 233.406 286.538 233.272 284.434 233.318L284.441 229.92C284.986 229.921 288.184 230.015 288.6 229.667C289.105 229.252 288.953 222.456 288.475 222.181C287.998 221.905 285.012 221.811 284.496 221.798C284.497 221.207 284.455 219.718 284.451 219.681C286.377 219.614 291.45 219.787 293.542 219.792C293.541 220.445 293.498 222.77 293.771 223.365C293.838 223.507 294.091 223.549 294.257 223.578C295.579 223.814 301.476 223.964 302.056 223.475C302.635 222.985 302.245 216.767 301.909 216.096C301.887 216.048 301.853 216.007 301.81 215.976C301.183 215.604 294.379 215.543 293.908 215.896C293.637 216.124 293.539 219.102 293.53 219.459C291.405 219.455 286.406 219.282 284.427 219.348C284.428 218.545 284.389 217.734 284.39 216.936C284.981 216.937 288.549 216.891 288.995 216.501C289.441 216.111 289.01 209.809 288.654 209.126C288.631 209.078 288.595 209.037 288.55 209.01C287.919 208.655 281.114 208.748 280.648 209.138C280.294 209.445 280.218 215.662 280.69 216.624C280.722 216.678 280.772 216.719 280.831 216.741C281.304 216.941 283.517 216.95 284.037 216.952C284.033 218.811 284.113 220.32 284.126 221.805C283.71 221.804 280.874 221.736 280.557 221.989C280.241 222.242 279.844 228.454 280.283 229.474C280.345 229.612 280.599 229.662 280.765 229.691C281.867 229.853 282.978 229.943 284.092 229.961L284.078 236.099C283.683 236.098 280.976 236.043 280.672 236.287C280.368 236.532 279.955 242.753 280.393 243.773C280.455 243.914 280.709 243.961 280.875 243.994C282.222 244.255 288.094 244.492 288.673 244.011C289.252 243.53 288.966 237.295 288.652 236.633C288.629 236.584 288.595 236.541 288.552 236.508C288.1 236.233 284.947 236.134 284.394 236.121L284.399 233.717C286.554 233.668 292.201 233.8 293.341 233.807C293.339 234.51 293.267 237.159 293.565 237.804C293.592 237.86 293.64 237.904 293.698 237.925C294.234 238.172 297.024 238.228 297.594 238.233C297.643 240.496 297.632 243.914 297.577 246.135C291.987 246.094 286.19 246.139 285.021 246.374C284.896 246.399 284.692 246.44 284.683 246.614C284.683 246.614 284.451 250.207 284.344 251.442C283.974 251.441 281.541 251.436 281.258 251.685C280.974 251.934 280.649 258.163 281.104 259.171C281.166 259.308 281.42 259.354 281.586 259.384C282.912 259.619 288.805 259.77 289.384 259.28C289.963 258.791 289.569 252.56 289.238 251.902C289.255 251.862 289.26 251.819 289.254 251.776C289.247 251.733 289.229 251.693 289.201 251.661C288.724 251.373 285.309 251.34 284.744 251.335C284.846 250.087 285.07 246.615 285.07 246.615C286.493 246.202 310.153 246.304 311.807 246.728C312.06 247.335 312.217 249.419 312.346 251.412C311.93 251.411 308.77 251.379 308.44 251.653C308.111 251.926 307.848 258.168 308.287 259.138C308.316 259.194 308.365 259.237 308.424 259.259C309.159 259.594 315.967 259.758 316.567 259.248C316.67 259.123 316.73 258.969 316.738 258.807C316.937 257.544 316.775 253.426 316.508 252.178ZM293.995 215.946C294.366 215.639 301.003 215.874 301.618 216.175C301.771 216.832 301.859 217.502 301.88 218.176C299.215 217.9 295.613 218.1 293.774 218.158C293.783 217.909 293.854 216.046 293.995 215.934L293.995 215.946ZM293.77 218.387C296.797 218.489 300.391 218.339 301.892 218.359C301.936 219.095 302.091 222.543 301.819 223.179C301.511 223.39 299.086 223.422 298.716 223.426C297.822 223.424 294.873 223.417 294.009 223.166C293.711 222.437 293.747 219.206 293.77 218.374L293.77 218.387ZM280.756 209.171C281.127 208.848 287.777 208.925 288.383 209.188C288.519 209.652 288.604 210.129 288.638 210.611C285.952 210.526 283.263 210.659 280.598 211.009C280.602 210.86 280.635 209.279 280.756 209.171ZM280.96 216.388C280.625 215.634 280.587 212.132 280.598 211.151C280.947 211.11 288.5 210.752 288.654 210.752C288.744 211.584 289.06 215.465 288.767 216.193C288.209 216.595 281.95 216.66 280.96 216.388ZM280.661 222.014C281.04 221.711 287.673 222.054 288.284 222.363C288.418 222.984 288.492 223.617 288.504 224.252C288.546 224.252 282.624 224.006 280.415 224.072C280.429 223.827 280.532 222.113 280.661 222.014ZM288.454 243.657C287.995 243.956 281.861 243.905 280.648 243.515C280.35 242.77 280.449 239.356 280.492 238.487C280.534 238.487 286.218 238.94 288.597 238.667C288.637 239.428 288.742 243.009 288.454 243.653L288.454 243.657ZM288.369 236.645C288.503 237.268 288.578 237.901 288.594 238.538C288.635 238.538 282.726 238.292 280.501 238.354C280.521 237.685 280.593 237.019 280.717 236.362C280.747 236.279 280.717 236.262 281.092 236.222C282.581 236.059 287.837 236.374 288.369 236.641L288.369 236.645ZM280.558 229.229C280.264 228.484 280.363 225.095 280.407 224.205C280.457 224.205 286.124 224.658 288.512 224.385C288.552 225.15 288.661 228.711 288.368 229.375C287.806 229.74 281.56 229.552 280.558 229.229ZM289.288 254.056C289.336 254.83 289.486 258.27 289.215 258.922C288.773 259.229 282.614 259.278 281.404 258.905C281.106 258.181 281.143 254.924 281.165 254.055C283.847 254.165 286.285 254.05 289.288 254.056ZM289.014 251.918C289.166 252.574 289.255 253.242 289.28 253.915C286.635 253.643 282.908 253.847 281.17 253.922C281.17 253.66 281.253 251.801 281.391 251.689C281.766 251.382 288.399 251.617 289.014 251.918ZM293.823 230.323C294.206 230.004 300.843 230.259 301.445 230.552C301.602 231.235 301.693 231.931 301.715 232.632C299.911 232.532 295.42 232.235 293.606 232.456C293.627 232.219 293.702 230.435 293.823 230.323ZM293.849 237.53C293.547 236.802 293.587 233.475 293.614 232.606C294.2 232.549 298.442 232.824 300.413 232.812C300.916 232.813 301.37 232.793 301.736 232.782C301.78 233.522 301.926 236.903 301.659 237.543C301.113 237.929 294.858 237.853 293.849 237.53ZM308.511 251.748C308.886 251.442 315.519 251.676 316.138 251.977C316.289 252.634 316.377 253.304 316.4 253.978C313.78 253.706 309.987 253.91 308.294 253.961C308.299 253.74 308.373 251.873 308.511 251.761L308.511 251.748ZM316.339 258.981C315.885 259.288 309.725 259.337 308.528 258.964C308.226 258.244 308.263 254.975 308.289 254.11C311.088 254.224 313.189 254.121 316.408 254.128C316.456 254.893 316.606 258.346 316.339 258.994L316.339 258.981Z"
        fill="black" />
    <g filter="url(#filter0_f_853_27)">
        <ellipse cx="325" cy="237.5" rx="34" ry="29.5" fill="#FF0000" />
    </g>
    <g filter="url(#filter1_f_853_27)">
        <ellipse cx="221.5" cy="129.5" rx="30.5" ry="29.5" fill="#00D9FA" />
    </g>
    <g filter="url(#filter2_f_853_27)">
        <ellipse cx="142" cy="221" rx="42" ry="40" fill="#1EFF00" />
    </g>
    <defs>
        <filter id="filter0_f_853_27" x="191" y="108" width="268" height="259"
            filterUnits="userSpaceOnUse"
            color-interpolation-filters="sRGB">
            <feFlood flood-opacity="0" result="BackgroundImageFix" />
            <feBlend mode="normal" in="SourceGraphic" in2="BackgroundImageFix" result="shape" />
            <feGaussianBlur stdDeviation="50" result="effect1_foregroundBlur_853_27" />
        </filter>
        <filter id="filter1_f_853_27" x="91" y="0" width="261" height="259"
            filterUnits="userSpaceOnUse"
            color-interpolation-filters="sRGB">
            <feFlood flood-opacity="0" result="BackgroundImageFix" />
            <feBlend mode="normal" in="SourceGraphic" in2="BackgroundImageFix" result="shape" />
            <feGaussianBlur stdDeviation="50" result="effect1_foregroundBlur_853_27" />
        </filter>
        <filter id="filter2_f_853_27" x="0" y="81" width="284" height="280"
            filterUnits="userSpaceOnUse"
            color-interpolation-filters="sRGB">
            <feFlood flood-opacity="0" result="BackgroundImageFix" />
            <feBlend mode="normal" in="SourceGraphic" in2="BackgroundImageFix" result="shape" />
            <feGaussianBlur stdDeviation="50" result="effect1_foregroundBlur_853_27" />
        </filter>
    </defs>
</svg>