<svg width="264" height="265" viewBox="0 0 264 265" fill="none" xmlns="http://www.w3.org/2000/svg">
    <path
        d="M187.757 87.2211C187.696 83.8147 186.611 80.5056 184.644 77.7241C182.676 74.9427 179.917 72.8177 176.726 71.6257C170.279 69.2386 162.389 69.9234 158.524 63.0378C157.213 60.7018 156.39 58.1223 155.057 55.8061C151.768 50.1577 146.161 45.5643 139.515 44.6484C133.625 43.914 127.762 47.0706 123.225 43.6638C120.404 41.5422 119.086 38.0945 115.241 35.4842C112.342 33.4863 108.938 32.3472 105.42 32.1979C101.902 32.0486 98.4139 32.8951 95.3557 34.6401C92.2976 36.3851 89.7941 38.9578 88.133 42.0623C86.4719 45.1668 85.7207 48.677 85.9657 52.1895C99.2796 46.2548 112.388 55.5532 116.738 69.2258C118.911 76.0033 118.539 84.7923 116.551 93.6279L115.996 92.8516C117.714 84.5312 116.867 73.9256 115.493 69.6084C110.444 54.0275 94.7646 45.884 80.6587 55.9409C72.0791 62.016 64.498 72.7344 65.2881 83.6887C65.5287 86.9538 69.5092 95.9953 73.147 94.2529C75.1937 97.6663 79.9616 105.385 82.0966 108.302C86.9551 114.884 94.6797 119.455 102.298 114.434C103.473 115.755 104.563 117.149 105.563 118.606C91.0615 137.793 90.1417 159.696 91.3511 170.765C85.6516 168.897 79.7966 167.541 73.8559 166.715C73.7027 165.55 71.3264 162.723 70.4822 161.659C72.2529 161.399 80.956 158.431 82.3647 157.087C82.6001 156.905 82.7539 156.637 82.7927 156.341C82.8315 156.046 82.7521 155.747 82.5718 155.51C82.5016 155.405 82.4186 155.31 82.3246 155.225C80.8947 154.614 79.3272 154.397 77.785 154.597C77.6463 154.091 77.3384 153.648 76.9127 153.342C76.487 153.036 75.9691 152.885 75.4456 152.915C72.6294 153.187 69.8308 153.618 67.0633 154.206C66.8036 154.252 66.836 154.703 67.1056 154.669L74.78 153.872C75.6752 153.754 76.4862 153.768 76.8913 154.694C73.3665 154.836 69.8554 155.217 66.3824 155.836C63.5049 156.339 63.5679 156.963 61.7817 155.619C60.666 154.772 58.6449 152.514 57.579 154.758C56.681 154.46 53.1024 157.488 54.0101 159.016C49.6424 160.327 45.3752 161.952 41.2417 163.878C41.0027 164.085 41.1415 164.544 41.4392 164.565C46.0462 164.995 50.7049 164.083 55.253 163.527C55.0752 163.819 54.9887 164.158 55.0046 164.5C55.0206 164.842 55.1382 165.171 55.3426 165.446C52.315 166.259 51.1001 172.445 60.5252 176.538C61.8556 177.123 63.2485 177.554 64.6768 177.823C71.2252 191.223 82.8038 203.288 94.2458 212.737C104.366 221.077 117.224 229.994 131.067 226.555C137.006 225.07 143.341 220.525 143.595 213.876L149.481 216.469C150.977 220.88 158.499 232.596 161.324 236.032C161.521 236.26 161.829 235.993 161.665 235.736C157.312 229.443 153.433 222.834 150.062 215.965C171.149 205.095 197.197 183.526 211.711 158.699C215.235 157.394 218.599 155.691 221.738 153.623C224.501 154.138 235.054 159.506 237.378 161.262C237.435 161.296 237.503 161.307 237.568 161.291C237.633 161.276 237.69 161.236 237.726 161.179C237.753 161.13 237.765 161.074 237.759 161.018C237.754 160.962 237.731 160.91 237.694 160.867C233.145 157.487 228.12 154.8 222.782 152.895C238.812 141.467 240.703 122.613 228.343 107.832C218.674 96.2646 202.292 89.9095 187.808 87.2567L187.757 87.2211ZM77.6165 158.057C77.4053 157.262 77.1856 156.435 77.0139 155.686C76.9845 155.192 77.915 154.723 78.3583 157.233C78.5696 158.787 77.74 158.429 77.6165 158.057ZM50.7512 163.424L45.5309 163.965L45.3855 162.994L50.1707 161.193C50.3262 161.946 50.5199 162.691 50.7512 163.424ZM127.077 97.8617C128.98 106.336 128.328 115.184 125.204 123.289C121.636 122.267 118.133 121.029 114.716 119.581C117.666 116.519 124.419 104.364 122.847 101.037C124.2 99.9055 125.608 98.842 127.067 97.8503L127.077 97.8617ZM88.8589 113.49C82.6389 109.708 77.8264 100.191 73.6373 93.9668C77.2145 91.7179 80.2044 82.4718 79.0036 77.6647C83.9727 79.9372 90.9 78.6718 95.2676 75.5168C97.1298 78.9707 102.84 83.6141 104.988 79.8116C105.562 78.7941 105.82 77.092 107.211 76.9226C107.849 76.9514 108.467 77.156 108.996 77.5137C109.525 77.8714 109.945 78.3684 110.21 78.9498C113.001 83.9328 108.563 86.57 120.119 99.7127L122.128 101.841C120.737 108.363 117.83 114.466 113.642 119.655C110.997 119.483 108.388 118.948 105.89 118.063C105.645 117.597 103.193 112.958 102.145 113.569C101.44 113.263 96.5843 118.2 88.8589 113.49ZM102.673 124.312C103.071 123.667 106.147 119.118 106.134 118.85C108.465 119.846 110.967 120.385 113.502 120.436C112.665 123.653 112.295 126.973 112.403 130.296C108.859 128.837 105.574 126.816 102.673 124.312ZM57.4327 155.624C57.3687 156.433 57.5834 157.24 58.0413 157.91C56.8972 158.225 55.7615 158.573 54.5947 158.907C54.7878 158.181 55.1437 157.507 55.6354 156.939C56.127 156.37 56.7416 155.92 57.4327 155.624ZM61.3321 163.537C65.7223 166.293 64.1579 168.331 61.5803 167.455C60.0886 166.192 58.2185 165.463 56.2659 165.382C54.818 162.268 58.7187 161.954 61.2826 163.481L61.3321 163.537ZM58.3858 174.443C56.5027 173.263 54.2658 171.493 54.0929 169.087C53.7394 164.083 59.2773 166.321 61.472 168.388C63.1126 169.977 61.9931 170.551 60.7588 170.325C59.5246 170.099 58.059 169.515 57.08 170.066C56.101 170.617 58.8813 170.738 58.9664 170.744C59.5588 170.828 60.1096 171.049 60.7629 171.18C62.8972 171.522 63.9865 169.857 62.3747 168.163C63.4957 168.327 64.7288 168.114 64.8664 166.917C66.2962 168.769 66.0678 167.61 66.048 167.587C63.734 164.785 63.9493 162.482 61.6503 160.226C60.5138 159.418 59.5119 158.435 58.6815 157.314C58.1968 156.457 57.9187 154.942 59.001 154.441C60.8284 155.349 61.1823 156.699 64.2865 157.836C67.3907 158.973 68.1132 159.943 70.2191 162.666C71.128 163.873 71.9344 165.169 72.8205 166.396C73.2938 169.24 67.6033 176.319 65.0445 177.304C62.7282 176.527 60.4838 175.551 58.3364 174.386L58.3858 174.443ZM65.386 177.766C68.3935 176.631 73.5729 170.894 73.8665 167.325C77.3948 168.054 80.9191 168.686 84.4042 169.572C83.0282 177.596 75.4191 184.305 71.3202 187.287C69.1349 184.174 67.2844 181.009 65.3366 177.709L65.386 177.766ZM234.564 121.177C238.691 136.041 230.387 148.386 217.499 155.249C207.497 160.583 192.494 163.791 181.045 164.173C182.074 155.612 177.502 146.165 172.669 141.498C180.262 132.586 186.995 125.58 195.355 117.459C195.397 117.423 195.423 117.371 195.427 117.315C195.431 117.259 195.413 117.204 195.376 117.162C195.339 117.119 195.287 117.094 195.231 117.09C195.176 117.086 195.121 117.104 195.078 117.141C190.856 120.968 186.831 125.024 182.888 129.127C182.533 128.258 176.84 128.831 168.929 125.4C168.691 125.287 168.397 125.662 168.663 125.83C172.923 128.061 177.615 129.346 182.417 129.596C175.877 136.262 169.76 143.33 164.101 150.758C159.674 149.293 153.567 149.526 149.591 152.121C145.51 149.078 136.84 142.292 132.842 139.735C132.351 139.423 128.666 144.122 128.111 144.724C129.021 145.45 130.745 146.768 129.702 148.073C127.452 150.907 117.58 162.597 114.724 165.078C113.586 166.067 112.183 164.59 111.495 163.89C110.984 164.474 107.697 167.907 107.979 168.461C108.694 169.837 144.631 196.703 147.861 199.088C148.327 199.442 150.671 196.807 151.095 196.399C159.391 188.532 167.259 180.225 174.663 171.514C174.726 171.444 174.759 171.352 174.756 171.258C174.753 171.164 174.713 171.075 174.645 171.01C174.63 170.983 174.61 170.96 174.586 170.942C174.606 170.505 168.307 166.013 167.484 165.41C168.033 165.053 168.689 164.683 169.252 164.274C186.229 167.497 203.935 161.7 210.748 159.176C194.007 184.381 175.328 200.965 149.323 215.689C139.055 210.511 127.835 204.284 119.744 196.118C107.68 183.955 102.04 165.394 102.136 148.519C102.134 148.241 101.699 148.199 101.689 148.487C101.06 164.289 106.793 183.209 117.413 195.068C123.873 202.275 134.067 208.815 142.795 213.392C142.777 219.278 137.549 223.58 132.354 225.277C119.087 229.634 106.217 221.346 96.3365 213.396C86.9476 206.042 78.6281 197.416 71.6176 187.767C77.8366 183.963 83.619 176.943 85.2345 169.769C90.72 171.213 96.0972 173.041 101.326 175.238C101.835 175.508 102.378 175.708 102.941 175.833C103.025 175.836 103.107 175.807 103.17 175.752C103.233 175.697 103.273 175.62 103.282 175.536C103.289 175.483 103.284 175.429 103.267 175.378C103.25 175.326 103.222 175.28 103.185 175.241C102.049 174.231 93.2479 171.294 92.0666 170.923C90.5837 154.901 94.1502 138.817 102.266 124.925C102.773 125.922 112.487 132.439 112.877 130.842C113.071 127.316 113.553 123.812 114.319 120.365C117.86 122.045 121.603 123.264 125.454 123.99C127.065 124.328 131.064 106.359 127.721 97.3621C143.508 87.1028 165.157 84.8099 183.474 87.3475C203.27 90.1385 228.678 100.173 234.515 121.12L234.564 121.177ZM157.261 164.927C153.66 165.379 148.742 166.337 145.381 164.284C144.017 163.472 147.464 162.774 147.991 162.416C150.286 162.732 152.613 162.726 154.906 162.4C155.187 162.355 155.11 161.923 154.831 161.946C151.977 162.269 146.153 162.116 144.012 159.903C142.589 158.403 146.617 158.718 147.6 158.563C148.583 158.408 155.276 158.045 155.287 156.219C155.306 155.344 153.634 154.959 153.014 154.659C151.99 153.871 150.965 153.105 149.928 152.348C155.468 149.532 158.136 150.489 163.841 151.424C167.519 153.659 169.641 161.48 168.84 163.753C165.038 165.858 161.36 168.474 156.891 168.822C154.913 168.982 151.302 169.284 149.633 167.938C148.317 166.905 152.384 166.208 152.975 166.153C154.45 165.972 155.913 165.708 157.358 165.361C157.416 165.348 157.466 165.313 157.497 165.263C157.529 165.213 157.539 165.152 157.526 165.095C157.514 165.037 157.478 164.987 157.428 164.956C157.378 164.924 157.318 164.914 157.261 164.927ZM169.429 160.546C168.966 156.923 167.241 153.579 164.558 151.1L172.195 141.871C177.845 148.583 180.493 155.308 180.059 164.21C176.477 164.288 172.894 164.104 169.338 163.66C169.635 162.635 169.681 161.554 169.474 160.507L169.429 160.546Z"
        fill="black" />
    <path
        d="M126.494 144.771C124.391 143.683 122.942 146.199 121.802 147.529C120.94 148.537 120.271 150.157 119.121 149.638C117.02 148.667 114.946 148.073 113.236 150.218C110.793 153.198 114.854 155.321 114.055 156.494C112.625 158.595 108.852 160.295 112.374 163.545C112.601 163.807 113.566 164.666 113.986 164.321C116.615 162.038 126.393 150.469 128.828 147.435C129.461 146.646 126.999 145.031 126.485 144.738L126.494 144.771ZM116.568 154.031C114.249 154.189 114.107 151.198 115.898 151.26C118.49 151.324 118.224 153.891 116.625 153.982L116.568 154.031ZM92.9583 99.7056C93.2518 99.3309 92.6611 98.7658 92.3365 99.1277C90.5442 101.064 90.3102 100.289 88.5242 97.7271C87.3505 96.0949 86.321 94.3637 85.4473 92.553C85.411 92.5149 85.3634 92.4897 85.3115 92.4812C85.2596 92.4727 85.2063 92.4814 85.1598 92.5059C85.1133 92.5305 85.0761 92.5696 85.0539 92.6172C85.0317 92.6649 85.0256 92.7185 85.0367 92.7699C86.1824 95.465 87.6502 98.0114 89.4081 100.354C90.5572 101.791 92.021 100.879 92.9583 99.7056ZM78.5544 92.1113C77.9666 92.8246 77.6433 93.7191 77.6392 94.6434C77.7068 95.9624 78.5253 95.8704 78.3411 95.4514C78.2549 94.4907 78.5361 93.533 79.1278 92.7713C79.5901 91.9704 78.93 91.7851 78.5544 92.1113ZM88.3131 85.0719C89.2118 84.4704 90.3059 84.234 91.3727 84.4108C91.7411 84.4901 92.0322 83.9977 90.7104 83.6484C90.2141 83.5097 89.6926 83.4865 89.186 83.5806C88.6793 83.6746 88.2009 83.8834 87.7874 84.1909C87.4325 84.6788 87.816 85.3041 88.3131 85.0719ZM92.61 91.2827C93.1221 90.8379 92.2102 88.9146 91.3411 89.2703C90.4719 89.6259 92.041 91.777 92.61 91.2827ZM81.2111 97.0315C80.7787 97.4071 81.9284 99.4433 82.4633 98.9787C82.9981 98.5141 81.8864 96.5447 81.2111 97.0315ZM99.5337 100.104C104.373 96.9178 99.857 92.6148 99.5946 94.2205C99.4967 95.0043 102.901 96.2801 99.3108 99.7782C99.1401 99.9264 99.3402 100.272 99.5337 100.104Z"
        fill="black" />
</svg>