<svg width="185" height="197" viewBox="0 0 185 197" fill="none" xmlns="http://www.w3.org/2000/svg">
    <path
        d="M79.7718 20.9847C80.2375 24.6176 82.4731 25.1868 82.4731 25.1868C86.1267 25.4352 84.8433 22.175 84.8433 22.175C81.0966 14.6712 71.9575 17.1656 71.9575 17.1656C71.9575 17.1656 79.2646 17.3519 79.7718 20.9847ZM132.712 34.9986C137.949 27.8261 128.655 22.3406 128.655 22.3406C129.267 25.133 129.267 28.0248 128.655 30.8172C128.158 37.6172 132.712 34.9986 132.712 34.9986Z"
        fill="black" />
    <path
        d="M180.167 41.602C180.167 41.602 169.817 15.4165 132.784 4.85945C95.7521 -5.69755 67.745 16.2445 67.745 16.2445C103.225 4.85946 109.963 14.0399 109.963 14.0399C109.963 14.0399 116.028 20.9434 121.606 20.105C127.185 19.2667 123.469 13.895 123.469 13.895C136.852 16.5653 139.046 24.4003 142.337 31.0553C145.629 37.7104 149.582 34.3052 153.35 30.5585C157.117 26.8118 161.081 31.3037 161.081 31.3037C164.449 35.967 166.61 41.391 167.372 47.0923C168.134 52.7935 167.473 58.5947 165.449 63.9787C158.587 82.9398 170.438 84.0577 170.438 84.0577C194.501 79.7624 180.167 41.602 180.167 41.602ZM147.864 26.077C145.877 26.7083 144.873 23.1479 144.873 23.1479C144.642 22.6775 144.591 22.1385 144.73 21.633C144.869 21.1276 145.189 20.6907 145.629 20.4052C147.906 19.3702 148.734 22.3096 148.734 22.3096C148.734 22.3096 149.852 25.487 147.854 26.108L147.864 26.077ZM178.097 54.8603C178.353 54.8623 178.605 54.9262 178.832 55.0465C179.058 55.1667 179.252 55.3399 179.398 55.5512C179.543 55.7625 179.635 56.0057 179.666 56.2602C179.697 56.5147 179.667 56.773 179.577 57.0131C179.039 59.0831 176.834 57.4375 176.834 57.4375C176.678 57.1947 176.587 56.9158 176.57 56.6276C176.554 56.3395 176.612 56.052 176.739 55.7928C176.866 55.5336 177.057 55.3116 177.295 55.1482C177.533 54.9849 177.809 54.8857 178.097 54.8603ZM175.292 77.0714C175.292 77.0714 174.36 76.3262 175.292 73.9664C176.062 71.5657 176.626 69.1039 176.979 66.6076C178.159 62.5504 180.715 65.4277 180.715 65.4277C180.715 65.4277 182.527 68.2946 179.784 73.8422C177.041 79.3898 175.292 77.0818 175.292 77.0818V77.0714ZM65.644 56.9303C65.6659 56.9303 65.687 56.9216 65.7025 56.9061C65.7181 56.8905 65.7268 56.8695 65.7268 56.8475C65.7268 56.8255 65.7181 56.8045 65.7025 56.789C65.687 56.7734 65.6659 56.7647 65.644 56.7647C65.622 56.7647 65.601 56.7734 65.5854 56.789C65.5699 56.8045 65.5612 56.8255 65.5612 56.8475C65.5612 56.8695 65.5699 56.8905 65.5854 56.9061C65.601 56.9216 65.622 56.9303 65.644 56.9303ZM74.8141 63.6578C74.7161 63.7486 74.6085 63.8284 74.4932 63.8959C74.48 63.9074 74.4708 63.9228 74.4669 63.9398C74.463 63.9569 74.4646 63.9748 74.4715 63.9909C74.4784 64.007 74.4902 64.0206 74.5053 64.0295C74.5204 64.0385 74.5379 64.0424 74.5553 64.0408C75.9215 63.6682 74.6485 62.5814 74.5553 61.8569C74.5553 61.7017 74.2034 61.8569 74.9486 63.0782C74.9857 63.1773 74.9927 63.2852 74.9687 63.3883C74.9448 63.4914 74.891 63.5851 74.8141 63.6578ZM76.201 60.4597C76.1282 60.8217 76.1282 61.1947 76.201 61.5568C76.2135 61.5739 76.2298 61.5878 76.2487 61.5974C76.2676 61.607 76.2885 61.612 76.3097 61.612C76.3308 61.612 76.3517 61.607 76.3706 61.5974C76.3895 61.5878 76.4058 61.5739 76.4183 61.5568C76.4658 61.2134 76.4658 60.8651 76.4183 60.5218C76.4908 60.3355 76.2217 60.2941 76.201 60.4597ZM71.9057 60.5735C71.8199 60.9743 71.8671 61.3922 72.0403 61.7638C72.0601 61.7826 72.0843 61.7962 72.1107 61.8034C72.1371 61.8106 72.1649 61.8111 72.1915 61.805C72.2182 61.7988 72.2429 61.7862 72.2634 61.7682C72.284 61.7501 72.2998 61.7273 72.3094 61.7017C72.3375 61.3204 72.2919 60.9374 72.1748 60.5735C72.1612 60.5499 72.1416 60.5302 72.118 60.5166C72.0944 60.5029 72.0676 60.4957 72.0403 60.4957C72.013 60.4957 71.9862 60.5029 71.9626 60.5166C71.9389 60.5302 71.9193 60.5499 71.9057 60.5735ZM70.7465 59.7041C70.9742 59.4868 71.9678 58.7726 72.1748 58.576C72.3818 58.3793 71.9057 58.0999 70.6016 59.5592C70.5085 59.6524 70.6534 59.8076 70.7465 59.7041ZM76.9876 59.2487C76.7379 58.906 76.4119 58.626 76.0354 58.4311C75.8905 58.369 75.7766 58.6277 75.9319 58.6898C76.0871 58.7519 77.1014 59.818 76.9876 59.2487ZM71.1191 66.473C71.1812 66.5455 71.2847 66.473 71.2433 66.3799C70.924 65.964 70.7495 65.4551 70.7465 64.9309C71.9057 66.2039 73.1788 65.8934 72.682 65.7589C71.9624 65.6001 71.3022 65.2413 70.7776 64.7239C70.5188 64.4755 70.3636 65.5829 71.1191 66.473ZM64.7746 58.1723C64.7362 58.1723 64.6993 58.1876 64.6721 58.2147C64.6449 58.2419 64.6297 58.2788 64.6297 58.3172C64.6297 58.3556 64.6449 58.3925 64.6721 58.4197C64.6993 58.4468 64.7362 58.4621 64.7746 58.4621C64.813 58.4621 64.8499 58.4468 64.877 58.4197C64.9042 58.3925 64.9195 58.3556 64.9195 58.3172C64.9195 58.2788 64.9042 58.2419 64.877 58.2147C64.8499 58.1876 64.813 58.1723 64.7746 58.1723ZM65.9648 59.2591C66.0088 59.2591 66.0509 59.2416 66.0819 59.2106C66.113 59.1795 66.1304 59.1374 66.1304 59.0935C66.1304 59.0495 66.113 59.0074 66.0819 58.9764C66.0509 58.9453 66.0088 58.9279 65.9648 58.9279C65.9209 58.9279 65.8788 58.9453 65.8477 58.9764C65.8167 59.0074 65.7992 59.0495 65.7992 59.0935C65.7992 59.1374 65.8167 59.1795 65.8477 59.2106C65.8788 59.2416 65.9209 59.2591 65.9648 59.2591ZM66.1511 57.8722C66.1842 57.8634 66.2135 57.8439 66.2344 57.8168C66.2553 57.7896 66.2666 57.7563 66.2666 57.7221C66.2666 57.6878 66.2553 57.6545 66.2344 57.6274C66.2135 57.6003 66.1842 57.5808 66.1511 57.572C66.118 57.5808 66.0887 57.6003 66.0679 57.6274C66.047 57.6545 66.0356 57.6878 66.0356 57.7221C66.0356 57.7563 66.047 57.7896 66.0679 57.8168C66.0887 57.8439 66.118 57.8634 66.1511 57.8722ZM67.7968 58.0999C67.8324 58.0907 67.864 58.07 67.8865 58.041C67.9091 58.0119 67.9213 57.9762 67.9213 57.9394C67.9213 57.9027 67.9091 57.8669 67.8865 57.8379C67.864 57.8088 67.8324 57.7881 67.7968 57.779C67.7612 57.7881 67.7296 57.8088 67.707 57.8379C67.6845 57.8669 67.6723 57.9027 67.6723 57.9394C67.6723 57.9762 67.6845 58.0119 67.707 58.041C67.7296 58.07 67.7612 58.0907 67.7968 58.0999ZM68.1694 60.9151C68.4695 60.8116 68.0762 60.47 67.9934 60.7391C67.9624 60.8219 68.0659 60.9565 68.1694 60.9151ZM67.6726 59.6834C67.6973 59.6834 67.721 59.6736 67.7385 59.6561C67.7559 59.6387 67.7657 59.615 67.7657 59.5903C67.7657 59.5655 67.7559 59.5419 67.7385 59.5244C67.721 59.5069 67.6973 59.4971 67.6726 59.4971C67.6479 59.4971 67.6242 59.5069 67.6067 59.5244C67.5892 59.5419 67.5794 59.5655 67.5794 59.5903C67.5794 59.615 67.5892 59.6387 67.6067 59.6561C67.6242 59.6736 67.6479 59.6834 67.6726 59.6834ZM64.6814 60.0353C64.654 60.0353 64.6277 60.0462 64.6082 60.0656C64.5888 60.085 64.5779 60.1114 64.5779 60.1388C64.5779 60.1663 64.5888 60.1926 64.6082 60.212C64.6277 60.2314 64.654 60.2423 64.6814 60.2423C64.7089 60.2423 64.7352 60.2314 64.7546 60.212C64.774 60.1926 64.7849 60.1663 64.7849 60.1388C64.7849 60.1114 64.774 60.085 64.7546 60.0656C64.7352 60.0462 64.7089 60.0353 64.6814 60.0353ZM65.7682 64.2478C65.7425 64.2554 65.7201 64.2711 65.7041 64.2925C65.6881 64.314 65.6795 64.34 65.6795 64.3668C65.6795 64.3935 65.6881 64.4196 65.7041 64.441C65.7201 64.4624 65.7425 64.4782 65.7682 64.4858C65.7938 64.4782 65.8163 64.4624 65.8323 64.441C65.8483 64.4196 65.8569 64.3935 65.8569 64.3668C65.8569 64.34 65.8483 64.314 65.8323 64.2925C65.8163 64.2711 65.7938 64.2554 65.7682 64.2478ZM64.433 61.4533C64.3891 61.4533 64.347 61.4707 64.3159 61.5018C64.2849 61.5328 64.2674 61.5749 64.2674 61.6189C64.2674 61.6628 64.2849 61.7049 64.3159 61.736C64.347 61.767 64.3891 61.7845 64.433 61.7845C64.477 61.7845 64.5191 61.767 64.5501 61.736C64.5812 61.7049 64.5986 61.6628 64.5986 61.6189C64.5986 61.5749 64.5812 61.5328 64.5501 61.5018C64.5191 61.4707 64.477 61.4533 64.433 61.4533ZM65.9648 60.0353C65.9433 60.0294 65.9207 60.0285 65.8989 60.0328C65.877 60.037 65.8563 60.0463 65.8386 60.0598C65.8209 60.0733 65.8065 60.0908 65.7966 60.1107C65.7867 60.1307 65.7816 60.1527 65.7816 60.175C65.7816 60.1973 65.7867 60.2193 65.7966 60.2393C65.8065 60.2593 65.8209 60.2767 65.8386 60.2903C65.8563 60.3038 65.877 60.313 65.8989 60.3173C65.9207 60.3215 65.9433 60.3207 65.9648 60.3148C65.9954 60.3063 66.0224 60.2881 66.0417 60.2629C66.0609 60.2376 66.0714 60.2068 66.0714 60.175C66.0714 60.1433 66.0609 60.1124 66.0417 60.0872C66.0224 60.0619 65.9954 60.0437 65.9648 60.0353ZM67.1137 59.1659C67.1494 59.1659 67.1836 59.1517 67.2088 59.1265C67.2341 59.1013 67.2482 59.067 67.2482 59.0314C67.2482 58.9957 67.2341 58.9614 67.2088 58.9362C67.1836 58.911 67.1494 58.8968 67.1137 58.8968C67.078 58.8968 67.0438 58.911 67.0185 58.9362C66.9933 58.9614 66.9791 58.9957 66.9791 59.0314C66.9791 59.067 66.9933 59.1013 67.0185 59.1265C67.0438 59.1517 67.078 59.1659 67.1137 59.1659ZM53.048 93.6521C53.0575 93.6043 53.0575 93.555 53.048 93.5072C52.9342 92.4722 51.2678 93.3623 52.013 94.211C52.0835 94.2813 52.1738 94.3282 52.2718 94.3456C52.371 94.3674 52.4741 94.3654 52.5724 94.3396C52.6707 94.3139 52.7615 94.2652 52.8373 94.1974C52.9131 94.1297 52.9718 94.045 53.0084 93.9502C53.045 93.8553 53.0586 93.7532 53.048 93.6521ZM54.2486 87.8354C54.3246 87.9108 54.4196 87.9641 54.5235 87.9896C54.6274 88.0151 54.7363 88.0119 54.8386 87.9803C54.9196 87.9522 54.9938 87.9074 55.0564 87.8487C55.119 87.79 55.1685 87.7188 55.2017 87.6397C55.2349 87.5606 55.251 87.4754 55.2491 87.3896C55.2472 87.3039 55.2272 87.2195 55.1905 87.142C55.0042 86.3657 53.5241 87.0799 54.2486 87.8354ZM56.6395 91.4165C56.7029 91.2463 56.7029 91.0589 56.6395 90.8886C55.325 89.7398 55.4285 92.9173 56.6395 91.4165ZM46.838 96.0844C47.4901 96.5501 48.1111 95.9084 47.5418 95.2357C47.3245 94.9769 46.0514 95.4944 46.838 96.0844ZM52.7375 98.5373C51.392 97.5644 51.1954 100.483 52.603 99.5723C52.7425 99.4432 52.8346 99.2711 52.8647 99.0834C52.8947 98.8958 52.8608 98.7034 52.7686 98.5373H52.7375ZM56.7533 82.6397C56.4428 83.2814 57.4675 83.8403 57.7055 82.8467C57.7055 82.619 57.7055 82.3189 57.1777 82.2775C57.0793 82.2897 56.9866 82.3306 56.9112 82.395C56.8358 82.4594 56.7809 82.5444 56.7533 82.6397ZM55.9667 78.6653C56.0666 78.7203 56.1813 78.7422 56.2944 78.7279C56.4076 78.7135 56.5132 78.6635 56.5961 78.5852C56.679 78.507 56.7348 78.4044 56.7557 78.2923C56.7765 78.1802 56.7612 78.0643 56.7119 77.9615C56.4014 77.3612 55.2733 78.0443 55.9667 78.6653ZM57.9229 74.2873C57.9229 74.8772 59.02 74.7944 58.9579 74.1217C58.9572 74.0538 58.9398 73.9872 58.9074 73.9276C58.8749 73.8681 58.8282 73.8174 58.7716 73.7801C58.5335 73.4903 57.6538 73.7076 57.9229 74.2873ZM62.4148 68.2532C63.0047 67.9013 62.6218 67.0423 62.0525 67.3528C61.3073 67.4252 61.742 68.6465 62.4148 68.2532ZM58.3886 63.6682C58.3932 63.6338 58.3932 63.599 58.3886 63.5647C58.4046 63.4832 58.4 63.3991 58.3751 63.3199C58.3502 63.2408 58.3059 63.1691 58.2462 63.1115C58.1865 63.0538 58.1134 63.0121 58.0334 62.99C57.9534 62.9679 57.8691 62.9662 57.7883 62.9851C57.7039 63.0071 57.6269 63.0515 57.5656 63.1136C57.5042 63.1756 57.4606 63.253 57.4394 63.3377C57.4183 63.4224 57.4203 63.5112 57.4452 63.5948C57.4702 63.6785 57.5172 63.7538 57.5813 63.8131C57.621 63.8978 57.6875 63.9671 57.7706 64.0101C57.8536 64.0531 57.9486 64.0675 58.0407 64.051C58.1328 64.0344 58.2168 63.9879 58.2797 63.9187C58.3427 63.8495 58.3809 63.7614 58.3886 63.6682ZM51.8267 59.0003C51.3403 58.369 50.5537 59.1556 51.0401 59.6731C51.0841 59.7133 51.1327 59.7481 51.185 59.7766C51.5266 60.1078 52.2718 59.5178 51.8267 59.0003ZM52.4684 52.6972C52.22 52.9352 52.2511 53.5873 52.6858 53.639C52.7864 53.6851 52.8993 53.697 53.0073 53.673C53.1153 53.6489 53.2125 53.5902 53.284 53.5058C53.3555 53.4214 53.3975 53.3159 53.4035 53.2054C53.4095 53.0949 53.3791 52.9855 53.3171 52.8938C53.2794 52.8199 53.226 52.7551 53.1606 52.704C53.0952 52.6529 53.0194 52.6167 52.9385 52.5979C52.8577 52.5792 52.7737 52.5784 52.6925 52.5955C52.6113 52.6127 52.5348 52.6473 52.4684 52.6972ZM54.1969 46.1974C54.0851 46.1424 53.9578 46.1279 53.8365 46.1563C53.7153 46.1847 53.6077 46.2543 53.532 46.3532C53.4563 46.4521 53.4172 46.5741 53.4215 46.6986C53.4257 46.8231 53.4729 46.9422 53.5552 47.0357C53.5812 47.1403 53.634 47.2364 53.7084 47.3144C53.7828 47.3925 53.8762 47.4498 53.9795 47.4808C54.0462 47.4894 54.1139 47.4848 54.1788 47.467C54.2437 47.4493 54.3043 47.4188 54.3573 47.3774C54.4103 47.336 54.4545 47.2844 54.4874 47.2258C54.5202 47.1671 54.5411 47.1025 54.5488 47.0357C54.5712 46.9337 54.5688 46.8278 54.5418 46.727C54.5148 46.6261 54.4639 46.5332 54.3935 46.4561C54.3629 46.3482 54.2927 46.2557 54.1969 46.1974ZM50.4502 49.8509C50.6986 49.054 49.3531 48.9712 49.3531 49.7164C49.3555 49.8521 49.409 49.9819 49.5031 50.0798C49.5971 50.1777 49.7247 50.2364 49.8602 50.2442C49.9886 50.255 50.1168 50.2221 50.2239 50.1506C50.3311 50.0792 50.4108 49.9735 50.4502 49.8509ZM49.943 90.1331C50.3777 90.8887 51.3299 89.5328 50.2121 89.4604C50.0362 89.5742 49.7567 89.6674 49.943 90.1331ZM75.2074 93.7867C75.313 93.7692 75.4115 93.7224 75.4917 93.6515C75.5719 93.5806 75.6305 93.4886 75.6607 93.3859C75.691 93.2833 75.6917 93.1742 75.6627 93.0711C75.6338 92.9681 75.5764 92.8753 75.4972 92.8034C74.9797 92.2445 74.1103 93.7349 75.2074 93.7867ZM76.3976 86.0345C76.5218 85.7861 76.5218 85.4653 76.2113 85.3618C74.7209 85.1341 75.4972 87.4111 76.3976 86.0345ZM73.955 79.9177C73.8531 79.8918 73.7464 79.8918 73.6445 79.9177C72.0506 81.0251 75.4765 81.377 73.955 79.9177ZM77.7017 78.2203C78.0743 77.8891 78.095 77.1232 77.3705 77.1853C76.646 77.2474 76.8323 78.7378 77.7017 78.2203ZM79.6372 82.0808C79.6275 82.013 79.603 81.9482 79.5655 81.8909C79.5279 81.8337 79.4782 81.7854 79.4198 81.7496C79.3436 81.6957 79.2527 81.6665 79.1593 81.6659C79.0659 81.6654 78.9746 81.6936 78.8978 81.7467C78.821 81.7998 78.7624 81.8752 78.7298 81.9627C78.6973 82.0503 78.6925 82.1457 78.716 82.2361C78.7366 82.3582 78.8049 82.4672 78.9058 82.539C79.0067 82.6108 79.1321 82.6396 79.2542 82.619C79.3764 82.5984 79.4854 82.5301 79.5572 82.4292C79.629 82.3283 79.6578 82.203 79.6372 82.0808ZM82.5973 85.2479C82.6978 85.2232 82.7876 85.1664 82.853 85.0861C82.9184 85.0058 82.9558 84.9063 82.9595 84.8029C82.9911 84.6944 82.9783 84.5779 82.924 84.4789C82.8696 84.3799 82.7782 84.3066 82.6697 84.275C82.5613 84.2434 82.4448 84.2562 82.3458 84.3106C82.2468 84.3649 82.1734 84.4564 82.1419 84.5648C81.9866 84.7201 82.0694 85.3825 82.5973 85.2479ZM81.7279 90.1124C81.6227 90.1609 81.5383 90.2453 81.4898 90.3505C80.8688 92.4619 83.6323 90.1434 81.7279 90.1124ZM89.2316 90.5057C89.2167 90.3922 89.1614 90.2879 89.0759 90.2119C88.9904 90.1359 88.8803 90.0932 88.7659 90.0917C87.0892 90.5575 88.9418 92.1203 89.2316 90.5057ZM90.7324 84.5027C91.1774 84.7097 91.5397 83.83 91.0118 83.5919C90.722 83.3642 90.101 83.8714 90.484 84.3785C90.5477 84.4504 90.6367 84.4949 90.7324 84.5027ZM94.6654 86.1587C95.1311 86.1587 95.4313 85.1237 94.6654 85.1237C94.448 85.1237 94.21 85.2479 94.1582 85.6412C94.1521 85.7098 94.1609 85.7789 94.184 85.8438C94.2072 85.9087 94.2442 85.9678 94.2924 86.017C94.3406 86.0662 94.3989 86.1043 94.4633 86.1288C94.5277 86.1533 94.5967 86.1635 94.6654 86.1587ZM79.9684 100.462C80.1056 100.449 80.2318 100.381 80.3191 100.274C80.4065 100.167 80.4479 100.03 80.4341 99.8932C80.4204 99.7559 80.3527 99.6297 80.246 99.5424C80.1392 99.455 80.0021 99.4137 79.8649 99.4274C79.7276 99.4411 79.6015 99.5088 79.5141 99.6156C79.4268 99.7223 79.3854 99.8594 79.3991 99.9967C79.4129 100.134 79.4805 100.26 79.5873 100.347C79.694 100.435 79.8311 100.476 79.9684 100.462ZM75.3833 106.341C75.8284 106.703 76.6978 106.01 76.201 105.389C75.8594 104.799 74.7727 105.637 75.3833 106.341ZM81.4588 107.873C81.5678 107.801 81.6489 107.694 81.6885 107.57C81.7281 107.446 81.7237 107.311 81.6761 107.19C81.6761 106.89 80.9723 106.424 80.7757 107.097C80.713 107.195 80.6839 107.311 80.6929 107.428C80.7019 107.544 80.7484 107.654 80.8255 107.742C80.9025 107.829 81.006 107.889 81.1202 107.913C81.2344 107.937 81.3532 107.923 81.4588 107.873ZM74.6692 98.9306C74.545 98.8582 74.4932 98.8478 74.1827 98.9306C73.8722 99.0134 73.8412 99.3756 74.1827 99.6861C74.5243 99.9967 75.4247 99.3653 74.6692 98.9306ZM111.795 68.5947C111.82 68.4288 111.805 68.2591 111.751 68.1003C111.696 67.9415 111.604 67.7984 111.481 67.6832C111.359 67.5681 111.211 67.4845 111.049 67.4395C110.887 67.3946 110.717 67.3896 110.553 67.4252C110.345 67.5046 110.175 67.66 110.077 67.8599C109.994 67.9394 109.931 68.0366 109.891 68.1442C109.852 68.2518 109.837 68.3669 109.849 68.4809C109.559 69.6298 111.515 70.0127 111.795 68.5947ZM114.392 71.9896C115.614 72.8486 117.135 71.0581 116.328 69.992C116.137 69.722 115.859 69.5255 115.541 69.4351C115.223 69.3447 114.883 69.3659 114.579 69.4952C113.72 69.9506 113.357 71.4721 114.392 71.9896ZM115.376 77.827C116.038 79.307 118.481 77.0197 116.856 75.995C115.79 75.3119 114.858 76.9679 115.376 77.827ZM112.333 83.2918C112.515 83.3121 112.699 83.2939 112.874 83.2382C113.049 83.1825 113.21 83.0906 113.346 82.9685C113.483 82.8464 113.592 82.6969 113.668 82.5297C113.743 82.3625 113.782 82.1813 113.782 81.998C114.258 80.7353 112.871 79.9901 112.033 80.1971C110.76 80.5076 111.07 83.447 112.333 83.2918ZM106.775 84.7511C106.987 84.9156 107.248 85.0048 107.517 85.0046C107.786 85.0044 108.047 84.9149 108.259 84.7501C108.471 84.5853 108.623 84.3546 108.689 84.0943C108.756 83.8341 108.734 83.559 108.628 83.3125C108.038 81.9359 106.144 82.5051 106.382 84.1301C106.46 84.366 106.595 84.5791 106.775 84.7511ZM103.577 79.9487C103.448 79.9351 103.319 79.9484 103.196 79.9875C103.073 80.0267 102.959 80.0911 102.863 80.1764C102.324 80.6525 102.314 81.967 103.132 82.1119C104.167 82.5362 105.119 80.9009 104.239 80.2178C104.046 80.0705 103.818 79.9775 103.577 79.9487Z"
        fill="black" />
    <path
        d="M100.938 149.325C95.4626 148.704 89.6562 148.228 84.2328 149.532L75.4664 130.022C77.5364 126.979 78.8198 122.218 79.6995 118.057C84.1604 118.678 88.6523 116.929 87.0791 112.748C86.1372 110.295 84.5951 107.78 83.8602 105.254C83.0959 102.473 82.7952 99.5846 82.9701 96.7053C83.4867 96.9094 84.031 97.035 84.5847 97.0779C86.5719 97.2125 88.1037 96.0429 89.5424 94.8527C92.908 92.0145 95.6796 88.5394 97.6982 84.6269C97.4777 84.0845 97.2182 83.5587 96.9219 83.0537C97.8507 82.7253 98.7208 82.2501 99.4991 81.6461C99.8924 86.9246 104.519 90.1848 107.955 89.5638C112.768 88.7048 115.883 85.548 118.885 81.6564C120.356 79.916 121.329 77.8093 121.7 75.5603C122.166 71.7929 121.534 66.5144 117.87 64.4651C116.931 63.9532 115.883 63.673 114.814 63.6478C113.745 63.6226 112.685 63.8531 111.722 64.3202C109.453 65.2791 107.646 67.0829 106.682 69.3503C104.881 66.4937 98.5572 68.4395 100.265 74.5253C99.0917 74.9701 98.0835 75.7651 97.3773 76.8023C96.965 77.3884 96.5083 77.9421 96.0111 78.4583C95.5971 78.8309 95.0693 79.0379 94.6346 79.3898C94.552 79.3242 94.4789 79.2476 94.4172 79.1621H94.2827C91.2114 80.9881 88.3483 83.1432 85.7439 85.5894C83.291 80.5179 79.182 73.749 74.597 70.82C74.5349 69.8574 74.4521 68.75 74.4624 68.75C75.7976 67.9841 77.5674 67.8392 78.1367 64.61C78.537 62.0137 78.3889 59.3623 77.702 56.8268C80.5482 55.7918 81.1071 51.7967 80.3412 52.6247C79.977 53.0776 79.4633 53.3859 78.8922 53.4941C79.6895 52.5014 80.0986 51.2527 80.0434 49.9807C79.9881 48.7087 79.4723 47.5001 78.5921 46.5803C78.5555 46.5356 78.5055 46.5038 78.4495 46.4897C78.3935 46.4756 78.3344 46.4799 78.2811 46.5019C78.2277 46.524 78.1828 46.5626 78.1531 46.6122C78.1233 46.6617 78.1103 46.7194 78.116 46.7769C78.2344 47.4422 78.1021 48.1278 77.7447 48.7012C77.3872 49.2746 76.83 49.6953 76.1805 49.8819V48.7331C76.1824 48.6906 76.1697 48.6488 76.1445 48.6146C76.1193 48.5803 76.0832 48.5557 76.0421 48.5448C76.001 48.534 75.9574 48.5375 75.9186 48.5548C75.8798 48.5721 75.848 48.6021 75.8286 48.6399C75.5505 49.1125 75.1813 49.5251 74.7425 49.8538C74.3036 50.1825 73.8038 50.4207 73.2722 50.5547C73.4154 50.0609 73.5329 49.5599 73.6241 49.0539C73.6291 48.9995 73.6192 48.9447 73.5954 48.8955C73.5716 48.8463 73.5348 48.8046 73.489 48.7748C73.4432 48.7449 73.3901 48.7282 73.3355 48.7263C73.2809 48.7244 73.2268 48.7375 73.179 48.7641L70.8192 50.1924C70.8192 50.1924 71.1918 49.2402 70.0637 49.323C70.0637 49.323 66.3894 52.7385 65.075 52.6661C64.1331 52.6661 63.7295 54.3842 65.2302 55.7711C62.4668 57.8411 63.2741 63.5025 65.9444 65.3966C65.2716 66.4316 65.1681 66.5454 65.313 66.5765C65.6836 66.6994 66.0714 66.7623 66.4619 66.7628C66.0243 66.882 65.6061 67.0632 65.2199 67.301C62.5678 64.0367 59.694 60.9589 56.619 58.0895C56.381 50.7513 56.1222 43.9928 55.4805 43.7547C55.3047 43.694 55.1249 43.6456 54.9423 43.6098C55.553 41.6226 54.9423 38.7971 52.8723 37.9173C60.4071 29.5338 61.3904 29.2854 61.0178 27.7329C62.3736 28.592 64.1228 27.6191 64.9611 26.4806C68.5526 25.1558 67.9523 16.8551 66.8448 17.9832C66.4308 18.4076 66.731 19.9394 64.4333 20.0015C63.1395 20.0015 61.7526 19.5564 61.0695 20.1567C58.482 20.2913 57.5091 24.5244 58.7718 26.2322C58.3547 26.3141 57.9596 26.4834 57.6126 26.729L50.2952 36.2303C50.0261 36.2303 48.8462 35.5058 48.5357 36.6857C48.4703 36.9333 48.4703 37.1936 48.5357 37.4412C48.2285 37.327 47.8906 37.327 47.5835 37.4412C47.3615 37.5058 47.1676 37.6427 47.0325 37.8303C46.8975 38.0179 46.8291 38.2453 46.8383 38.4762C46.8315 38.647 46.8747 38.816 46.9625 38.9627C46.8118 38.9776 46.6705 39.043 46.5616 39.1482C46.4527 39.2533 46.3824 39.3922 46.3622 39.5423C46.3266 39.7385 46.3341 39.94 46.3842 40.133C46.4342 40.326 46.5256 40.5059 46.652 40.6601L37.989 50.0889C37.989 50.0889 36.7781 51.4241 37.4301 52.0761C37.4301 52.0761 38.0615 52.7075 39.5001 51.2688L49.2395 42.2333C49.2414 42.5399 49.3248 42.8405 49.4812 43.1042C49.6377 43.3679 49.8614 43.5853 50.1296 43.734C49.8696 43.7428 49.6104 43.767 49.3533 43.8065C49.2912 43.8065 49.3533 43.91 49.3533 43.91C55.2839 43.734 55.4495 44.0238 55.4805 44.0135C55.5633 46.3112 56.4327 55.6572 56.3396 58.0274C56.3353 58.0513 56.3353 58.0759 56.3396 58.0998C56.3396 58.3275 61.1937 62.9333 64.9611 67.4148C63.7519 68.3421 62.7505 69.5127 62.0217 70.851C59.1341 75.6327 58.0887 90.2262 58.037 95.039C57.209 102.563 51.827 104.261 50.1296 102.212C48.8779 100.806 47.4912 99.5269 45.9896 98.3924C44.8925 97.1504 43.1433 95.4219 41.7771 95.9084C44.0955 93.7349 48.1838 92.8034 50.6781 87.794C54.6629 79.7727 54.4455 69.0294 54.0315 73.6559C50.5732 69.6139 48.3008 64.6937 47.466 59.44C46.6312 54.1864 47.2665 48.8042 49.3016 43.8893C49.3016 43.7858 49.1567 43.703 49.1153 43.8168C41.6012 60.8736 53.897 73.9146 53.9487 74.0181C53.6604 76.726 53.134 79.4032 52.3755 82.0187C49.55 92.1203 46.9314 91.4889 42.1497 95.1321C41.4639 95.5632 40.9174 96.1834 40.5758 96.9179C40.2343 97.6524 40.1123 98.4699 40.2246 99.2721C26.6558 104.447 29.3882 116.163 29.3882 116.163L33.021 138.809C22.2984 143.032 11.7104 147.576 1.29826 152.523C1.22581 152.523 1.24651 152.709 1.35001 152.699C9.08146 152.057 16.4817 154.055 23.292 157.47C21.3903 157.961 19.5316 158.604 17.7341 159.395C15.9435 160.099 14.1737 160.875 12.4349 161.703C8.72809 163.492 5.16715 165.568 1.78471 167.913C1.63981 167.913 1.70191 168.151 1.78471 168.12C7.68421 167.085 12.0416 166.34 17.703 166.92C12.1451 169.911 0.873912 176.162 0.780762 176.162L1.45351 178.739H45.3996C45.3996 178.739 46.2276 175.572 48.5564 179.153C48.5564 179.153 66.8448 181.813 87.2136 196.614V193.623C87.2136 193.623 72.7236 180.882 47.2626 176.286C54.7664 175.914 62.6531 174.755 70.0326 176.98C81.3659 180.416 89.4492 186.295 89.7908 186.026C102.708 174.113 98.226 178.843 110.718 167.706C112.405 168.459 114.133 169.115 115.893 169.673C114.444 170.625 102.687 178.512 87.5862 193.478L87.7518 196.635C87.7518 196.635 103.763 179.133 116.038 171.588C116.038 171.588 116.038 169.518 115.976 169.518C114.289 168.866 112.571 168.141 110.801 167.634C114.403 164.446 115.769 164.146 115.21 163.908C112.911 162.746 110.531 161.75 108.09 160.927C111.36 158.267 118.326 152.937 118.16 152.875C111.35 150.432 110.822 150.453 100.938 149.325ZM60.8315 20.3948C60.6949 20.5893 60.6102 20.8155 60.5854 21.0519C60.5607 21.2883 60.5966 21.5271 60.6898 21.7458C60.7831 21.9644 60.9306 22.1556 61.1184 22.3014C61.3062 22.4471 61.528 22.5425 61.763 22.5786C63.6984 22.5786 61.5042 23.7171 61.4214 23.9552C61.393 24.0801 61.4083 24.2109 61.4649 24.3258C61.5214 24.4408 61.6157 24.5328 61.7319 24.5865C62.3219 24.866 62.829 24.2864 63.3258 24.1725C63.6363 24.1001 64.0296 24.245 64.0607 24.5555C64.0917 24.866 63.6467 25.1351 63.4914 25.4766C63.429 25.6382 63.4248 25.8165 63.4796 25.9808C63.5344 26.1452 63.6447 26.2853 63.7916 26.3771C63.9715 26.4891 64.18 26.5466 64.3919 26.5427C64.005 27.0649 63.4511 27.4389 62.8223 27.6027C62.1934 27.7666 61.5274 27.7102 60.935 27.4431C60.8266 27.0609 60.5935 26.7259 60.2728 26.4915C59.9521 26.2571 59.5622 26.1366 59.1651 26.1494C58.3061 25.311 57.6954 21.4608 60.8315 20.3948ZM49.8501 36.3338C49.9657 36.3709 50.0832 36.402 50.202 36.4269C50.7195 36.7064 50.6781 37.5551 50.6471 37.8449C50.3055 37.8449 50.1917 38.2382 50.1503 38.5073C49.6638 38.3727 49.4672 38.4245 49.1153 37.907C49.0437 37.8168 48.9813 37.7197 48.929 37.6172C48.4632 36.8099 48.8358 35.9819 49.8501 36.3338ZM47.687 37.6172C48.0457 37.5546 48.4149 37.6285 48.722 37.8242C48.8413 38.0878 49.0353 38.3106 49.28 38.4652C49.5246 38.6197 49.8092 38.6991 50.0985 38.6936C50.0849 38.8558 50.1097 39.0189 50.171 39.1697C50.0771 39.3543 49.9243 39.5023 49.7369 39.5904C49.5495 39.6785 49.338 39.7016 49.136 39.6561C48.7974 39.6898 48.4555 39.6478 48.1352 39.5333C47.8148 39.4187 47.5238 39.2344 47.2833 38.9937C47.1939 38.8843 47.1326 38.7548 47.1045 38.6163C47.0765 38.4778 47.0826 38.3346 47.1223 38.1991C47.1621 38.0635 47.2343 37.9397 47.3327 37.8383C47.431 37.7369 47.5527 37.661 47.687 37.6172ZM46.859 40.6083C46.6918 40.4144 46.5935 40.1705 46.5795 39.9149C46.5795 39.5733 46.7037 39.0662 47.1488 39.2007C47.3913 39.4373 47.6802 39.621 47.9973 39.7404C48.3144 39.8597 48.6527 39.9121 48.9911 39.8942C48.9233 40.1007 48.8083 40.2886 48.6552 40.4429C48.5021 40.5971 48.3151 40.7136 48.1091 40.7829C47.9031 40.8523 47.6838 40.8726 47.4686 40.8423C47.2533 40.812 47.0482 40.7319 46.8693 40.6083H46.859ZM54.7146 43.527L50.4297 43.6409C50.1247 43.5217 49.8588 43.3203 49.6614 43.059C49.4641 42.7977 49.3431 42.4868 49.3119 42.1608L51.1542 40.4634C51.5579 41.4984 52.9758 41.4984 52.5411 41.3018C52.1064 41.1051 51.444 40.9913 51.2991 40.2047C51.2844 40.0252 51.3401 39.847 51.4544 39.7079C51.1042 39.5864 50.7731 39.4156 50.4711 39.2007C50.3326 39.0098 50.2735 38.7726 50.3063 38.539C50.3391 38.3055 50.4613 38.0937 50.6471 37.9484H52.6343C54.8388 39.2007 54.932 41.2086 54.725 43.527H54.7146ZM84.3881 154.044C84.6233 154.835 84.9102 155.61 85.2471 156.363C84.2375 157.329 83.054 158.094 81.7592 158.619C80.4137 157.046 80.7242 157.387 80.4137 157.015C81.8465 156.178 83.1798 155.182 84.3881 154.044ZM84.978 161.175C84.1604 161.921 80.838 164.736 79.803 165.315C79.389 165.015 79.803 164.022 79.9376 163.691C80.7656 162.262 81.3659 162.376 81.4383 158.836C82.6907 158.743 85.1022 156.901 85.5783 156.29C86.2083 157.42 86.7083 158.618 87.0687 159.861C86.8928 159.975 86.6651 160.12 86.5202 160.234C86.3541 159.799 86.1084 159.399 85.7957 159.054C85.6404 158.867 85.4231 158.578 85.1436 158.712C84.8642 158.847 84.771 159.375 84.74 159.623C84.6979 160.149 84.7684 160.679 84.947 161.175H84.978ZM86.5202 115.573C85.4852 117.923 82.049 117.871 79.8134 117.54C80.4861 114.269 80.7966 111.972 80.8484 111.33C83.2392 111.599 86.7893 112.965 86.5202 115.573ZM101.01 69.7125C102.294 68.1497 105.274 67.508 106.444 69.5262C106.452 69.5451 106.465 69.5616 106.481 69.5742C106.498 69.5869 106.517 69.5953 106.537 69.5987C106.545 69.6139 106.557 69.6266 106.571 69.6355C106.586 69.6444 106.603 69.6492 106.62 69.6492C106.637 69.6492 106.654 69.6444 106.668 69.6355C106.683 69.6266 106.695 69.6139 106.703 69.5987C110.429 62.0328 121.524 60.9254 121.379 74.2251C121.379 78.3651 118.647 81.6254 115.966 84.5027C105.616 95.5772 96.8598 84.7925 100.565 77.0093C100.58 76.9693 100.58 76.9251 100.565 76.8851C101.133 76.5683 101.754 76.3578 102.397 76.2641C101.931 78.51 105.926 78.6342 106.247 76.0053C106.298 75.4829 106.169 74.9588 105.881 74.52C105.593 74.0813 105.163 73.7544 104.664 73.5938C104.211 73.4846 103.733 73.5595 103.335 73.802C102.938 74.0446 102.652 74.4349 102.542 74.8875C101.909 74.4569 101.134 74.2864 100.379 74.4114C100.203 72.7865 99.9441 71.0787 101.062 69.7125H101.01ZM102.614 75.0221C102.737 74.6091 103.018 74.2615 103.396 74.0558C103.775 73.85 104.22 73.803 104.633 73.925C105 74.0517 105.32 74.2847 105.555 74.5943C105.789 74.904 105.925 75.2762 105.947 75.6638C106.02 77.7338 102.376 78.5928 102.49 76.2744H102.594C102.677 76.2744 102.79 76.1399 102.801 76.1088C102.882 75.9332 102.913 75.7383 102.889 75.5462C102.865 75.3541 102.788 75.1725 102.666 75.0221H102.614ZM97.2117 77.1645C97.8775 76.1737 98.7815 75.3658 99.8406 74.8151C100.638 74.4632 102.946 74.4942 102.542 76.0157C101.787 76.0489 101.062 76.3207 100.472 76.7919C100.12 76.7919 99.3645 79.4105 99.437 81.377C98.5986 81.9462 97.6775 82.412 96.8391 82.9709C93.7238 77.0817 94.0446 81.1907 97.2635 77.1645H97.2117ZM77.5467 56.8682C78.8612 66.9284 77.1224 67.0733 74.2968 68.4602C74.2742 68.4719 74.2554 68.4898 74.2426 68.5118C74.2298 68.5338 74.2235 68.5589 74.2244 68.5844C74.2133 69.7461 74.272 70.9074 74.4003 72.062C73.3265 73.31 72.1643 74.4791 70.9227 75.5603C68.8202 74.0302 67.2841 71.8463 66.555 69.3503C66.6972 68.4744 66.7251 67.5837 66.6378 66.7007C67.2795 66.7007 67.9523 66.6075 68.5112 66.5765C68.625 66.5765 68.6768 66.3384 68.6664 66.3177C68.2818 65.2343 67.7858 64.1938 67.1864 63.2127C67.1864 63.3162 66.9794 63.575 66.9276 63.6785C66.9182 63.673 66.9075 63.6702 66.8966 63.6702C66.8857 63.6702 66.875 63.673 66.8655 63.6785C65.0129 63.6785 64.692 60.9875 66.3584 60.8943C67.3934 60.8322 67.3934 61.9811 68.1489 62.2916C68.1586 62.2962 68.1692 62.2986 68.18 62.2986C68.1907 62.2986 68.2013 62.2962 68.211 62.2916C68.7182 62.4158 69.1425 61.9604 69.246 61.4222C69.3806 60.5217 68.4698 59.3522 69.422 57.6755C72.9099 58.3482 75.4043 57.4064 77.5571 56.8682H77.5467ZM65.3337 55.7607C66.4682 56.6361 67.7834 57.2478 69.1839 57.5513C68.3663 58.7208 69.0908 60.2423 69.0908 60.9461C69.0771 61.2069 68.9787 61.4561 68.8106 61.6559C68.6425 61.8558 68.4138 61.9954 68.1593 62.0535C67.6935 61.6085 67.559 60.9461 66.8966 60.6977C66.6097 60.5963 66.2979 60.5899 66.0072 60.6794C65.7165 60.7688 65.4622 60.9494 65.282 61.1945C65.1321 61.4638 65.057 61.7682 65.0644 62.0763C65.0718 62.3844 65.1614 62.6849 65.324 62.9467C65.4866 63.2085 65.7162 63.422 65.989 63.5653C66.2619 63.7085 66.5681 63.7762 66.8759 63.7613C66.6275 64.227 66.348 64.6617 66.0686 65.1068C64.8235 63.9089 64.061 62.2959 63.9255 60.5734C63.7901 58.8509 64.2911 57.1385 65.3337 55.7607ZM65.4993 66.3591C66.1366 65.521 66.7142 64.639 67.2278 63.7199C67.3727 64.0925 68.1386 65.7899 68.387 66.2349C67.8591 66.2453 65.9237 66.297 65.4993 66.3591ZM66.4308 66.9801C66.4308 67.2285 66.1824 69.2364 66.4308 69.3813C66.6935 70.6993 67.2171 71.9514 67.9707 73.0641C68.7243 74.1767 69.6928 75.1275 70.8192 75.8604C72.2706 74.8296 73.5462 73.5714 74.597 72.1344C74.6153 72.1239 74.6306 72.1088 74.6414 72.0907C74.6523 72.0726 74.6584 72.052 74.6591 72.0309C74.6591 71.8446 74.6591 71.4617 74.597 70.9959C79.5029 75.3947 81.2831 77.3198 85.5059 85.6619C85.5783 85.7964 85.7439 85.724 85.7646 85.5998C88.6419 83.5298 91.2294 81.0561 94.3034 79.2242C95.3384 81.0251 96.3734 82.7432 97.4084 84.5544C94.9658 89.0153 89.8425 95.5151 86.2511 96.6329C83.7464 97.4091 80.9105 95.3184 80.1032 94.5629L80.0411 94.625C80.8095 95.5027 81.7548 96.2081 82.8149 96.695C81.9558 100.638 83.3738 105.078 84.7814 108.701C85.4852 110.502 87.0687 112.841 86.7375 114.911C86.4684 112.034 82.8356 110.078 69.5462 109.343L70.457 102.47C71.0987 99.1479 69.7739 94.8734 70.0947 87.1005C70.5605 76.0778 73.6551 75.0635 75.9011 72.4035C75.9092 72.396 75.9158 72.387 75.9205 72.377C75.9252 72.367 75.9278 72.3561 75.9283 72.3451C75.9288 72.334 75.9271 72.323 75.9233 72.3126C75.9195 72.3022 75.9137 72.2927 75.9062 72.2845C75.8988 72.2763 75.8898 72.2697 75.8797 72.2651C75.8697 72.2604 75.8589 72.2577 75.8478 72.2573C75.8367 72.2568 75.8257 72.2585 75.8153 72.2623C75.8049 72.2661 75.7954 72.2719 75.7872 72.2793C72.4235 75.3119 70.6122 77.0196 69.9188 85.2375C69.3081 92.2755 70.5605 97.761 70.281 101.518L58.2543 95.1114C59.072 82.7432 59.3411 70.1369 66.4308 66.9801ZM41.0319 96.6846C42.4809 95.4116 43.8575 96.6846 45.0788 97.8852C43.5246 98.2007 41.9956 98.6296 40.5041 99.1686C40.3961 98.7418 40.3876 98.2959 40.4791 97.8652C40.5706 97.4346 40.7598 97.0307 41.0319 96.6846ZM43.9196 118.171C48.5667 117.737 57.0123 114.518 57.0123 114.518C57.0123 114.518 57.3228 105.544 57.6954 104.892C58.068 104.24 58.0059 104.892 58.0059 104.892C56.1429 132.195 63.3672 139.989 63.3672 139.989L73.562 152.15C72.8315 152.39 72.116 152.673 71.4195 152.999C68.7888 148.237 65.4056 143.931 61.4007 140.248C59.5005 138.484 57.4189 136.926 55.1907 135.601C52.9655 134.307 50.4194 133.086 47.7905 133.282C47.718 133.158 47.9871 133.086 42.7293 135.052L43.9196 118.171ZM2.06416 167.851C5.38163 165.688 8.83926 163.749 12.4142 162.045C14.3289 161.134 16.2851 160.296 18.2619 159.54C20.0318 158.857 21.9155 158.381 23.6439 157.625C32.1717 162.095 39.7917 168.114 46.1138 175.376C40.3799 171.236 33.0107 169.714 26.2418 168.131C17.3304 166.03 12.3417 165.771 2.06416 167.893V167.851ZM1.56736 176.131C1.67086 176.079 18.1895 167.075 18.2723 166.971C23.9337 167.624 39.5208 170.904 46.5174 176.152C45.617 176.152 28.022 175.251 1.56736 176.183V176.131ZM1.80541 152.419C12.0726 147.589 22.4882 143.104 33.0521 138.964L33.6317 142.545L35.0393 142.597C35.2003 143.523 35.4605 144.429 35.8155 145.299C35.298 145.299 34.9668 146.334 34.0457 147.369C33.4117 147.942 32.7176 148.445 31.9757 148.869C31.0649 149.532 31.3133 150.246 32.3069 150.567C34.0353 151.115 36.3227 150.091 37.9062 149.532C38.0891 148.96 38.314 148.404 38.579 147.865C39.1689 147.306 39.2724 149.045 39.2517 149.304C39.7126 149.387 40.1825 149.407 40.649 149.366C40.8966 147.938 40.8366 146.474 40.473 145.071H40.2557C40.3763 144.332 40.4386 143.584 40.442 142.835L42.1394 142.897L42.6776 135.342C47.687 133.52 47.687 133.613 47.7801 133.52C53.1 133.634 58.1301 137.66 61.7733 141.138C65.4415 144.7 68.5973 148.755 71.1504 153.185C67.0104 155.255 63.6467 158.723 60.2622 161.745C55.303 165.993 50.81 170.756 46.859 175.955C36.302 163.535 18.0446 150.474 1.80541 152.471V152.419ZM37.8855 149.314C36.4986 149.776 35.0758 150.122 33.6317 150.349C33.1763 150.349 30.9303 150.349 32.0585 148.983C33.6671 148.264 34.9586 146.984 35.6913 145.381C37.2619 145.615 38.8633 145.53 40.4006 145.133C40.4006 146.064 40.5144 145.371 40.4834 149.159C40.1789 149.155 39.8746 149.173 39.5726 149.211C39.6864 147.11 38.3099 146.861 37.8855 149.397V149.314ZM40.0797 145.04C38.7361 145.231 37.3794 145.314 36.0225 145.288C36.0225 145.288 35.5671 143.477 35.3084 142.597L40.2764 142.773C40.1625 143.591 40.0694 145.102 40.0797 145.123V145.04ZM114.848 164.011C110.408 166.858 106.879 170.946 102.739 174.175C98.0794 177.669 93.7143 181.539 89.6873 185.746C83.413 182.009 76.7539 178.959 69.8256 176.649C64.0503 174.879 52.9137 175.138 47.3558 176.059C54.7146 172.954 59.8275 172.519 67.1553 173.295C74.4831 174.072 79.5029 175.231 86.0234 179.505C86.4581 179.795 93.5789 172.602 107.914 160.948C110.273 161.962 112.55 163.059 114.848 164.094V164.011ZM117.694 152.937C106.879 161.32 96.3216 169.983 86.3028 179.298C86.2975 179.276 86.2873 179.255 86.273 179.237C86.2587 179.219 86.2406 179.205 86.22 179.195C80.4344 175.345 73.9967 173.73 67.1553 172.985C59.9103 172.219 54.3731 172.633 47.0763 175.914C51.002 171.051 55.2924 166.494 59.9103 162.283C67.2692 155.555 69.5979 153.682 73.7586 152.316L78.2712 157.719C78.9353 157.589 79.5746 157.355 80.1653 157.025L81.5936 158.588C81.5418 158.588 81.2831 158.65 81.2831 158.743C81.014 162.169 81.0968 161.279 79.7306 163.68C79.5275 163.97 79.431 164.321 79.4574 164.674C79.4838 165.027 79.6315 165.359 79.8755 165.616C79.9376 165.616 85.2678 161.227 85.2471 161.196C85.2264 161.165 84.6158 159.002 85.3299 158.961C85.8578 158.961 86.5202 160.368 86.5719 160.347C86.813 160.249 87.0366 160.113 87.2343 159.944C86.9453 158.544 86.3977 157.21 85.6197 156.011C85.6197 156.011 85.4231 156.094 85.392 156.125C85.1333 155.338 84.8642 154.551 84.564 153.775C85.2575 153.134 85.6922 152.678 85.6922 152.678L84.3053 149.573C89.8179 148.766 95.4164 148.734 100.938 149.48C110.398 150.691 111.257 150.681 117.694 153.02V152.937Z"
        fill="black" />
    <path
        d="M158.742 105.513V105.451H158.67C158.645 105.448 158.62 105.453 158.599 105.466C158.579 105.48 158.563 105.5 158.556 105.524L146.27 112.396C145.712 115.253 146.374 115.077 145.401 125.789C144.511 126.886 143.952 128.459 140.785 129.639C139.01 130.164 137.28 130.829 135.61 131.626C133.436 132.858 132.867 135.135 135.051 136.801C135.005 136.834 134.963 136.872 134.927 136.915L134.616 137.091C134.575 137.12 134.543 137.162 134.525 137.209C134.506 137.257 134.502 137.309 134.513 137.358C134.524 137.408 134.55 137.453 134.587 137.489C134.623 137.524 134.67 137.548 134.72 137.557C134.854 137.681 134.968 137.619 135.092 137.557C135.098 137.629 135.098 137.702 135.092 137.774C135.092 137.835 135.116 137.892 135.159 137.935C135.202 137.978 135.26 138.002 135.32 138.002C135.381 138.002 135.438 137.978 135.481 137.935C135.524 137.892 135.548 137.835 135.548 137.774V137.339L135.734 137.236C137.276 138.126 139.491 138.55 139.957 140.558C140.299 142.049 139.139 143.87 137.67 144.916C137.67 144.916 137.494 143.456 137.483 143.436C137.411 143.229 137.069 143.229 137.08 143.487V143.974L136.697 143.332C136.66 143.29 136.61 143.262 136.555 143.252C136.5 143.243 136.443 143.254 136.395 143.282C136.347 143.311 136.311 143.355 136.292 143.408C136.273 143.46 136.274 143.518 136.293 143.57C136.562 144.15 136.821 144.729 137.1 145.309C133.354 147.379 132.008 142.773 129.659 140.827C129.959 139.234 130.031 139.265 129.969 139.12C129.978 139.088 129.981 139.054 129.976 139.021C129.972 138.989 129.962 138.957 129.946 138.928C129.929 138.899 129.907 138.874 129.881 138.853C129.855 138.833 129.825 138.818 129.793 138.809C129.761 138.8 129.728 138.798 129.695 138.802C129.662 138.806 129.63 138.816 129.602 138.833C129.573 138.849 129.547 138.871 129.527 138.897C129.507 138.923 129.492 138.953 129.483 138.985C129.41 139.161 129.359 139.347 129.296 139.534C129.234 139.72 129.224 139.637 129.172 139.834L129.058 139.492C129.045 139.441 129.011 139.398 128.966 139.372C128.92 139.346 128.866 139.339 128.815 139.353C128.764 139.366 128.721 139.4 128.695 139.445C128.669 139.491 128.662 139.545 128.675 139.596C128.624 139.699 128.675 139.865 128.769 140.206C128.27 139.891 127.735 139.637 127.175 139.451C125.719 139.024 124.158 139.134 122.776 139.761C122.693 139.368 122.631 138.964 122.579 138.571C122.528 138.178 122.207 138.385 122.155 138.571C122.09 138.599 122.038 138.651 122.01 138.716C121.938 138.613 121.855 138.447 121.658 138.53C121.626 138.519 121.591 138.517 121.558 138.526C121.525 138.534 121.495 138.552 121.472 138.578C121.449 138.603 121.433 138.634 121.428 138.668C121.422 138.702 121.427 138.737 121.441 138.768C121.7 139.182 121.948 139.596 122.196 140.01C120.456 140.927 118.902 142.158 117.611 143.643C117.599 143.664 117.594 143.689 117.597 143.714C117.601 143.739 117.612 143.762 117.63 143.779C117.647 143.797 117.67 143.808 117.695 143.812C117.72 143.815 117.745 143.81 117.767 143.798C119.163 142.555 120.67 141.443 122.269 140.476C122.352 140.972 122.455 141.51 122.559 141.956C122.559 142.235 123.086 142.173 123.045 141.893C123.05 141.831 123.05 141.769 123.045 141.707C123.084 141.671 123.113 141.624 123.128 141.573L123.221 141.717C123.248 141.768 123.291 141.807 123.343 141.831C123.394 141.854 123.452 141.86 123.508 141.847C123.563 141.834 123.613 141.803 123.649 141.759C123.685 141.715 123.706 141.66 123.707 141.604V141.552C123.708 141.524 123.702 141.496 123.689 141.471C123.676 141.445 123.658 141.424 123.635 141.407C123.428 140.99 123.196 140.586 122.942 140.196C123.902 139.748 124.966 139.571 126.02 139.682C127.074 139.793 128.078 140.189 128.924 140.827V140.91C128.924 141.138 128.841 141.366 128.789 141.593C128.738 141.821 128.707 141.987 128.675 142.183C128.644 142.38 129.131 142.67 129.183 142.328V142.183C129.225 142.151 129.257 142.108 129.276 142.059L129.586 142.866C129.7 143.156 130.166 143.042 130.062 142.732C129.959 142.421 129.783 141.883 129.638 141.469C131.625 143.436 133.281 147.803 137.152 145.826C137.225 146.52 137.235 146.727 137.328 147.586C137.34 147.644 137.372 147.697 137.418 147.735C137.464 147.773 137.522 147.793 137.582 147.793C137.641 147.793 137.699 147.773 137.745 147.735C137.792 147.697 137.823 147.644 137.835 147.586C137.835 147.369 137.835 147.151 137.783 146.934C137.794 146.89 137.794 146.844 137.783 146.799C137.81 146.81 137.84 146.81 137.866 146.799C138.042 146.913 138.342 146.799 138.26 146.52C138.116 146.146 137.954 145.78 137.773 145.423C139.605 144.16 141.033 141.759 139.988 139.792C139.212 138.343 137.504 137.878 135.993 137.112C136.479 136.781 137.245 136.646 136.79 136.284C136.655 135.756 136.21 136.284 135.496 136.646V136.211C135.496 136.178 135.483 136.147 135.46 136.123C135.436 136.1 135.405 136.087 135.372 136.087C135.339 136.087 135.307 136.1 135.284 136.123C135.261 136.147 135.248 136.178 135.248 136.211C135.248 136.356 135.196 136.491 135.165 136.636C133.25 135.228 133.726 133.168 135.693 132.02C137.659 130.871 140.05 130.446 142.151 129.577C142.928 129.227 143.628 128.727 144.211 128.105C144.793 127.483 145.247 126.752 145.546 125.954L159.922 118.834C159.95 118.84 159.979 118.837 160.003 118.823C160.028 118.81 160.047 118.788 160.057 118.761C159.85 117.819 158.846 105.575 158.742 105.513ZM152.905 115.739L145.66 125.737C145.867 123.853 146.695 114.745 146.405 112.479L152.926 115.739L158.597 105.793C158.833 110.098 159.286 114.388 159.953 118.647L152.905 115.739ZM8.14972 126.989L7.02157 125.116L6.60758 127.155L4.74458 127.569L6.21428 128.614L5.77958 130.602L7.51838 129.173L9.55733 130.105L8.61548 128.231L9.85748 126.7L8.14972 126.989ZM116.131 125.22L114.537 122.684L113.947 125.447L111.277 126.006L113.368 127.424L112.757 130.126L115.231 128.18L118.139 129.453L116.794 126.917L118.553 124.826L116.131 125.22ZM43.2259 16.2134C44.3437 16.3997 45.772 16.1513 46.4033 17.3002L46.0928 17.5175C46.0299 17.805 46.0702 18.1055 46.2067 18.3662C46.3972 18.7733 46.6677 19.1379 47.0019 19.4384C47.3362 19.7389 47.7275 19.9691 48.1525 20.1154L48.3905 20.0533C48.9805 20.4362 49.7878 20.7053 50.3467 20.105C50.9056 19.5047 50.533 18.5525 50.5433 18.5318C51.7336 16.8862 49.2599 15.313 49.2599 15.313L48.9701 15.52C47.873 13.45 50.8331 11.4628 48.2456 7.89201C45.2338 3.75201 37.2125 5.66676 39.5102 12.6944C39.7425 13.5677 40.213 14.3593 40.8691 14.9807C41.5253 15.6021 42.3412 16.0289 43.2259 16.2134ZM47.2831 16.6999C45.9222 15.3426 44.4547 14.0966 42.8947 12.9739C43.3294 13.0774 43.5881 13.3051 43.9297 12.9221V12.7772C44.3333 11.7422 44.5817 12.829 45.1096 12.0424V11.825C45.3994 11.411 45.358 11.7526 45.6374 11.7215C45.7706 11.7298 45.9042 11.7122 46.0307 11.6698C46.3516 11.5249 46.2895 11.0074 46.8484 11.0695C47.1005 12.7882 47.5485 14.4724 48.1835 16.0892L47.2831 16.6999ZM50.2742 18.863C50.3576 19.059 50.3843 19.2744 50.3514 19.4848C50.3185 19.6952 50.2272 19.8921 50.0879 20.0533C49.6532 20.4569 49.0529 20.2292 48.6389 19.9601C49.2583 19.7196 49.8168 19.3449 50.2742 18.863ZM48.8873 10.0966C49.3427 12.1666 47.6867 14.2366 48.7321 15.6856L48.3905 15.9236C47.4797 12.9118 46.4551 8.26461 46.7759 10.8107C45.803 10.7486 46.0411 11.1419 45.8651 11.2868C45.6892 11.4317 45.2131 11.2868 44.8922 11.4421C44.7991 11.4421 44.8922 11.6594 44.7991 11.7008C44.1677 12.3632 44.3644 11.8768 43.8365 12.0527C43.6399 12.1252 43.6295 12.1769 43.5364 12.3425C43.4432 12.5081 43.7848 12.7048 43.4432 12.8911C43.4432 12.8911 42.874 12.8083 42.6566 12.7979C40.5866 11.1833 44.975 15.1577 46.9933 16.9379L46.5793 17.2277C45.3683 14.8058 40.0174 17.9005 39.4481 10.7176C38.9927 4.75596 47.6867 4.47651 48.8873 10.0966ZM122.921 173.73C122.897 173.971 122.958 174.213 123.095 174.414C123.231 174.614 123.433 174.76 123.666 174.827C124.846 174.92 124.949 174.072 124.949 174.072L125.477 172.105L123.407 171.888L122.921 173.73ZM42.9775 0.108813C42.9775 -0.0464367 42.6773 -0.0257367 42.698 0.108813C42.8154 1.2336 43.002 2.35008 43.2569 3.45186C43.3811 3.81411 44.0746 3.89691 42.9775 0.108813ZM48.6182 5.96691C49.0765 5.15415 49.4245 4.28401 49.6532 3.37941C49.6498 3.35235 49.6392 3.32668 49.6227 3.30498C49.6061 3.28329 49.5841 3.26634 49.5589 3.25585C49.5338 3.24536 49.5062 3.24168 49.4792 3.24521C49.4521 3.24873 49.4265 3.25932 49.4048 3.27591C48.8998 4.0641 48.5128 4.92186 48.256 5.82201C48.1939 6.01866 48.5251 6.21531 48.6182 5.96691ZM37.1401 6.36021C37.1628 6.36896 37.1873 6.37185 37.2115 6.3686C37.2356 6.36536 37.2585 6.35609 37.2781 6.34165C37.2977 6.32721 37.3133 6.30806 37.3236 6.28598C37.3338 6.2639 37.3384 6.2396 37.3367 6.21531C36.6443 5.14856 35.8431 4.15655 34.9459 3.25521C34.832 3.16206 34.6354 3.25521 34.7285 3.42081C35.1011 3.88656 36.6743 5.89446 37.1401 6.36021ZM32.6171 13.6156C36.0637 13.1395 35.7221 12.5806 35.4841 12.5806C34.4491 12.7048 33.5176 13.1188 32.5343 13.3154C32.3273 13.3465 32.4205 13.6466 32.6171 13.6156ZM39.6137 17.7038C39.7069 17.5796 39.5516 17.3933 39.4067 17.4451C38.5851 17.9584 37.8033 18.5328 37.0676 19.1632C36.902 19.2977 37.0676 19.5668 37.285 19.453C38.1025 18.927 38.8808 18.3424 39.6137 17.7038ZM43.2259 18.6871C43.0499 19.5565 43.081 20.4776 42.9568 21.3574C42.9568 21.5747 43.2569 21.6782 43.2983 21.4505C43.5305 20.5489 43.6144 19.6156 43.5467 18.6871C43.5467 18.6445 43.5298 18.6037 43.4997 18.5736C43.4697 18.5435 43.4288 18.5266 43.3863 18.5266C43.3438 18.5266 43.3029 18.5435 43.2729 18.5736C43.2428 18.6037 43.2259 18.6445 43.2259 18.6871ZM39.3446 30.8173C39.5938 30.8381 39.8446 30.8056 40.0802 30.7219C40.3158 30.6382 40.5309 30.5053 40.7111 30.3319C40.8913 30.1586 41.0325 29.9488 41.1252 29.7166C41.218 29.4844 41.2602 29.2351 41.249 28.9853C41.0627 26.4289 37.4195 26.7601 37.3264 28.8508C37.3524 29.3728 37.5749 29.8657 37.9492 30.2304C38.3236 30.5952 38.8221 30.8048 39.3446 30.8173ZM40.8143 28.7473C40.8661 28.9613 40.8662 29.1845 40.8146 29.3985C40.763 29.6126 40.6612 29.8113 40.5175 29.9781C40.3739 30.145 40.1926 30.2753 39.9887 30.3582C39.7847 30.4412 39.5639 30.4743 39.3446 30.455C38.9277 30.4639 38.5221 30.3189 38.2053 30.0479C37.8884 29.7768 37.6824 29.3986 37.6265 28.9853C37.6489 28.5963 37.8112 28.2286 38.0834 27.9499C38.3557 27.6712 38.7195 27.5003 39.1078 27.4688C39.4962 27.4373 39.8828 27.5472 40.1964 27.7784C40.51 28.0095 40.7295 28.3463 40.8143 28.7266V28.7473ZM87.3065 51.9623C87.3893 52.2107 98.1844 52.6765 100.565 52.6247C100.255 52.9144 100.034 53.2862 99.9281 53.6968C99.8218 54.1073 99.8345 54.5395 99.9646 54.9431C100.275 55.7194 101.248 55.8746 101.972 55.9781C105.854 56.4956 109.714 57.2719 114.01 56.4025C119.868 55.2226 116.763 49.4059 113.233 52.0865C113.365 51.3267 113.267 50.5448 112.951 49.8412C112.636 49.1375 112.117 48.5442 111.462 48.1371C110.807 47.7301 110.046 47.528 109.275 47.5568C108.504 47.5855 107.76 47.8438 107.137 48.2984C107.137 45.6592 103.225 43.4546 101.569 45.8248C101.993 42.0574 98.6501 39.6872 95.038 40.391C91.1567 41.1259 90.4633 45.5453 92.1917 48.5261C91.6669 48.1013 91.0178 47.8592 90.343 47.8364C89.6681 47.8136 89.0042 48.0115 88.4519 48.4C87.8996 48.7884 87.489 49.3464 87.2823 49.9892C87.0756 50.6321 87.0841 51.3247 87.3065 51.9623ZM107.344 48.5468C110.139 46.8805 113.15 48.5468 112.881 52.3867C112.881 52.3867 113.14 52.4902 113.161 52.4695C116.462 49.8199 119.153 54.9017 114.351 55.9988C110.449 56.8889 105.761 56.3093 101.755 55.6055C98.6501 55.057 100.989 50.9377 103.339 52.5523C103.515 52.6765 103.577 51.2585 104.746 51.2482C105.316 51.2482 106.092 51.4448 106.278 52.0451C106.278 52.0451 106.485 51.776 106.464 51.7139C106.195 50.5547 106.185 49.2403 107.344 48.5468ZM101.134 46.1974C101.134 46.4044 101.455 46.2595 101.465 46.1974C103.339 43.7651 106.64 45.8972 106.744 48.4847C106.332 48.789 106.036 49.2242 105.905 49.7188C105.773 50.2134 105.813 50.7381 106.019 51.2068C104.984 50.5133 103.318 50.8135 103.204 52.2418C103.025 52.0856 102.816 51.9667 102.591 51.8919C102.365 51.8172 102.127 51.7881 101.89 51.8064C101.653 51.8247 101.422 51.89 101.21 51.9985C100.999 52.107 100.811 52.2566 100.658 52.4384C96.518 51.8588 88.031 51.9106 87.586 51.7139C87.1409 51.5173 87.586 49.8509 87.8965 49.3541C88.1527 49.0159 88.4804 48.7383 88.8561 48.5411C89.2319 48.3439 89.6464 48.2319 90.0704 48.2131C90.4943 48.1943 90.9172 48.2692 91.3089 48.4324C91.7006 48.5957 92.0515 48.8432 92.3366 49.1575C92.5022 49.3024 92.554 48.8884 92.5436 48.878C87.7412 37.9277 102.635 38.528 101.186 46.1974H101.134ZM112.436 28.178C112.246 26.8313 111.687 25.5633 110.822 24.5141C106.868 20.9123 98.6087 24.8867 102.738 32.7941C103.198 33.5178 103.706 34.2094 104.26 34.8641C105.191 36.2096 105.616 39.2215 105.812 40.8464C105.812 40.8876 105.829 40.9271 105.858 40.9562C105.887 40.9853 105.926 41.0017 105.968 41.0017H108.938C109.424 41.0017 108.783 37.2964 109.393 35.6093C110.284 33.0218 113.13 31.252 112.436 28.178ZM106.123 23.593C106.805 23.4495 107.51 23.4495 108.193 23.593C108.904 25.5124 109.218 27.5564 109.114 29.6007C109.011 31.645 108.493 33.6471 107.593 35.4851H106.754C105.854 33.6474 105.334 31.6469 105.226 29.6034C105.117 27.56 105.422 25.5157 106.123 23.593ZM102.718 31.9558C101.486 28.8508 101.465 26.1494 104.249 24.3692C102.552 26.5738 102.956 32.4112 106.319 35.4955C105.843 35.4955 105.378 35.3506 104.902 35.2988C104.103 34.2324 103.373 33.1157 102.718 31.9558ZM108.69 40.7326C108.027 40.805 107.386 40.7326 106.723 40.7326C106.061 40.7326 106.195 41.0948 105.854 38.942C106.858 39.1022 107.882 39.1022 108.886 38.942C108.903 39.545 108.836 40.1474 108.69 40.7326ZM108.886 38.6626C107.851 38.7971 106.816 38.6626 105.781 38.7661C105.554 37.6344 105.257 36.5179 104.891 35.423C106.261 35.8887 107.742 35.9104 109.124 35.4851C108.868 36.5271 108.788 37.6045 108.886 38.6729V38.6626ZM109.269 35.1953C108.921 35.231 108.576 35.2863 108.234 35.3609C111.567 32.0903 111.722 26.3771 110.108 24.3278C111.753 25.4767 112.809 29.0992 111.815 31.0864C111.091 32.5147 109.932 33.7049 109.311 35.2264L109.269 35.1953ZM117.715 42.844C117.932 43.3615 118.129 40.0805 120.364 39.8011C120.447 39.8011 120.52 39.7183 120.447 39.6458C119.992 39.2008 118.719 39.1801 118.564 36.427C118.564 36.3131 118.346 36.2717 118.346 36.427C118.284 39.532 114.475 39.6251 115.241 39.8528C117.125 40.3703 117.446 42.2126 117.715 42.844ZM118.45 37.2653C118.479 37.7437 118.623 38.2079 118.87 38.6187C119.117 39.0295 119.459 39.3747 119.868 39.6251C119.36 39.9046 118.915 40.2846 118.559 40.7419C118.203 41.1992 117.944 41.7243 117.798 42.2851C117.627 41.7453 117.349 41.2453 116.981 40.8151C116.613 40.3848 116.162 40.0329 115.655 39.7804C116.3 39.6406 116.896 39.3351 117.386 38.894C117.877 38.4529 118.243 37.8915 118.45 37.2653ZM131.346 54.3325C131.263 54.3325 131.284 54.4981 131.346 54.5188C131.928 54.6472 132.449 54.9687 132.825 55.431C133.2 55.8933 133.409 56.4691 133.416 57.0649C133.416 57.1373 133.571 57.158 133.592 57.0649C133.612 56.9717 133.592 54.9949 134.875 54.229C134.958 54.229 134.999 54.0013 134.875 54.0116C133.468 54.2186 132.65 51.4138 132.64 51.3724C132.629 51.331 132.433 51.3103 132.464 51.3724C132.582 51.921 132.539 52.492 132.341 53.017C132.142 53.542 131.797 53.9987 131.346 54.3325ZM132.836 52.2625C133.167 53.0905 133.706 54.1255 134.513 54.26C134.014 54.7409 133.68 55.3679 133.561 56.0506C133.221 55.3035 132.605 54.7172 131.843 54.4153C132.432 53.8348 132.786 53.057 132.836 52.2314V52.2625ZM62.3837 38.5487V38.6419C62.898 38.7362 63.3714 38.9847 63.7412 39.3544C64.1109 39.7241 64.3594 40.1976 64.4537 40.7119C64.4605 40.7326 64.4737 40.7506 64.4914 40.7634C64.509 40.7762 64.5303 40.783 64.552 40.783C64.5738 40.783 64.5951 40.7762 64.6127 40.7634C64.6304 40.7506 64.6436 40.7326 64.6504 40.7119C64.9402 39.77 65.1368 38.7557 66.7204 38.528C66.7825 38.528 66.8032 38.3935 66.7204 38.3935C64.847 38.2072 64.4848 35.8888 64.4123 35.7232C64.3399 35.5576 64.2364 35.7232 64.2467 35.7232C64.5262 37.4827 62.9426 38.2279 62.3837 38.5487ZM64.5365 36.6443C64.663 37.0322 64.8705 37.3888 65.1453 37.6903C65.4201 37.9919 65.7559 38.2316 66.1304 38.3935C65.7674 38.5517 65.4443 38.789 65.1846 39.088C64.925 39.387 64.7354 39.7403 64.6297 40.1219C64.4536 39.7261 64.1849 39.3784 63.8463 39.1082C63.5076 38.838 63.1089 38.6532 62.6839 38.5694C63.128 38.4271 63.5297 38.1767 63.8531 37.8406C64.1765 37.5046 64.4113 37.0935 64.5365 36.6443ZM158.929 76.1917C157.894 72.6313 157.749 69.3193 157.335 69.7333C156.031 71.027 153.195 73.5938 153.195 73.6042C153.195 73.6145 156.972 75.4258 158.659 76.378C158.701 76.409 158.96 76.2848 158.929 76.1917ZM153.598 73.5421C154.98 72.4734 156.252 71.2703 157.397 69.9506C157.517 72.0016 157.91 74.0274 158.566 75.9743C156.869 75.0739 155.254 74.5253 153.598 73.5421ZM149.117 75.757C148.834 76.7771 148.616 77.8142 148.465 78.862C148.465 79.0793 148.754 79.1725 148.796 78.9551C149.067 77.9018 149.226 76.8229 149.272 75.7363C149.264 75.7208 149.252 75.7082 149.237 75.7001C149.221 75.692 149.204 75.6889 149.187 75.6912C149.17 75.6935 149.154 75.701 149.141 75.7128C149.129 75.7246 149.12 75.7401 149.117 75.757ZM147.647 83.3953C147.982 82.383 148.231 81.3443 148.392 80.2903C148.392 80.1557 148.206 80.1454 148.165 80.2903C147.832 81.2822 147.583 82.3 147.419 83.3332C147.421 83.3593 147.43 83.3843 147.447 83.4047C147.463 83.4251 147.485 83.4398 147.511 83.4467C147.536 83.4536 147.563 83.4523 147.587 83.4431C147.612 83.4338 147.633 83.4171 147.647 83.3953ZM151.383 80.8181C151.422 80.8303 151.464 80.8278 151.501 80.8111C151.538 80.7945 151.567 80.7649 151.584 80.7279C151.601 80.6908 151.603 80.649 151.591 80.6103C151.579 80.5716 151.553 80.5388 151.518 80.518C150.699 80.102 149.818 79.8223 148.91 79.69C148.154 79.7003 150.866 80.7353 151.383 80.8181ZM147.481 79.1104C146.581 78.862 145.691 78.5411 144.79 78.3031C144.594 78.3031 143.89 78.4997 147.378 79.4933C147.429 79.507 147.483 79.5 147.528 79.4738C147.574 79.4476 147.607 79.4044 147.621 79.3536C147.635 79.3028 147.628 79.2486 147.602 79.203C147.575 79.1574 147.532 79.1241 147.481 79.1104ZM121.265 92.4722C119.785 93.2278 118.543 95.7014 119.102 97.3057C119.102 97.3057 119.185 97.3781 119.205 97.3885C121.689 97.6369 136.8 97.6162 141.789 97.5127C141.825 97.5117 141.859 97.5012 141.889 97.482C141.919 97.4629 141.944 97.4359 141.96 97.404C141.976 97.3721 141.983 97.3365 141.98 97.3009C141.977 97.2654 141.965 97.2312 141.944 97.2022C142.105 96.508 142.039 95.7807 141.755 95.1268C141.472 94.473 140.987 93.9271 140.371 93.5693C139.681 93.3065 138.942 93.1945 138.205 93.2409C137.467 93.2873 136.748 93.4911 136.096 93.8384C136.811 92.5654 136.096 91.1578 135.227 90.0607C134.192 88.7152 133.054 87.4214 131.263 87.2972C129.68 87.0847 128.073 87.4523 126.74 88.3322C125.426 89.4293 125.539 91.0439 125.767 92.5654C124.774 91.2095 122.6 91.7891 121.265 92.4722ZM126.781 88.8497C127.322 88.3565 127.961 87.9836 128.657 87.7556C129.352 87.5275 130.088 87.4496 130.816 87.5268C131.543 87.6041 132.246 87.8349 132.878 88.2038C133.51 88.5728 134.057 89.0716 134.482 89.6674C135.434 90.8473 136.738 92.5033 135.589 93.9937C135.455 94.1696 135.91 94.1386 135.92 94.1282C140.423 92.7103 141.572 94.2524 141.644 97.1297C136.697 97.4092 120.364 97.0366 119.236 97.2022C118.915 92.2859 124.411 90.9922 125.933 93.2071C125.995 93.3002 126.129 93.2071 126.036 93.0311C125.891 91.6442 125.726 89.9261 126.781 88.8497ZM137.556 106.341C137.67 106.269 137.556 106.093 137.504 106.124C135.745 106.745 134.72 104.24 134.647 104.137C134.575 104.033 134.461 104.137 134.492 104.199C134.979 105.42 134.834 106.859 133.457 107.376C133.439 107.383 133.423 107.394 133.412 107.41C133.401 107.426 133.395 107.445 133.395 107.464C133.395 107.484 133.401 107.502 133.412 107.518C133.423 107.534 133.439 107.546 133.457 107.552C134.038 107.465 134.632 107.586 135.133 107.892C135.634 108.199 136.012 108.672 136.2 109.229C136.2 109.353 136.448 109.332 136.438 109.229C136.428 109.125 136.138 107.169 137.556 106.341ZM136.159 108.515C135.927 108.175 135.619 107.895 135.26 107.695C134.9 107.496 134.499 107.383 134.089 107.366C134.415 107.108 134.667 106.768 134.82 106.381C134.973 105.993 135.02 105.573 134.958 105.161C135.168 105.532 135.467 105.845 135.829 106.071C136.19 106.297 136.602 106.429 137.028 106.455C136.755 106.724 136.537 107.045 136.388 107.398C136.239 107.752 136.161 108.131 136.159 108.515ZM97.0148 146.623C99.385 139.441 105.119 133.168 111.339 129.028C111.536 128.894 111.339 128.583 111.153 128.708C98.2568 137.288 96.2386 149.045 97.0148 146.623ZM93.0818 139.306C96.6112 133.914 100.016 131.75 105.657 128.739C105.874 128.625 105.657 128.304 105.471 128.418C100.679 130.809 95.3899 134.276 92.9783 139.244C92.9742 139.257 92.9746 139.271 92.9796 139.284C92.9845 139.297 92.9937 139.308 93.0057 139.316C93.0176 139.323 93.0316 139.326 93.0454 139.324C93.0592 139.322 93.0721 139.316 93.0818 139.306ZM109.145 124.412C109.631 124.35 109.217 123.636 104.819 124.64C95.4313 126.71 93.2578 131.036 93.7649 130.477C98.2879 125.53 104.953 124.951 109.145 124.412ZM14.2355 105.058C12.7658 105.834 11.617 104.665 11.2237 103.34C11.2237 103.236 11.0063 103.247 11.0167 103.34C11.2858 106.59 16.2538 106.507 15.5293 102.305C15.0186 100.189 14.1506 98.1767 12.9625 96.3535C10.3439 91.8926 8.02553 90.2677 8.49128 90.8473C11.1823 94.1903 17.8994 103.133 14.2355 105.058ZM26.3243 110.812C26.9453 110.429 26.6038 109.457 26.6659 108.867C26.6659 108.722 26.4485 108.701 26.4175 108.867C26.3779 109.169 26.3537 109.473 26.345 109.777C26.138 110.812 25.1444 110.533 24.451 110.202C23.3788 109.574 22.4736 108.697 21.8117 107.645C20.4766 105.793 19.3174 103.795 18.1582 101.839C10.9132 89.7605 10.3957 90.5161 10.5406 90.692C14.101 95.3185 16.8541 100.4 19.928 105.348C21.0769 107.211 22.3292 109.55 24.4303 110.523C24.9167 110.75 25.8068 111.123 26.3243 110.812ZM15.0946 93.9316C15.0221 93.8384 14.8669 93.9316 14.929 94.0558C19.9073 101.177 19.1104 98.765 15.0946 93.9316ZM3.91658 86.7797C1.70168 90.1228 5.57258 91.6753 5.57258 91.6753C5.28875 91.2603 5.17656 90.7515 5.25952 90.2557C5.34249 89.7598 5.61417 89.3153 6.01763 89.0153C6.31516 89.2193 6.6264 89.4026 6.94913 89.5639C7.91893 89.2278 8.78533 88.6466 9.46418 87.8768C9.35305 87.4938 9.20396 87.1228 9.01913 86.7694C9.45175 86.4811 9.98013 86.3738 10.4909 86.4705C11.0017 86.5673 11.4543 86.8603 11.7515 87.2869C11.7515 87.2869 11.7515 82.9813 7.61153 84.0059C2.99543 75.9019 -4.21852 73.1902 3.18173 85.5584C3.37838 85.9724 3.63713 86.3761 3.91658 86.7797ZM2.94368 78.5929C4.11323 79.897 6.51443 81.2011 9.22613 87.7319C8.5368 88.3677 7.78023 88.9264 6.96983 89.3983C2.33303 84.451 2.62283 83.4884 0.645976 80.2385L2.94368 78.5929ZM27.2869 60.4286C25.2169 60.7391 21.967 62.9954 22.7536 65.4484C22.099 64.9194 21.2914 64.6156 20.4505 64.582C19.6096 64.5485 18.7803 64.7869 18.0857 65.2621C17.24 65.911 16.6254 66.8148 16.3328 67.8399C16.0402 68.8649 16.085 69.9569 16.4608 70.9546H34.9976C36.7675 70.9546 37.3574 62.9023 31.1888 65.3449C31.4299 64.7533 31.5093 64.1084 31.4189 63.476C31.3286 62.8437 31.0717 62.2468 30.6746 61.7464C30.2775 61.2461 29.7545 60.8604 29.1592 60.6288C28.5639 60.3972 27.9177 60.3282 27.2869 60.4286ZM30.9922 65.7485C34.2628 63.6785 37.4299 67.1665 35.039 70.7476C35.039 70.7476 17.6924 70.4992 16.7506 70.6855C15.136 65.5105 20.7146 63.0058 23.033 66.1108C23.1055 66.2143 23.033 65.7692 22.9502 65.6554C21.9877 62.2192 27.8354 58.9072 30.3298 61.6706C31.9858 63.4922 30.5057 66.0694 30.9922 65.7485ZM10.5406 37.7828C10.479 37.8883 10.4414 38.0061 10.4307 38.1278C10.42 38.2494 10.4363 38.372 10.4785 38.4866C10.0955 38.911 10.7579 40.1323 11.7515 39.4595C13.4853 40.1829 15.3162 40.6467 17.1853 40.8361C16.6574 42.5128 15.4465 46.9115 16.9576 47.8016C18.4687 48.6917 20.5697 43.6616 21.1907 42.1609C21.6298 42.0095 22.0369 41.7779 22.3913 41.4778C25.0306 41.6951 30.7955 41.8814 29.0257 39.3043C28.3115 38.2693 24.2233 37.493 22.9813 37.2964C23.6747 35.1746 25.5377 28.8197 22.4431 30.0514C21.1286 30.5585 19.8763 33.6428 19.0069 35.806C18.445 35.9361 17.9317 36.2233 17.5268 36.634C15.8398 36.4684 11.234 36.2303 10.5406 37.7828ZM23.0641 37.5344C24.2647 37.7207 28.3736 38.5694 28.8083 39.4285C29.9882 41.6848 25.1134 41.2708 22.7122 41.1362C23.1885 40.6752 23.4855 40.0598 23.5499 39.4C23.6144 38.7402 23.4422 38.079 23.0641 37.5344ZM22.5052 30.2894C25.0306 29.5546 23.3953 34.7606 22.6604 37.1101C22.2372 36.6407 21.7121 36.2745 21.1255 36.0395C20.5388 35.8045 19.9062 35.7069 19.276 35.7542C19.7417 34.6054 21.3563 30.5999 22.5052 30.2687V30.2894ZM20.8388 42.2954C17.9512 50.2028 14.9911 48.8366 17.4233 40.981C17.7748 41.5384 18.2982 41.9663 18.9145 42.1997C19.5307 42.4331 20.2063 42.4595 20.8388 42.2747V42.2954ZM17.3716 36.8824C17.0067 37.4116 16.7919 38.0297 16.75 38.6711C16.7081 39.3126 16.8406 39.9534 17.1335 40.5256C17.1335 40.5256 12.8279 39.8528 11.9585 39.2629C12.3001 38.942 12.062 38.0519 10.8097 38.2279C10.6027 37.6586 11.4307 37.3378 11.7929 37.1929C13.6117 36.711 15.5086 36.5984 17.3716 36.8617V36.8824ZM9.67118 24.6797C10.1654 24.8913 10.5991 25.2225 10.9334 25.6434C11.2677 26.0644 11.4919 26.562 11.5859 27.0913C11.8654 27.6812 11.5859 24.7625 13.2316 24.6383C13.304 24.6383 13.3454 24.5141 13.2316 24.4727C12.5071 24.1001 11.5031 23.9863 10.8614 21.1297C10.8614 20.9641 10.5302 21.0469 10.613 21.2021C11.2547 22.4441 9.65048 24.5348 9.64013 24.5348C9.62091 24.5389 9.60412 24.5505 9.59344 24.567C9.58277 24.5835 9.57908 24.6036 9.5832 24.6228C9.58732 24.642 9.5989 24.6588 9.6154 24.6695C9.6319 24.6801 9.65196 24.6838 9.67118 24.6797ZM10.9546 22.3406C11.0684 22.8131 11.2838 23.2552 11.5859 23.6359C11.888 24.0166 12.2694 24.3269 12.7037 24.5452C12.3878 24.7164 12.1187 24.9626 11.9202 25.2622C11.7217 25.5618 11.5998 25.9055 11.5652 26.2633C11.4474 25.8448 11.2204 25.4652 10.9076 25.1633C10.5948 24.8614 10.2074 24.6481 9.78503 24.5452C10.4273 23.9749 10.8426 23.1922 10.9546 22.3406ZM9.52628 13.4603C11.3823 13.0376 13.208 12.4913 14.9911 11.825C16.0985 12.3839 11.7619 7.68501 10.1162 6.54651C10.0438 6.49476 9.96098 6.60861 10.0127 6.67071C9.69184 8.86655 9.48457 11.0775 9.39173 13.2947C9.39173 13.2947 9.48488 13.4603 9.52628 13.4603ZM10.1266 6.77421C13.6249 10.2829 13.4179 10.4485 14.7427 11.6077C13.0453 12.1562 11.3686 12.8704 9.64013 13.2844C9.76433 11.1005 9.91958 8.92701 10.1266 6.76386V6.77421ZM9.17438 67.9013C9.19222 67.9233 9.21805 67.9372 9.2462 67.9402C9.27434 67.9431 9.30249 67.9347 9.32445 67.9168C9.34641 67.899 9.36038 67.8732 9.3633 67.845C9.36621 67.8169 9.35782 67.7887 9.33998 67.7668C9.25012 67.2528 9.29121 66.7246 9.45944 66.2307C9.62767 65.7369 9.91762 65.2934 10.3025 64.9412C10.4267 64.8274 10.3025 64.5893 10.1887 64.6721C8.49128 65.614 7.30102 63.7096 7.28032 63.6371C7.25962 63.5647 7.06298 63.6371 7.10438 63.7096C7.90133 65.7796 6.69037 66.5558 6.16253 66.8146C6.11077 66.8146 6.16253 66.9388 6.16253 66.9181C6.69636 66.6742 7.30236 66.64 7.86027 66.8221C8.41818 67.0042 8.88724 67.3895 9.17438 67.9013ZM7.50803 64.3409C7.79701 64.6652 8.16629 64.9076 8.57872 65.0439C8.99115 65.1802 9.43219 65.2054 9.85748 65.1172C9.31028 65.7243 9.01107 66.5148 9.01913 67.3321C8.77169 67.0608 8.46362 66.8519 8.12007 66.7224C7.77651 66.5929 7.4072 66.5464 7.04228 66.5869C7.30537 66.2835 7.48632 65.9178 7.56786 65.5246C7.6494 65.1314 7.6288 64.7239 7.50803 64.3409ZM22.0291 87.7319C21.9773 87.7319 22.0291 87.8354 22.0291 87.8354C22.5449 87.5743 23.1416 87.5222 23.6949 87.6899C24.2482 87.8577 24.7155 88.2323 24.9995 88.7359C25.072 88.8394 25.2169 88.7359 25.1651 88.6013C25.089 88.0877 25.1366 87.5634 25.304 87.0719C25.4715 86.5804 25.7538 86.1361 26.1277 85.7758C26.2415 85.6619 26.1277 85.4446 26.0138 85.5067C25.7556 85.6338 25.4746 85.7079 25.1872 85.7245C24.8999 85.7411 24.6122 85.7 24.341 85.6035C24.0699 85.507 23.8208 85.3571 23.6086 85.1627C23.3964 84.9683 23.2253 84.7333 23.1055 84.4717C23.1055 84.3785 22.8881 84.4717 22.9295 84.5441C23.7989 86.6141 22.5673 87.4214 22.0291 87.7319ZM23.3746 85.1755C23.6636 85.4997 24.0328 85.7422 24.4453 85.8785C24.8577 86.0147 25.2987 86.04 25.724 85.9517C25.23 86.5874 24.9476 87.3621 24.9167 88.1666C24.6736 87.8898 24.3661 87.677 24.0214 87.5471C23.6766 87.4171 23.3052 87.374 22.9399 87.4214C23.1977 87.1151 23.373 86.748 23.449 86.3549C23.5251 85.9618 23.4995 85.5558 23.3746 85.1755ZM3.45083 99.7793C3.46867 99.8013 3.4945 99.8152 3.52265 99.8182C3.55079 99.8211 3.57894 99.8127 3.6009 99.7948C3.62286 99.777 3.63683 99.7512 3.63975 99.723C3.64266 99.6949 3.63427 99.6667 3.61643 99.6448C3.39908 98.5373 3.61643 98.0819 4.59968 96.8399C4.70318 96.7157 4.59968 96.5087 4.48583 96.5708C4.22741 96.7011 3.94527 96.7777 3.65644 96.7959C3.36761 96.8142 3.07808 96.7737 2.80532 96.677C2.53256 96.5803 2.28222 96.4293 2.06941 96.2331C1.8566 96.037 1.68574 95.7998 1.56713 95.5358C1.56713 95.4427 1.36013 95.5358 1.40153 95.6083C1.55876 95.8746 1.65929 96.1705 1.69683 96.4775C1.73437 96.7844 1.70811 97.0959 1.61969 97.3922C1.53127 97.6886 1.3826 97.9635 1.18298 98.1997C0.983374 98.4359 0.737128 98.6284 0.459676 98.765V98.8685C0.980736 98.6123 1.57972 98.5639 2.13517 98.733C2.69063 98.9022 3.16097 99.2762 3.45083 99.7793ZM1.79483 96.2603C2.08221 96.5837 2.4497 96.8257 2.86032 96.962C3.27094 97.0983 3.71021 97.124 4.13393 97.0366C3.85483 97.3342 3.63714 97.6839 3.49329 98.0658C3.34944 98.4476 3.28225 98.854 3.29558 99.2618C3.05023 98.9902 2.74432 98.7802 2.40265 98.649C2.06098 98.5177 1.69317 98.4688 1.32908 98.5063C1.59044 98.2019 1.77028 97.8362 1.85174 97.4434C1.9332 97.0506 1.91361 96.6435 1.79483 96.2603ZM11.1512 128.532C13.762 129.368 16.1501 130.783 18.1375 132.672C19.9405 134.546 21.6305 136.527 23.1986 138.602C23.3021 138.726 23.4884 138.602 23.4056 138.447C20.7974 133.903 16.3055 129.753 11.1719 128.449C11.1202 128.438 11.1098 128.521 11.1512 128.532ZM23.1055 130.985C23.2193 131.047 23.3539 130.881 23.2504 130.798C21.3703 129.021 18.9287 127.956 16.3469 127.786C16.2331 127.786 16.2331 127.962 16.3469 127.973C18.9758 128.159 20.9734 129.618 23.1055 130.985ZM23.5195 126.7C21.6771 125.407 19.5363 124.605 17.2985 124.368C15.0606 124.131 12.7992 124.466 10.7269 125.344C10.6544 125.344 10.7269 125.499 10.7269 125.478C12.8083 124.771 15.0194 124.529 17.2046 124.768C19.3898 125.008 21.4959 125.724 23.3746 126.865C23.3965 126.884 23.4252 126.894 23.4543 126.892C23.4835 126.89 23.5106 126.877 23.5298 126.855C23.549 126.833 23.5587 126.804 23.5568 126.775C23.5549 126.746 23.5414 126.719 23.5195 126.7ZM128.624 152.44C128.023 153.868 126.73 156.673 126.719 156.694C125.423 161.268 124.407 165.917 123.676 170.615C123.676 170.615 125.746 170.998 125.746 170.977C127.175 166.361 127.961 161.517 129.245 156.88C129.245 156.88 128.789 152.513 128.8 152.492C128.81 152.471 128.655 152.347 128.624 152.44ZM128.717 152.709C128.696 153.012 128.696 153.317 128.717 153.62H128.386C128.531 153.278 128.624 152.989 128.717 152.709ZM123.801 170.449C124.401 167.924 126.574 158.816 126.906 156.797C126.906 156.797 127.547 156.725 127.868 156.725C126.595 161.258 124.66 170.542 124.66 170.553C124.378 170.485 124.09 170.45 123.801 170.449ZM125.664 170.718L124.846 170.584C125.881 165.978 128.023 156.725 128.023 156.715C128.377 156.757 128.724 156.841 129.058 156.963C128.179 159.054 126.233 168.338 125.664 170.718ZM126.895 156.59C127.443 155.71 127.918 154.786 128.313 153.827C128.464 153.878 128.62 153.909 128.779 153.92C128.779 154.075 128.945 155.99 129.027 156.735C128.324 156.61 127.609 156.561 126.895 156.59ZM125.477 171.091C124.858 170.965 124.233 170.872 123.604 170.811C123.532 170.811 123.49 170.915 123.604 170.956C124.198 171.169 124.818 171.304 125.446 171.36C125.581 171.401 125.653 171.122 125.477 171.091ZM123.48 171.494C123.966 171.919 124.711 171.722 125.27 171.96C125.289 171.973 125.31 171.981 125.333 171.985C125.355 171.988 125.378 171.987 125.4 171.981C125.422 171.974 125.442 171.963 125.459 171.948C125.476 171.934 125.49 171.915 125.499 171.894C125.508 171.874 125.513 171.851 125.512 171.829C125.512 171.806 125.506 171.784 125.496 171.763C125.487 171.743 125.472 171.725 125.455 171.711C125.437 171.696 125.417 171.686 125.395 171.681C125.084 171.577 123.242 171.246 123.48 171.494ZM141.002 162.718C140.426 162.594 139.824 162.681 139.307 162.964C138.79 163.247 138.393 163.707 138.187 164.26C137.328 167.365 142.12 168.586 142.783 165.512C142.912 164.906 142.798 164.273 142.465 163.75C142.132 163.227 141.607 162.856 141.002 162.718ZM138.58 163.918C139.057 162.883 140.65 162.821 140.951 162.883C141.435 163.036 141.853 163.349 142.137 163.77C142.421 164.191 142.553 164.695 142.513 165.202C142.317 168.441 137.152 166.951 138.58 163.918ZM150.493 169.569C150.607 167.717 150.141 166.247 150.059 166.847C149.952 167.772 149.99 168.708 150.172 169.621C150.214 169.797 150.483 169.745 150.493 169.569ZM150.462 174.299C150.462 174.496 150.804 174.444 150.804 174.248C150.81 173.396 150.73 172.547 150.566 171.712C150.266 170.967 150.338 173.482 150.462 174.299ZM153.36 169.932C149.22 170.604 150.659 170.801 153.464 170.304C153.712 170.263 153.598 169.89 153.36 169.932ZM149.748 170.573C148.926 170.585 148.106 170.657 147.295 170.791C147.277 170.797 147.261 170.809 147.25 170.825C147.239 170.84 147.233 170.859 147.233 170.879C147.233 170.898 147.239 170.917 147.25 170.933C147.261 170.948 147.277 170.96 147.295 170.967C148.127 171.081 148.973 171.039 149.789 170.842C149.807 170.84 149.824 170.834 149.839 170.824C149.855 170.815 149.868 170.803 149.879 170.788C149.889 170.774 149.897 170.758 149.901 170.74C149.905 170.723 149.906 170.705 149.903 170.687C149.901 170.669 149.894 170.653 149.885 170.637C149.876 170.622 149.864 170.609 149.849 170.598C149.835 170.587 149.818 170.58 149.801 170.576C149.784 170.571 149.766 170.571 149.748 170.573Z"
        fill="black" />
    <path
        d="M5.39665 85.7448C5.41795 85.9233 5.50399 86.0879 5.63846 86.2073C5.77293 86.3266 5.94651 86.3926 6.12632 86.3926C6.30614 86.3926 6.47972 86.3266 6.61419 86.2073C6.74866 86.0879 6.8347 85.9233 6.856 85.7448C6.856 85.3411 5.39665 84.7719 5.39665 85.7448ZM3.80275 83.2608C3.82422 83.442 3.91141 83.609 4.0478 83.7302C4.1842 83.8514 4.36032 83.9183 4.54277 83.9183C4.72523 83.9183 4.90135 83.8514 5.03774 83.7302C5.17414 83.609 5.26133 83.442 5.2828 83.2608C5.26133 83.0796 5.17414 82.9126 5.03774 82.7914C4.90135 82.6702 4.72523 82.6032 4.54277 82.6032C4.36032 82.6032 4.1842 82.6702 4.0478 82.7914C3.91141 82.9126 3.82422 83.0796 3.80275 83.2608ZM1.96045 80.9527C1.96045 81.1476 2.03787 81.3345 2.17568 81.4723C2.31349 81.6101 2.5004 81.6876 2.6953 81.6876C2.89019 81.6876 3.07711 81.6101 3.21492 81.4723C3.35273 81.3345 3.43015 81.1476 3.43015 80.9527C3.43015 80.5491 1.96045 79.9798 1.96045 80.9527ZM53.2757 67.0113C53.4542 67.0113 53.6253 66.9404 53.7515 66.8142C53.8776 66.6881 53.9485 66.5169 53.9485 66.3385C53.9485 66.1601 53.8776 65.989 53.7515 65.8628C53.6253 65.7366 53.4542 65.6658 53.2757 65.6658C52.8617 65.6658 52.3857 67.0113 53.2757 67.0113ZM58.7199 69.5263C58.7314 69.4359 58.7236 69.3441 58.6969 69.257C58.6702 69.1698 58.6252 69.0894 58.565 69.021C58.5047 68.9526 58.4306 68.8978 58.3476 68.8602C58.2645 68.8227 58.1745 68.8033 58.0833 68.8033C57.9922 68.8033 57.9021 68.8227 57.819 68.8602C57.736 68.8978 57.6619 68.9526 57.6017 69.021C57.5415 69.0894 57.4965 69.1698 57.4698 69.257C57.4431 69.3441 57.4352 69.4359 57.4468 69.5263C57.4468 69.9093 58.7199 70.3854 58.7199 69.5263Z"
        fill="black" />
</svg>