<svg width="444" height="337" viewBox="0 0 444 337" fill="none" xmlns="http://www.w3.org/2000/svg">
    <path fill-rule="evenodd" clip-rule="evenodd"
        d="M392.092 120.774C392.464 121.545 393.886 121.781 394.818 121.947C402.419 123.316 435.376 124.088 438.554 121.366C441.335 119.039 439.878 80.9232 437.176 79.3778C433.682 77.2943 395.523 76.8146 392.86 78.9313C390.92 80.5365 389.631 115.381 392.092 120.774ZM393.442 79.4224C395.568 77.6543 432.838 79.0652 436.193 80.7052C437.979 85.514 439.079 115.699 437.321 119.987C434.471 121.94 399.6 121.794 393.517 119.891C391.15 114.171 392.11 80.5391 393.442 79.4224ZM299.428 75.1355C298.5 76.7158 297.248 78.0819 295.754 79.1439C294.261 80.206 292.559 80.94 290.762 81.2977C290.706 81.2834 290.649 81.282 290.593 81.2934C290.537 81.3049 290.485 81.3289 290.44 81.3637C290.395 81.3985 290.359 81.4431 290.333 81.4941C290.308 81.5452 290.295 81.6013 290.295 81.6582C290.295 81.7151 290.308 81.7712 290.333 81.8224C290.358 81.8735 290.394 81.9183 290.439 81.9533C290.484 81.9883 290.536 82.0125 290.592 82.0242C290.647 82.0359 290.705 82.0347 290.76 82.0207C294.863 83.1026 300.212 79.3823 300.221 75.2771C300.24 75.172 300.216 75.0637 300.155 74.9761C300.094 74.8885 300.001 74.8287 299.896 74.8099C299.791 74.7911 299.682 74.8149 299.595 74.8759C299.507 74.937 299.447 75.0303 299.428 75.1355ZM280.418 54.2182L280.413 56.5507C280.412 56.86 280.534 57.1569 280.752 57.3761C280.971 57.5953 281.267 57.7188 281.576 57.7195C281.884 57.7142 282.177 57.59 282.395 57.3731C282.613 57.1561 282.738 56.8632 282.745 56.5558L282.75 54.2233C282.751 53.914 282.629 53.6171 282.41 53.3979C282.192 53.1787 281.896 53.0552 281.586 53.0545C281.277 53.0538 280.98 53.1761 280.761 53.3943C280.542 53.6125 280.418 53.9089 280.418 54.2182ZM303.668 56.4848C303.667 56.7941 303.789 57.091 304.007 57.3102C304.226 57.5294 304.522 57.6529 304.831 57.6536C305.141 57.6543 305.438 57.532 305.657 57.3138C305.876 57.0956 305.999 56.7992 306 56.4899L306.006 53.5976C306.007 53.2883 305.885 52.9914 305.667 52.7722C305.448 52.553 305.152 52.4295 304.843 52.4288C304.533 52.4282 304.237 52.5504 304.017 52.7686C303.798 52.9869 303.675 53.2832 303.674 53.5925C303.578 54.5953 303.669 55.7617 303.668 56.4848Z"
        fill="black" />
    <path fill-rule="evenodd" clip-rule="evenodd"
        d="M438.537 225.511C438.385 225.251 438.168 225.033 437.909 224.88C435.905 223.896 424.988 224.362 422.725 224.45C423.255 163.27 391.103 125.041 344.338 113.999C335.759 111.974 335.736 111.834 335.502 111.974L333.925 107.609C338.404 107.479 342.074 104.034 346.177 104.743C349.278 105.263 350.835 108.019 353.888 109.192C359.062 111.162 368.282 108.173 371.115 103.258C372.567 100.696 371.289 98.0337 372.203 96.263C373.839 94.8438 378.485 92.5681 379.819 90.9149C382.555 87.5155 382.688 79.8885 381.461 75.7573C379.24 71.0807 376.209 66.8336 372.508 63.2123C368.483 59.3165 364.916 54.9733 361.877 50.2672C358.138 42.7717 358.021 32.4152 354.936 24.5946C351.532 17.532 346.252 11.5413 339.672 7.27761C333.247 2.71819 325.494 0.413123 317.621 0.721863C310.273 1.17233 307.397 4.29159 303.966 5.35705C300.535 6.42251 299.814 5.34799 294.234 7.78493C292.018 9.12874 290.043 10.8354 288.392 12.8337C287.691 13.5786 287.737 13.6253 286.548 13.6694C285.267 13.5702 283.98 13.5674 282.699 13.661C280.514 14.1409 278.423 14.9797 276.512 16.1432C263.504 23.9054 266.968 39.5873 262.045 51.099C258.692 58.9289 249.393 66.4425 248.582 74.6278C248.292 78.3915 249.094 82.1589 250.89 85.4789C256.537 95.4509 264.694 87.6549 268.903 93.7519C270.228 95.6674 271.227 97.5356 273.698 97.9141C276.846 98.3409 281.144 95.8545 283.713 94.0174C284.251 94.6471 284.86 95.2121 285.529 95.7008C287.799 97.2386 290.238 98.5117 292.798 99.4952L286.855 107.763C275.756 106.479 258.697 110.034 247.704 113.392C247.314 110.592 243.912 87.4696 241.302 86.3443C237.69 84.7503 199.731 89.0759 197.417 91.5666C195.71 93.3823 198.69 128.026 201.991 133.212C202.479 134.006 204.158 134.033 205.091 134.058C199.625 137.778 194.345 141.545 192.453 142.917C190.995 137.829 183.333 110.919 180.497 106.504C179.683 105.22 178.937 105.241 175.179 106.493C173.061 95.8082 170.375 85.2445 167.131 74.8466C168.36 72.8355 169.344 70.6842 170.06 68.4387C170.937 64.8815 171.072 61.1818 170.457 57.5701C173.301 58.5327 190.294 63.2347 193.05 61.8879C193.79 61.362 194.34 60.6103 194.617 59.7454C197.64 53.1744 202.844 30.7239 203.256 23.6107C203.421 22.7001 203.267 21.7604 202.819 20.9507C200.096 18.0991 163.406 7.45289 160.3 8.84561C158.409 9.7045 153.265 26.4639 152.724 28.4453C148.236 43.3868 150.506 40.1029 148.031 40.9605C145.184 41.9573 142.721 47.9464 141.712 50.7199C140.703 53.4933 139.646 57.223 140.83 59.4181C140.345 60.3088 140.149 61.328 140.268 62.3352C140.387 63.3423 140.815 64.2877 141.495 65.0409C140.751 65.8661 140.265 66.8909 140.097 67.9888C139.929 69.0868 140.086 70.21 140.548 71.2199C141.22 73.344 145.439 74.7526 147.537 75.3637C145.869 79.8264 144.481 84.3883 143.378 89.023C141.502 96.2145 139.999 103.498 138.876 110.845C138.178 114.415 137.943 118.06 138.176 121.69L134.347 123.407C134.199 123.475 134.074 123.583 133.987 123.719C133.9 123.856 133.854 124.014 133.855 124.176C133.855 124.176 134.516 152.447 143.772 175.956C154.952 204.413 173.428 213.97 201.604 203.395C201.853 205.628 202.398 207.817 203.223 209.906C203.641 210.654 205.064 210.797 206.02 210.892C214.3 211.181 222.589 210.942 230.839 210.177L237.74 254.509C235.838 259.963 214.267 322.1 214.558 327.885C214.557 328.492 214.789 328.959 215.791 329.427C221.966 332.31 280.517 340.088 282.747 333.702C283.31 332.14 284.685 322.184 284.946 320.295L317.912 316.728L349.325 318.873C349.657 322.019 350.211 325.138 350.985 328.206C351.263 328.906 351.589 329.28 352.405 329.212C355.508 328.916 372.052 325.966 376.625 325.113C394.173 321.839 393.777 321.559 393.267 319.831C392.04 315.747 380.634 283.884 376.188 269.016C382.738 269.729 389.345 269.744 395.897 269.059C395.968 269.312 396.1 269.542 396.283 269.73C396.466 269.918 396.694 270.057 396.945 270.134C401.21 271.706 439.35 269.62 442.483 266.501C445.31 264.012 440.652 229.061 438.537 225.511ZM160.345 9.84868C160.602 9.45272 160.509 9.28924 162.561 9.59694C171.119 10.8285 199.089 19.9163 201.51 22.0441C201.965 27.3865 194.974 56.6906 192.237 60.23C190.253 60.9021 177.105 57.5147 175.077 56.9738C159.645 52.9049 160.252 52.2764 156.732 51.4524C154.914 50.8187 154.728 50.7949 154.775 50.5385C154.781 50.4807 154.808 50.4273 154.851 50.3886C154.894 50.3498 154.95 50.3286 155.009 50.329C157.108 50.3336 162.729 50.1826 164.109 48.5529C164.414 48.2215 164.641 47.827 164.775 47.3975C164.91 46.968 164.948 46.5141 164.886 46.0683C164.825 45.6225 164.666 45.1958 164.42 44.8186C164.175 44.4415 163.849 44.1232 163.466 43.8865C160.471 42.679 157.34 41.8418 154.142 41.3937C153.186 41.205 152.02 40.8759 150.854 40.7334C152.48 33.4596 157.841 13.7151 160.345 9.84868ZM140.067 120.924L140.074 117.309C140.294 112.878 142.442 101.243 143.079 98.0491C144.116 92.8732 144.352 91.7075 147.362 80.4714C147.363 80.1682 149.17 75.1573 149.17 75.1573C149.202 75.0703 149.216 74.9774 149.209 74.8848C149.203 74.7922 149.177 74.702 149.133 74.6202C149.089 74.5384 149.028 74.467 148.954 74.4106C148.881 74.3542 148.796 74.3142 148.705 74.2933C148.449 74.2927 142.387 72.7867 141.715 70.8493C141.043 68.9118 140.908 66.5791 142.613 65.5565C142.676 65.5112 142.727 65.4517 142.762 65.3828C142.798 65.314 142.816 65.2378 142.816 65.1604C142.816 65.083 142.798 65.0067 142.763 64.9377C142.728 64.8687 142.677 64.809 142.615 64.7634C141.871 64.1498 141.371 63.29 141.206 62.3398C141.041 61.3895 141.222 60.4117 141.716 59.5834C142.255 58.4883 139.385 59.0185 142.808 51.1654C143.675 49.2314 146.604 43.2899 148.588 42.6411C150.343 42.4737 152.115 42.6762 153.788 43.2356C156.71 43.7024 159.582 44.4428 162.367 45.4469C162.544 45.5425 162.696 45.6777 162.812 45.8419C162.928 46.0061 163.005 46.195 163.036 46.3937C163.067 46.5925 163.052 46.7957 162.992 46.9876C162.932 47.1796 162.828 47.355 162.689 47.5002C161.663 48.0786 160.539 48.4636 159.374 48.6358C152.023 50.066 153.333 48.4594 152.371 50.9531C149.565 50.7823 146.758 51.2798 144.181 52.4047C143.178 52.6124 143.596 53.2664 144.32 53.1514C147.447 52.1341 150.789 51.9722 154 52.6827C155.864 53.0273 157.684 53.5709 159.432 54.3039C161.016 54.9516 162.422 55.9706 163.53 57.2751C163.728 57.769 163.8 58.3038 163.742 58.8325C163.684 59.3612 163.497 59.8674 163.197 60.3066C162.635 61.1684 159.931 60.5794 158.905 60.2973C157.507 59.8744 156.038 59.5213 154.663 59.0751C152.728 58.4645 152.939 58.3016 152.332 58.347C150.192 58.6454 148.098 59.2129 146.101 60.0361C146.044 60.0424 145.99 60.0616 145.942 60.0921C145.894 60.1226 145.854 60.1636 145.824 60.2121C145.794 60.2606 145.776 60.3152 145.771 60.3717C145.765 60.4283 145.773 60.4854 145.793 60.5386C145.813 60.5917 145.845 60.6396 145.886 60.6786C145.928 60.7176 145.977 60.7466 146.032 60.7634C146.086 60.7802 146.143 60.7844 146.199 60.7757C146.256 60.767 146.309 60.7456 146.356 60.7131C148.143 60.2133 149.97 59.8661 151.816 59.6754C152.866 59.6776 152.189 59.6762 154.823 60.7315C156.011 61.1773 157.153 61.5297 158.412 61.9523C159.222 62.2317 160.057 62.4289 160.906 62.5408C162.396 63.9436 163.462 67.2114 161.455 67.7901C160.666 67.9243 159.856 67.8253 159.123 67.5051C153.785 65.7441 157.403 64.4925 145.806 66.8463C145.711 66.8578 145.624 66.9053 145.563 66.9789C145.502 67.0526 145.472 67.1468 145.478 67.2421C145.477 67.8486 145.874 67.4762 152.289 67.257C153.065 67.1807 153.846 67.1824 154.622 67.2621C156.625 68.2927 159.607 70.0486 161.918 69.3772C164.742 68.4737 164.656 65.348 162.841 63.0582C162.19 62.2637 162.119 62.4968 162.679 62.4047C163.089 62.3612 163.485 62.2335 163.843 62.0295C164.2 61.8256 164.512 61.5499 164.758 61.2197C165.312 60.4589 165.623 59.5484 165.65 58.6076C165.677 57.6669 165.419 56.74 164.909 55.9486L168.825 57.1234C169.593 60.7378 169.521 64.4802 168.615 68.0623C168.363 68.9368 168.033 69.7869 167.63 70.6026C165.919 74.1909 165.289 74.3061 165.498 74.983C168.716 85.5291 171.363 96.2409 173.428 107.072C164.628 110.132 148.495 117.187 140.067 120.924ZM324.282 283.411C334.264 283.852 355.721 284.669 365.565 284.387C364.882 287.325 364.458 289.19 364.341 289.609C359.652 289.599 329.365 284.285 324.282 283.411ZM369.348 282.319C363.094 283.775 281.954 280.426 275.009 277.449C275.744 272.225 282.619 242.874 284.008 236.883C290.126 238.77 296.493 239.728 302.895 239.723C305.225 240.941 309.069 243.049 311.376 244.15C311.115 246.132 310.475 250.819 311.871 252.222C313.268 253.624 345.453 265.52 373.692 268.894C372.543 273.46 371.092 277.945 369.348 282.319ZM283.285 225.989C282.212 225.66 281.22 225.11 280.373 224.373C279.768 223.719 279.983 221.736 280.381 220.804C280.599 220.351 280.985 220.001 281.456 219.827C282.026 219.581 282.634 219.432 283.253 219.388C283.438 219.384 283.618 219.323 283.768 219.215C283.918 219.106 284.031 218.954 284.093 218.779C284.154 218.604 284.16 218.415 284.111 218.236C284.061 218.057 283.959 217.898 283.816 217.779C282.455 216.627 281.508 215.06 281.121 213.319C281.123 212.036 281.616 210.707 283.671 209.545C286.003 209.737 292.988 215.537 296.237 212.209C299.487 208.88 295.679 201.058 299.295 200.413C302.912 199.768 304.708 210.641 305.335 211.832C307.425 215.918 313.064 218.846 316.275 222.212C314.316 229.16 312.743 236.212 311.564 243.334C306.904 240.828 303.457 238.651 303.107 238.651C298.233 238.477 285.151 237.095 281.753 233.613C281.148 233.143 280.735 232.47 280.591 231.719C280.446 230.967 280.581 230.189 280.969 229.529C281.218 229.091 281.553 228.709 281.955 228.405C282.356 228.101 282.816 227.882 283.305 227.761C283.505 227.713 283.682 227.598 283.809 227.436C283.935 227.273 284.003 227.073 284 226.867C283.998 226.662 283.926 226.463 283.796 226.303C283.667 226.144 283.486 226.033 283.285 225.989ZM309.439 148.374C305.106 147.95 300.754 147.769 296.401 147.832C295.841 147.831 295.374 148.11 295.21 148.646C294.81 150.138 288.103 198.639 287.772 201.018C286.423 177.69 285.03 153.126 283.997 135.116C292.086 148.079 292.783 149.364 294.067 148.457C298.4 144.909 302.499 141.085 306.338 137.008C307.032 139.598 308.142 143.823 309.439 148.374ZM330.799 140.233C329.218 137.897 327.66 135.562 327.079 134.697L334.654 115.751L330.799 140.233ZM336.292 113.468C345.11 115.307 353.706 118.086 361.931 121.758C361.579 122.854 357.047 136.605 351.623 153.014C349.151 152.706 334.997 150.949 330.636 150.473L336.292 113.468ZM326.7 137.286L330.373 142.845L329.191 150.306L325.576 149.832C326.124 144.772 326.507 139.967 326.7 137.286ZM391.046 162.034C391.01 165.07 390.707 168.098 390.14 171.082C382.144 169.012 312.394 151.692 305.294 155.712C301.744 157.757 289.977 205.594 288.848 209.907L288.01 209.485C291.752 183.579 296.724 149.606 296.724 149.512C304.68 148.62 381.283 157.464 391.046 162.034ZM350.238 210.717C345.014 210.356 324.28 209.284 319.912 212.167C319.235 212.632 318.955 212.725 316.533 221.35C313.438 218.054 308.244 214.94 306.502 211.275C305.713 209.664 304.456 197.905 299.019 198.803C291.692 200.023 301.013 215.135 290.2 210.446C290.906 207.485 302.49 158.109 305.689 156.296C312.462 152.462 386.197 171.4 395.521 174.056C394.973 179.746 388.049 210.1 386.777 215.648C374.703 213.301 362.503 211.654 350.238 210.717ZM314.674 47.4818C315.978 48.371 315.927 50.4935 315.69 52.0324C314.034 62.455 303.571 68.7532 296.339 58.7544C294.688 56.4183 293.421 48.9982 294.544 47.3679C295.293 46.4133 301.311 46.3797 302.524 46.3824C304.763 46.4106 313.509 46.7795 314.58 47.4816L314.674 47.4818ZM286.89 49.1006C286.881 53.4857 285.395 60.7598 281.495 62.8505C275.214 66.1023 268.858 60.9103 268.709 54.1691C268.475 51.7077 268.598 49.2254 269.075 46.7992L269.308 46.6831C268.937 46.0292 285.334 45.8551 286.801 47.3277C286.849 47.9177 286.848 48.5107 286.797 49.1004L286.89 49.1006ZM294.896 99.8964C298.929 101.071 305.438 100.526 308.57 97.3371C308.636 97.268 308.673 97.1762 308.673 97.0808C308.673 96.9853 308.637 96.8934 308.571 96.824C308.036 96.1697 308.57 97.4304 302.504 98.3269C296.437 99.2233 292.777 98.3056 286.652 94.3037C283.837 91.7071 281.733 88.4349 280.538 84.7972C278.04 78.6396 276.481 72.1415 275.915 65.5207C278.11 65.885 280.363 65.5213 282.332 64.4851C284.243 63.3731 285.725 61.6513 286.541 59.596C285.748 62.0592 285.097 64.5653 284.588 67.1024C284.478 67.4271 284.461 67.7761 284.539 68.11C284.616 68.444 284.786 68.7496 285.027 68.9927C286.638 69.982 288.536 70.3971 290.413 70.1707C290.468 70.1849 290.526 70.1864 290.581 70.1749C290.637 70.1635 290.689 70.1394 290.734 70.1046C290.779 70.0699 290.816 70.0252 290.841 69.9742C290.866 69.9232 290.879 69.867 290.879 69.8101C290.88 69.7533 290.867 69.6971 290.842 69.6459C290.817 69.5948 290.781 69.55 290.736 69.515C290.691 69.4801 290.639 69.4558 290.583 69.4441C290.527 69.4324 290.47 69.4336 290.414 69.4476C289.031 69.2905 287.697 68.8425 286.499 68.1329C285.963 67.7585 286.196 67.9923 286.361 67.2229C286.526 66.4535 289.582 55.3342 289.747 54.6348C290.47 54.6364 293.223 54.2692 293.225 53.5928C293.226 52.9164 291.034 52.725 290.218 52.7699C290.218 52.4667 290.359 52.2104 290.429 51.9773C290.467 51.8846 290.466 51.7808 290.426 51.6889C290.387 51.597 290.313 51.5243 290.22 51.487C290.128 51.4497 290.024 51.4507 289.932 51.4899C289.84 51.5291 289.767 51.6032 289.73 51.6959C288.91 53.2802 289.471 52.6983 288.374 52.9758C288.8 50.8201 288.805 48.6024 288.389 46.4448C287.064 44.3894 279.062 44.8384 276.45 44.996C277.796 37.1851 282.983 33.3478 286.168 27.1037C287.06 25.6547 288.247 24.4096 289.652 23.4493C290.352 23.2642 291.724 25.0166 292.563 25.4382C293.402 25.8599 294.19 28.1708 294.888 28.9654C297.083 31.4753 299.613 33.6707 302.408 35.4894C304.736 37.1505 308.375 37.4151 309.956 39.5411C310.622 41.3474 310.942 43.263 310.9 45.1878C307.891 44.9946 295.343 44.7806 293.846 46.9232C292.489 48.6463 293.055 56.5314 295.031 59.5679C300.006 67.136 307.679 67.6193 313.688 60.8215C314.334 60.019 314.884 59.1434 315.327 58.2127C319.79 65.2199 323.303 69.4027 323.448 77.6134C323.612 88.0166 320.635 105.247 331.896 107.441L333.821 112.787C324.44 136.231 324.933 134.763 324.932 134.996C324.932 135.229 324.474 141.992 323.641 149.734C319.163 149.258 314.989 148.852 311.281 148.541C311.003 147.584 307.555 135.215 307.625 134.958C307.978 133.793 306.233 131.503 304.885 129.471C299.828 122.115 294.304 115.091 288.347 108.442L294.896 99.8964ZM286.666 109.068C287.061 109.676 303.815 128.186 305.853 134.978C302.07 139.152 297.984 143.041 293.628 146.613C292.07 144.557 287.863 137.784 283.865 131.454C283.168 119.254 282.697 110.762 282.584 108.99C283.891 108.899 285.36 108.972 286.573 109.068L286.666 109.068ZM203.322 132.211C200.673 127.541 197.054 97.2105 197.928 92.5474C197.928 92.1276 197.929 91.9876 199.889 91.4554C208.244 89.3044 237.546 86.8726 240.622 87.9289C242.945 92.4823 247.988 122.186 246.765 126.755C244.382 128.662 210.177 133.416 203.229 132.211L203.322 132.211ZM204.788 208.954C202.117 203.676 200.208 169.874 201.54 168.594C203.527 166.686 240.757 165.135 244.276 166.518C246.598 171.422 249.844 201.518 248.459 205.597C245.282 207.969 210.29 210.225 204.694 208.953L204.788 208.954ZM258.123 169.977C259.804 169.538 271.519 166.578 272.921 165.741C273.925 165.16 275.064 167.052 255.565 113.176C257.902 111.035 278.294 108.327 281.511 109.337C281.508 110.62 284.445 165.067 286.752 208.759C285.61 208.197 283.956 207.33 282.905 207.911C278.515 210.234 278.227 214.105 281.46 217.891C280.855 218.038 280.292 218.325 279.817 218.729C279.342 219.133 278.969 219.643 278.726 220.217C278.351 221.092 278.19 222.044 278.256 222.994C278.323 223.943 278.616 224.863 279.111 225.676C279.654 226.198 280.274 226.632 280.951 226.963C280.253 227.429 279.702 228.083 279.361 228.849C279.053 229.509 278.87 230.221 278.82 230.947L258.123 169.977ZM315.862 315.254L285.393 318.57C285.535 317.45 289.023 290.425 290.139 281.26C296.482 281.834 304.132 282.34 312.318 282.801C313.634 299.622 315.988 311.242 315.769 315.254L315.862 315.254ZM317.472 315.071C317.81 309.754 313.483 283.084 313.46 282.851L315.793 282.972C323.72 284.459 344.144 288.119 346.36 288.497C347.09 296.009 348.917 313.507 349.353 317.1C314.58 314.785 318.335 314.98 317.355 315.071L317.472 315.071ZM441.342 265.426C439.006 267.287 404.735 270.338 397.671 268.783C394.953 263.482 393.091 229.704 394.423 228.424C396.433 226.492 433.663 224.987 437.136 226.348C439.318 231.227 442.634 261.44 441.249 265.426L441.342 265.426Z"
        fill="black" />
    <path fill-rule="evenodd" clip-rule="evenodd"
        d="M204.75 247.766C204.565 246.926 204.311 245.713 203.635 245.431C201.306 244.027 185.935 243.713 183.206 243.661C182.624 232.534 181.579 219.679 179.837 216.223C178.7 213.888 103.315 213.491 100.726 213.462C100.939 200.913 101.005 181.787 100.822 169.145C104.111 169.152 120.532 169.188 122.798 167.327C125.696 165.001 123.828 133.858 122.535 127.674C122.35 126.834 122.073 125.62 121.42 125.339C118.019 123.302 79.8144 122.729 77.104 124.892C75.6786 126.079 75.1103 140.656 75.0363 142.498C69.695 142.486 36.6685 141.738 24.8656 141.992L24.9072 122.936C27.9627 122.942 45.8984 123.471 48.2352 121.517C51.0625 119.191 50.2127 81.0762 47.5337 79.5309C44.8547 77.9856 28.1086 77.4593 25.2165 77.383C25.2237 74.0709 24.9853 65.72 24.9625 65.5101C35.7627 65.1371 64.217 66.1088 75.9493 66.1344C75.9413 69.7964 75.703 82.8345 77.2351 86.1733C77.6066 86.9672 79.0289 87.2035 79.9615 87.3688C87.376 88.6912 120.449 89.5331 123.697 86.7878C126.945 84.0426 124.759 49.1671 122.878 45.4077C122.753 45.1374 122.561 44.904 122.319 44.73C118.802 42.6464 80.6429 42.3066 78.0029 44.2835C76.484 45.563 75.9344 62.2625 75.8834 64.2683C63.9645 64.2423 35.9301 63.2715 24.8266 63.6438C24.8364 59.1421 24.6131 54.5932 24.6229 50.1149C27.935 50.1221 47.9483 49.8625 50.4488 47.6755C52.9494 45.4884 50.5307 10.1459 48.5331 6.31625C48.409 6.04489 48.2064 5.81697 47.9514 5.66189C44.4104 3.67155 6.24971 4.19475 3.63256 6.38158C1.64619 8.10328 1.22025 42.9731 3.86752 48.3669C4.05005 48.6681 4.32901 48.8989 4.65913 49.0217C7.31572 50.1471 19.7244 50.1975 22.64 50.2039C22.6173 60.63 23.0653 69.098 23.1405 77.4251C20.808 77.42 4.90125 77.0354 3.12546 78.4544C1.34967 79.8733 -0.872222 114.716 1.58774 120.436C1.93593 121.206 3.35813 121.489 4.29077 121.655C10.4704 122.561 16.7024 123.065 22.9474 123.165L22.8723 157.592C20.6564 157.587 5.47261 157.274 3.7669 158.647C2.06119 160.019 -0.25411 194.908 2.20585 200.628C2.55399 201.422 3.97624 201.682 4.90883 201.87C12.4629 203.333 45.3947 204.664 48.6428 201.966C51.8908 199.267 50.2877 164.3 48.5231 160.587C48.3976 160.311 48.2058 160.07 47.9649 159.886C45.4258 158.341 27.7468 157.789 24.6447 157.713L24.6741 144.231C36.757 143.954 68.4306 144.7 74.8215 144.737C74.8129 148.679 74.4073 163.536 76.0788 167.155C76.2306 167.468 76.4974 167.711 76.8237 167.833C79.8296 169.216 95.4799 169.53 98.6754 169.56C98.9509 182.249 98.8858 201.422 98.5787 213.877C67.2306 213.645 34.7151 213.901 28.158 215.216C27.4579 215.355 26.3145 215.585 26.2657 216.565C26.2657 216.565 24.9622 236.715 24.364 243.641C22.2881 243.636 8.64306 243.607 7.05393 245.003C5.46479 246.399 3.63921 281.335 6.19262 286.986C6.54081 287.756 7.96306 288.016 8.8957 288.181C16.3335 289.503 49.383 290.345 52.6311 287.6C55.8793 284.855 53.6697 249.909 51.8117 246.22C51.9058 245.997 51.9363 245.753 51.8998 245.514C51.8632 245.275 51.7611 245.051 51.6048 244.867C48.9259 243.251 29.7766 243.07 26.6045 243.039C27.1795 236.043 28.4349 216.57 28.4349 216.57C36.4171 214.255 169.111 214.824 178.389 217.2C179.805 220.608 180.689 232.296 181.411 243.47C179.078 243.465 161.352 243.287 159.506 244.822C157.66 246.357 156.184 281.365 158.644 286.805C158.807 287.119 159.081 287.36 159.413 287.483C163.537 289.358 201.718 290.281 205.083 287.419C205.662 286.721 205.999 285.855 206.045 284.949C207.156 277.861 206.25 254.767 204.75 247.766ZM78.4921 44.5644C80.5718 42.8429 117.795 44.1604 121.244 45.8473C122.102 49.5305 122.594 53.2897 122.712 57.0697C107.764 55.521 87.5625 56.6432 77.2522 56.9706C77.3019 55.5712 77.6979 45.1225 78.4923 44.4945L78.4921 44.5644ZM77.2261 58.2534C94.2053 58.8269 114.36 57.9845 122.78 58.0962C123.027 62.2252 123.895 81.5635 122.371 85.1288C120.642 86.3146 107.044 86.4949 104.968 86.5137C99.9528 86.5028 83.4156 86.4667 78.5671 85.0566C76.8966 80.9711 77.0994 62.8481 77.2262 58.1834L77.2261 58.2534ZM4.23859 6.5695C6.31847 4.75469 43.614 5.18592 47.0162 6.66281C47.7759 9.26428 48.2549 11.9396 48.445 14.643C33.3787 14.1659 18.2985 14.9131 3.35309 16.8772C3.37824 16.0375 3.56085 7.17447 4.23859 6.5695ZM5.38653 47.0407C3.50643 42.8148 3.2927 23.1748 3.35136 17.6702C5.31115 17.4412 47.6735 15.4344 48.5365 15.4363C49.0395 20.1024 50.8114 41.8684 49.1697 45.9466C46.0393 48.2023 10.9345 48.5689 5.38653 47.0407ZM3.70827 78.5956C5.83454 76.8975 43.0335 78.8213 46.4585 80.5548C47.2138 84.037 47.6279 87.5845 47.695 91.147C47.9282 91.1475 14.7166 89.7689 2.33025 90.1384C2.40323 88.7624 2.98399 79.1538 3.70827 78.5956ZM47.4109 199.98C44.8415 201.654 10.4379 201.369 3.63182 199.185C1.96154 195.006 2.51646 175.858 2.76034 170.983C2.99359 170.984 34.8732 173.526 48.2183 171.992C48.4423 176.261 49.0282 196.345 47.411 199.957L47.4109 199.98ZM46.9369 160.654C47.6887 164.145 48.1104 167.699 48.1966 171.269C48.4298 171.27 15.2882 169.891 2.80862 170.237C2.92075 166.488 3.32664 162.753 4.02255 159.067C4.18685 158.601 4.02378 158.507 6.12351 158.279C14.4758 157.364 43.9546 159.131 46.9369 160.63L46.9369 160.654ZM3.13018 119.063C1.48322 114.884 2.03784 95.8757 2.28197 90.8847C2.56187 90.8853 34.3482 93.4271 47.74 91.8935C47.9639 96.1858 48.5734 116.153 46.9325 119.882C43.7792 121.927 8.74753 120.871 3.13018 119.063ZM52.0886 258.303C52.359 262.642 53.2033 281.933 51.6792 285.592C49.203 287.313 14.6582 287.587 7.87526 285.496C6.20473 281.434 6.40784 263.171 6.5351 258.297C21.5783 258.913 35.2481 258.266 52.0886 258.303ZM50.552 246.31C51.4068 249.987 51.9063 253.737 52.0437 257.51C37.2124 255.984 16.3108 257.128 6.56006 257.55C6.56326 256.081 7.02918 245.656 7.80027 245.028C9.90326 243.306 47.1036 244.624 50.552 246.31ZM77.5232 125.196C79.673 123.405 116.896 124.839 120.275 126.479C121.154 130.31 121.661 134.217 121.789 138.145C111.667 137.586 86.4799 135.922 76.3075 137.159C76.4271 135.83 76.8454 125.825 77.5232 125.196ZM77.6683 165.619C75.9745 161.533 76.2018 142.874 76.3523 137.999C79.6418 137.68 103.43 139.225 114.486 139.155C117.308 139.162 119.851 139.05 121.904 138.985C122.151 143.137 122.973 162.102 121.472 165.691C118.412 167.854 83.3323 167.427 77.6683 165.619ZM159.901 245.359C162.004 243.638 199.204 244.955 202.676 246.642C203.523 250.328 204.015 254.086 204.145 257.865C189.453 256.34 168.178 257.483 158.685 257.766C158.711 256.529 159.13 246.057 159.901 245.429L159.901 245.359ZM203.803 285.924C201.257 287.644 166.712 287.919 159.999 285.828C158.306 281.789 158.509 263.456 158.659 258.605C174.356 259.246 186.136 258.665 204.189 258.705C204.46 262.997 205.304 282.358 203.803 285.994L203.803 285.924Z"
        fill="black" />
</svg>