<svg width="264" height="266" viewBox="0 0 264 266" fill="none" xmlns="http://www.w3.org/2000/svg">
<path d="M188.02 87.9933C187.959 84.5869 186.874 81.2778 184.907 78.4963C182.939 75.7149 180.18 73.5899 176.989 72.3978C170.543 70.0108 162.652 70.6956 158.787 63.81C157.477 61.474 156.653 58.8945 155.32 56.5783C152.031 50.9298 146.424 46.3365 139.778 45.4206C133.889 44.6861 128.025 47.8428 123.488 44.436C120.667 42.3144 119.349 38.8667 115.505 36.2564C112.605 34.2585 109.201 33.1194 105.683 32.9701C102.166 32.8208 98.677 33.6673 95.6189 35.4123C92.5608 37.1573 90.0573 39.73 88.3962 42.8345C86.7351 45.939 85.9838 49.4492 86.2289 52.9616C99.5428 47.027 112.652 56.3254 117.001 69.998C119.175 76.7755 118.803 85.5644 116.814 94.4001L116.259 93.6238C117.977 85.3034 117.13 74.6978 115.756 70.3806C110.707 54.7996 95.0277 46.6562 80.9219 56.7131C72.3423 62.7882 64.7612 73.5066 65.5513 84.4609C65.7919 87.726 69.7724 96.7675 73.4102 95.0251C75.4569 98.4385 80.2248 106.157 82.3598 109.074C87.2183 115.656 94.9428 120.227 102.562 115.206C103.736 116.528 104.826 117.921 105.826 119.379C91.3247 138.565 90.4049 160.468 91.6143 171.538C85.9148 169.669 80.0598 168.314 74.1191 167.487C73.9659 166.322 71.5896 163.495 70.7454 162.431C72.516 162.171 81.2192 159.203 82.6279 157.86C82.8633 157.677 83.0171 157.409 83.0559 157.113C83.0947 156.818 83.0153 156.519 82.8349 156.282C82.7648 156.177 82.6818 156.082 82.5878 155.998C81.1578 155.387 79.5904 155.169 78.0482 155.369C77.9095 154.863 77.6016 154.42 77.1759 154.114C76.7501 153.808 76.2323 153.657 75.7088 153.687C72.8926 153.959 70.0939 154.39 67.3265 154.978C67.0668 155.024 67.0992 155.475 67.3688 155.441L75.0431 154.645C75.9383 154.526 76.7494 154.54 77.1545 155.466C73.6297 155.608 70.1186 155.99 66.6456 156.608C63.7681 157.111 63.831 157.735 62.0449 156.392C60.9292 155.544 58.9081 153.286 57.8422 155.53C56.9442 155.232 53.3656 158.26 54.2733 159.788C49.9056 161.099 45.6384 162.724 41.5049 164.65C41.2659 164.857 41.4047 165.316 41.7024 165.337C46.3094 165.768 50.968 164.856 55.5162 164.299C55.3384 164.591 55.2519 164.93 55.2678 165.272C55.2838 165.614 55.4014 165.943 55.6057 166.218C52.5782 167.031 51.3633 173.218 60.7884 177.31C62.1188 177.895 63.5117 178.326 64.94 178.595C71.4883 191.995 83.067 204.06 94.509 213.509C104.629 221.849 117.487 230.767 131.331 227.327C137.269 225.842 143.604 221.298 143.858 214.648L149.745 217.241C151.24 221.653 158.762 233.368 161.587 236.805C161.785 237.032 162.092 236.765 161.928 236.508C157.575 230.215 153.697 223.606 150.325 216.737C171.412 205.868 197.461 184.298 211.974 159.471C215.499 158.167 218.863 156.464 222.001 154.395C224.764 154.91 235.317 160.279 237.641 162.034C237.698 162.068 237.767 162.079 237.832 162.063C237.896 162.048 237.953 162.008 237.989 161.952C238.016 161.903 238.028 161.846 238.023 161.79C238.017 161.735 237.994 161.682 237.957 161.639C233.408 158.259 228.383 155.573 223.046 153.667C239.075 142.239 240.966 123.385 228.606 108.604C218.937 97.0368 202.555 90.6817 188.071 88.0289L188.02 87.9933ZM77.8797 158.829C77.6685 158.035 77.4488 157.207 77.2771 156.458C77.2477 155.964 78.1782 155.495 78.6215 158.005C78.8328 159.559 78.0032 159.201 77.8797 158.829ZM51.0144 164.196L45.7941 164.738L45.6487 163.766L50.4339 161.965C50.5893 162.718 50.7831 163.463 51.0144 164.196ZM127.34 98.6339C129.243 107.108 128.591 115.957 125.468 124.061C121.899 123.039 118.397 121.801 114.979 120.353C117.93 117.291 124.682 105.136 123.11 101.809C124.463 100.678 125.872 99.6141 127.33 98.6225L127.34 98.6339ZM89.1221 114.262C82.9021 110.48 78.0895 100.964 73.9004 94.739C77.4777 92.4901 80.4676 83.244 79.2668 78.4369C84.2359 80.7094 91.1632 79.444 95.5308 76.289C97.3929 79.7429 103.104 84.3862 105.251 80.5838C105.825 79.5663 106.084 77.8642 107.474 77.6947C108.112 77.7236 108.73 77.9282 109.259 78.2859C109.788 78.6436 110.208 79.1406 110.473 79.722C113.264 84.705 108.826 87.3422 120.382 100.485L122.391 102.613C121.001 109.135 118.093 115.238 113.905 120.427C111.26 120.256 108.652 119.72 106.153 118.835C105.908 118.369 103.456 113.731 102.409 114.341C101.704 114.035 96.8475 118.972 89.1221 114.262ZM102.936 125.084C103.334 124.439 106.41 119.89 106.397 119.622C108.728 120.618 111.23 121.157 113.765 121.208C112.928 124.425 112.558 127.746 112.666 131.068C109.122 129.609 105.837 127.588 102.936 125.084ZM57.6958 156.396C57.6318 157.205 57.8466 158.012 58.3044 158.682C57.1604 158.997 56.0247 159.345 54.8579 159.68C55.051 158.953 55.4069 158.28 55.8985 157.711C56.3902 157.142 57.0048 156.692 57.6958 156.396ZM61.5953 164.31C65.9855 167.065 64.4211 169.103 61.8435 168.227C60.3517 166.965 58.4817 166.235 56.5291 166.155C55.0812 163.04 58.9819 162.726 61.5458 164.253L61.5953 164.31ZM58.649 175.215C56.7659 174.035 54.529 172.265 54.3561 169.859C54.0026 164.855 59.5404 167.093 61.7352 169.16C63.3758 170.75 62.2563 171.323 61.022 171.097C59.7877 170.871 58.3222 170.288 57.3432 170.838C56.3642 171.389 59.1445 171.51 59.2296 171.516C59.822 171.6 60.3728 171.821 61.026 171.952C63.1603 172.294 64.2497 170.629 62.6379 168.935C63.7589 169.099 64.9919 168.886 65.1296 167.689C66.5593 169.542 66.331 168.382 66.3112 168.359C63.9971 165.558 64.2125 163.254 61.9135 160.998C60.7769 160.19 59.775 159.207 58.9447 158.086C58.46 157.229 58.1818 155.714 59.2642 155.213C61.0916 156.122 61.4455 157.471 64.5497 158.608C67.6539 159.746 68.3764 160.715 70.4823 163.438C71.3912 164.646 72.1976 165.942 73.0837 167.169C73.557 170.012 67.8665 177.092 65.3077 178.076C62.9914 177.3 60.747 176.323 58.5996 175.158L58.649 175.215ZM65.6492 178.538C68.6566 177.404 73.8361 171.666 74.1297 168.097C77.6579 168.826 81.1823 169.458 84.6674 170.344C83.2914 178.368 75.6822 185.078 71.5833 188.059C69.398 184.946 67.5476 181.781 65.5997 178.482L65.6492 178.538ZM234.827 121.949C238.954 136.813 230.65 149.159 217.762 156.021C207.76 161.355 192.757 164.564 181.308 164.945C182.337 156.384 177.765 146.938 172.933 142.27C180.526 133.359 187.258 126.352 195.618 118.232C195.661 118.195 195.686 118.143 195.69 118.087C195.694 118.031 195.676 117.976 195.639 117.934C195.602 117.892 195.551 117.866 195.495 117.862C195.439 117.858 195.384 117.876 195.341 117.913C191.119 121.741 187.094 125.796 183.152 129.9C182.796 129.03 177.103 129.603 169.192 126.172C168.954 126.059 168.66 126.434 168.926 126.602C173.187 128.833 177.878 130.118 182.68 130.369C176.14 137.034 170.023 144.102 164.364 151.53C159.937 150.065 153.83 150.299 149.854 152.893C145.773 149.85 137.103 143.065 133.105 140.508C132.614 140.195 128.929 144.894 128.374 145.496C129.284 146.223 131.008 147.541 129.966 148.846C127.715 151.679 117.843 163.369 114.987 165.85C113.849 166.839 112.446 165.362 111.758 164.662C111.247 165.246 107.96 168.68 108.242 169.234C108.957 170.609 144.894 197.475 148.124 199.861C148.591 200.214 150.934 197.579 151.358 197.171C159.654 189.304 167.522 180.997 174.926 172.286C174.989 172.216 175.022 172.124 175.019 172.03C175.016 171.936 174.976 171.847 174.908 171.782C174.893 171.756 174.873 171.732 174.849 171.714C174.869 171.277 168.57 166.785 167.747 166.182C168.296 165.826 168.952 165.455 169.515 165.046C186.492 168.269 204.198 162.472 211.011 159.949C194.27 185.153 175.591 201.738 149.586 216.461C139.318 211.284 128.098 205.056 120.007 196.891C107.944 184.727 102.303 166.166 102.399 149.291C102.397 149.013 101.962 148.972 101.952 149.259C101.323 165.061 107.056 183.981 117.677 195.84C124.137 203.047 134.33 209.587 143.058 214.164C143.04 220.05 137.812 224.352 132.617 226.049C119.35 230.406 106.48 222.118 96.5996 214.169C87.2108 206.814 78.8913 198.188 71.8808 188.54C78.0998 184.735 83.8822 177.715 85.4977 170.541C90.9831 171.985 96.3604 173.813 101.59 176.011C102.098 176.281 102.641 176.48 103.204 176.605C103.288 176.608 103.37 176.579 103.433 176.524C103.496 176.469 103.537 176.392 103.545 176.308C103.552 176.255 103.547 176.201 103.53 176.15C103.514 176.099 103.486 176.052 103.449 176.013C102.312 175.004 93.5111 172.066 92.3298 171.695C90.8469 155.673 94.4134 139.59 102.529 125.697C103.036 126.694 112.75 133.211 113.14 131.614C113.334 128.088 113.816 124.584 114.582 121.137C118.123 122.818 121.866 124.036 125.717 124.762C127.329 125.1 131.327 107.131 127.984 98.1343C143.771 87.875 165.42 85.582 183.737 88.1196C203.533 90.9107 228.942 100.945 234.778 121.892L234.827 121.949ZM157.524 165.699C153.923 166.151 149.005 167.109 145.644 165.056C144.28 164.244 147.727 163.546 148.255 163.188C150.549 163.504 152.876 163.499 155.169 163.172C155.45 163.128 155.373 162.695 155.094 162.718C152.24 163.041 146.417 162.888 144.275 160.675C142.852 159.176 146.88 159.491 147.863 159.335C148.846 159.18 155.539 158.817 155.55 156.991C155.569 156.116 153.897 155.731 153.277 155.431C152.253 154.643 151.228 153.877 150.191 153.12C155.731 150.304 158.4 151.261 164.104 152.196C167.783 154.431 169.904 162.252 169.103 164.525C165.301 166.63 161.623 169.246 157.154 169.594C155.176 169.754 151.565 170.056 149.897 168.71C148.58 167.677 152.647 166.98 153.238 166.926C154.713 166.744 156.176 166.48 157.621 166.133C157.679 166.12 157.729 166.085 157.761 166.035C157.792 165.985 157.803 165.925 157.79 165.867C157.777 165.81 157.741 165.759 157.692 165.728C157.642 165.696 157.581 165.686 157.524 165.699ZM169.692 161.318C169.229 157.695 167.504 154.351 164.821 151.872L172.458 142.643C178.108 149.355 180.756 156.08 180.322 164.983C176.74 165.06 173.157 164.876 169.601 164.432C169.898 163.407 169.945 162.326 169.737 161.279L169.692 161.318Z" fill="black"/>
<path d="M126.757 145.543C124.654 144.455 123.205 146.971 122.065 148.301C121.203 149.309 120.534 150.929 119.384 150.41C117.283 149.439 115.21 148.845 113.499 150.99C111.056 153.97 115.117 156.094 114.318 157.266C112.889 159.367 109.115 161.068 112.637 164.318C112.864 164.579 113.83 165.438 114.249 165.093C116.878 162.81 126.656 151.242 129.091 148.207C129.724 147.418 127.262 145.803 126.749 145.51L126.757 145.543ZM116.832 154.804C114.513 154.961 114.37 151.97 116.161 152.032C118.753 152.096 118.487 154.664 116.888 154.754L116.832 154.804ZM93.2215 100.478C93.5149 100.103 92.9242 99.538 92.5996 99.8999C90.8074 101.836 90.5734 101.061 88.7874 98.4993C87.6137 96.8671 86.5841 95.1359 85.7105 93.3252C85.6742 93.2871 85.6265 93.2619 85.5746 93.2534C85.5227 93.2449 85.4695 93.2536 85.423 93.2781C85.3765 93.3027 85.3393 93.3418 85.3171 93.3894C85.2949 93.4371 85.2888 93.4907 85.2999 93.5421C86.4456 96.2372 87.9134 98.7836 89.6713 101.126C90.8204 102.564 92.2842 101.651 93.2215 100.478ZM78.8176 92.8835C78.2298 93.5968 77.9065 94.4913 77.9024 95.4156C77.97 96.7346 78.7885 96.6426 78.6042 96.2236C78.5181 95.2629 78.7992 94.3052 79.391 93.5435C79.8533 92.7426 79.1932 92.5573 78.8176 92.8835ZM88.5763 85.8441C89.4749 85.2426 90.5691 85.0062 91.6359 85.183C92.0043 85.2623 92.2954 84.7699 90.9736 84.4206C90.4773 84.2819 89.9558 84.2587 89.4492 84.3528C88.9425 84.4468 88.4641 84.6556 88.0505 84.9631C87.6957 85.451 88.0791 86.0763 88.5763 85.8441ZM92.8732 92.055C93.3853 91.6101 92.4733 89.6868 91.6042 90.0425C90.7351 90.3981 92.3042 92.5492 92.8732 92.055ZM81.4743 97.8037C81.0419 98.1793 82.1916 100.215 82.7265 99.7509C83.2613 99.2863 82.1496 97.3169 81.4743 97.8037ZM99.7968 100.876C104.637 97.69 100.12 93.387 99.8577 94.9927C99.7599 95.7765 103.164 97.0523 99.574 100.55C99.4033 100.699 99.6034 101.044 99.7968 100.876Z" fill="black"/>
</svg>
