<svg width="87" height="87" viewBox="0 0 87 87" fill="none" xmlns="http://www.w3.org/2000/svg">
<g clip-path="url(#clip0_429_883)">
<path d="M51.7425 12.5795L52.428 13.412L52.5798 14.3766L52.1978 15.4734L51.7962 16.1393L48.8337 19.836L55.3312 22.6714L56.1195 23.3912L56.3839 24.4586L56.1243 25.8737L54.0529 30.1776L52.6622 32.8314L52.4565 33.0567L52.7846 33.1497L54.5864 34.795L53.2985 37.3362L51.0116 41.6499L56.7404 44.1963L56.9656 44.402L57.4407 42.9772L58.0968 43.1632L58.4346 43.4717L58.6207 42.8156L59.0321 42.3652L64.3201 44.7157L65.7548 45.4062L66.215 46.033L64.7263 51.2819L65.2648 53.6322L65.4361 55.0278L65.2156 57.3046L64.6476 59.0575L63.5555 61.1581L61.2933 63.6356L59.0849 64.9233L57.4935 65.5352L57.1948 66.0885L57.2094 68.7865L57.1946 70.8381L56.4748 71.6264L55.6032 71.4501L55.1332 70.6079L55.1675 68.9872L55.1432 66.0737L53.6253 65.9268L51.2062 69.7068L48.0772 74.4905L47.6658 74.9409L44.1405 73.3739L41.374 71.8803L41.0264 71.3564L42.5641 67.1847L42.8726 66.8468L42.0549 65.4807L41.1786 62.8219L40.8849 61.1081L37.6875 59.6341L34.8426 61.1666L32.8203 61.7981L31.9585 61.8372L31.0428 63.0662L29.6619 65.9355L29.3534 66.2733L25.1621 64.3048L22.8363 63.0071L23.0127 62.1355L23.8696 59.6139L24.1831 57.009L24.4623 56.0248L22.293 58.1742L21.6467 58.2036L20.9612 57.3712L21.0445 56.8276L24.3351 53.224L22.6361 51.4661L21.4708 49.576L20.7267 47.4509L20.4232 45.5216L20.4379 43.47L20.7073 42.2704L20.913 42.0452L18.8516 41.8149L16.1438 41.6141L15.4779 41.2125L15.336 40.4634L15.6347 39.9101L16.4867 39.6555L19.8407 39.827L21.3586 39.974L22.48 38.5198L24.1253 36.7179L26.3239 35.2148L28.5518 34.358L30.4811 34.0545L32.5327 34.0693L33.0762 34.1526L33.9821 32.7082L36.9692 27.1753L37.5862 26.4996L39.1237 27.0775L42.2084 28.4486L42.5462 28.7571L45.6166 22.6807L45.9251 22.3429L39.8683 19.7034L39.4276 19.5075L38.3014 18.4792L38.0371 17.4118L38.4093 16.0995L38.708 15.5462L40.9605 12.8533L42.2777 10.9584L42.5569 9.9742L41.6657 9.367L39.903 8.58348L39.5652 8.27499L40.0891 7.92736L41.607 8.07433L48.2171 11.0125L51.7425 12.5795ZM51.434 12.9174L43.0612 9.19569L42.9143 10.7136L42.214 11.9328L39.8587 14.7384L38.7471 16.408L38.5806 17.495L38.7225 18.2442L39.7361 19.1697L40.9259 19.2236L43.8002 18.3374L45.2055 18.3816L48.2902 19.7527L50.7484 16.8345L51.8599 15.1649L52.1293 13.9653L51.8845 13.3287L51.434 12.9174ZM55.1353 23.112L47.2032 19.5862L46.7723 19.6058L46.7379 21.2265L45.264 24.4238L41.9879 30.7255L38.6826 36.3807L36.3664 40.0481L36.1705 40.4888L37.7177 41.2821L44.7685 44.4161L45.0966 44.5092L45.9094 43.3928L49.8318 37.0619L52.623 31.9696L55.5906 26.0059L55.9628 24.6936L55.6984 23.6262L55.1353 23.112ZM65.4463 45.744L59.4923 42.9919L59.0614 43.0115L57.2004 49.5727L56.6519 51.7565L57.8711 52.4568L62.9438 54.8171L63.3649 54.5821L64.5745 50.3173L65.4022 47.1493L65.6715 45.9497L65.4463 45.744ZM58.3416 43.7998L57.7883 43.5011L57.3965 44.3824L55.6384 50.831L55.1732 52.4713L57.6018 53.6564L61.6805 55.5221L61.9694 54.7534L56.7841 52.2902L56.1182 51.8887L56.51 51.0073L57.9057 46.0864L58.4542 43.9026L58.3416 43.7998ZM38.0464 27.1264L37.7184 27.0333L37.0083 28.0371L31.9303 37.443L31.7637 38.53L32.082 38.4076L37.7575 27.8951L38.2717 27.332L38.0464 27.1264ZM56.8726 44.7301L50.8158 42.0906L50.4975 42.213L48.4065 46.086L48.4211 48.784L48.3867 50.4047L48.5091 50.723L48.9498 50.9189L51.0895 52.8727L52.0541 52.7209L52.3822 52.814L53.1705 53.5338L53.5279 54.2732L54.5414 55.1986L55.4912 57.0985L56.0004 58.8025L55.966 60.4232L55.3049 62.5042L53.7085 65.3833L55.2264 65.5302L57.4739 65.1043L59.9075 64.0223L60.9554 63.3271L62.302 62.0785L63.6192 60.1837L64.4028 58.421L64.8582 56.5652L64.8534 54.0827L64.5695 52.5844L64.2415 52.4913L63.5999 55.0032L63.2914 55.341L62.4101 54.9493L61.9252 56.1587L60.7061 55.4584L54.6394 52.6035L55.0312 51.7222L56.9852 44.8329L56.8726 44.7301ZM47.6476 46.0125L44.5629 44.6414L44.3768 45.2975L44.3424 46.9182L47.8678 48.4853L48.0539 47.8291L47.9854 46.321L47.6476 46.0125ZM43.6815 44.2496L40.5968 42.8785L40.2883 43.2163L40.2637 45.0525L41.811 45.8458L43.9017 46.7223L43.9459 45.3171L44.0193 44.5581L43.6815 44.2496ZM32.8803 34.5933L30.5006 34.4854L28.2531 34.9113L26.1378 35.8709L24.566 36.9138L22.6122 39.0535L21.5202 41.154L20.9717 43.3378L20.8541 45.5021L21.2799 47.7496L22.2493 50.0804L23.6301 51.9607L25.0941 53.2975L25.6473 53.5962L27.3955 51.6817L28.4973 49.7966L29.0556 47.8283L29.1732 45.664L30.0986 44.6505L30.5198 44.4155L30.8478 44.5085L30.843 42.026L30.9802 40.2927L31.4552 38.8678L31.5091 37.678L32.9929 34.6961L32.8803 34.5933ZM52.2891 53.142L51.4273 53.1811L51.3343 53.5092L52.1911 55.7371L52.3526 56.9172L51.9902 58.4449L50.8051 60.8735L50.6827 60.5552L51.858 57.9112L51.8924 56.2904L51.7406 55.3258L51.016 53.6316L50.4334 52.6866L48.7442 51.1441L47.9852 51.0706L47.2556 51.6435L47.1821 52.4024L48.9839 54.0477L49.5862 55.4237L49.7575 56.8192L49.1061 59.1156L48.6115 60.1095L48.4891 59.7913L49.16 57.9257L49.4098 56.2952L49.1357 55.0123L48.7783 54.2729L47.3143 52.9361L45.7768 52.3583L44.8122 52.51L44.4107 53.1759L44.44 53.8223L45.1157 54.4393L46.3251 54.9241L47.1232 55.8593L47.1721 56.9366L46.5012 58.8021L44.8118 62.0092L44.3907 62.2442L43.5241 59.8008L43.0787 57.1224L42.1875 56.5152L41.6538 56.6474L41.0466 57.5385L41.1249 59.2621L41.4381 61.4068L41.8542 63.4388L42.8334 65.985L43.1908 66.7244L41.6532 70.8962L41.4573 71.3368L42.9017 72.2428L46.6523 74.0155L47.5337 74.4072L49.4581 71.6212L53.5861 65.065L55.0797 62.2986L55.638 60.3302L55.6723 58.7095L55.2856 57.3237L54.3357 55.4239L53.8951 55.228L54.3014 57.0446L54.1544 58.5625L53.5961 60.5309L53.1015 61.5248L52.9792 61.2065L53.7431 59.013L53.9831 57.167L53.5768 55.3504L52.9648 53.759L52.2891 53.142ZM39.7154 42.4867L36.3027 41.0225L36.1557 42.5404L36.185 43.1867L37.4042 43.887L39.6076 44.8664L39.9161 44.5285L39.9407 42.6924L39.7154 42.4867ZM43.8087 47.0504L40.3959 45.5862L40.2294 46.6732L40.2783 47.7504L41.4975 48.4507L43.7009 49.4301L43.9898 48.6614L43.9213 47.1532L43.8087 47.0504ZM47.0206 51.2224L44.3765 50.0471L44.3324 51.4524L44.2589 52.2113L44.4842 52.417L45.2235 52.0596L46.1979 52.1233L46.6386 52.3191L47.1332 51.3252L47.0206 51.2224ZM39.4019 45.0916L36.3172 43.7205L36.1507 44.8075L37.4923 45.826L37.8399 46.3499L37.6342 46.5752L38.8534 47.2754L39.7348 47.6672L39.9111 46.7956L39.8524 45.5029L39.4019 45.0916ZM43.4952 49.6553L40.4105 48.2842L40.2244 48.9403L40.2635 49.8021L41.184 51.0556L43.828 52.2309L43.975 50.713L43.9456 50.0666L43.4952 49.6553ZM31.7098 39.7198L31.3083 40.3857L31.2739 42.0065L31.2591 44.0581L31.1759 44.6016L31.7292 44.9003L31.7244 42.4178L31.7587 40.7971L31.7098 39.7198ZM35.4359 43.3287L32.4638 42.0604L32.1553 42.3982L32.1307 44.2344L32.4588 44.3275L33.5164 43.8476L34.2852 44.1366L34.858 44.8662L35.1028 45.5027L35.8324 44.9299L35.8863 43.74L35.4359 43.3287ZM36.6109 45.4342L35.7491 45.4734L35.235 46.0364L35.088 47.5544L34.4269 49.6353L33.4475 51.8387L33.1097 51.5302L33.8001 50.0956L34.5347 47.2556L34.5397 44.9886L34.0795 44.3618L33.4234 44.1757L33.1051 44.2981L32.4881 44.9738L32.3607 46.9226L31.6163 49.5471L30.73 51.4224L30.7006 50.776L31.3715 48.9105L31.6116 47.0645L31.6655 45.8747L31.5431 45.5564L30.8674 44.9394L30.221 44.9688L29.6971 45.3164L29.4277 46.516L29.3836 47.9213L28.7225 50.0023L27.415 52.1126L25.8824 54.0173L24.8932 56.0052L24.4475 58.0764L24.3103 59.8098L23.5464 62.0033L23.2574 62.7721L25.9113 64.1628L29.2212 65.7396L31.2094 61.9792L31.939 61.4063L33.6527 61.1126L36.0863 60.0306L38.9215 58.2827L39.6413 57.4944L39.612 56.8481L38.8237 56.1283L37.7562 56.3926L35.4352 57.5775L34.3776 58.0573L34.0495 57.9642L34.975 56.9507L37.6975 55.0999L39.475 53.8318L40.4005 52.8183L40.7727 51.5061L40.2831 50.233L39.3822 49.4103L38.2854 49.0283L37.4529 49.7138L37.3795 50.4728L37.7271 50.9967L38.6182 51.6039L36.9533 52.9748L35.1661 54.0275L34.8576 54.3653L34.5197 54.0568L35.2298 53.0531L36.6107 50.1838L37.2621 47.8874L37.2866 46.0512L36.6109 45.4342ZM43.6224 52.4561L41.419 51.4767L41.1105 51.8146L40.5327 53.352L41.7518 54.0523L43.8426 54.9288L43.8867 53.5236L43.9602 52.7646L43.6224 52.4561ZM46.1195 55.1493L45.0227 54.7673L44.3568 54.3658L44.3959 55.2276L46.5993 56.207L46.8049 55.9817L46.1195 55.1493ZM46.3936 56.4322L40.2242 53.6899L39.4946 54.2627L40.7138 54.963L46.4425 57.5094L46.8441 56.8435L46.3936 56.4322ZM56.5289 65.687L55.7797 65.829L55.5936 66.4851L55.6817 68.4241L55.6473 70.0448L55.6865 70.9066L56.2398 71.2053L56.7539 70.6422L56.6756 68.9187L56.71 67.2979L56.6415 65.7898L56.5289 65.687ZM46.2369 57.7346L43.1521 56.3635L43.3969 57L43.6906 58.7138L44.3515 61.3824L44.5768 61.5881L45.4827 60.1437L46.4719 58.1557L46.2369 57.7346ZM36.9486 50.4923L36.4442 51.2708L36.4638 51.7017L37.5605 52.0837L37.9719 51.6332L36.9486 50.4923ZM41.8301 55.7758L38.9706 54.6104L36.4538 56.2359L35.5185 57.034L36.2677 56.892L38.2704 55.8295L39.0293 55.903L39.8176 56.6228L39.8665 57.7001L39.0439 58.601L38.2115 59.2865L39.7587 60.0798L40.8555 60.4617L40.8066 59.3845L40.7185 57.4455L41.4286 56.4417L42.168 56.0843L41.8301 55.7758ZM36.8114 52.2257L36.1553 52.0396L35.7537 52.7055L36.307 53.0042L37.0366 52.4313L36.8114 52.2257ZM21.3782 40.4049L18.7831 40.3068L16.2908 40.0962L15.8697 40.3312L15.7864 40.8747L16.3397 41.1734L19.0474 41.3743L20.9962 41.5017L21.4908 40.5077L21.3782 40.4049ZM24.7758 53.4199L21.3824 57.1361L21.8426 57.7629L22.2735 57.7433L25.2556 54.4775L25.4515 54.0369L24.7758 53.4199Z" fill="#140173"/>
<path d="M41.704 29.2271L42.1643 29.8538L40.5679 32.7329L38.7658 35.8372L37.4584 37.9475L36.4496 39.5045L35.627 40.4054L32.5423 39.0343L32.2044 38.7258L37.8799 28.2133L38.2912 27.7629L41.704 29.2271Z" fill="#FBCCC3"/>
<path d="M54.0429 34.7117L54.0625 35.1426L48.387 45.6551L48.0785 45.993L46.0906 45.0038L45.4247 44.6022L47.2365 41.7134L49.0483 38.8245L51.5506 34.5011L51.9522 33.8352L54.0429 34.7117Z" fill="#F9CAC2"/>
<path d="M29.4827 21.5782L30.1682 22.4107L30.0947 23.1696L28.4983 26.0487L28.5374 26.9105L29.5412 27.6205L30.6673 28.6488L29.5851 30.9648L28.7918 32.512L28.1748 33.1877L26.8626 32.8155L24.762 31.7235L23.6359 30.6952L23.9346 30.1419L22.9211 29.2165L22.6665 28.3645L22.6469 27.9336L23.1513 27.155L23.8907 26.7976L25.296 26.8418L26.1284 26.1563L27.4113 25.8822L27.3722 25.0204L26.6378 23.1107L26.7113 22.3518L27.5339 21.4508L28.4985 21.2991L29.4827 21.5782ZM29.8153 28.9034L27.612 27.924L26.0549 26.9152L24.7573 29.241L24.0668 30.6757L25.7364 31.7872L28.1553 32.7568L29.9377 29.2217L29.8153 28.9034ZM25.1001 27.2824L24.1257 27.2187L23.4892 27.4635L23.0876 28.1294L23.2296 28.8786L23.8024 29.6082L24.2333 29.5886L23.5381 28.5408L23.5283 28.3253L24.1453 27.6496L25.3253 27.4881L25.1001 27.2824ZM24.914 27.9386L24.0522 27.9777L23.8563 28.4184L24.4292 29.148L25.0266 28.0414L24.914 27.9386Z" fill="#140173"/>
<path d="M31.3437 15.0171L32.5824 16.1482L32.8468 17.2157L32.7831 18.1901L32.0731 19.1938L31.128 19.7765L29.5073 19.7421L28.6161 19.1349L27.9111 17.8716L27.965 16.6817L28.0581 16.3537L29.1892 15.1149L30.2567 14.8506L31.3437 15.0171Z" fill="#5F51BB"/>
<path d="M47.6524 48.495L48.2155 49.0092L48.2839 50.5173L47.76 50.8649L47.2361 51.2125L44.264 49.9442L44.0192 49.3077L44.0535 47.6869L44.2396 47.0308L47.6524 48.495Z" fill="#5F51BB"/>
<path d="M45.656 18.793L46.4541 19.7282L46.503 20.8054L46.2238 21.7896L46.0182 22.0149L41.0581 19.7574L40.9357 19.4391L43.7072 18.6656L44.7844 18.6166L45.656 18.793Z" fill="#5F51BB"/>
<path d="M35.5241 40.5181L35.8718 41.0421L35.9598 42.9811L35.7542 43.2063L32.3414 41.7421L32.0035 41.4336L32.0379 39.8129L32.224 39.1568L35.3087 40.5279L35.5241 40.5181Z" fill="#5F51BB"/>
<path d="M28.949 21.7105L29.7373 22.4303L29.7667 23.0766L28.1605 25.7403L27.8422 25.8627L27.6905 24.898L27.0687 23.0912L27.0393 22.4449L27.6563 21.7692L28.949 21.7105Z" fill="#5E50BA"/>
<path d="M31.3437 15.0171L32.5824 16.1482L32.8468 17.2157L32.7831 18.1901L32.0731 19.1938L31.128 19.7765L29.5073 19.7421L28.6161 19.1349L27.9111 17.8716L27.965 16.6817L28.0581 16.3537L29.1892 15.1149L30.2567 14.8506L31.3437 15.0171ZM31.2506 15.3451L30.1636 15.1786L29.106 15.6584L28.3861 16.4467L28.2196 17.5337L28.4742 18.3857L29.3751 19.2084L30.3593 19.4875L31.1084 19.3456L31.5296 19.1105L32.3522 18.2096L32.5187 17.1226L32.1515 16.1678L31.2506 15.3451Z" fill="#150274"/>
<path d="M41.9586 30.0791L42.2965 30.3876L39.9998 34.4858L36.9834 39.3724L36.2636 40.1607L35.627 40.4055L37.7473 37.1788L39.4563 34.4026L41.4542 30.8576L41.9586 30.0791Z" fill="#1F0B76"/>
<path d="M51.1295 34.7361L51.3645 35.1572L48.6566 39.7059L47.3491 41.8162L46.6489 43.0354L46.0221 43.4957L45.7969 43.29L49.7192 36.959L50.7182 35.1865L51.1295 34.7361Z" fill="#230E77"/>
<path d="M26.8632 18.5668L27.5389 19.1838L27.5781 20.0456L26.9611 20.7212L26.3147 20.7506L25.7614 20.4519L25.404 19.7125L25.4971 19.3844L26.2169 18.5961L26.8632 18.5668Z" fill="#150274"/>
<path d="M39.4165 47.7896L39.9796 48.3037L39.813 49.3908L38.491 48.8031L38.0601 48.8227L37.3305 49.3955L37.1053 49.1899L37.5705 47.5496L37.7664 47.1089L39.4165 47.7896Z" fill="#5D4FB9"/>
<path d="M66.2255 31.9996L66.5634 32.3081L65.4322 33.5469L66.671 34.678L66.2499 34.913L65.1237 33.8847L64.0954 35.0109L63.7576 34.7024L64.7859 33.5762L63.6597 32.5479L63.9682 32.2101L65.0944 33.2384L66.2255 31.9996Z" fill="#120072"/>
<path d="M20.7911 32.2277L21.1289 32.5361L20.1006 33.6623L21.2267 34.6906L20.9182 35.0284L19.7921 34.0001L18.7638 35.1263L18.4259 34.8178L19.4543 33.6916L18.3281 32.6633L18.6366 32.3255L19.7627 33.3538L20.7911 32.2277Z" fill="#120071"/>
<path d="M53.1207 71.4548L53.3655 72.0914L53.5173 73.056L54.8099 72.9973L55.0352 73.203L54.5112 73.5506L53.6495 73.5897L53.4634 74.2458L53.4927 74.8922L53.1842 75.23L52.9394 74.5935L52.7877 73.6289L51.495 73.6876L51.2698 73.4819L51.7937 73.1343L52.6555 73.0951L52.8416 72.439L52.8122 71.7927L53.1207 71.4548Z" fill="#120071"/>
<path d="M48.9269 14.7584L49.2648 15.0669L48.9563 15.4047L45.4309 13.8377L44.9804 13.4264L45.2889 13.0885L48.9269 14.7584Z" fill="#130072"/>
<path d="M45.6648 38.0067L46.0027 38.3152L45.6942 38.653L42.0562 36.9832L41.7183 36.6747L42.0268 36.3368L45.6648 38.0067Z" fill="#130072"/>
<path d="M46.9821 36.1118L47.2171 36.533L46.5707 36.5623L43.486 35.1911L42.9229 34.677L43.344 34.442L46.9821 36.1118Z" fill="#130072"/>
<path d="M51.4529 27.597L51.7908 27.9055L51.4823 28.2434L47.8443 26.5735L47.5064 26.265L47.8149 25.9272L51.4529 27.597Z" fill="#130072"/>
<path d="M47.4971 16.5504L47.835 16.8589L47.5265 17.1967L43.8885 15.5269L43.5506 15.2184L43.8591 14.8805L47.4971 16.5504Z" fill="#130072"/>
<path d="M49.2592 31.5826L49.5971 31.8911L49.2886 32.229L45.6505 30.5591L45.3127 30.2506L45.7338 30.0156L49.2592 31.5826Z" fill="#130072"/>
<path d="M38.8687 35.7246L39.0939 35.9303L36.9833 39.3724L36.2635 40.1607L35.627 40.4055L37.7473 37.1788L37.9432 36.7381L38.8687 35.7246Z" fill="#220D77"/>
<path d="M52.2169 25.4035L52.6674 25.8148L52.2463 26.0498L48.6082 24.38L48.4858 24.0617L48.6915 23.8365L52.2169 25.4035Z" fill="#130072"/>
<path d="M44.235 39.7987L44.7981 40.3129L44.377 40.5479L41.1797 39.0739L40.6166 38.5597L41.0377 38.3247L44.235 39.7987Z" fill="#130072"/>
<path d="M50.1358 29.4919L50.6989 30.0061L50.4932 30.2313L46.9678 28.6643L46.5173 28.253L46.9385 28.018L50.1358 29.4919Z" fill="#130072"/>
<path d="M72.5467 35.7066L72.8845 36.0151L72.2675 36.6908L72.9432 37.3078L72.6347 37.6456L71.959 37.0286L71.342 37.7043L71.0042 37.3958L71.6212 36.7201L70.9455 36.1031L71.254 35.7653L71.9297 36.3823L72.5467 35.7066Z" fill="#120071"/>
<path d="M27.9549 25.9654L28.1066 26.93L28.6892 27.875L28.4836 28.1003L26.7111 27.1013L26.148 26.5871L27.4309 26.313L27.9549 25.9654Z" fill="#5D4EB9"/>
<path d="M26.8829 18.9977L27.2305 19.5216L27.2501 19.9525L26.6233 20.4128L26.4079 20.4226L25.8448 19.9084L25.8252 19.4775L26.452 19.0173L26.8829 18.9977Z" fill="#5B4CB7"/>
<path d="M62.2879 49.8814L62.6355 50.4053L61.9892 50.4347L60.1139 49.5483L59.6634 49.137L60.0845 48.902L62.2879 49.8814Z" fill="#130072"/>
<path d="M62.6796 49.0001L62.9146 49.4212L62.2683 49.4505L60.5056 48.667L59.9425 48.1529L60.3636 47.9179L62.6796 49.0001Z" fill="#130072"/>
<path d="M62.8461 47.913L63.184 48.2215L62.8755 48.5593L60.6721 47.5799L60.2217 47.1686L60.5302 46.8308L62.8461 47.913Z" fill="#130072"/>
<path d="M37.7576 27.8951L37.9926 28.3162L36.7977 30.5294L36.4892 30.8672L36.1514 30.5588L37.3462 28.3456L37.7576 27.8951Z" fill="#261178"/>
<path d="M35.2891 40.097L35.4115 40.4153L35.2058 40.6405L32.5618 39.4652L32.3268 39.0441L32.645 38.9217L35.2891 40.097Z" fill="#311D83"/>
<path d="M40.9157 28.5073L41.0381 28.8255L40.7198 28.9479L38.5164 27.9685L38.2912 27.7629L37.9827 28.1007L37.6449 27.7922L38.0562 27.3418L40.9157 28.5073Z" fill="#140172"/>
<path d="M38.8687 35.7246L39.0939 35.9303L37.7864 38.0406L37.3458 37.8447L37.9432 36.7381L38.8687 35.7246Z" fill="#220E77"/>
<path d="M40.0732 33.7269L40.2985 33.9326L39.0938 35.9303L38.6532 35.7344L39.4563 34.4026L40.0732 33.7269Z" fill="#180573"/>
<path d="M40.6609 32.4049L40.9987 32.7134L40.2985 33.9326L39.8578 33.7367L40.6609 32.4049Z" fill="#281379"/>
<path d="M38.3843 27.4349L38.7221 27.7434L38.5165 27.9686L38.2912 27.763L37.9827 28.1008L37.6449 27.7923L38.0562 27.3419L38.3843 27.4349Z" fill="#1B0774"/>
</g>
<defs>
<clipPath id="clip0_429_883">
<rect width="61" height="61" fill="white" transform="translate(41.1324) rotate(42.4)"/>
</clipPath>
</defs>
</svg>
