<svg width="131" height="146" viewBox="0 0 131 146" fill="none" xmlns="http://www.w3.org/2000/svg">
<g clip-path="url(#clip0_429_277)">
<path d="M33.9688 47.597L35.5622 46.6473L38.425 46.7921L41.7384 48.2107L42.0098 48.666L39.4093 52.0669L38.4022 54.5181L38.078 56.5622L37.2595 56.7416L34.9922 55.0079L34.2219 54.2331L32.5938 51.5014L32.6904 49.5929L33.9688 47.597ZM41.3706 49.6639L44.3299 47.9002L47.1489 47.4541L50.6463 48.1461L53.0975 49.1531L53.6839 50.6546L52.8125 53.3334L50.1155 58.6428L46.6918 63.7683L45.5973 65.0376L44.2315 65.8516L42.2356 64.5732L39.3819 61.338L38.4577 66.5163L37.6255 71.3313L36.9335 74.8287L36.3771 78.5537L35.5932 82.4144L35.0851 85.1852L36.4418 87.4616L36.4855 88.0525L38.6125 91.1038L48.4382 103.449L49.1166 104.587L58.5416 98.6613L59.6407 95.8468L57.6493 93.0232L56.472 91.5654L55.2509 89.5167L56.2534 88.6107L57.9298 90.3881L60.5558 93.7589L61.8342 91.763L64.4738 90.4983L65.8925 87.1848L68.9528 81.9674L71.3257 78.7021L70.8795 75.8831L71.0726 72.0661L71.7646 68.5687L73.0475 65.0276L75.6044 61.0357L74.8386 58.7157L73.2105 55.984L72.3091 53.4363L69.7268 50.6564L68.2736 50.2886L67.1882 48.4675L66.142 48.7825L64.1898 48.0951L62.8768 46.4097L62.6537 45.0001L63.2446 44.9564L64.7415 45.9152L65.1968 45.6439L64.6978 45.3243L63.8838 43.9585L64.5667 43.5515L66.3833 44.0113L68.1124 43.2892L69.4391 40.339L70.5335 39.0698L72.127 38.1201L73.6722 38.1246L75.0817 37.9015L75.9877 38.904L77.3535 38.09L77.6249 38.5453L77.0776 39.1799L79.7564 40.0513L81.2051 41.9644L82.5573 45.7859L83.5898 50.1065L84.728 49.4281L85.8179 49.704L87.2666 51.6171L91.3641 49.175L98.6002 45.7878L102.649 44.2999L102.155 42.4351L103.656 41.8487L104.65 44.0331L106.763 51.72L109.468 59.3631L112.448 65.9163L112.763 66.9625L114.812 65.7414L120.62 68.7581L126.428 71.7747L132.6 74.8833L133.685 76.7044L133.366 77.2034L129.496 79.5098L130.131 80.057L136.236 90.3007L136.008 90.4364L134.152 87.8404L129.268 79.6455L120.071 85.4356L116.429 87.6064L115.838 87.6501L116.783 90.7887L116.958 93.1525L116.362 94.7414L115.723 95.7394L114.13 96.6891L112.221 96.5925L110.632 95.997L109.997 95.4498L108.098 92.2629L104.592 94.6613L62.9341 119.489L52.0995 125.638L53.0055 126.641L58.568 135.974L57.8414 135.79L52.0076 126.001L47.4548 128.715L46.2338 126.666L46.4268 122.849L46.8521 117.351L46.1783 114.668L46.9577 112.352L47.3255 110.899L47.6105 106.719L34.7518 90.3198L34.4805 89.8645L34.0252 90.1359L34.1126 91.3177L33.4734 92.3157L32.0202 91.9478L32.0247 90.4027L32.3006 89.3127L31.8062 87.4479L32.3097 86.2223L33.0409 84.8611L33.9169 80.6371L34.4732 76.912L35.3491 72.688L35.9055 68.963L36.8734 64.3756L37.4297 60.6506L38.3976 56.0633L38.6298 54.3824L39.9565 51.4322L41.3706 49.6639ZM74.6082 44.3536L73.3298 46.3496L72.5549 47.1199L70.9615 48.0696L69.46 48.656L70.4097 50.2494L70.9569 49.6148L70.5454 50.4771L71.6307 52.2982L72.7644 53.165L73.7232 51.6681L73.0448 50.5299L74.0428 51.1691L77.0457 49.9963L80.3638 49.8697L79.3704 47.6853L79.7382 46.2321L79.0599 45.0939L77.786 45.5446L77.4182 46.9979L75.8775 45.4481L74.8359 44.218L74.6082 44.3536ZM83.7255 50.3341L84.2154 53.7441L84.1189 55.6526L83.6153 56.8782L83.0681 57.5128L80.3365 59.1409L77.2898 59.7227L75.4732 59.2629L76.5586 61.084L78.5108 61.7715L80.7389 61.369L85.064 58.7913L87.4806 56.117L88.26 53.8015L87.6736 52.3L85.3627 49.9754L84.636 49.7914L83.7255 50.3341ZM102.518 42.5271L104.54 50.5772L107.016 58.356L109.633 64.8172L111.169 67.9122L112.535 67.0982L108.969 59.0435L106.579 52.4466L104.689 46.1693L104.015 43.4859L103.337 42.3477L102.518 42.5271ZM87.6299 51.709L88.444 53.0748L91.263 52.6287L94.3971 53.2287L98.3889 55.7855L102.013 59.7956L104.197 58.8022L106.474 57.4455L103.818 48.8481L102.964 45.3461L102.33 44.7989L95.1856 47.8228L89.2234 50.7593L87.6299 51.709ZM32.673 86.3143L32.0776 87.9032L33.0273 89.4967L34.7081 89.7289L35.9383 88.6872L36.2142 87.5973L35.2645 86.0038L33.5836 85.7716L32.673 86.3143ZM88.5796 53.3025L88.2555 55.3467L86.7494 57.4782L84.7444 59.2902L81.5575 61.1896L79.2374 61.9554L77.3289 61.8589L76.1953 60.992L74.2777 63.9859L72.7671 67.6627L71.7555 71.6591L71.5142 76.4303L72.0523 78.8861L70.4106 80.79L67.8538 84.7819L65.7523 88.5023L64.3336 91.8158L64.3773 92.4068L65.826 94.3198L67.7782 95.0073L71.2847 92.6089L76.5249 87.9433L80.2636 83.864L80.3556 83.5007L76.9201 77.2189L75.5197 74.3516L75.883 74.4435L77.7341 78.5847L80.5832 83.3651L82.0319 85.2781L90.2268 80.3939L91.6454 77.0805L88.9366 70.9825L88.2582 69.8444L88.6215 69.9363L91.1947 75.8066L92.1444 77.4001L91.2776 78.5337L89.0358 83.5717L87.4332 87.6118L85.7387 92.0152L85.5548 92.7418L86.6402 94.5629L88.0451 95.885L88.728 95.478L88.5441 96.2047L90.0893 96.2092L92.3657 94.8525L96.2837 91.5918L99.4752 88.1472L100.114 87.1493L98.2105 85.5076L100.622 84.3785L101.039 81.971L101.997 80.4741L103.32 79.0691L103.096 77.6596L102.689 76.9767L104.734 77.3008L105.377 74.7577L105.527 70.3497L104.901 66.7121L103.864 63.9367L100.472 58.2458L97.391 55.1463L95.0317 53.776L92.3529 52.9046L89.0349 53.0311L88.5796 53.3025ZM102.149 60.0232L104.722 65.8935L105.754 70.214L105.934 71.0326L110.942 68.0479L107.196 59.1746L106.382 57.8088L102.149 60.0232ZM62.1055 92.2183L60.8271 94.2142L61.4618 94.7614L63.5105 93.5404L64.1497 92.5424L64.0623 91.3605L63.699 91.2686L62.1055 92.2183ZM61.8251 94.8534L61.6411 95.58L62.823 95.4926L62.5034 95.9916L63.7245 98.0403L64.5913 96.9067L65.1868 95.3178L65.5064 94.8188L64.3291 93.361L61.8251 94.8534ZM80.1716 84.2273L77.2078 87.5363L77.3435 87.7639L81.8043 85.4138L80.6269 83.956L80.1716 84.2273ZM50.6181 104.001L49.3879 105.042L51.8783 108.186L53.927 106.965L56.2471 106.199L57.0219 105.428L56.6149 104.746L57.6703 101.34L58.1301 99.5236L50.6181 104.001ZM59.912 96.3021L58.0336 101.432L56.7506 104.973L57.9325 104.886L61.9334 104.352L65.7504 104.545L69.6111 105.329L70.2503 104.331L71.3976 100.563L73.4555 96.2511L76.1042 91.8959L75.1063 91.2567L73.1978 91.1602L70.0546 93.6506L67.3229 95.2786L66.0973 94.7751L65.2305 95.9087L64.635 97.4976L64.0878 98.1323L64.7179 100.225L63.3566 99.4935L60.3673 96.0307L59.912 96.3021ZM74.4279 90.1186L74.244 90.8452L76.4238 91.397L73.1796 97.341L71.1654 102.243L70.2941 104.922L70.4297 105.15L75.6171 102.984L79.4824 102.222L82.3451 102.367L83.028 101.96L83.3522 99.916L83.8557 98.6904L83.313 97.7799L84.4075 96.5106L84.7271 96.0116L83.6854 94.7815L85.5502 94.287L85.0558 92.4222L81.6458 92.9121L80.6916 92.8639L83.5106 92.4177L84.6925 92.3303L85.695 91.4243L87.0699 87.5199L86.7986 87.0646L81.3399 88.7755L84.5705 87.4671L87.4815 86.6576L89.8152 81.2562L89.6796 81.0286L74.4279 90.1186ZM105.842 71.3959L105.513 74.9853L105.005 77.7561L105.911 78.7586L106.778 77.625L108.739 75.222L109.514 74.4517L114.294 71.6026L116.978 70.9288L119.613 71.2093L121.565 71.8967L123.198 73.0832L124.554 75.3595L124.685 77.1324L124.865 77.9509L124.226 78.9489L122.492 81.2162L122.628 81.4438L132.416 75.6099L131.282 74.7431L126.971 72.6853L121.163 69.6686L114.72 66.1048L105.842 71.3959ZM48.0176 107.402L47.6889 110.991L48.5074 110.812L49.8295 109.407L48.8798 107.813L48.0176 107.402ZM63.5842 99.3579L64.4465 99.7694L64.0395 99.0865L63.5842 99.3579ZM49.9652 109.634L47.8682 111.81L46.7255 114.033L46.7209 115.578L47.8983 117.036L49.3515 117.404L52.4902 116.459L56.1323 114.288L58.6846 111.841L59.8273 109.618L59.9238 107.709L59.5168 107.026L56.6978 107.473L56.2471 106.199L55.2009 106.514L52.2416 108.278L53.734 110.782L52.0485 112.095L50.1929 109.499L49.9652 109.634ZM57.3852 105.52L57.0656 106.019L57.337 106.475L61.2023 105.713L65.3389 105.408L65.6585 104.909L63.0233 104.628L58.2958 104.978L57.3852 105.52ZM103.324 77.5239L103.455 79.2967L101.494 81.6997L101.034 83.5162L100.85 84.2428L98.7094 85.8272L100.206 86.786L101.025 86.6066L101.069 87.1975L102.018 88.791L104.014 90.0694L106.15 90.0302L107.516 89.2162L107.753 85.9902L108.624 83.3113L110.13 81.1797L111.225 79.9104L110.958 77.91L111.505 77.2753L111.181 79.3195L111.453 79.7748L112.818 78.9607L110.358 81.0441L108.76 83.539L107.797 86.5811L107.788 89.6715L108.597 92.5825L109.547 94.176L111.586 96.0453L113.631 96.3695L115.679 95.1484L116.459 92.8329L116.284 90.4691L114.936 85.1024L114.941 83.5572L115.58 82.5592L115.851 83.0145L115.212 84.0125L115.3 85.1943L115.663 85.2863L117.847 84.2929L120.807 82.5292L123.131 80.2182L124.274 77.9947L124.506 76.3138L123.74 73.9937L121.836 72.352L119.022 71.253L116.295 71.3358L113.611 72.0096L110.652 73.7734L108.1 76.22L105.955 79.3495L104.777 77.8918L103.324 77.5239ZM57.0174 106.974L57.2887 107.429L62.5635 106.445L65.1549 106.134L65.4745 105.635L60.3837 105.893L57.9279 106.431L57.0174 106.974ZM60.2435 107.21L60.5539 109.802L60.0941 111.618L58.3604 113.886L56.1278 115.833L52.7132 117.868L50.0299 118.542L48.7123 118.402L47.443 117.307L47.2108 118.988L46.6499 124.259L46.5534 126.167L47.4111 128.124L108.19 91.8996L107.56 89.8072L104.513 90.389L102.924 89.7935L100.705 87.1056L97.7415 90.4145L92.0461 95.3515L89.9973 96.5725L88.8155 96.6599L88.0888 96.476L87.9486 97.7936L86.0356 99.2422L85.7642 98.787L84.9893 99.5573L83.934 102.963L82.6602 103.413L76.6588 104.214L71.0644 105.697L69.8342 106.739L69.2915 105.828L62.3359 106.58L60.9264 106.803L60.2435 107.21ZM84.4121 94.9654L84.8628 96.2392L83.904 97.7362L83.9477 98.3271L86.8104 98.4719L87.8129 97.5659L87.8175 96.0207L85.9135 94.379L84.4121 94.9654ZM69.6548 105.92L70.3815 106.104L71.384 105.198L71.2483 104.97L69.6548 105.92ZM71.6116 105.062L72.7935 104.975L78.5236 103.719L83.1154 103.142L83.435 102.643L80.7999 102.363L77.8452 102.581L74.1156 103.57L71.6116 105.062ZM84.0833 98.5548L83.2557 101.825L83.527 102.28L84.1662 101.282L84.9456 98.9663L84.311 98.4191L84.0833 98.5548ZM115.208 85.5576L115.479 86.0129L116.845 85.1989L115.663 85.2863L115.208 85.5576ZM125.495 80.0434L115.387 86.3762L115.93 87.2868L124.352 82.2669L133.322 76.6124L132.779 75.7019L125.495 80.0434Z" fill="black"/>
<path d="M67.8174 20.0193L69.4109 19.0696L70.9032 21.5736L76.3665 18.3175L74.8741 15.8135L77.1505 14.4568L78.5992 16.3699L79.374 15.5995L82.1885 16.6986L89.0868 19.9911L89.8134 20.175L85.065 12.2077L86.5227 11.0304L88.3438 9.94504L94.449 20.1887L95.8149 19.3747L88.9393 8.35614L88.1645 9.12646L87.9805 9.85308L87.4378 8.94253L89.2589 7.85716L96.1782 19.4666L94.3571 20.552L93.5867 19.7771L88.0242 10.444L87.0217 11.35L93.4465 21.0947L73.6859 33.489L74.4079 35.2181L98.765 20.7013L97.544 18.6526L96.4058 19.3309L96.2701 19.1033L97.8636 18.1536L99.356 20.6576L96.6243 22.2857L97.7097 24.1068L96.7992 24.6494L95.6218 23.1917L78.3215 33.5027L79.2712 35.0961L78.3606 35.6388L77.0476 33.9534L74.316 35.5814L72.9593 33.3051L75.2356 31.9484L73.7869 30.0353L67.8174 20.0193ZM68.1807 20.1113L72.3865 27.168L75.4633 31.8127L76.6014 31.1343L73.2097 25.4434L76.8291 30.9987L78.8778 29.7776L73.5429 20.3089L71.0389 21.8013L69.4546 19.6606L68.1807 20.1113ZM75.4651 15.7698L75.3731 16.1331L81.8853 27.0597L82.3843 27.3793L83.9778 26.4296L78.5509 17.3241L76.8309 14.9558L75.4651 15.7698ZM85.6559 12.164L85.6996 12.755L91.0827 21.2695L91.7174 21.8167L92.8556 21.1384L87.7438 13.0791L86.5664 11.6214L85.6559 12.164ZM79.1901 16.3261L79.0499 17.6437L83.8603 20.0211L88.1717 22.079L89.3973 22.5825L90.0365 21.5845L89.4938 20.674L82.5956 17.3815L79.6454 16.0548L79.1901 16.3261ZM73.9062 20.4008L79.1054 29.642L80.9265 28.5566L81.929 27.6506L76.6379 18.7728L73.9062 20.4008ZM79.4569 18.3266L81.899 22.4241L84.433 26.1582L89.441 23.1734L88.4431 22.5342L83.6327 20.1568L79.6845 18.1909L79.4569 18.3266ZM90.4918 21.3132L90.3516 22.6308L91.4898 21.9524L90.4918 21.3132ZM77.4109 34.0454L78.4526 35.2755L78.9078 35.0042L78.0938 33.6383L77.4109 34.0454ZM96.0771 22.9203L96.7554 24.0585L97.2107 23.7872L96.5324 22.649L96.0771 22.9203Z" fill="black"/>
<path d="M19.2599 57.5975L22.9021 55.4268L25.3578 54.8887L28.1286 55.3967L30.1245 56.6751L30.8949 57.45L33.2013 61.3198L33.6037 63.5479L33.0037 66.682L31.0861 69.6759L28.7177 71.3959L26.3977 72.1617L23.8982 72.1089L22.0817 71.6491L20.2214 70.5983L18.6808 69.0485L17.3241 66.7722L16.6503 64.0888L16.7468 62.1803L17.5262 59.8648L19.2599 57.5975ZM19.8508 57.5538L17.8895 59.9568L17.0181 62.6356L17.3723 65.8179L19.5431 69.4601L21.8103 71.1938L24.3535 71.8375L26.7173 71.6627L27.5358 71.4833L30.4951 69.7196L32.2288 67.4524L33.1922 64.4102L33.0173 62.0465L32.7023 61.0002L30.9386 58.041L28.8989 56.1716L26.5834 55.3922L23.6287 55.6107L22.5825 55.9258L19.8508 57.5538Z" fill="black"/>
<path d="M54.732 111.421L56.0059 110.97L56.0933 112.152L55.2265 113.285L53.8606 114.1L52.9064 114.051L52.727 113.233L54.732 111.421Z" fill="black"/>
<path d="M59.4386 102.754L60.4848 102.439L61.938 102.807L63.8028 102.313L66.1184 103.092L67.8912 102.961L69.664 102.83L69.7997 103.057L68.6615 103.736L66.753 103.639L65.2078 103.635L63.6189 103.039L61.0275 103.35L60.3929 102.802L59.5743 102.982L59.4386 102.754Z" fill="black"/>
<path d="M59.4431 101.209L60.717 100.758L61.9426 101.262L63.8074 100.767L65.3963 101.363L67.9877 101.052L69.2133 101.556L70.0318 101.377L70.3032 101.832L69.0293 102.283L67.6681 101.551L64.849 101.998L63.7154 101.131L61.9863 101.853L60.8963 101.577L60.625 101.122L59.4431 101.209Z" fill="black"/>
<path d="M72.483 102.384L73.9845 101.797L74.3478 101.889L76.6242 100.532L78.7603 100.493L81.5794 100.047L82.306 100.231L79.7583 101.133L77.2588 101.08L74.9825 102.436L73.4373 102.432L72.391 102.747L72.483 102.384Z" fill="black"/>
<path d="M72.851 100.93L74.2168 100.116L74.8077 100.073L76.9921 99.0793L78.082 99.3552L80.2664 98.3618L81.3564 98.6377L82.4026 98.3226L82.6739 98.7779L81.0368 99.1366L79.6272 99.3597L78.489 100.038L77.0358 99.6702L74.8514 100.664L72.9866 101.158L72.851 100.93Z" fill="black"/>
<path d="M73.6303 98.6148L75.3595 97.8928L76.9966 97.534L78.1348 96.8556L79.588 97.2235L82.7267 96.2784L82.1795 96.913L79.6318 97.8144L78.5418 97.5386L76.3574 98.532L74.8122 98.5274L73.6741 99.2058L73.6303 98.6148Z" fill="black"/>
<path d="M75.0926 95.8923L76.3665 95.4416L77.3207 95.4898L78.8222 94.9034L79.3212 95.223L82.5955 94.5055L83.0945 94.8251L80.7744 95.5909L79.1373 95.9496L78.6383 95.63L76.7735 96.1245L75.5916 96.2119L75.0007 96.2556L75.0926 95.8923Z" fill="black"/>
<path d="M22.5687 60.5613L22.7964 60.4256L26.0088 65.298L24.5993 65.521L22.5551 65.1969L22.8747 64.6979L24.7832 64.7944L22.5687 60.5613Z" fill="black"/>
<path d="M51.8328 123.638L61.1659 118.075L61.3015 118.303L51.9684 123.865L51.8328 123.638Z" fill="black"/>
<path d="M65.4446 100.409L66.4908 100.094L67.2174 100.277L69.0822 99.783L69.8525 100.558L70.3078 100.287L70.5791 100.742L69.3973 100.829L68.8983 100.51L66.8978 100.776L65.4446 100.409Z" fill="black"/>
<path d="M105.713 84.1207L106.532 83.9414L106.711 84.76L107.394 84.3529L107.666 84.8082L106.983 85.2152L107.026 85.8062L106.619 85.1233L105.937 85.5303L105.621 84.4841L105.713 84.1207Z" fill="black"/>
<path d="M81.2434 90.684L82.7448 90.0976L84.382 89.7388L84.973 89.6951L85.2443 90.1504L82.7886 90.6885L81.0594 91.4106L81.2434 90.684Z" fill="black"/>
<path d="M76.2354 93.6688L77.2817 93.3537L79.2821 93.0869L79.7811 93.4065L77.3254 93.9447L76.1435 94.0321L76.2354 93.6688Z" fill="black"/>
<path d="M98.6239 68.6024L99.0791 68.331L100.3 70.3798L100.523 71.7893L99.8886 71.242L98.8952 69.0576L98.6239 68.6024Z" fill="black"/>
<path d="M81.6522 75.324L81.8798 75.1884L83.5079 77.92L82.7813 77.7361L81.6959 75.915L81.6522 75.324Z" fill="black"/>
<path d="M91.1301 66.8987L91.5854 66.6273L92.6708 68.4484L92.3512 68.9474L91.1301 66.8987Z" fill="black"/>
<path d="M74.9953 67.2602L75.4942 67.5798L76.0324 70.0355L75.4414 70.0792L74.9033 67.6235L74.9953 67.2602Z" fill="black"/>
<path d="M89.0222 88.2073L89.6131 88.1636L89.0176 89.7525L87.9714 90.0675L89.0222 88.2073Z" fill="black"/>
<path d="M93.0459 79.9477L93.6368 79.904L93.177 81.7206L92.5861 81.7643L93.0459 79.9477Z" fill="black"/>
<path d="M72.8363 75.0253L73.2433 75.7082L73.3745 77.481L72.7398 76.9338L72.7444 75.3886L72.8363 75.0253Z" fill="black"/>
<path d="M94.7012 73.4082L95.4715 74.183L95.6946 75.5926L95.1037 75.6363L94.7012 73.4082Z" fill="black"/>
<path d="M94.9745 57.8206L96.0644 58.0965L97.4694 59.4186L96.8784 59.4623L94.9745 57.8206Z" fill="black"/>
<path d="M93.2116 85.4019L93.7106 85.7215L92.9794 87.0827L92.1608 87.2621L93.2116 85.4019Z" fill="black"/>
<path d="M102.243 74.1576L102.742 74.4772L102.646 76.3857L102.055 76.4294L102.243 74.1576Z" fill="black"/>
<path d="M76.281 78.2168L76.9156 78.7641L77.1387 80.1736L76.9111 80.3092L76.189 78.5801L76.281 78.2168Z" fill="black"/>
<path d="M92.8729 61.5411L93.5995 61.7251L94.8206 63.7738L94.5929 63.9095L92.8729 61.5411Z" fill="black"/>
<path d="M103.117 85.9765L104.256 85.2982L104.299 85.8891L103.844 86.1604L103.888 86.7514L103.432 87.0227L103.117 85.9765Z" fill="black"/>
<path d="M97.6588 87.6874L98.2497 87.6437L97.2909 89.1407L96.7 89.1844L97.6588 87.6874Z" fill="black"/>
<path d="M78.0857 67.2694L78.5409 66.998L79.171 69.0904L78.4007 68.3156L78.0857 67.2694Z" fill="black"/>
<path d="M18.6416 66.9124L20.6903 65.6913L20.0511 66.6893L18.7773 67.14L18.6416 66.9124Z" fill="black"/>
<path d="M86.7777 78.7477L87.233 78.4763L88.1827 80.0698L87.3204 79.6582L86.7777 78.7477Z" fill="black"/>
<path d="M68.7599 85.7844L69.8061 85.4694L68.0287 87.1457L68.2126 86.4191L68.7599 85.7844Z" fill="black"/>
<path d="M88.6124 73.0267L89.0677 72.7554L89.8817 74.1212L89.2908 74.1649L88.6124 73.0267Z" fill="black"/>
<path d="M27.2736 67.9376L27.7288 67.6663L28.5429 69.0321L27.9519 69.0758L27.2736 67.9376Z" fill="black"/>
<path d="M90.3744 92.0288L91.193 91.8495L90.5538 92.8474L89.7352 93.0268L90.3744 92.0288Z" fill="black"/>
<path d="M77.7041 73.3582L77.9317 73.2225L79.2885 75.4988L79.0608 75.6345L77.7041 73.3582Z" fill="black"/>
<path d="M85.5056 63.1555L85.7333 63.0198L87.09 65.2962L86.8623 65.4319L85.5056 63.1555Z" fill="black"/>
<path d="M30.0535 65.3553L31.2354 65.2679L31.5067 65.7232L30.3248 65.8106L30.0535 65.3553Z" fill="black"/>
<path d="M20.5774 57.7378L21.0327 57.4665L21.711 58.6046L21.2557 58.876L20.5774 57.7378Z" fill="black"/>
<path d="M77.1068 90.99L79.1555 89.7689L79.2912 89.9966L77.2425 91.2176L77.1068 90.99Z" fill="black"/>
<path d="M67.017 91.142L67.6079 91.0983L66.6491 92.5952L66.3778 92.14L67.017 91.142Z" fill="black"/>
<path d="M73.4172 47.5314L74.5554 46.853L74.9624 47.5359L73.5529 47.759L73.4172 47.5314Z" fill="black"/>
<path d="M99.4607 62.2422L100.052 62.1985L100.866 63.5643L100.638 63.7L99.4607 62.2422Z" fill="black"/>
<path d="M81.5876 66.4161L81.8153 66.2805L82.9007 68.1016L82.673 68.2372L81.5876 66.4161Z" fill="black"/>
<path d="M74.1876 48.3063L74.9142 48.4902L75.3213 49.1731L74.866 49.4445L74.1876 48.3063Z" fill="black"/>
<path d="M24.2706 69.1105L24.7259 68.8392L24.9052 69.6577L24.0867 69.8371L24.2706 69.1105Z" fill="black"/>
<path d="M105.311 81.8927L106.449 81.2143L105.674 81.9847L105.718 82.5756L105.311 81.8927Z" fill="black"/>
<path d="M84.6116 73.5603L84.8392 73.4246L85.7889 75.0181L85.5613 75.1538L84.6116 73.5603Z" fill="black"/>
<path d="M27.1215 57.8479L27.5768 57.5766L27.8481 58.0319L27.0733 58.8022L27.1215 57.8479Z" fill="black"/>
<path d="M19.0186 62.3688L20.2924 61.9181L19.5175 62.6884L19.0186 62.3688Z" fill="black"/>
<path d="M29.6118 60.9911L30.9776 60.1771L31.1133 60.4047L29.7475 61.2187L29.6118 60.9911Z" fill="black"/>
</g>
<defs>
<clipPath id="clip0_429_277">
<rect width="106" height="106" fill="white" transform="translate(0 54.2686) rotate(-30.7949)"/>
</clipPath>
</defs>
</svg>
