<svg width="66" height="66" viewBox="0 0 66 66" fill="none" xmlns="http://www.w3.org/2000/svg">
<path d="M40.425 19.47L42.24 19.635L43.89 20.46L44.715 21.45L45.54 23.43L46.035 24.09V25.41L45.54 25.905L45.375 26.895L45.21 27.225L45.045 28.38L44.55 29.04H44.055L44.22 32.505L46.2 33L48.18 33.825L49.995 35.145L51.15 36.135L52.965 38.445L54.285 40.755L55.275 43.395L55.935 46.2L56.265 49.17L55.935 51.81L55.77 52.305L56.1 52.14H58.74L61.545 56.43L63.36 59.235L64.35 60.885V62.7H21.12L1.65 62.535V60.885L3.465 58.245L5.61 55.275L7.26 52.965L7.92 52.14L11.385 51.975L8.745 46.53L6.765 42.57L7.095 41.745L7.26 41.58H20.46L19.965 38.94L19.8 36.795V36.3L19.305 35.805L18.315 37.125L17.325 37.455L16.5 37.29L16.17 36.795L16.665 35.475H16.995L17.325 34.815L17.82 34.32L18.315 32.835L19.14 32.175H19.47V31.845L20.295 32.01L22.44 29.865L23.265 30.03V30.855L21.45 33L22.11 33.33L22.44 33.99V35.64L23.265 35.475L25.41 39.6L26.07 41.085V41.58L28.875 41.415L29.37 39.765L30.36 37.785L32.175 35.64L34.155 34.155L36.135 33.165L37.125 33L36.3 31.02L36.135 29.535L35.31 29.37L34.815 28.875L34.65 28.38V26.4L35.805 26.235V25.74L35.145 25.41L34.98 25.245V23.43L35.64 22.605H35.97V21.615L36.63 20.955L37.29 20.625L38.61 19.8L40.425 19.47ZM38.775 20.955V21.12H39.6V20.955H38.775ZM35.97 22.77L35.145 23.76V24.915L35.475 25.41H35.805L35.97 24.255L37.29 25.08H38.94L40.755 24.42L41.58 23.76L40.425 23.265L37.785 22.77H35.97ZM43.395 23.265L43.23 24.09L43.725 24.255V23.265H43.395ZM41.745 23.925L40.425 24.75L39.27 25.08H37.125L36.135 24.585V26.4L42.24 26.235L42.075 28.05L41.58 28.875L40.755 29.205H39.6L38.94 28.875L38.61 28.05L38.445 26.565H37.62L37.29 28.71L36.465 29.535V30.69L37.125 32.175L38.115 33.33L39.435 33.825H40.755L41.415 33.66L41.58 33.825H38.94L37.62 33.165L37.29 33L36.465 33.33L36.96 34.815L37.62 35.805L38.445 36.465L39.765 36.795L41.745 36.3L42.9 35.64L43.725 34.485L43.89 33.99V28.875L44.55 28.71L44.88 28.05V27.06L44.385 26.565L43.56 26.73V27.06L42.9 26.895L43.23 25.575V24.42L42.405 23.925H41.745ZM43.395 24.585L43.065 26.73L44.55 26.565H44.88L45.045 26.895L45.21 26.73V25.74L43.725 24.585H43.395ZM34.815 26.565V28.05L35.31 28.875L35.64 29.205H36.63L37.125 28.875L37.455 27.06V26.565H34.815ZM41.085 26.4L38.61 26.565L38.775 28.38L39.435 29.04H41.085L41.91 28.215L42.075 27.555V26.4H41.085ZM19.635 32.175L19.47 32.34V33.33H19.8L19.965 32.175H19.635ZM19.14 32.505L18.81 33.66L19.14 33.825L19.305 33.495V32.505H19.14ZM18.48 33L18.315 33.33V34.485L18.81 33.99L18.645 33H18.48ZM20.79 33.33L20.13 33.66L20.295 34.155L21.285 34.32L20.79 34.65L20.955 34.32H20.295L19.635 35.145L19.8 35.97L20.13 36.3L21.285 36.135L22.275 35.805V34.155L21.945 33.495L20.79 33.33ZM45.87 33.33L45.54 34.65L44.55 41.58L44.055 46.695V49.335L44.385 48.84L45.705 44.55L46.53 42.405L45.705 40.59L45.87 40.095L48.015 39.105L47.025 34.32L46.695 33.495L45.87 33.33ZM47.025 33.825L47.85 37.95L48.18 39.27L47.19 39.6L45.87 40.26L46.035 41.085L46.53 42.24L46.365 43.23L44.715 47.85L44.22 49.995L47.025 49.665L47.19 49.335L46.695 46.86V45.21L46.86 47.52L47.355 49.83H46.035L37.95 50.985L38.115 55.275L40.755 55.77L42.24 55.935H46.86L49.665 55.605L52.8 54.78L54.45 53.625L55.11 52.8L55.605 51.15L55.77 49.995V48.51L55.44 45.705L54.45 42.24L53.295 39.6L51.975 37.62L50.16 35.64L48.345 34.32L47.52 33.825H47.025ZM34.98 33.99L33.825 34.815L32.835 39.27L33 40.095L34.485 41.085L33.825 42.735L33.495 43.56L35.64 48.675L36.3 50.655L36.795 50.985L36.465 48.015L35.64 41.085L35.145 33.99H34.98ZM33.33 35.145L32.01 36.3L30.855 37.62L29.7 39.6L29.205 40.92V41.415L30.69 42.075L33.33 47.355L34.32 49.5L35.31 49.665L35.97 50.16L35.475 48.51L33.66 44.22L33.495 43.065L34.32 41.415V41.085L32.67 40.095L33 37.95L33.495 35.805L33.33 35.145ZM22.605 35.805L20.625 36.63L19.965 36.96L20.295 39.765L20.625 41.415L20.79 41.58H25.905L24.585 38.61L23.1 35.805H22.605ZM7.92 42.405L7.26 42.735L12.54 53.295H13.035L15.18 49.5L15.51 49.005L18.15 48.84L28.05 48.675L27.555 50.325L25.74 54.45V54.615H33.825L33.495 53.955L32.67 53.13L32.505 52.635L33.99 52.305L34.32 51.645L31.35 45.54L30.195 43.23L29.205 42.405H7.92ZM24.42 48.84L16.17 49.005L15.675 49.17L13.695 52.635L11.55 56.43V56.76L15.345 56.925L23.925 57.09L26.565 51.48L27.72 48.84H24.42ZM34.65 49.665L34.815 50.49L35.145 51.15L34.98 51.81L33.99 52.47L32.835 52.8L33.165 53.295L34.32 53.46L34.65 53.295V53.625H33.495L33.66 53.955L34.65 54.12L34.155 54.45L34.485 54.615H35.805L37.29 54.12L37.95 53.625L37.785 51.48L36.63 51.15L35.31 49.83L34.65 49.665ZM8.085 52.305L5.94 55.275L4.125 57.915L2.145 60.72V60.885L17.49 61.05H63.855L63.525 60.225L61.545 57.09L58.41 52.47L55.44 52.635L54.78 53.625L53.79 54.45L52.305 55.11L49.335 55.77L45.87 56.1H43.725L40.095 55.77L37.95 55.44V53.955L37.125 54.285L36.135 54.615L33.165 54.78L25.575 54.945L25.41 55.275H26.235L25.905 56.1L24.09 57.255L14.52 57.09H10.89L12.375 54.285L12.54 53.955L11.715 52.305H8.085ZM25.41 55.44V55.935L25.74 55.44H25.41ZM1.98 61.215V62.37H64.02L64.185 61.38L1.98 61.215ZM16.17 37.125L16.665 37.62L16.005 37.785L16.17 37.125Z" fill="black"/>
<path d="M54.45 19.3051H54.78V19.6351H54.45L54.285 20.2951L56.76 20.4601L57.42 21.1201V21.4501H58.41L59.07 22.1101V28.5451L58.575 29.0401L58.08 29.2051H54.78L55.275 30.3601L56.1 31.1851L55.275 31.0201L54.615 30.1951V29.2051H52.47L51.315 29.0401L50.49 28.0501L49.665 27.2251L49.5 26.5651V22.7701L49.995 21.2851L50.49 20.7901L52.14 20.4601H53.955L54.12 19.6351L54.45 19.3051ZM51.48 20.7901L50.16 21.4501L49.83 22.2751L49.665 23.2651V26.0701L50.16 27.5551H50.49L50.655 21.9451L50.985 21.6151L57.09 21.4501L56.76 20.7901H51.48ZM53.295 23.7601V25.7401H53.46V23.7601H53.295ZM55.605 24.5851V25.7401H55.77V24.5851H55.605Z" fill="black"/>
<path d="M14.85 15.1801H20.46L21.12 15.5101V16.1701L22.275 16.3351L22.77 17.1601V22.9351L22.44 23.5951L21.615 23.9251L18.15 24.0901L14.85 23.7601L14.19 23.1001V22.6051L13.365 22.4401L13.2 21.9451V16.9951L13.53 15.8401L14.85 15.1801ZM15.51 15.5101L14.19 15.8401L13.695 16.3351L13.53 16.8301L13.365 18.9751V20.9551L13.695 22.2751H14.19L14.355 16.6651L14.85 16.3351L20.955 16.1701L20.79 15.6751L20.46 15.5101H15.51ZM16.5 18.1501V19.9651H16.665V18.1501H16.5Z" fill="black"/>
<path d="M43.725 4.29004H48.51L49.005 4.62004V5.11504L50.325 5.28004L50.985 6.10504V12.21L50.325 12.87L49.665 13.035H45.21L43.23 12.87L42.405 12.045V11.715L41.58 11.385L41.25 10.065L41.415 5.94004L41.91 4.78504L42.57 4.45504L43.725 4.29004ZM43.065 4.62004L42.24 4.95004L41.745 5.44504L41.58 6.43504V10.725L41.91 11.385L42.405 11.55L42.57 5.77504L42.9 5.44504L48.84 5.28004L48.51 4.62004H43.065Z" fill="black"/>
<path d="M2.475 37.62L2.805 37.785L2.145 38.775V39.93L2.475 40.59L4.785 41.745L5.115 42.24L5.61 44.88H5.94V45.21L3.63 46.2L3.3 46.035L2.97 45.375L1.65 43.725V42.24L1.815 40.26L1.65 39.27L1.98 38.115L2.475 37.62ZM2.145 41.085L1.815 43.56L3.3 45.21L3.63 45.705L5.115 45.21L5.28 44.715L4.785 42.075L2.805 41.085L2.64 41.415L3.3 42.735L3.795 42.9L3.96 43.89H3.135L2.805 42.24L2.31 41.085H2.145ZM3.3 43.065L3.135 43.395L3.3 43.725H3.795V43.065H3.3Z" fill="black"/>
<path d="M59.235 3.30005L60.06 3.46505V4.45505L59.235 5.11505L59.07 5.77505L58.245 6.10505L57.585 6.60005L56.925 6.43505L57.42 5.44505L57.75 4.95005V4.62005L58.41 4.29005L59.235 3.30005ZM57.915 5.28005L57.255 6.27005L58.08 5.94005L58.41 5.44505L57.915 5.28005Z" fill="black"/>
<path d="M57.75 15.51L59.73 16.5L61.215 17.985L62.37 18.975L62.04 19.635H61.38L58.905 17.49L58.08 16.5L57.75 16.005V15.51ZM58.245 16.17L58.74 16.83L58.905 16.335L58.245 16.17ZM59.07 16.5L58.905 17.16L60.72 18.645L61.875 19.47V18.975L60.555 17.655L59.235 16.5H59.07Z" fill="black"/>
<path d="M7.92 9.90002L8.745 10.395L8.085 11.55L6.27 14.355L5.775 15.015L5.115 14.685L4.95 14.025L6.6 11.715L7.92 9.90002ZM7.92 10.23L7.755 10.89L8.085 11.055L8.415 10.395L7.92 10.23ZM7.425 11.055L6.105 12.87L5.28 14.19L5.445 14.685L6.27 13.86L7.755 11.55V11.055H7.425Z" fill="black"/>
<path d="M8.91 27.0601L9.405 27.5551L10.065 29.0401V29.5351H8.415L7.92 29.3701L8.25 28.3801L8.91 27.0601ZM8.91 27.7201L8.25 29.2051H9.735L9.24 27.7201H8.91Z" fill="black"/>
<path d="M52.47 5.44495H52.8L53.79 7.42495L53.625 7.91995H52.47L51.645 7.75495L51.81 6.92995L52.47 5.44495ZM52.635 5.93995L51.81 7.58995H53.46L53.13 6.59995L52.635 5.93995Z" fill="black"/>
<path d="M38.775 11.715H39.765L40.095 12.21L39.93 13.035L38.94 13.2L38.445 12.705L38.61 11.88L38.775 11.715ZM39.105 11.88L38.775 12.21L38.94 12.87L39.765 12.705V12.045L39.105 11.88Z" fill="black"/>
<path d="M17.49 6.59998L18.48 6.92998V7.91998L17.985 8.24998L17.16 8.08498L16.995 7.91998L17.16 6.76498L17.49 6.59998ZM17.49 6.92998L17.16 7.58998L17.49 7.91998H18.15L18.315 7.25998L17.985 6.92998H17.49Z" fill="black"/>
<path d="M60.72 45.21L61.545 45.54V46.53L61.05 46.86L60.225 46.695L60.06 46.53L60.225 45.375L60.72 45.21ZM60.555 45.54L60.225 46.2L60.555 46.53L61.215 46.365L61.38 45.87L61.215 45.54H60.555Z" fill="black"/>
<path d="M7.095 30.6899H8.085L8.415 31.5149L7.92 32.1749L6.93 32.0099L6.765 31.0199L7.095 30.6899ZM7.26 30.8549L7.095 31.6799L7.92 31.8449L8.085 31.1849L7.755 30.8549H7.26Z" fill="black"/>
<path d="M20.13 8.91003H20.46V9.24003L18.975 10.23L18.15 11.055L18.315 10.395L19.14 9.40503L20.13 8.91003Z" fill="black"/>
<path d="M56.925 6.76501H57.255L57.42 7.09501V8.25001L56.595 8.08501L56.76 7.09501L56.925 6.76501Z" fill="black"/>
<path d="M60.885 33.33L61.545 33.66L62.37 34.98L62.205 35.64L61.215 33.99L60.885 33.33Z" fill="black"/>
<path d="M10.23 8.745H10.89L10.725 9.405L11.22 9.57L10.56 9.9H10.065L9.9 9.075H10.23V8.745Z" fill="black"/>
<path d="M6.105 8.745H6.765L6.93 9.735L5.775 9.9V8.91L6.105 8.745Z" fill="black"/>
<path d="M34.98 13.86L36.465 14.85L36.96 15.015V15.345L35.64 15.015L34.98 14.355V13.86Z" fill="black"/>
<path d="M62.205 37.62H62.535V38.775L61.875 39.93L61.71 39.435L62.04 38.775L62.205 37.62Z" fill="black"/>
<path d="M51.48 9.56995L53.13 9.89995L53.955 10.2299V10.5599L51.315 9.89995L51.48 9.56995Z" fill="black"/>
<path d="M8.25 7.42505L9.075 7.59005L8.91 8.41505L8.415 8.58005L7.755 8.08505L7.92 7.75505H8.25V7.42505Z" fill="black"/>
<path d="M23.76 7.42505H24.75L24.42 7.75505L22.11 8.25005V7.92005L23.76 7.42505Z" fill="black"/>
<path d="M60.555 41.085V41.58L59.895 42.405L59.235 42.9H58.905L59.07 42.405L60.39 41.25L60.555 41.085Z" fill="black"/>
<path d="M57.255 31.35L59.07 31.845L59.73 32.34L58.575 32.175L57.255 31.68V31.35Z" fill="black"/>
<path d="M32.01 10.0649L33 10.7249L33.66 11.5499L33.495 12.0449L32.01 10.3949V10.0649Z" fill="black"/>
<path d="M5.94 34.8149L6.6 34.9799L5.115 35.9699H4.785L5.115 35.3099L5.94 34.8149Z" fill="black"/>
<path d="M55.11 11.22L55.935 11.715L56.43 12.54L56.265 13.2L55.275 11.715L55.11 11.22Z" fill="black"/>
<path d="M25.575 25.08L25.905 25.245V26.235H25.575V25.08ZM25.905 26.235H26.895V26.565H25.905V26.235Z" fill="black"/>
<path d="M43.89 13.365L44.055 13.86L43.23 14.52L42.24 14.685L42.9 14.19L43.89 13.365Z" fill="black"/>
<path d="M41.085 30.36L41.415 30.525L40.92 31.35L39.765 31.515L39.6 31.185L40.755 30.855L41.085 30.36Z" fill="black"/>
<path d="M56.595 16.665H56.76L56.595 17.82L55.77 18.645L55.44 18.48L56.43 17.16L56.595 16.665Z" fill="black"/>
<path d="M11.55 33L12.045 33.165L10.89 33.66H10.065L10.23 33.33L11.55 33Z" fill="black"/>
<path d="M17.985 27.5551H18.15L17.985 29.0401L17.325 29.3701L17.655 28.5451L17.985 27.5551Z" fill="black"/>
<path d="M15.84 30.855H16.17L16.005 31.35L15.18 31.845L14.52 31.68L15.84 30.855Z" fill="black"/>
<path d="M18.15 24.585L18.48 24.915V26.235L18.15 26.4V24.585Z" fill="black"/>
<path d="M56.76 14.025L57.09 14.355L57.255 15.84H56.925L56.76 14.025Z" fill="black"/>
<path d="M28.71 7.92004L29.535 8.08504L30.525 8.74504L30.03 8.91004L28.71 8.08504V7.92004Z" fill="black"/>
<path d="M37.62 28.545L37.785 29.205V29.7V30.03L37.125 29.865L37.455 28.875L37.62 28.545Z" fill="black"/>
<path d="M17.655 12.375H17.82V14.52L17.49 13.86L17.655 12.375Z" fill="black"/>
<path d="M57.255 43.725H57.585V44.055L56.595 44.715H56.265V44.385L57.255 43.725Z" fill="black"/>
<path d="M39.765 15.015H40.095V15.345L38.61 15.51L38.445 15.18L39.765 15.015Z" fill="black"/>
<path d="M26.4 7.26001L27.72 7.42501V7.59001H25.905L26.4 7.26001Z" fill="black"/>
<path d="M51.315 30.855H51.645V31.845H51.315V30.855Z" fill="black"/>
<path d="M52.47 31.845L52.8 32.175L51.645 32.34V32.01L52.47 31.845Z" fill="black"/>
<path d="M51.48 32.505H51.81V33.33H51.48V32.505Z" fill="black"/>
<path d="M36.3 26.73V27.225L35.64 27.555L35.97 26.895L36.3 26.73Z" fill="black"/>
<path d="M50.655 32.01H51.315V32.34H50.49L50.655 32.01Z" fill="black"/>
<path d="M39.6 26.895L40.425 27.06L40.26 27.39L39.6 27.06V26.895Z" fill="black"/>
<path d="M25.74 26.73H25.905V27.72L25.575 27.39L25.74 26.73Z" fill="black"/>
<path d="M39.765 27.5551H40.095V28.2151H39.765V27.5551Z" fill="black"/>
<path d="M35.97 27.72H36.3L36.135 28.38L35.97 27.72Z" fill="black"/>
<path d="M24.585 26.4H25.575V26.565H24.585V26.4Z" fill="black"/>
</svg>
