<svg width="129" height="129" viewBox="0 0 129 129" fill="none" xmlns="http://www.w3.org/2000/svg">
<g clip-path="url(#clip0_429_1861)">
<path d="M92.5539 36.8576C92.7908 37.8523 92.9935 38.8486 93.1674 39.8561C93.3263 39.8952 93.4853 39.9342 93.649 39.9744C93.8596 40.0274 94.0701 40.0805 94.2871 40.1352C94.4949 40.187 94.7027 40.2388 94.9169 40.2921C97.0001 40.9082 98.5664 42.2213 99.6595 44.0857C100.634 46.0999 100.75 48.011 100.213 50.179C99.8952 51.0594 99.4106 51.6722 98.8131 52.3874C98.2582 53.1025 98.2582 53.1025 98.1198 53.9722C98.1873 54.3475 98.2649 54.7212 98.3518 55.0926C98.8068 57.2422 97.9682 59.5199 96.8258 61.3212C95.3327 63.3551 93.3149 64.6904 90.9003 65.4217C87.233 65.93 84.7282 64.7834 81.8502 62.6359C81.6489 62.4868 81.4475 62.3376 81.2401 62.184C80.5995 61.7093 79.9598 61.2333 79.3202 60.7572C78.8851 60.4344 78.4499 60.1117 78.0147 59.789C76.9499 58.9994 75.8858 58.2088 74.8224 57.4174C74.9814 56.9868 74.9814 56.9868 75.1801 56.5502C75.6987 56.4722 75.9669 56.8109 76.3798 57.1134C76.5647 57.248 76.7497 57.3826 76.9402 57.5213C77.1417 57.6689 77.3431 57.8165 77.5507 57.9686C77.9777 58.2775 78.4048 58.5862 78.8321 58.8947C79.5062 59.3827 80.1794 59.8717 80.8506 60.3636C81.498 60.8374 82.1486 61.3065 82.7998 61.7751C82.9967 61.9211 83.1936 62.0671 83.3965 62.2175C85.3654 63.624 87.5225 64.4106 89.9637 64.1035C92.345 63.6929 93.9858 62.6957 95.5206 60.8312C96.5794 59.2962 97.1743 57.3953 97.1497 55.5249C97.0382 55.1338 96.9186 54.745 96.7913 54.3587C96.5726 53.5354 96.5702 53.2726 96.9942 52.5166C97.3364 52.0774 97.6849 51.6431 98.0393 51.2137C99.0496 49.9365 99.2547 48.7742 99.1674 47.1692C98.92 45.1727 98.1066 43.9104 96.62 42.6008C95.6934 41.9272 94.0693 41.1846 92.9054 41.3596C92.4396 41.0973 92.4396 41.0973 91.9904 40.6838C91.8532 40.1471 91.8532 40.1471 91.8056 39.522C91.6379 38.1108 91.2031 36.9633 90.5888 35.6889C90.4781 35.4457 90.4781 35.4457 90.365 35.1977C88.8503 32.1947 86.027 29.8835 82.8828 28.795C82.4328 28.6658 81.9806 28.5437 81.5265 28.4295C81.3212 28.3767 81.116 28.3239 80.9045 28.2695C77.4316 27.5176 73.7166 28.4947 70.7569 30.3739C69.4321 31.445 68.2426 32.6425 67.0513 33.8591C66.8606 33.7427 66.6699 33.6262 66.4734 33.5062C64.4514 32.3231 62.8547 31.6482 60.4889 32.07C58.6149 32.5651 57.5525 33.4802 56.4443 35.0629C55.7235 36.3258 55.3987 37.5605 55.6226 38.9934C55.5334 39.1141 55.4442 39.2349 55.3523 39.3593C55.4188 39.4898 55.4854 39.6203 55.554 39.7548C55.7191 40.0795 55.8833 40.4047 56.0464 40.7305C56.1613 40.9592 56.1613 40.9592 56.2785 41.1925C56.3936 41.4225 56.3936 41.4225 56.511 41.657C56.9486 42.474 57.4478 42.9281 58.1767 43.4834C58.4968 43.7283 58.4968 43.7283 58.8234 43.9782C59.0545 44.1536 59.2856 44.329 59.5236 44.5097C59.8777 44.7801 59.8777 44.7801 60.2389 45.0559C60.866 45.5346 61.4937 46.0123 62.1217 46.4898C62.7626 46.9774 63.4027 47.4659 64.0429 47.9544C65.2987 48.9124 66.5553 49.8693 67.8125 50.8255C67.6536 51.2561 67.6536 51.2561 67.4548 51.6926C66.9138 51.7739 66.5918 51.3765 66.1649 51.0638C65.9605 50.9146 65.7562 50.7655 65.5456 50.6118C65.3234 50.448 65.1012 50.2842 64.8723 50.1154C64.5306 49.8644 64.5306 49.8644 64.182 49.6084C63.6982 49.2525 63.2148 48.8962 62.7318 48.5393C62.2384 48.1748 61.7441 47.8117 61.2489 47.4497C60.5348 46.9275 59.8227 46.4029 59.111 45.8776C58.8909 45.7171 58.6709 45.5566 58.4442 45.3912C56.2988 43.7976 54.9078 42.2956 54.3759 39.6281C54.1336 37.1282 54.5701 35.3063 56.0838 33.3073C57.5675 31.6063 59.3853 30.8513 61.5918 30.5634C63.5981 30.4373 65.4038 31.228 66.9952 32.4035C67.1539 32.1649 67.3126 31.9263 67.4762 31.6805C69.495 28.9826 72.9728 27.3469 76.2363 26.7847C83.0698 25.9064 90.5811 30.0115 92.5539 36.8576Z" fill="#020064"/>
<path d="M64.4689 91.346C64.7644 91.7042 64.7644 91.7042 65.0658 92.0696C64.156 93.3403 63.2405 94.6065 62.3208 95.87C62.0088 96.3002 61.6981 96.7312 61.3888 97.1633C60.9434 97.7849 60.4933 98.403 60.0422 99.0205C59.9053 99.2137 59.7684 99.407 59.6273 99.6061C58.8327 100.683 58.2734 101.331 56.8997 101.594C55.275 101.768 54.406 101.032 53.1797 100.088C52.987 99.9438 52.7944 99.7999 52.5959 99.6517C51.9836 99.1931 51.3752 98.7295 50.7668 98.2658C50.3514 97.9532 49.9357 97.641 49.5197 97.3291C48.5027 96.5655 47.4892 95.7973 46.4774 95.0267C46.076 95.5702 45.6745 96.1137 45.2609 96.6737C45.3871 96.7571 45.5133 96.8404 45.6433 96.9263C47.3762 98.126 47.3762 98.126 47.6003 99.2501C47.5443 100.559 47.0782 101.25 46.257 102.218C45.6587 102.307 45.1688 101.733 44.7108 101.395C44.5841 101.302 44.4574 101.209 44.3269 101.113C43.9064 100.803 43.4868 100.493 43.0673 100.182C42.7766 99.9674 42.4859 99.753 42.1952 99.5386C41.5851 99.0884 40.9756 98.6376 40.3664 98.1863C39.5838 97.6066 38.8 97.0286 38.0158 96.4511C37.415 96.0083 36.8149 95.5647 36.2149 95.1209C35.9261 94.9073 35.637 94.6941 35.3478 94.4811C34.9443 94.1838 34.5417 93.8853 34.1393 93.5865C33.7947 93.3316 33.7947 93.3316 33.4431 93.0716C32.9463 92.6687 32.9463 92.6687 32.8984 92.3505C33.6632 91.1038 34.2603 90.5949 35.6579 90.1463C36.5047 90.1939 36.9771 90.4922 37.6378 91.0077C37.7986 91.1316 37.9594 91.2554 38.1251 91.3831C38.2455 91.4786 38.366 91.5742 38.4901 91.6726C38.8916 91.1291 39.293 90.5856 39.7066 90.0257C39.4435 89.8372 39.1803 89.6487 38.9091 89.4546C37.9315 88.753 36.9575 88.0465 35.9844 87.3385C35.5632 87.033 35.141 86.7289 34.7177 86.4261C34.1088 85.9901 33.5036 85.5494 32.8988 85.1077C32.6149 84.9067 32.6149 84.9067 32.3253 84.7017C31.2575 83.9136 30.6291 83.3556 30.3656 81.9948C30.2298 80.4715 30.7722 79.7047 31.6646 78.5549C31.7875 78.3907 31.9104 78.2265 32.037 78.0573C32.4281 77.5363 32.8241 77.0194 33.2204 76.5024C33.4874 76.1486 33.754 75.7947 34.0203 75.4404C34.6719 74.5751 35.3278 73.7134 35.9864 72.8534C36.2279 73.0318 36.4695 73.2103 36.7183 73.3941C35.6478 74.8434 34.5773 76.2927 33.4744 77.7859C42.2306 84.2536 50.9869 90.7212 60.0085 97.3848C61.4805 95.392 62.9524 93.3992 64.4689 91.346ZM32.7986 78.7009C31.9459 79.8552 31.6489 80.3163 31.4552 81.6683C31.6585 82.8845 32.3354 83.4846 33.2935 84.1971C33.5751 84.4076 33.5751 84.4076 33.8625 84.6223C34.171 84.8506 34.171 84.8506 34.4857 85.0836C34.7026 85.2452 34.9195 85.4069 35.143 85.5734C35.7377 86.016 36.3329 86.4578 36.9286 86.899C37.3011 87.175 37.6734 87.4511 38.0457 87.7274C39.2115 88.5924 40.3779 89.4566 41.5451 90.3198C42.8905 91.3149 44.2341 92.3123 45.5762 93.3118C46.615 94.0852 47.6554 94.8565 48.6969 95.6262C49.3184 96.0855 49.9391 96.5456 50.5583 97.0081C51.2499 97.5237 51.9439 98.0358 52.6386 98.5471C52.8421 98.7 53.0456 98.8529 53.2552 99.0104C54.352 99.8115 55.2088 100.361 56.5732 100.504C57.9381 100.199 57.9381 100.199 59.3327 98.2998C50.5764 91.8321 41.8202 85.3645 32.7986 78.7009ZM40.6216 90.7015C40.2201 91.245 39.8187 91.7885 39.4051 92.3484C41.0356 93.5527 42.6661 94.7571 44.3459 95.9979C44.7474 95.4544 45.1488 94.9109 45.5624 94.3509C43.9319 93.1466 42.3015 91.9423 40.6216 90.7015ZM34.8947 91.5624C34.6717 91.8643 34.4487 92.1663 34.2189 92.4774C38.0234 95.2874 41.8278 98.0975 45.7475 100.993C46.4023 99.9149 46.4023 99.9149 46.4005 99.2549C46.1681 98.6343 45.8414 98.4069 45.312 98.0113C45.1147 97.862 44.9173 97.7126 44.7139 97.5587C44.3908 97.3212 44.3908 97.3212 44.0611 97.079C43.8409 96.9149 43.6208 96.7508 43.3939 96.5817C42.9273 96.2352 42.4597 95.8902 41.991 95.5465C41.2737 95.019 40.5617 94.485 39.8499 93.9503C39.3963 93.6148 38.9424 93.2797 38.4882 92.945C38.2751 92.7844 38.062 92.6238 37.8424 92.4584C37.541 92.2397 37.541 92.2397 37.2335 92.0166C36.9702 91.8222 36.9702 91.8222 36.7015 91.6239C35.9979 91.2909 35.6321 91.3296 34.8947 91.5624Z" fill="#020064"/>
<path d="M82.1192 41.0291C82.6451 42.2779 82.8649 43.5089 83.0615 44.845C83.094 45.0594 83.1265 45.2737 83.16 45.4946C83.228 45.9454 83.2952 46.3963 83.3616 46.8473C83.4636 47.5373 83.569 48.2268 83.6748 48.9163C83.7406 49.3554 83.8062 49.7946 83.8715 50.2338C83.9031 50.4395 83.9347 50.6453 83.9673 50.8573C83.9952 51.0496 84.0231 51.242 84.0518 51.4403C84.0769 51.6086 84.1019 51.777 84.1277 51.9504C84.1989 53.0448 83.8951 53.7074 83.2153 54.576C82.7514 55.0595 82.3236 55.2489 81.6785 55.4107C80.5644 55.2998 79.7666 54.861 79.0292 54.0196C78.7334 53.2438 78.613 52.4785 78.5114 51.6573C78.4482 51.233 78.3845 50.8088 78.3201 50.3847C78.1907 50.5575 78.0614 50.7304 77.9281 50.9086C76.7065 52.5405 75.4821 54.1702 74.255 55.798C73.6243 56.6348 72.9945 57.4723 72.367 58.3116C71.761 59.1221 71.1525 59.9305 70.5421 60.7377C70.31 61.0454 70.079 61.3538 69.8489 61.663C69.5255 62.0971 69.1988 62.5286 68.8713 62.9596C68.7777 63.0869 68.684 63.2143 68.5875 63.3455C67.8534 64.3007 66.9705 65.101 65.7413 65.2921C64.5383 65.116 63.8451 64.7527 62.9487 63.92C62.4343 63.0359 62.3341 62.2565 62.3831 61.2396C62.7352 60.3349 63.2792 59.5785 63.8457 58.7979C63.9428 58.6626 64.04 58.5273 64.1401 58.3878C64.4597 57.943 64.7807 57.499 65.1016 57.0551C65.3241 56.7459 65.5466 56.4366 65.769 56.1274C66.3533 55.3152 66.9387 54.5038 67.5242 53.6925C68.1221 52.8638 68.7189 52.0344 69.3159 51.2051C70.4864 49.5793 71.658 47.9543 72.8303 46.3297C72.6352 46.3628 72.4401 46.3959 72.2391 46.43C71.9824 46.4716 71.7257 46.5131 71.4612 46.5559C71.08 46.6188 71.08 46.6188 70.6911 46.6831C69.6725 46.7915 69.1694 46.7098 68.2933 46.1781C67.4568 45.4389 67.2141 44.874 67.1182 43.7723C67.3949 42.7455 67.8294 42.1895 68.7004 41.5823C69.3043 41.4004 69.3043 41.4004 70.0095 41.2699C70.2757 41.2203 70.542 41.1707 70.8163 41.1195C72.2474 40.8752 73.6793 40.6409 75.115 40.4252C75.6273 40.3478 76.1391 40.2679 76.6509 40.1879C76.9809 40.1378 77.3109 40.0879 77.6409 40.0381C77.9348 39.9932 78.2287 39.9484 78.5316 39.9022C79.9715 39.7566 81.1294 39.8748 82.1192 41.0291ZM77.6462 41.2351C77.4024 41.2701 77.1586 41.305 76.9074 41.341C76.3925 41.4163 75.878 41.4941 75.3639 41.5742C74.5765 41.6953 73.788 41.8045 72.9987 41.9128C72.4986 41.9875 71.9986 42.0628 71.4987 42.139C71.1444 42.1867 71.1444 42.1867 70.783 42.2355C69.4358 42.4429 69.4358 42.4429 68.4734 43.3651C68.183 44.1014 68.183 44.1014 68.5424 44.8596C69.1756 45.3465 69.6641 45.6276 70.4779 45.6141C71.0645 45.535 71.6399 45.4311 72.2199 45.3132C72.614 45.2372 73.0085 45.1632 73.4035 45.0915C73.5765 45.0567 73.7496 45.0219 73.9279 44.9861C74.4838 44.9483 74.7783 45.0858 75.2799 45.3108C75.1324 45.507 74.985 45.7032 74.8331 45.9054C73.444 47.755 72.0588 49.6074 70.6773 51.4627C69.9669 52.4164 69.2553 53.3691 68.5404 54.3195C67.8507 55.2367 67.1645 56.1565 66.4807 57.0783C66.2192 57.4295 65.9565 57.7797 65.6924 58.1289C65.3227 58.6183 64.9577 59.1109 64.5937 59.6045C64.4835 59.7482 64.3733 59.8918 64.2598 60.0398C63.7563 60.7322 63.5247 61.1695 63.4671 62.0324C63.5978 62.8127 63.6998 63.0404 64.28 63.5775C65.0489 64.0369 65.4852 64.0137 66.3611 63.895C67.0822 63.5279 67.4727 62.842 67.9498 62.2057C68.065 62.0535 68.1802 61.9013 68.2989 61.7445C68.6807 61.2399 69.0611 60.7343 69.4415 60.2287C69.7055 59.8791 69.9696 59.5296 70.2338 59.1802C70.9296 58.2593 71.6244 57.3376 72.3189 56.4157C73.0275 55.4756 73.7371 54.5362 74.4467 53.5968C75.8393 51.7525 77.2308 49.9075 78.6216 48.0619C79.1226 48.6363 79.3065 48.9835 79.4046 49.745C79.4297 49.9273 79.4548 50.1095 79.4806 50.2973C79.516 50.581 79.516 50.581 79.5522 50.8705C79.6016 51.2464 79.6518 51.6223 79.7026 51.998C79.7342 52.2475 79.7342 52.2475 79.7664 52.5019C79.882 53.1593 80.0663 53.3707 80.5748 53.8177C81.1235 54.2184 81.1235 54.2184 81.6642 54.2335C82.3388 53.9529 82.562 53.5654 82.9344 52.9445C82.9891 52.2904 82.9891 52.2904 82.8719 51.5902C82.8376 51.3216 82.8032 51.0531 82.7679 50.7764C82.7254 50.4865 82.6829 50.1967 82.6391 49.898C82.5969 49.5912 82.5548 49.2843 82.513 48.9773C82.402 48.1786 82.2837 47.3813 82.1622 46.5842C82.087 46.0898 82.0135 45.5953 81.9402 45.1006C81.8924 44.7835 81.8445 44.4664 81.7965 44.1494C81.7538 43.8662 81.711 43.5831 81.667 43.2914C81.524 42.4966 81.3873 41.9542 80.8513 41.3404C79.7692 40.8024 78.8133 41.0549 77.6462 41.2351Z" fill="#030064"/>
<path d="M51.9284 60.7473C52.1166 61.1447 52.1166 61.1447 52.3087 61.5502C52.4252 61.8085 52.5417 62.0669 52.6618 62.333C52.7681 62.5671 52.8744 62.8011 52.9839 63.0423C53.3684 64.5769 52.5443 66.1226 51.9854 67.5431C51.9096 67.7376 51.8337 67.9322 51.7556 68.1326C51.5958 68.5414 51.4354 68.9499 51.2745 69.3582C51.0293 69.9815 50.7871 70.6059 50.5451 71.2304C50.3889 71.6289 50.2325 72.0273 50.0759 72.4257C50.0042 72.6114 49.9324 72.797 49.8585 72.9884C49.1234 74.8387 49.1234 74.8387 48.4278 75.5381C47.4684 75.7777 46.8746 75.7049 45.9641 75.3415C45.7357 75.252 45.5073 75.1625 45.2719 75.0702C45.0284 74.9711 44.7849 74.872 44.534 74.7699C44.2811 74.6694 44.0282 74.5689 43.7677 74.4654C43.2336 74.2524 42.7002 74.038 42.1673 73.8222C41.3525 73.4926 40.5358 73.1679 39.7188 72.844C39.1998 72.6363 38.6809 72.4284 38.1622 72.2201C37.9183 72.1231 37.6744 72.026 37.4232 71.926C37.1953 71.8333 36.9674 71.7406 36.7326 71.6451C36.533 71.5646 36.3334 71.484 36.1277 71.4011C35.147 70.9251 34.5647 70.5893 34.1876 69.5451C34.331 69 34.331 69 34.5861 68.3579C34.6815 68.1136 34.777 67.8693 34.8754 67.6176C34.9825 67.3513 35.0895 67.0849 35.1999 66.8105C35.3676 66.3859 35.5353 65.9613 35.7028 65.5366C35.8226 65.2332 35.9429 64.9299 36.0634 64.6267C36.547 63.4093 37.0145 62.1861 37.4787 60.9611C37.6897 60.4078 37.901 59.8548 38.1126 59.3017C38.2506 58.9396 38.3877 58.5772 38.524 58.2145C38.7169 57.7022 38.9131 57.1914 39.1101 56.6808C39.1666 56.5283 39.223 56.3759 39.2812 56.2188C39.6402 55.3003 40.003 54.6544 40.8085 54.0717C41.8097 53.8807 42.6778 54.2819 43.5991 54.6448C43.7555 54.705 43.9119 54.7652 44.073 54.8273C44.4028 54.9548 44.7322 55.0834 45.0612 55.2129C45.5615 55.4092 46.0632 55.6014 46.5652 55.7932C46.8866 55.9181 47.2079 56.0433 47.5291 56.1688C47.7518 56.2538 47.7518 56.2538 47.9791 56.3405C50.2998 57.2637 50.9545 58.5556 51.9284 60.7473ZM47.0856 57.2852C46.9251 57.2231 46.7646 57.1611 46.5992 57.0971C46.0856 56.8987 45.5718 56.701 45.0579 56.5034C44.71 56.3691 44.3622 56.2348 44.0143 56.1004C43.1608 55.7709 42.3071 55.442 41.4532 55.1135C40.7204 55.607 40.5019 56.1389 40.1868 56.9518C40.0362 57.3361 40.0362 57.3361 39.8825 57.7281C39.7764 58.0053 39.6703 58.2826 39.561 58.5682C39.4494 58.8556 39.3378 59.1429 39.2259 59.4301C38.992 60.032 38.7596 60.6343 38.5283 61.2371C38.2322 62.0086 37.9334 62.7791 37.6336 63.5492C37.4029 64.1424 37.1732 64.736 36.9438 65.3297C36.7807 65.7518 36.617 66.1736 36.4534 66.5955C36.3547 66.853 36.256 67.1104 36.1543 67.3757C36.0672 67.6019 35.9802 67.8281 35.8904 68.0611C35.7055 68.6028 35.5859 69.1063 35.508 69.6719C36.7603 70.4167 38.0354 70.9757 39.3906 71.5068C39.7125 71.6341 39.7125 71.6341 40.0409 71.764C40.4917 71.942 40.9428 72.1195 41.394 72.2963C42.0854 72.5676 42.7758 72.8415 43.4662 73.1156C43.9053 73.2887 44.3446 73.4616 44.7839 73.6343C44.9903 73.7163 45.1966 73.7983 45.4092 73.8827C45.6013 73.9577 45.7935 74.0326 45.9914 74.1097C46.1599 74.176 46.3283 74.2422 46.5019 74.3105C47.0135 74.4941 47.0135 74.4941 47.7832 74.4962C48.7243 72.7059 49.4633 70.8541 50.1858 68.9685C50.3775 68.4683 50.5708 67.9687 50.7644 67.4693C50.8873 67.1507 51.0102 66.8321 51.1329 66.5135C51.1905 66.3645 51.248 66.2155 51.3074 66.0621C51.6091 65.2747 51.6091 65.2747 51.8048 64.4565C51.5476 64.3482 51.2903 64.2399 51.0253 64.1283C50.688 63.9852 50.3506 63.8421 50.0133 63.699C49.8438 63.6277 49.6742 63.5564 49.4995 63.483C49.2551 63.379 49.2551 63.379 49.0056 63.2728C48.8555 63.2094 48.7054 63.1459 48.5508 63.0805C48.1532 62.8907 48.1532 62.8907 47.6043 62.4852C48.0894 61.0702 48.5746 59.6552 49.0744 58.1974C48.4796 57.758 47.772 57.5485 47.0856 57.2852ZM49.7669 59.5573C49.4416 60.2504 49.1164 60.9435 48.7812 61.6576C49.3475 62.3442 49.5071 62.4922 50.2825 62.7841C50.5563 62.8872 50.8302 62.9903 51.1123 63.0966C51.4043 62.1989 51.1742 61.9299 50.7706 61.0942C50.6613 60.8636 50.552 60.633 50.4394 60.3954C50.1834 59.8248 50.1834 59.8248 49.7669 59.5573Z" fill="#020064"/>
<path d="M69.9977 72.3525C70.998 73.1601 71.9339 73.9803 72.4499 75.1802C72.4287 75.7473 72.4287 75.7473 72.3424 76.3548C72.261 77.5427 72.4722 78.1044 73.2151 79.0174C73.3465 79.1663 73.4778 79.3153 73.6131 79.4687C73.8901 79.8057 74.167 80.1428 74.4438 80.48C74.5919 80.6558 74.7401 80.8316 74.8927 81.0127C75.7333 82.0165 76.5439 83.0436 77.3551 84.0711C77.5943 84.3654 77.5943 84.3654 77.8383 84.6656C77.9861 84.8516 78.1338 85.0377 78.2861 85.2293C78.4837 85.4746 78.4837 85.4746 78.6852 85.7248C79.0743 86.3714 79.2151 86.7475 79.1833 87.5073C78.7721 88.0296 78.4151 88.4095 77.919 88.836C77.7967 88.9419 77.6744 89.0477 77.5484 89.1567C77.1523 89.4893 76.7498 89.8123 76.3443 90.1333C76.1973 90.2505 76.0504 90.3677 75.899 90.4885C75.5905 90.734 75.2816 90.979 74.9723 91.2236C74.5008 91.5969 74.0314 91.9728 73.5621 92.3489C73.2606 92.5884 72.9591 92.8276 72.6574 93.0667C72.5182 93.1784 72.3791 93.2902 72.2358 93.4053C71.4172 94.0484 70.605 94.6531 69.545 94.8125C68.0581 93.7164 66.9463 92.2243 65.8139 90.7861C65.6241 90.5467 65.4341 90.3074 65.2441 90.0681C64.8489 89.5699 64.4548 89.0709 64.0615 88.5712C63.5588 87.9329 63.0535 87.2966 62.5474 86.6609C62.1558 86.1685 61.7657 85.6749 61.3759 85.1811C61.1003 84.8324 60.8236 84.4847 60.5468 84.1369C60.3795 83.9237 60.2121 83.7104 60.0397 83.4907C59.819 83.2112 59.819 83.2112 59.5938 82.9261C59.1973 82.3477 58.9286 81.8153 58.7067 81.1504C59.0665 79.8106 60.2803 79.0595 61.3221 78.2377C61.5182 78.0806 61.7142 77.9235 61.9161 77.7617C62.3302 77.4307 62.7451 77.1009 63.1609 76.772C63.7961 76.2691 64.4281 75.7624 65.0598 75.2551C65.463 74.9336 65.8664 74.6123 66.27 74.2912C66.4586 74.14 66.6472 73.9888 66.8415 73.833C69.1163 72.0408 69.1163 72.0408 69.9977 72.3525ZM69.4346 73.5187C68.2358 74.2735 67.1149 75.0865 66.0051 75.966C65.8406 76.096 65.6761 76.226 65.5065 76.3599C65.1618 76.6328 64.8174 76.906 64.4733 77.1797C63.9459 77.5983 63.4165 78.0142 62.8869 78.4301C62.5511 78.6965 62.2154 78.963 61.8799 79.2296C61.7216 79.3535 61.5633 79.4772 61.4002 79.6048C61.2542 79.7217 61.1083 79.8387 60.9579 79.9592C60.8294 80.061 60.7009 80.1627 60.5685 80.2676C60.2052 80.6385 60.0586 80.9725 59.892 81.4603C61.075 82.9695 62.2602 84.477 63.4482 85.9823C63.9998 86.6814 64.5507 87.3811 65.0998 88.0821C65.6298 88.7587 66.1619 89.4338 66.6953 90.1078C66.8984 90.3651 67.1007 90.6229 67.3023 90.8813C67.585 91.2434 67.8706 91.6034 68.1563 91.9633C68.3179 92.1688 68.4795 92.3742 68.6461 92.5859C69.1318 93.0959 69.5197 93.3316 70.1729 93.5794C71.2421 92.7335 72.3106 91.8868 73.3784 91.0392C73.7418 90.7509 74.1055 90.4629 74.4693 90.1751C74.9919 89.7617 75.5137 89.3475 76.0354 88.933C76.1986 88.8042 76.3618 88.6755 76.5299 88.5428C76.6811 88.4224 76.8323 88.302 76.9881 88.178C77.1214 88.0723 77.2547 87.9667 77.3921 87.8578C77.7689 87.5482 77.7689 87.5482 78.1331 87.0144C76.4501 84.8121 74.7509 82.6232 73.0288 80.4513C72.8621 80.2404 72.6954 80.0296 72.5236 79.8124C72.3682 79.6168 72.2127 79.4212 72.0525 79.2197C71.914 79.0453 71.7756 78.8709 71.6329 78.6912C71.3123 78.2776 71.3123 78.2776 70.9236 78.0124C70.9721 77.8441 71.0206 77.6758 71.0706 77.5023C71.3103 76.5155 71.3103 76.5155 71.3602 75.5067C70.8294 74.6669 70.2675 74.0592 69.4346 73.5187Z" fill="#020064"/>
<path d="M47.8123 66.0328C48.1805 67.4912 48.2494 69.0232 48.3596 70.5194C48.3792 70.7824 48.4032 71.0455 48.4424 71.3064C48.2246 71.6167 47.9996 71.9222 47.7665 72.2213C46.4279 71.7255 45.0907 71.2259 43.7545 70.7235C43.2999 70.5531 42.8448 70.3836 42.3895 70.215C41.7348 69.9723 41.0814 69.7265 40.4281 69.4801C40.2245 69.4054 40.0209 69.3307 39.8112 69.2538C39.6212 69.1815 39.4313 69.1092 39.2356 69.0346C39.0687 68.9723 38.9018 68.91 38.7299 68.8457C38.1933 68.5614 37.8786 68.2131 37.496 67.7464C38.1701 67.1006 38.8847 66.5746 39.662 66.0583C39.887 65.9058 40.1119 65.7533 40.3437 65.5962C41.1278 65.2144 41.5066 65.1871 42.3474 65.3903C43.0028 65.9628 43.0028 65.9628 43.4932 66.5194C43.6515 66.3979 43.8098 66.2764 43.9729 66.1512C44.287 65.9184 44.287 65.9184 44.6075 65.6809C44.8144 65.5252 45.0212 65.3696 45.2344 65.2092C45.8472 64.8642 45.8472 64.8642 46.3933 64.8787C47.1208 65.1341 47.3704 65.3888 47.8123 66.0328ZM46.3566 66.089C45.2237 66.6233 44.2385 67.287 43.2312 68.0229C42.7113 67.4504 42.1915 66.8778 41.6716 66.3053C41.3475 66.4771 41.0249 66.6515 40.7028 66.8271C40.523 66.9239 40.3432 67.0208 40.1579 67.1206C40.0144 67.2166 39.871 67.3126 39.7231 67.4116C39.6943 67.5769 39.6655 67.7423 39.6358 67.9127C41.9697 68.7966 44.3035 69.6804 46.7081 70.591C47.2901 69.8031 47.0771 69.1061 46.9663 68.1833C46.9489 68.0124 46.9315 67.8414 46.9136 67.6653C46.8644 67.2281 46.795 66.7933 46.7226 66.3593C46.6018 66.2701 46.4811 66.1809 46.3566 66.089Z" fill="#020064"/>
<path d="M53.6909 67.2637C56.9519 69.6723 60.2128 72.0809 63.5726 74.5626C63.3942 74.8041 63.2158 75.0457 63.0319 75.2945C62.4179 75.1875 62.1393 74.9539 61.6376 74.5841C61.4552 74.4502 61.2728 74.3164 61.0849 74.1785C60.8881 74.0326 60.6912 73.8866 60.4885 73.7362C60.2866 73.5874 60.0848 73.4386 59.8769 73.2853C59.4497 72.97 59.023 72.6543 58.5965 72.3381C57.9418 71.853 57.2856 71.3698 56.6293 70.8869C56.2153 70.5809 55.8013 70.2748 55.3875 69.9685C55.0915 69.7507 55.0915 69.7507 54.7894 69.5285C54.5171 69.326 54.5171 69.326 54.2393 69.1194C54.0787 69.0006 53.9182 68.8819 53.7528 68.7595C53.3811 68.449 53.3811 68.449 53.1503 67.9956C53.3287 67.7541 53.5071 67.5125 53.6909 67.2637Z" fill="#020064"/>
<path d="M44.1669 59.0978C44.4092 59.8696 44.3966 60.2548 44.1411 61.0233C43.6284 61.7473 43.1988 61.9919 42.3702 62.2961C41.5927 62.3361 41.3626 62.1172 40.7443 61.6255C40.1567 60.913 39.9593 60.6396 40.0308 59.7196C40.349 59.077 40.7228 58.5623 41.2473 58.0727C42.5742 57.6516 43.3211 58.0418 44.1669 59.0978ZM42.5282 59.0188C41.9539 59.1434 41.9539 59.1434 41.4386 59.3453C41.2768 59.9373 41.2006 60.2271 41.4918 60.7811C41.8472 61.1177 41.8472 61.1177 42.3529 61.099C42.8462 60.9708 42.8462 60.9708 43.0597 60.525C43.2101 60.0352 43.2101 60.0352 43.0772 59.4243C42.8961 59.2905 42.7149 59.1567 42.5282 59.0188Z" fill="#020064"/>
<path d="M45.6885 89.4416C46.0302 89.8884 46.0302 89.8884 46.078 90.2066C45.7829 90.678 45.7829 90.678 45.4022 91.1216C44.7659 91.2172 44.7659 91.2172 44.2746 90.9251C43.8509 90.5414 43.8509 90.5414 43.7553 89.9051C44.036 89.4054 44.036 89.4054 44.4311 88.9901C45.2504 89.0296 45.2504 89.0296 45.6885 89.4416Z" fill="#020064"/>
</g>
<defs>
<clipPath id="clip0_429_1861">
<rect width="91" height="91" fill="white" transform="translate(54.9341 0.868408) rotate(36.4506)"/>
</clipPath>
</defs>
</svg>
