<svg width="97" height="105" viewBox="0 0 97 105" fill="none" xmlns="http://www.w3.org/2000/svg">
    <g clip-path="url(#clip0_429_2527)">
        <path
            d="M72.7095 34.6426C72.842 34.7299 72.9745 34.8172 73.111 34.9072C74.1893 35.6366 75.1057 36.4373 75.9438 37.4379C76.0585 37.5715 76.1731 37.7051 76.2912 37.8427C78.1582 40.1792 78.9578 43.1087 78.8921 46.0692C78.8895 46.2263 78.8869 46.3834 78.8842 46.5453C78.6975 50.0485 77.0597 53.2174 74.9438 55.94C75.0666 55.9633 75.1895 55.9866 75.316 56.0106C81.6226 57.2317 81.6226 57.2317 83.5233 59.8786C84.4815 61.7418 85.148 63.9373 84.5104 65.9985C83.5431 68.3841 82.1678 70.1626 79.9503 71.5372C79.6464 71.6937 79.6464 71.6937 79.5588 71.9015C79.6531 71.9526 79.7474 72.0037 79.8445 72.0564C81.0508 72.769 81.7139 73.6056 82.1079 74.9554C81.965 75.9957 81.5163 76.9864 80.7563 77.7244C79.8797 78.3387 78.9999 78.5809 77.943 78.4412C77.7285 78.3894 77.514 78.3375 77.293 78.2841C77.0569 78.2283 76.8208 78.1725 76.5775 78.115C76.3336 78.0547 76.0897 77.9944 75.8385 77.9322C75.4712 77.8447 75.4712 77.8447 75.0965 77.7555C74.4459 77.5996 73.7962 77.4416 73.1477 77.2771C73.0115 77.2459 72.8752 77.2147 72.7349 77.1826C72.0029 76.9475 71.3449 76.603 70.6626 76.2516C70.5102 76.174 70.3578 76.0964 70.2008 76.0165C69.6988 75.7606 69.1974 75.5035 68.696 75.2464C68.3474 75.0684 67.9988 74.8905 67.6502 74.7127C66.7338 74.245 65.8179 73.7763 64.9022 73.3074C63.9672 72.8288 63.0317 72.3513 62.0962 71.8736C60.2616 70.9367 58.4276 69.9986 56.5939 69.0601C57.4301 67.4186 58.2664 65.7771 59.1279 64.0858C60.9338 64.3577 60.9338 64.3577 61.7073 64.5357C61.6506 64.4407 61.5938 64.3457 61.5354 64.2478C61.3636 63.96 61.192 63.6722 61.0205 63.3843C60.8216 63.0505 60.6224 62.717 60.4228 62.3837C59.9186 61.5385 59.4229 60.6907 58.9481 59.8287C58.8624 59.6748 58.7767 59.521 58.6885 59.3625C58.5259 59.0694 58.3657 58.7749 58.2083 58.4789C57.7935 57.7254 57.7935 57.7254 57.1286 57.2097C56.3254 57.1641 55.5527 57.2512 54.7557 57.3486C54.4091 57.3879 54.0625 57.4271 53.716 57.4662C53.5469 57.4859 53.3778 57.5056 53.2036 57.5258C52.5459 57.6006 51.8876 57.6639 51.2285 57.7256C50.8962 57.7569 50.5639 57.7881 50.2216 57.8203C51.2116 58.396 52.2016 58.9716 53.2216 59.5647C51.5203 62.9043 49.819 66.2439 48.0662 69.6847C49.3681 70.3479 50.6699 71.0111 52.0113 71.6944C51.5062 72.192 51.3807 72.1843 50.6987 72.23C50.5155 72.2436 50.3323 72.2571 50.1436 72.2711C49.9434 72.2842 49.7432 72.2973 49.5369 72.3107C49.1064 72.3425 48.6759 72.3747 48.2455 72.4073C48.0173 72.4244 47.7892 72.4415 47.5541 72.4591C46.5755 72.5377 45.599 72.6337 44.6222 72.732C44.1292 72.7816 43.6361 72.8298 43.1428 72.8768C41.7259 73.0089 41.7259 73.0089 40.3174 73.2083C37.8249 73.5748 34.1194 72.9179 32.0399 71.4582C31.675 70.9909 31.402 70.4896 31.1257 69.9662C30.9557 69.6591 30.7855 69.3521 30.615 69.0453C30.5279 68.8866 30.4409 68.7278 30.3512 68.5642C29.9233 67.7948 29.47 67.041 29.0172 66.2861C28.8339 65.9788 28.6507 65.6714 28.4676 65.3639C28.373 65.2052 28.2784 65.0464 28.181 64.8828C27.2242 63.2725 26.2752 61.6576 25.3245 60.0437C25.4676 59.9027 25.6108 59.7617 25.7582 59.6165C26.1121 59.6438 26.1121 59.6438 26.5283 59.7565C26.6789 59.7963 26.8294 59.8361 26.9845 59.8771C27.2204 59.9435 27.2204 59.9435 27.4609 60.0113C27.6171 60.0526 27.7734 60.0939 27.9343 60.1364C28.6384 60.3269 29.2259 60.5189 29.8813 60.8528C30.6022 59.4377 31.3231 58.0226 32.0658 56.5646C31.39 56.2255 31.39 56.2255 30.7005 55.8794C29.2085 55.1301 27.7179 54.3779 26.2281 53.6243C25.3251 53.1677 24.4217 52.712 23.5172 52.2586C22.6435 51.8206 21.7712 51.38 20.8997 50.9377C20.5677 50.7698 20.2353 50.6028 19.9025 50.4368C19.4346 50.2031 18.9685 49.9663 18.5027 49.7287C18.3661 49.6615 18.2296 49.5943 18.0889 49.525C16.9137 48.9182 15.8924 48.0975 15.3132 46.8826C14.9377 45.6794 15.0344 44.9668 15.5674 43.839C16.2189 42.6555 16.842 42.1536 18.1282 41.7544C19.7533 41.3889 21.1199 41.8133 22.5283 42.6323C22.5565 42.5093 22.5846 42.3863 22.6135 42.2596C23.5932 39.1477 25.3843 36.9874 28.2156 35.3976C31.4481 33.8853 35.0037 34.2379 38.3475 35.0555C38.8737 35.1834 39.4011 35.3049 39.9289 35.4262C45.1565 36.6553 45.1565 36.6553 46.4965 37.9914C46.6154 37.7756 46.7342 37.5599 46.8566 37.3376C48.9015 34.1599 52.3538 31.7999 56.0098 30.9429C59.574 30.3207 62.7748 31.2186 66.2126 32.1025C66.3444 32.1361 66.4763 32.1698 66.6121 32.2045C68.7961 32.7657 70.8194 33.3876 72.7095 34.6426ZM56.2735 31.5219C56.1253 31.5434 55.9771 31.5648 55.8244 31.5868C52.4486 32.244 49.2607 34.7668 47.3606 37.5674C47.0642 38.0918 46.7909 38.6266 46.52 39.1645C46.4484 39.3035 46.3768 39.4424 46.303 39.5856C45.8551 40.4683 45.4912 41.3487 45.1729 42.286C44.693 41.7697 44.3501 41.2806 44.0337 40.6524C42.6272 38.0978 40.117 36.3708 37.4163 35.3952C34.151 34.4496 30.6734 34.8078 27.6753 36.4186C25.9926 37.4424 24.9316 38.622 24.0626 40.3893C23.9495 40.6116 23.9495 40.6116 23.8342 40.8384C23.4124 41.6805 23.0618 42.51 22.7808 43.409C22.6655 43.3428 22.5503 43.2765 22.4315 43.2083C20.8868 42.3645 19.4998 41.9152 17.7623 42.4229C16.8295 42.8215 16.204 43.461 15.7893 44.3841C15.5204 45.2861 15.6162 46.1876 15.9521 47.0596C16.6579 48.0524 17.3794 48.5256 18.4615 49.0596C18.6951 49.1788 18.6951 49.1788 18.9334 49.3003C19.445 49.5605 19.9584 49.817 20.4718 50.0734C20.8282 50.2538 21.1845 50.4344 21.5407 50.6152C22.4759 51.0892 23.4127 51.56 24.3498 52.0302C25.3068 52.5111 26.2623 52.9949 27.218 53.4785C29.0914 54.426 30.9665 55.3698 32.8425 56.3122C31.8333 58.2933 30.824 60.2744 29.7842 62.3156C28.7087 61.7677 27.6333 61.2198 26.5252 60.6554C26.851 61.3755 27.1527 62.0126 27.5511 62.6818C27.6516 62.8513 27.752 63.0208 27.8555 63.1953C27.9629 63.3751 28.0702 63.5549 28.1808 63.7402C28.4091 64.1248 28.6373 64.5094 28.8656 64.8941C28.9832 65.092 29.1009 65.2898 29.2222 65.4937C29.8159 66.4933 30.4063 67.4949 30.9968 68.4963C31.1056 68.6805 31.2143 68.8647 31.3264 69.0545C31.4274 69.2255 31.5283 69.3966 31.6324 69.5729C31.7212 69.7233 31.81 69.8738 31.9016 70.0288C32.0958 70.3608 32.2853 70.6956 32.4736 71.031C33.0897 71.2673 33.6616 71.2019 34.3099 71.142C34.5234 71.1228 34.7368 71.1036 34.9567 71.0839C35.3017 71.0509 35.3017 71.0509 35.6537 71.0172C36.0094 70.9845 36.0094 70.9845 36.3723 70.9511C37.0079 70.8921 37.6433 70.832 38.2786 70.7711C38.6783 70.7329 39.078 70.6952 39.4778 70.6577C40.2601 70.5842 41.0422 70.5094 41.8243 70.4341C42.0698 70.4107 42.3153 70.3873 42.5682 70.3632C42.7955 70.3409 43.0228 70.3185 43.257 70.2955C43.4579 70.276 43.6589 70.2564 43.866 70.2363C44.3716 70.1876 44.3716 70.1876 44.8784 70.0051C43.8029 69.4572 42.7275 68.9093 41.6194 68.3448C43.3207 65.0052 45.022 61.6656 46.7749 58.2249C45.473 57.5616 44.1711 56.8984 42.8298 56.2151C42.9163 56.0453 43.0028 55.8755 43.0919 55.7005C43.223 55.7194 43.354 55.7382 43.489 55.7577C44.3481 55.8073 45.1754 55.7175 46.0303 55.6311C46.2172 55.6131 46.4042 55.595 46.5967 55.5764C46.9985 55.5375 47.4002 55.4982 47.802 55.4585C48.4424 55.3953 49.0829 55.333 49.7235 55.2712C49.9375 55.2505 50.1515 55.2298 50.372 55.2085C50.7996 55.1675 51.2272 55.127 51.6549 55.0869C52.5618 55.0019 53.4674 54.915 54.3719 54.807C54.5082 54.7922 54.6444 54.7773 54.7848 54.7619C55.1322 54.7239 55.4791 54.682 55.8259 54.6397C56.3576 54.6811 56.3576 54.6811 56.7186 54.9747C57.1479 55.6232 57.5402 56.2863 57.9224 56.9635C58.0967 57.2682 58.2712 57.5729 58.4459 57.8774C58.5361 58.0351 58.6264 58.1927 58.7194 58.3551C59.1672 59.1313 59.6256 59.9012 60.0845 60.6709C60.1749 60.823 60.2653 60.9751 60.3585 61.1318C60.8487 61.9556 61.3416 62.7777 61.8371 63.5984C61.9907 63.854 61.9907 63.854 62.1475 64.1148C62.3451 64.4435 62.5435 64.7717 62.7428 65.0994C62.8312 65.2467 62.9195 65.3939 63.0106 65.5456C63.0891 65.6755 63.1677 65.8053 63.2486 65.9391C63.4161 66.2703 63.4161 66.2703 63.4128 66.7008C62.1109 66.0376 60.8091 65.3743 59.4677 64.691C58.7757 66.0495 58.0836 67.408 57.3706 68.8076C59.2955 69.8029 61.2216 70.796 63.1496 71.7852C64.0449 72.2447 64.9396 72.705 65.8332 73.1676C66.6956 73.614 67.5592 74.0579 68.4238 74.5C68.7534 74.6691 69.0826 74.8391 69.4113 75.0101C69.8718 75.2494 70.3338 75.4854 70.7963 75.7207C70.9318 75.7921 71.0674 75.8634 71.207 75.937C71.9945 76.3326 72.5414 76.4998 73.4131 76.3321C74.4718 75.9104 74.9332 75.6042 75.4404 74.5622C75.6517 74.0136 75.6336 73.6473 75.5037 73.0763C74.9214 71.8894 74.3894 71.3766 73.1962 70.8206C72.7625 70.6922 72.7625 70.6922 72.4228 70.6426C72.9483 70.1574 73.4679 69.7911 74.0891 69.4391C76.1304 68.1689 77.7041 66.3235 78.2815 63.951C78.545 61.8997 78.0318 59.8579 76.821 58.1857C75.5094 56.6877 73.5392 55.8718 71.5907 55.6605C69.8173 55.6354 68.1946 56.1259 66.7559 57.1698C66.6983 57.283 66.6406 57.3962 66.5812 57.5128C66.4114 57.4263 66.2416 57.3398 66.0666 57.2507C66.2271 57.0788 66.3877 56.9069 66.5531 56.7297C69.9935 52.9931 72.7347 48.7121 72.5198 43.417C72.1595 39.8114 70.5611 36.8566 67.8257 34.4955C64.5086 31.8196 60.4514 30.9183 56.2735 31.5219Z"
            fill="#160373" />
        <path
            d="M77.2415 40.2663C78.4843 43.3048 79.0132 46.8998 77.7432 50.0209C76.8121 52.0909 75.8642 54.1484 74.3419 55.8495C74.1342 55.8067 73.9266 55.7638 73.7126 55.7197C71.6739 55.315 71.6739 55.315 69.6259 55.5568C69.2641 55.6392 69.2641 55.6392 68.6621 55.5486C68.28 55.786 68.28 55.786 67.9695 56.0599C67.9742 55.4371 68.287 55.2587 68.7054 54.801C69.595 53.7294 70.2355 52.591 70.8675 51.3521C70.9588 51.1748 71.0502 50.9976 71.1444 50.815C72.9078 47.277 73.2945 43.7357 72.2502 39.9177C71.0503 36.6326 68.5591 34.3783 65.6491 32.6257C70.2413 32.4368 75.3203 36.2924 77.2415 40.2663Z"
            fill="#FBCCC3" />
        <path
            d="M56.5771 55.386C56.8537 55.7867 57.0025 56.1107 57.1182 56.5809C55.4249 56.8532 53.7267 57.0155 52.019 57.1666C51.7516 57.1903 51.7516 57.1903 51.4788 57.2145C51.3084 57.2294 51.138 57.2444 50.9625 57.2598C50.5349 57.3009 50.1106 57.3528 49.6849 57.4095C49.1051 57.4677 49.1051 57.4677 48.762 57.2929C48.7043 57.4061 48.6467 57.5193 48.5872 57.636C49.8891 58.2992 51.191 58.9624 52.5323 59.6457C50.9165 62.9575 49.3006 66.2694 47.6358 69.6815C48.6824 70.286 49.729 70.8905 50.8074 71.5133C49.4487 71.7938 49.4487 71.7938 48.7857 71.8606C48.5623 71.8835 48.5623 71.8835 48.3345 71.9069C48.0974 71.9301 48.0974 71.9301 47.8554 71.9538C47.6878 71.9707 47.5201 71.9876 47.3473 72.005C45.706 72.1687 44.0639 72.3248 42.4208 72.4689C41.8123 72.5228 41.2071 72.5855 40.6013 72.6644C38.2703 72.9373 36.2983 72.4192 34.1047 71.646C34.7056 71.4258 35.2624 71.3362 35.8989 71.2781C36.0999 71.2594 36.301 71.2406 36.5081 71.2213C36.723 71.2021 36.9378 71.1829 37.1592 71.1632C37.4908 71.1325 37.4908 71.1325 37.8292 71.1012C38.5122 71.0382 39.1952 70.9763 39.8783 70.9146C40.486 70.8589 41.0936 70.8031 41.7013 70.747C42.063 70.7137 42.4247 70.6807 42.7864 70.648C42.9508 70.633 43.1152 70.618 43.2846 70.6026C43.4382 70.5886 43.5919 70.5746 43.7501 70.5602C44.1596 70.5192 44.5664 70.4677 44.9742 70.4135C45.5645 70.3547 45.5645 70.3547 45.9076 70.5295C45.9653 70.4163 46.0229 70.3031 46.0823 70.1864C44.7805 69.5232 43.4786 68.86 42.1373 68.1767C43.8386 64.8371 45.5399 61.4975 47.2927 58.0567C46.1607 57.48 45.0286 56.9033 43.8622 56.3091C45.2206 56.0286 45.2206 56.0286 45.8597 55.9646C46.0778 55.9423 46.0778 55.9423 46.3003 55.9196C46.4556 55.9044 46.611 55.8892 46.7711 55.8736C46.9365 55.857 47.1019 55.8404 47.2723 55.8233C47.8303 55.7676 48.3884 55.713 48.9465 55.6586C49.1552 55.638 49.364 55.6174 49.5791 55.5962C50.2351 55.5315 50.8912 55.4675 51.5473 55.4037C51.7515 55.3837 51.9558 55.3638 52.1662 55.3432C52.5624 55.3051 52.9588 55.2687 53.3552 55.2339C53.7597 55.1965 54.1637 55.1528 54.567 55.1037C54.766 55.0824 54.9651 55.0611 55.1702 55.0392C55.3485 55.0177 55.5268 54.9963 55.7106 54.9742C56.1829 55.0242 56.1829 55.0242 56.5771 55.386Z"
            fill="#5F51BB" />
        <path
            d="M83.3243 60.5873C84.2284 62.3267 84.5209 64.2616 83.9926 66.1667C83.0881 68.4944 81.2506 70.4354 79.0022 71.5099C78.0486 71.8199 77.3013 71.6468 76.3573 71.3659C76.0949 71.2886 76.0949 71.2886 75.8271 71.2098C75.5574 71.1288 75.5574 71.1288 75.2822 71.0461C75.0984 70.9918 74.9146 70.9374 74.7252 70.8814C74.2735 70.7476 73.8221 70.613 73.371 70.4775C73.8833 70.0158 74.407 69.6075 74.9732 69.2144C76.8172 67.8529 78.143 66.1388 78.6775 63.8777C78.9607 61.844 78.43 59.8614 77.2513 58.1957C76.7966 57.6931 76.3203 57.2391 75.7982 56.8073C78.4499 55.9455 82.0402 58.4487 83.3243 60.5873Z"
            fill="#FBCCC2" />
        <path
            d="M81.2644 74.0666C81.5384 74.7149 81.6157 75.0045 81.5104 75.7042C81.0613 76.7986 80.7301 77.2781 79.601 77.756C77.6767 78.2872 75.6105 77.5671 73.8403 76.7657C73.9781 76.6789 73.9781 76.6789 74.1188 76.5902C75.0612 75.9539 75.523 75.4415 75.9245 74.3708C76.1262 73.1754 75.6579 72.4718 74.9989 71.5229C75.1132 71.4385 75.2275 71.3541 75.3452 71.2672C75.8719 71.3584 76.3753 71.4656 76.8924 71.5963C77.0405 71.6335 77.1885 71.6708 77.3411 71.7092C78.9782 72.1393 80.2966 72.6184 81.2644 74.0666Z"
            fill="#F9CBC2" />
        <path
            d="M83.5233 59.8787C84.4815 61.742 85.148 63.9374 84.5104 65.9986C83.5431 68.3842 82.1678 70.1627 79.9503 71.5374C79.6463 71.6938 79.6463 71.6938 79.5588 71.9016C79.6531 71.9527 79.7474 72.0038 79.8445 72.0565C81.0508 72.7691 81.7139 73.6057 82.1078 74.9555C81.965 75.9958 81.5162 76.9865 80.7563 77.7245C79.9527 78.2876 79.1115 78.5834 78.1282 78.4756C77.6402 78.3872 77.1591 78.2823 76.6761 78.17C76.5103 78.135 76.3444 78.0999 76.1736 78.0638C74.8374 77.7649 74.8374 77.7649 74.2674 77.1995C74.3817 77.1151 74.496 77.0308 74.6137 76.9438C75.114 77.0405 75.5983 77.1506 76.0909 77.2778C78.2274 77.8465 78.2274 77.8465 80.2935 77.2448C80.8468 76.8363 81.0981 76.2454 81.3388 75.6169C81.4018 74.7389 81.1836 74.2472 80.6656 73.5457C79.3303 72.1901 76.7082 71.4498 74.8273 71.4356C75.261 71.0084 75.261 71.0084 75.6969 71.0009C76.2009 71.0866 76.6488 71.209 77.1362 71.3561C78.1609 71.6243 78.7895 71.4238 79.706 70.8939C81.6611 69.6498 83.3847 67.8512 83.9522 65.5471C84.2775 63.4578 83.9082 61.5946 82.6624 59.8722C81.3588 58.3097 79.7802 57.5328 77.7875 57.2444C77.2342 57.1431 76.7937 56.932 76.316 56.6392C78.686 55.6304 82.1965 58.0311 83.5233 59.8787Z"
            fill="#1F0A76" />
        <path
            d="M46.3218 38.3345C45.6714 39.8211 45.6714 39.8211 45.0078 41.3378C44.7039 40.9111 44.3999 40.4845 44.0867 40.0449C42.8516 38.3531 41.5181 37.1156 39.71 36.0464C42.0628 35.9397 44.328 37.2557 46.3218 38.3345Z"
            fill="#F7C9C1" />
        <path
            d="M75.7011 37.1261C77.8283 39.8243 78.9975 42.6017 78.8922 46.0692C78.8893 46.2357 78.8863 46.4021 78.8833 46.5736C78.7451 49.2295 77.6941 51.5965 76.4229 53.885C76.2242 53.8551 76.0256 53.8252 75.8209 53.7943C75.8707 53.6904 75.9205 53.5865 75.9718 53.4795C77.8777 49.4726 79.0314 45.819 77.58 41.4639C76.7493 39.19 75.2168 37.3216 73.2869 35.8684C74.3493 35.7338 75.0075 36.3884 75.7011 37.1261Z"
            fill="#1D0975" />
        <path
            d="M80.1576 72.4227C81.221 73.0762 81.761 73.7225 82.0919 74.9339C81.9806 75.9862 81.5214 76.9816 80.7564 77.7245C79.9528 78.2877 79.1116 78.5834 78.1282 78.4757C77.6403 78.3873 77.1591 78.2824 76.6761 78.1701C76.5103 78.135 76.3445 78.1 76.1737 78.0639C74.8375 77.7649 74.8375 77.7649 74.2675 77.1996C74.3818 77.1152 74.4961 77.0308 74.6138 76.9439C75.1141 77.0406 75.5984 77.1506 76.091 77.2778C78.2274 77.8466 78.2274 77.8466 80.2935 77.2449C80.8469 76.8363 81.0981 76.2455 81.3389 75.617C81.4177 74.5184 80.9737 73.9114 80.2871 73.0963C80.1867 72.9872 80.0863 72.8782 79.9828 72.7658C80.0405 72.6526 80.0982 72.5394 80.1576 72.4227Z"
            fill="#1E0A75" />
        <path
            d="M56.8172 85.1609C56.9304 85.2185 57.0436 85.2762 57.1603 85.3356C56.8142 86.0149 56.4682 86.6941 56.1117 87.3939C56.7909 87.74 57.4702 88.086 58.17 88.4425C58.0835 88.6123 57.997 88.7821 57.9079 88.9571C57.2286 88.611 56.5494 88.265 55.8496 87.9085C55.5035 88.5877 55.1575 89.267 54.801 89.9668C54.66 89.8237 54.519 89.6806 54.3738 89.5331C54.691 88.9105 55.0082 88.2879 55.335 87.6464C54.7123 87.3292 54.0897 87.012 53.4482 86.6852C53.5347 86.5154 53.6212 86.3456 53.7103 86.1706C54.333 86.4878 54.9556 86.805 55.5971 87.1318C55.7504 86.8222 55.9036 86.5126 56.0615 86.1937C56.2199 85.8738 56.384 85.5565 56.5583 85.245C56.6437 85.2172 56.7292 85.1895 56.8172 85.1609Z"
            fill="#130072" />
        <path
            d="M33.5513 19.2986C34.2387 19.7508 34.3555 20.3492 34.5707 21.1142C35.1066 21.1497 35.4566 21.1121 35.971 20.9364C36.4672 20.7841 36.4672 20.7841 36.9818 21.0462C36.3514 21.5765 35.6635 21.8414 34.9073 22.1498C34.9518 22.2766 34.9964 22.4035 35.0423 22.5342C35.0985 22.6993 35.1548 22.8644 35.2127 23.0345C35.2694 23.1987 35.3261 23.363 35.3845 23.5322C35.4963 23.9621 35.4963 23.9621 35.3215 24.3052C34.6341 23.853 34.5173 23.2546 34.3021 22.4896C33.7662 22.454 33.4163 22.4917 32.9018 22.6674C32.4056 22.8197 32.4056 22.8197 31.891 22.5576C32.5215 22.0272 33.2093 21.7624 33.9655 21.454C33.921 21.3271 33.8764 21.2003 33.8305 21.0696C33.7462 20.8219 33.7462 20.8219 33.6601 20.5692C33.6034 20.405 33.5467 20.2408 33.4883 20.0716C33.3765 19.6416 33.3765 19.6416 33.5513 19.2986Z"
            fill="#120071" />
        <path
            d="M87.1739 55.2573C87.2871 55.3149 87.4003 55.3726 87.5169 55.432C86.9552 56.3104 86.2868 56.8021 85.4362 57.3696C85.2489 57.4973 85.2489 57.4973 85.0579 57.6275C84.7523 57.8356 84.4454 58.0418 84.1382 58.2476C83.6111 57.6605 83.5393 57.1966 83.4901 56.4187C83.4753 56.2221 83.4604 56.0254 83.4452 55.8228C83.4715 55.3155 83.4715 55.3155 83.9052 54.8883C84.0184 54.946 84.1316 55.0037 84.2482 55.0631C84.2504 55.2021 84.2526 55.341 84.2548 55.4842C84.2591 55.6649 84.2634 55.8456 84.2679 56.0318C84.2733 56.3015 84.2733 56.3015 84.2789 56.5766C84.2792 57.0523 84.2792 57.0523 84.5751 57.39C84.6542 57.278 84.7333 57.1659 84.8147 57.0505C85.2364 56.558 85.6767 56.2476 86.2167 55.8904C86.4856 55.7111 86.4856 55.7111 86.7599 55.5282C86.8965 55.4388 87.0331 55.3494 87.1739 55.2573Z"
            fill="#130072" />
        <path
            d="M54.1439 17.0427C54.2672 17.1857 54.3904 17.3287 54.5173 17.476C54.9514 17.9517 54.9514 17.9517 55.4822 17.9675C55.6066 17.9506 55.731 17.9338 55.8592 17.9165C55.6262 18.3739 55.3932 18.8313 55.1601 19.2887C55.1302 19.4874 55.1003 19.686 55.0695 19.8907C54.3834 19.5411 53.6973 19.1916 53.0112 18.8421C53.1542 18.7189 53.2972 18.5957 53.4445 18.4687C53.9202 18.0346 53.9202 18.0346 53.936 17.5039C53.9192 17.3794 53.9024 17.255 53.885 17.1268C53.9705 17.0991 54.0559 17.0713 54.1439 17.0427Z"
            fill="#150075" />
        <path
            d="M64.5229 79.3646C64.6639 79.5077 64.8049 79.6508 64.9501 79.7983C64.7771 80.1379 64.6041 80.4775 64.4259 80.8274C64.7655 81.0004 65.1051 81.1734 65.455 81.3517C65.3685 81.5215 65.282 81.6913 65.1929 81.8663C64.8532 81.6933 64.5136 81.5202 64.1637 81.342C63.9907 81.6816 63.8177 82.0212 63.6394 82.3711C63.4696 82.2846 63.2998 82.1981 63.1249 82.109C63.2979 81.7694 63.4709 81.4298 63.6491 81.0798C63.3095 80.9068 62.9699 80.7338 62.62 80.5556C62.6499 80.3569 62.6798 80.1583 62.7106 79.9536C63.1068 80.1555 63.503 80.3573 63.9113 80.5653C64.1131 80.169 64.315 79.7728 64.5229 79.3646Z"
            fill="#130072" />
        <path
            d="M78.533 48.0466C78.6089 50.137 77.3845 52.0994 76.4229 53.8849C76.1249 53.8401 76.1249 53.8401 75.8209 53.7943C75.8703 53.6868 75.9197 53.5793 75.9705 53.4685C76.1984 52.9714 76.4254 52.474 76.6525 51.9765C76.7301 51.8075 76.8077 51.6384 76.8877 51.4643C77.3385 50.475 77.7553 49.4832 78.1275 48.4615C78.1759 48.3523 78.2242 48.2432 78.2741 48.1308C78.3595 48.103 78.4449 48.0752 78.533 48.0466Z"
            fill="#220D77" />
        <path
            d="M78.3064 78.1769C78.1922 78.2613 78.0779 78.3457 77.9601 78.4326C77.4397 78.3477 76.9408 78.2469 76.429 78.1252C76.288 78.0944 76.147 78.0637 76.0017 78.032C75.2828 77.8651 74.796 77.7133 74.2675 77.1996C74.3818 77.1152 74.496 77.0308 74.6138 76.9439C75.1343 77.0288 75.6331 77.1297 76.145 77.2514C76.286 77.2821 76.4269 77.3128 76.5722 77.3445C77.2911 77.5114 77.7779 77.6633 78.3064 78.1769Z"
            fill="#1F0B76" />
        <path
            d="M45.5515 37.7262C45.5227 37.7828 45.4938 37.8394 45.4641 37.8977C45.2683 37.8267 45.0726 37.7556 44.8708 37.6824C44.6089 37.5875 44.347 37.4926 44.085 37.3977C43.9566 37.3511 43.8282 37.3044 43.6958 37.2564C42.8857 36.9631 42.0731 36.6788 41.2569 36.4025C41.4 36.2616 41.5431 36.1206 41.6906 35.9754C42.1784 36.0337 42.5966 36.1142 43.066 36.244C43.1909 36.2781 43.3159 36.3122 43.4446 36.3474C44.3574 36.6348 44.894 37.0334 45.5515 37.7262Z"
            fill="#271278" />
        <path
            d="M79.6689 57.2669C78.8828 57.6671 78.1412 57.4173 77.3452 57.1634C76.7339 56.879 76.7339 56.879 76.316 56.6391C77.0347 56.3172 77.5336 56.4343 78.2855 56.6162C78.4909 56.664 78.6963 56.7119 78.9079 56.7611C79.4132 56.9206 79.4132 56.9206 79.6689 57.2669Z"
            fill="#210D76" />
        <path
            d="M71.235 33.959C73.4243 35.0344 73.4243 35.0344 74.235 35.7034C74.1774 35.8166 74.1197 35.9298 74.0603 36.0464C73.1269 35.4996 72.1934 34.9528 71.2317 34.3894C71.2328 34.2474 71.2339 34.1053 71.235 33.959Z"
            fill="#130171" />
        <path
            d="M75.2609 36.658C75.4019 36.8011 75.5429 36.9442 75.6881 37.0916C75.6016 37.2615 75.5151 37.4313 75.426 37.6062C74.7201 37.0327 74.0141 36.4592 73.2868 35.8683C74.2716 35.8757 74.5102 36.0649 75.2609 36.658Z"
            fill="#2D167B" />
        <path
            d="M29.878 61.2832C29.7915 61.453 29.705 61.6228 29.6159 61.7978C28.9366 61.4517 28.2574 61.1057 27.5576 60.7492C28.5429 60.7566 29.0059 60.8389 29.878 61.2832Z"
            fill="#4C3DA9" />
        <path
            d="M76.8921 71.6233C76.1278 71.8717 75.6009 71.6324 74.8273 71.4356C75.261 71.0084 75.261 71.0084 75.7668 70.9961C76.3127 71.1061 76.5211 71.221 76.8921 71.6233Z"
            fill="#351F7D" />
    </g>
    <defs>
        <clipPath id="clip0_429_2527">
            <rect width="77" height="77" fill="white"
                transform="translate(35.671 0.71875) rotate(26.9958)" />
        </clipPath>
    </defs>
</svg>