<svg width="122" height="122" viewBox="0 0 122 122" fill="none" xmlns="http://www.w3.org/2000/svg">
    <g clip-path="url(#clip0_429_1704)">
        <path
            d="M50.3147 72.8562L51.3218 72.3547L51.6227 72.9589L46.9895 75.7689L45.3782 76.5713L45.1776 76.1684L47.9981 74.2612L50.3147 72.8562Z"
            fill="black" />
        <path
            d="M37.8151 24.5368L41.6418 22.6312L44.8627 22.0327L47.4786 22.2382L49.8923 23.0471L53.0137 21.744L55.027 21.2442L56.4368 20.5421L58.9532 20.043L61.066 20.2477L63.8824 20.856L64.5862 21.2596L67.8087 19.6549L70.1237 19.2561L72.5381 19.5619L74.7512 19.968L76.8623 21.1789L78.3692 22.6907L79.6731 25.309L79.8729 26.2149L81.5844 25.614L83.5969 25.6172L85.3068 26.0225L87.2165 27.3337L87.7188 27.8376L88.7218 29.8517L88.7185 31.8642L87.9096 34.2778L86.4973 36.4892L81.5583 41.7136L76.4187 46.5352L69.0628 52.9632L63.4209 57.2809L59.9962 59.489L53.7525 62.5982L49.222 64.1002L45.6994 64.5976L42.9832 64.1908L42.0765 64.8936L43.1822 65.5998L44.588 67.4133L45.7924 69.3271L46.8956 71.5426L47.8024 70.8397L51.0249 69.2349L53.2388 69.1379L55.3516 69.3426L56.357 69.8473L58.2651 72.1647L60.5817 70.7598L61.9899 71.0639L71.1536 66.752L78.0007 63.845L82.028 62.3422L82.3297 62.4433L83.433 64.6588L89.4736 62.6561L89.9768 62.6569L90.3771 63.9656L90.974 68.1928L91.5766 68.8981L93.1846 70.1082L93.9878 71.2164L95.8935 75.0431L98.1979 81.1849L99.2987 84.9097L99.2962 86.4191L98.4882 88.3296L96.8752 90.1382L94.155 92.2469L92.2412 93.4513L81.9694 98.5664L79.2516 99.1657L76.8371 98.86L74.8263 97.8505L72.2137 95.6325L68.497 91.7022L66.5889 89.3848L65.7833 89.786L60.1414 94.1036L55.911 96.713L53.4949 97.4134L51.8852 97.2096L49.9747 96.4015L47.0604 94.0824L44.5489 91.5628L42.4402 88.8426L40.8355 85.62L41.0393 84.0104L40.9398 83.3058L39.8317 84.109L36.8105 85.6135L34.7981 85.6102L33.1892 84.9033L30.1746 82.3828L27.8645 79.7629L26.9611 78.4533L26.1587 76.842L26.2614 75.5341L26.2622 75.031L23.9505 73.4173L23.6496 72.813L24.5572 71.607L23.5526 70.5992L24.359 69.6949L25.4672 68.8917L25.1671 67.7843L30.8074 64.4729L29.4 63.6656L28.2951 62.4564L26.9912 59.8381L26.5933 57.02L26.8999 54.1024L28.0113 51.2867L29.7261 48.6733L31.8421 46.8655L31.6415 46.4627L30.6369 45.4548L29.7343 43.6422L29.7383 41.1266L30.5464 39.2161L31.6554 37.9098L33.6695 36.9068L34.1726 36.9076L33.1696 34.8935L32.9723 32.4782L33.782 29.5615L34.7915 27.5506L36.9083 25.2397L37.8151 24.5368ZM41.3369 24.5425L39.1206 26.1489L37.2051 28.3595L36.0945 30.6721L35.5873 33.1868L35.7855 35.099L37.0894 37.7173L35.8817 37.816L33.8676 38.8189L32.859 40.3267L32.2515 42.64L32.4504 44.0491L33.5545 45.7614L34.9619 46.5687L35.4651 46.5695L35.6656 46.9723L33.6516 47.9753L33.0465 48.7793L40.1961 45.4703L41.703 46.9821L43.4154 45.878L42.2094 44.9705L40.9055 42.3522L41.111 39.7363L42.2208 37.9269L42.7247 37.4246L45.1416 36.221L44.2414 32.899L44.4469 30.2831L45.4572 27.7692L46.9698 25.7591L49.1869 23.6497L47.6784 23.1441L45.6659 23.1408L44.0555 23.4401L41.3369 24.5425ZM51.9031 24.0565L49.0817 26.4669L47.6694 28.6784L46.9625 30.2872L46.6559 33.2048L47.4566 35.8223L47.9581 36.8293L45.7434 37.4295L44.2316 38.9364L43.4236 40.8469L43.4203 42.8593L44.323 44.672L45.529 45.5796L46.8361 46.1854L44.6206 47.2887L42.8063 49.1976L41.2929 51.7107L40.5851 53.8227L40.2785 56.7403L40.5761 59.3569L41.7797 61.7738L43.7897 63.2864L46.3045 63.7936L48.9211 63.496L53.0488 62.1946L60.0981 58.6842L64.4296 55.7731L69.4673 51.7564L76.1179 45.931L81.056 41.2097L85.6925 36.3873L87.4073 33.7739L88.1159 31.1588L88.1176 30.1526L87.2149 28.3399L86.0089 27.4324L83.7958 27.0263L81.6823 27.3247L80.2724 28.0268L79.2637 29.5345L79.1683 26.3144L79.0688 25.6099L77.765 22.9916L75.9564 21.3787L73.7441 20.4695L71.1283 20.264L70.2223 20.4638L67.604 21.7676L65.6886 23.9783L64.8797 26.3919L64.5772 26.7939L63.2725 24.6787L61.2625 23.1661L58.8489 22.3572L56.3333 22.3531L54.1186 22.9533L51.9031 24.0565ZM58.9508 21.5524L60.8613 22.3605L63.0727 23.7728L64.4842 22.0645L62.5737 21.2564L60.4609 21.0517L58.9508 21.5524ZM33.4485 49.0818L29.722 51.1889L31.1278 53.0024L33.3417 52.9053L35.2514 54.2165L37.4677 52.6102L38.9795 51.1033L40.7955 48.1881L41.2994 47.6858L40.3959 46.3763L39.7925 46.174L36.6711 47.4771L33.4485 49.0818ZM29.2165 52.6974L28.3097 53.4003L30.6206 55.5171L30.9248 54.1089L30.725 53.203L29.8207 52.3965L29.2165 52.6974ZM28.5079 55.3125L29.5125 56.3203L30.7185 57.2279L31.1213 57.0273L29.8158 55.4152L29.3135 54.9113L28.5079 55.3125ZM31.7304 53.7077L31.2241 55.7194L31.4238 56.6253L33.0286 59.8478L34.9359 62.6684L38.1576 61.5667L39.3636 62.4743L41.0711 64.3889L42.0781 63.8874L41.1738 63.081L39.8675 61.972L38.6631 60.0582L37.8632 56.9376L38.0695 53.8186L38.2726 52.7121L36.0562 54.3185L35.0492 54.8199L33.0392 53.3073L32.7375 53.2062L31.7304 53.7077ZM29.3103 56.9237L29.307 58.9362L29.7066 60.7481L30.4086 62.1579L31.8152 63.4683L32.519 63.8719L33.1232 63.571L31.6171 61.5561L30.8139 60.448L29.9112 58.6353L29.9137 57.126L29.3103 56.9237ZM30.3149 57.9316L30.314 58.4347L31.317 60.4488L33.7274 63.2701L34.3316 62.9693L32.5255 59.847L31.22 58.2349L30.3149 57.9316ZM31.9139 64.6759L26.979 67.3848L26.0722 68.0877L27.3777 69.6997L28.1817 70.3048L29.6919 69.8041L30.999 70.41L32.607 71.6201L39.1557 66.5995L40.9692 65.1937L39.5634 63.3802L38.1568 62.0698L37.4522 62.1693L31.9139 64.6759ZM25.7681 69.4959L24.5588 70.6008L26.97 72.919L27.3728 72.7184L27.7781 71.0085L26.4726 69.3964L25.7681 69.4959ZM24.757 72.513L25.1582 73.3186L27.6705 75.3351L27.8719 75.2348L27.0695 73.6236L25.3612 72.2121L24.757 72.513ZM28.7851 70.507L27.9779 71.9144L27.9746 73.9269L29.0771 76.6455L32.5899 82.1855L34.1971 83.8987L35.6045 84.7059L37.3153 84.6081L39.5308 83.5048L40.1358 82.7008L38.2261 81.3896L37.9252 80.7854L39.2356 79.3788L37.7287 77.867L43.6723 73.6504L46.2914 71.8435L44.8873 69.0237L42.6783 66.1021L41.6729 65.5974L39.3563 67.0023L33.7144 71.32L32.4048 72.2235L29.9928 70.4083L28.7851 70.507ZM26.8648 75.7363L26.7629 76.5411L27.6656 78.3538L29.674 80.8726L32.5875 83.6948L33.1909 83.897L31.083 80.6737L28.7746 77.0475L27.0662 75.636L26.8648 75.7363ZM47.4991 71.7448L42.3619 75.057L38.6346 77.6672L38.6338 78.1703L41.3467 80.5897L42.251 81.3961L42.4541 80.2896L42.7582 78.8814L43.4644 77.7757L44.8742 77.0736L45.7802 76.8738L46.5842 77.4788L52.3255 73.8657L52.7275 74.1682L50.7134 75.1712L47.4901 77.2791L47.1876 77.6811L48.0919 78.4875L51.3152 76.3797L53.0276 75.2756L53.4296 75.5781L50.5088 77.284L48.4939 78.79L49.2979 79.3951L54.1341 75.4786L57.7611 72.667L56.3553 70.8535L55.5513 70.2485L54.0404 71.2523L52.5294 72.2561L50.7216 70.1401L47.4991 71.7448ZM51.4261 70.0406L52.7316 71.6527L54.7465 70.1466L53.5397 69.7421L52.0303 69.7397L51.4261 70.0406ZM39.3351 80.0833L38.73 80.8873L39.6343 81.6938L43.0509 84.5167L43.2524 84.4164L42.4508 82.3021L40.0396 79.9838L39.3351 80.0833ZM43.8664 78.0782L43.0591 79.4856L42.9547 81.7998L43.1545 82.7057L45.5616 87.5395L48.8739 92.6767L50.782 94.9941L52.9934 96.4064L54.9055 96.2082L58.7323 94.3026L64.777 89.7843L65.9863 88.6794L63.6786 84.5502L64.1842 83.0416L64.4867 82.6396L62.6789 80.5236L60.2677 78.2054L60.5703 77.8034L63.5922 75.7958L62.3878 73.882L61.1843 71.4651L60.6811 71.4643L58.3645 72.8693L52.3198 77.3875L49.0957 79.9985L45.9799 77.7797L45.0748 77.4764L43.8664 78.0782ZM61.9883 72.0701L62.8909 73.8828L67.2078 80.0278L67.3097 79.223L67.5152 76.6071L68.4236 74.898L67.3236 70.6701L67.0227 70.0658L69.8416 69.1648L76.6879 66.7609L81.7214 65.2597L82.7285 64.7582L81.9261 63.147L78.503 64.3489L72.6629 66.7544L61.9883 72.0701ZM67.7264 70.4695L68.4268 72.8856L70.1384 72.2846L71.2498 69.4689L70.445 69.367L67.7264 70.4695ZM72.1566 68.766L70.8437 71.682L70.8429 72.1851L73.4604 71.3844L74.4675 70.8829L75.7803 67.9669L75.5797 67.5641L72.1566 68.766ZM76.687 67.264L75.2731 70.4817L76.2793 70.4833L78.5951 69.5815L80.1094 66.5652L79.5059 66.363L76.687 67.264ZM80.7136 66.2643L79.4008 69.1803L80.2056 69.2822L83.4273 68.1806L84.7401 65.2646L84.1367 65.0624L81.922 65.6625L80.7136 66.2643ZM85.5458 64.8634L84.2329 67.7794L84.3332 67.9808L87.7564 66.7788L89.2706 63.7626L88.2644 63.761L85.5458 64.8634ZM68.5263 73.5901L68.8272 74.1943L70.7402 73.493L72.1484 73.7972L73.957 75.4101L75.5642 77.1233L79.6935 74.8156L90.369 68.9968L89.9702 66.6818L69.9362 72.888L68.5263 73.5901ZM62.2818 77.2024L60.9723 78.1059L62.5795 79.8191L65.8941 83.4469L68.1031 86.3685L69.3075 88.2823L71.916 93.0158L72.1174 92.9155L71.8174 91.8082L68.6095 84.3569L67.3065 81.2355L64.0945 76.2997L62.2818 77.2024ZM69.3295 74.6982L68.3208 76.2059L67.8145 78.2176L67.9115 80.4315L68.8117 83.7535L71.7187 90.6006L73.6243 94.4273L75.8333 97.349L77.2407 98.1563L78.649 98.4604L81.6685 97.9622L84.1857 96.96L87.0054 95.5559L92.3431 92.6464L96.0704 90.0363L97.8847 88.1274L98.6928 86.2168L98.4947 84.3047L96.492 78.264L95.5901 75.9483L93.183 71.1144L91.7764 69.8041L90.8713 69.5007L83.4192 73.2117L76.9733 76.9243L75.4623 77.9281L73.0519 75.1068L71.2425 73.997L70.7394 73.9962L69.3295 74.6982ZM89.4704 64.6685L88.562 66.3777L89.5682 66.3793L89.9711 66.1787L89.6718 64.5682L89.4704 64.6685Z"
            fill="black" />
    </g>
    <defs>
        <clipPath id="clip0_429_1704">
            <rect width="90" height="90" fill="white"
                transform="translate(0.658813 40.7776) rotate(-26.4722)" />
        </clipPath>
    </defs>
</svg>