<svg width="120" height="120" viewBox="0 0 120 120" fill="none" xmlns="http://www.w3.org/2000/svg">
<g clip-path="url(#clip0_429_228)">
<path d="M76.0573 21.9673C76.3217 28.7238 75.2513 35.8105 71.9728 41.8271C71.8896 41.9818 71.8064 42.1364 71.7207 42.2957C71.5411 42.6291 71.3612 42.9623 71.1808 43.2953C70.8933 43.8264 70.6073 44.3583 70.3216 44.8903C69.5095 46.4023 68.6953 47.9132 67.8792 49.423C67.3784 50.3498 66.8797 51.2775 66.382 52.2059C66.1942 52.5554 66.0057 52.9044 65.8163 53.2531C62.8361 58.741 60.0579 64.6625 61.8487 70.976C62.0559 71.6276 62.0559 71.6276 62.4401 72.2982C62.2053 72.5844 61.9704 72.8706 61.7285 73.1654C60.7997 72.6703 60.6928 71.809 60.3627 70.8461C58.341 63.9476 62.0839 57.3301 65.2846 51.4729C65.9194 50.3187 66.5694 49.1735 67.2245 48.0307C71.5563 40.4737 75.8726 31.8363 74.8539 22.8217C73.3888 22.3562 71.9243 21.9829 70.4192 21.6721C70.0971 21.6045 70.0971 21.6045 69.7685 21.5355C69.0737 21.3902 68.3785 21.2464 67.6833 21.1027C67.4465 21.0535 67.2098 21.0042 66.9658 20.9535C62.656 20.0572 58.3365 19.2219 54.0048 18.4387C53.7941 19.2231 53.7413 19.9558 53.6979 20.7682C53.2487 26.7517 50.5034 32.5865 47.7046 37.7983C47.5121 38.1623 47.5121 38.1623 47.3156 38.5336C46.5664 39.9357 45.7803 41.3069 44.9559 42.666C43.7804 44.608 42.6836 46.5882 41.6119 48.5891C41.2999 49.1698 40.9839 49.7481 40.6677 50.3266C38.0732 55.1306 36.2071 60.1008 36.3364 65.6128C36.3388 65.8236 36.3411 66.0344 36.3436 66.2516C36.7119 73.1159 42.0955 79.2061 45.9098 84.5381C49.3336 89.3327 52.4409 94.3294 53.542 100.214C55.1197 100.281 56.6588 100.261 58.2316 100.127C58.6643 100.093 59.0971 100.059 59.5299 100.025C59.757 100.007 59.9841 99.9887 60.218 99.97C61.474 99.8731 62.731 99.7904 63.9879 99.7057C66.0838 99.5624 68.1792 99.4135 70.274 99.2548C70.507 99.2375 70.74 99.2202 70.9801 99.2023C72.2404 99.1055 73.4878 98.9768 74.7394 98.7994C73.8734 92.4964 70.3312 87.5626 66.9221 82.3653C65.8808 80.7763 64.8662 79.1745 63.8776 77.5521C64.2064 77.3983 64.5352 77.2445 64.874 77.086C65.5261 77.578 65.9529 78.0517 66.3854 78.7429C66.5055 78.9331 66.6256 79.1234 66.7493 79.3194C66.8772 79.5255 67.005 79.7316 67.1368 79.9439C67.2715 80.1587 67.4062 80.3734 67.545 80.5946C67.8339 81.0556 68.1222 81.517 68.4098 81.9788C68.8674 82.7121 69.3284 83.4431 69.7902 84.1738C70.0968 84.6608 70.4033 85.1478 70.7097 85.6349C70.9225 85.9716 70.9225 85.9716 71.1395 86.3151C73.5131 90.108 76.0087 94.428 76.1112 99.032C75.9329 99.5895 75.9329 99.5895 75.5938 100.003C75.0961 100.173 75.0961 100.173 74.4372 100.243C74.1687 100.272 73.9003 100.301 73.6237 100.331C73.2926 100.361 72.9615 100.389 72.6303 100.417C72.4378 100.435 72.2452 100.452 72.0468 100.47C68.0922 100.818 64.128 101.039 60.1635 101.238C59.7158 101.261 59.2681 101.285 58.8205 101.308C57.9773 101.352 57.1341 101.391 56.2907 101.43C56.0378 101.443 55.785 101.456 55.5245 101.47C55.29 101.48 55.0556 101.49 54.8141 101.5C54.6106 101.509 54.4071 101.519 54.1975 101.529C53.498 101.489 52.975 101.364 52.3387 101.068C52.1068 100.665 52.1068 100.665 52.0022 100.174C51.9599 99.9937 51.9177 99.8131 51.8742 99.6271C51.8136 99.3373 51.8136 99.3373 51.7519 99.0417C51.6565 98.6414 51.5597 98.2415 51.4614 97.8419C51.4137 97.6467 51.3659 97.4515 51.3167 97.2504C50.9994 96.0506 50.4961 94.9415 49.969 93.8219C49.789 93.428 49.789 93.428 49.6053 93.0262C48.8997 91.5188 48.1034 90.0902 47.1957 88.6954C47.0374 88.4515 47.0374 88.4515 46.8759 88.2026C45.4129 85.9702 43.8353 83.8162 42.266 81.6579C37.5157 75.1146 34.2528 68.5993 35.3782 60.2911C36.3248 55.2316 38.9163 50.7844 41.3479 46.3217C42.1536 44.8416 42.9536 43.3584 43.7532 41.8749C43.882 41.6362 43.882 41.6362 44.0134 41.3926C49.6929 30.9582 49.6929 30.9582 52.0916 19.457C52.1074 19.1897 52.1074 19.1897 52.1235 18.9171C52.1301 18.7604 52.1366 18.6037 52.1434 18.4423C52.2868 17.815 52.4565 17.5429 52.9563 17.1319C53.5391 17.1175 54.0053 17.1494 54.5732 17.2391C54.7308 17.2604 54.8884 17.2817 55.0508 17.3037C55.5312 17.3704 56.0102 17.4439 56.4893 17.5194C56.7482 17.5584 57.007 17.5974 57.2737 17.6375C58.0493 17.7611 58.8218 17.8968 59.5945 18.0373C59.8075 18.0756 59.8075 18.0756 60.0247 18.1146C63.0489 18.6613 66.0517 19.309 69.0541 19.9636C69.2831 20.0135 69.5121 20.0635 69.748 20.1149C70.4034 20.2581 71.0585 20.4022 71.7135 20.5467C71.9103 20.59 72.1072 20.6332 72.31 20.6778C73.6569 20.9772 74.8456 21.2848 76.0573 21.9673Z" fill="#38A1FF"/>
<path d="M48.2485 31.5752C48.1461 31.7674 48.0436 31.9596 47.9381 32.1576C46.7251 31.9144 45.5122 31.6711 44.2994 31.4276C43.8886 31.3452 43.4778 31.2628 43.067 31.1804C42.4693 31.0606 41.8716 30.9406 41.2739 30.8205C41.0776 30.7812 40.8814 30.7419 40.6792 30.7013C39.7162 30.5078 38.7539 30.3114 37.7928 30.1088C37.6155 30.0715 37.4382 30.0342 37.2556 29.9959C36.922 29.9255 36.5885 29.8545 36.2552 29.7828C35.5357 29.5892 35.5357 29.5892 34.8152 29.6496C34.6215 29.965 34.4417 30.2891 34.2671 30.6156C34.1477 30.8387 34.0282 31.0619 33.9051 31.2918C33.7696 31.5482 33.6341 31.8045 33.4945 32.0687C33.4228 32.2037 33.3511 32.3387 33.2773 32.4778C30.6508 37.4284 28.1179 42.429 25.5653 47.4179C24.8318 48.8515 24.0977 50.2847 23.3635 51.7179C21.8589 54.6551 20.3551 57.5926 18.8519 60.5304C21.1004 60.7611 23.3469 60.9812 25.6026 61.1315C26.0779 61.1645 26.5533 61.1975 27.0286 61.2304C27.7593 61.2804 28.4899 61.3301 29.2205 61.3797C29.9386 61.4286 30.6565 61.4784 31.3744 61.5283C31.7032 61.5501 31.7032 61.5501 32.0387 61.5724C32.242 61.5866 32.4452 61.6008 32.6547 61.6154C32.8326 61.6275 33.0104 61.6395 33.1937 61.6519C33.6673 61.7034 34.1043 61.7976 34.5627 61.9249C34.4902 62.2153 34.4176 62.5057 34.3429 62.805C34.1597 62.7898 33.9764 62.7746 33.7877 62.759C30.3805 62.4778 26.973 62.2022 23.5635 61.9513C23.1582 61.9207 23.1582 61.9207 22.7446 61.8895C22.4926 61.8712 22.2407 61.853 21.9811 61.8343C21.7618 61.8182 21.5425 61.8021 21.3166 61.7855C20.6749 61.7588 20.0491 61.7818 19.4086 61.8244C19.4928 61.9804 19.577 62.1364 19.6637 62.2971C22.5935 67.7299 25.4749 73.1874 28.3255 78.6621C28.807 79.5866 29.2895 80.5106 29.7719 81.4347C29.9671 81.8088 30.1624 82.183 30.3577 82.5572C30.4543 82.7424 30.551 82.9276 30.6506 83.1185C31.5293 84.8023 31.5293 84.8023 31.8224 85.3646C32.0163 85.7356 32.2107 86.1064 32.4059 86.4767C32.9218 87.4581 33.4229 88.4443 33.9067 89.4421C34.0092 89.6494 34.1118 89.8567 34.2174 90.0703C34.4142 90.4687 34.6071 90.8691 34.7954 91.2715C34.9293 91.5395 34.9293 91.5395 35.0658 91.8129C35.1799 92.0504 35.1799 92.0504 35.2963 92.2927C35.8028 92.8503 36.2657 92.8307 37.0018 92.8927C37.4711 92.8987 37.9408 92.8914 38.4098 92.8729C38.6787 92.863 38.9476 92.853 39.2247 92.8428C39.5089 92.831 39.793 92.8193 40.0858 92.8071C40.3807 92.7965 40.6755 92.786 40.9704 92.7758C42.3421 92.7269 43.7124 92.6678 45.0825 92.5863C45.3035 92.5745 45.5243 92.5627 45.7519 92.5506C46.1616 92.5282 46.571 92.5021 46.9801 92.4716C48.3158 92.4021 48.3158 92.4021 48.9386 92.9542C49.0224 93.1039 49.1062 93.2536 49.1924 93.4079C48.5569 94.0111 48.3241 93.9493 47.4642 93.9571C47.211 93.9608 46.9578 93.9644 46.6969 93.9681C46.4235 93.9698 46.15 93.9714 45.8683 93.9731C45.2968 93.9806 44.7253 93.9883 44.1538 93.996C43.8584 93.9993 43.563 94.0026 43.2677 94.0059C41.8901 94.0226 40.5129 94.0578 39.1357 94.0925C38.8899 94.0983 38.6442 94.104 38.3911 94.1099C38.1635 94.1154 37.936 94.1209 37.7015 94.1266C37.5023 94.1314 37.3032 94.1361 37.0979 94.1411C36.6596 94.1578 36.2221 94.1958 35.7855 94.2388C34.7557 93.8362 34.3795 93.3562 33.8766 92.3885C33.7438 92.137 33.611 91.8855 33.4741 91.6264C33.3333 91.3518 33.1926 91.0772 33.0519 90.8026C32.9035 90.519 32.7548 90.2355 32.6059 89.9522C32.2991 89.3675 31.9943 88.7819 31.6909 88.1954C31.2698 87.3817 30.8434 86.571 30.4155 85.7609C29.656 84.3229 28.9011 82.8826 28.1477 81.4415C28.0388 81.2333 27.93 81.0251 27.8178 80.8107C27.1454 79.5249 26.4745 78.2383 25.8045 76.9513C25.7236 76.7961 25.6426 76.6408 25.5593 76.4809C24.1537 73.784 22.7666 71.0777 21.3834 68.3693C21.0343 67.687 20.6836 67.0056 20.3325 66.3243C20.1153 65.9011 19.8982 65.478 19.681 65.0547C19.582 64.8635 19.483 64.6723 19.381 64.4753C17.8431 61.4699 17.8431 61.4699 17.8683 60.5047C18.0265 60.1402 18.1973 59.7813 18.3736 59.4252C18.5469 59.0743 18.5469 59.0743 18.7237 58.7163C18.8568 58.4499 18.9899 58.1834 19.1231 57.917C19.2274 57.7077 19.2274 57.7077 19.3338 57.4941C19.9158 56.326 20.5022 55.1602 21.0894 53.9946C21.1856 53.8035 21.2817 53.6123 21.3808 53.4154C23.1632 49.874 24.9695 46.345 26.7943 42.8253C26.8715 42.6763 26.9487 42.5274 27.0282 42.3739C28.1141 40.2797 29.2066 38.1891 30.3068 36.1024C30.6412 35.4678 30.9738 34.8323 31.3048 34.196C31.6958 33.4449 32.0905 32.6958 32.4882 31.9482C32.6349 31.6708 32.7804 31.3927 32.9244 31.1138C33.1222 30.7314 33.3254 30.3518 33.5287 29.9723C33.6415 29.7581 33.7543 29.5438 33.8704 29.3231C34.2456 28.8473 34.2456 28.8473 34.7957 28.6886C35.4287 28.6771 35.9954 28.7551 36.6183 28.8705C36.9977 28.9396 36.9977 28.9396 37.3848 29.0102C37.6554 29.0616 37.926 29.113 38.2049 29.166C38.4838 29.218 38.7626 29.27 39.0499 29.3235C39.785 29.4611 40.5195 29.6017 41.2538 29.7434C41.6973 29.8289 42.141 29.9136 42.5847 29.9983C43.4247 30.1591 44.2638 30.3242 45.1028 30.4903C45.3633 30.5408 45.6237 30.5911 45.8921 30.6431C46.1319 30.6916 46.3718 30.7402 46.619 30.7902C46.8302 30.8322 47.0414 30.8743 47.2591 30.9176C47.7696 31.0706 47.7696 31.0706 48.2485 31.5752Z" fill="#191919"/>
<path d="M91.0385 60.0106C92.0001 60.6855 92.2701 61.2151 92.5151 62.3559C92.4972 63.3294 92.363 63.5155 91.6856 64.2043C91.0106 64.609 90.3024 64.9279 89.5853 65.2505C89.1588 65.448 88.7324 65.6456 88.3061 65.8434C88.0884 65.9432 87.8708 66.043 87.6466 66.1458C86.8489 66.5144 86.0576 66.8952 85.2664 67.2773C83.1853 68.2822 81.0881 69.249 78.9849 70.2068C77.5935 70.8429 76.2149 71.4999 74.8442 72.1793C73.2079 72.9899 71.5586 73.7681 69.8987 74.5291C69.579 74.6759 69.579 74.6759 69.2528 74.8256C68.1698 75.3197 67.0837 75.8065 65.9941 76.2856C65.7905 76.3753 65.587 76.4651 65.3773 76.5575C63.3906 77.3298 61.1693 77.3606 59.0634 77.2295C58.8712 77.127 58.679 77.0246 58.481 76.919C58.9087 76.3906 59.3456 75.8834 59.8007 75.3788C59.9676 75.193 60.1344 75.0071 60.3064 74.8157C61.9443 73.1242 63.7235 72.1649 65.8495 71.1858C66.6195 70.8303 67.3831 70.4619 68.1473 70.0943C68.7395 69.81 69.3327 69.5278 69.926 69.2459C71.0459 68.7123 72.1592 68.1659 73.2718 67.6171C75.0326 66.7498 76.8063 65.9124 78.5858 65.0842C80.0181 64.4173 81.4455 63.7409 82.87 63.0575C84.3656 62.3411 85.8614 61.6252 87.361 60.9172C87.523 60.84 87.6851 60.7627 87.8521 60.6831C90.0672 59.6415 90.0672 59.6415 91.0385 60.0106ZM90.4037 60.5292C89.8083 60.7028 89.8083 60.7028 89.2099 61.0147C88.9016 61.1628 88.9016 61.1628 88.587 61.3137C88.3525 61.4317 88.3525 61.4317 88.1133 61.552C88.0599 62.2619 88.1216 62.7426 88.4097 63.3928C88.517 63.6352 88.6244 63.8775 88.735 64.1272C89.3525 64.1949 89.6422 64.1996 90.1811 63.8697C90.3492 63.728 90.3492 63.728 90.5207 63.5833C90.3341 63.2679 90.3341 63.2679 90.1437 62.946C89.7984 62.2439 89.6847 61.9523 89.7956 61.2023C90.0164 61.5797 90.2372 61.9571 90.458 62.3345C90.7615 62.7833 90.7615 62.7833 91.5171 63.1172C91.773 62.4821 91.7343 62.2288 91.5209 61.5611C91.2132 60.8701 91.2132 60.8701 90.4037 60.5292ZM87.1169 62.0181C86.9408 62.1023 86.9408 62.1023 86.7612 62.1882C84.9219 63.0676 83.0826 63.9471 81.2433 64.8265C81.0526 64.9177 80.862 65.0088 80.6656 65.1028C80.2796 65.2873 79.8936 65.4718 79.5076 65.6563C78.5224 66.1273 77.5374 66.5986 76.5527 67.0707C73.9291 68.3281 71.2981 69.5687 68.6604 70.7963C66.8979 71.6167 65.1439 72.4524 63.3979 73.3075C63.4661 73.754 63.4661 73.754 63.6699 74.2004C64.1923 74.4172 64.4633 74.4478 65.0055 74.2751C65.1673 74.1944 65.3291 74.1136 65.4959 74.0305C65.6804 73.9401 65.865 73.8498 66.0551 73.7568C66.3517 73.6069 66.3517 73.6069 66.6543 73.454C67.0762 73.2465 67.4981 73.039 67.92 72.8316C68.1368 72.7239 68.3535 72.6163 68.5768 72.5054C69.6219 71.9888 70.6739 71.4868 71.7259 70.9845C71.9117 70.8951 72.0976 70.8057 72.289 70.7136C73.2453 70.2548 74.2052 69.804 75.17 69.3633C75.4506 69.2348 75.4506 69.2348 75.7369 69.1037C76.2088 68.9179 76.2088 68.9179 76.7006 68.9307C75.5627 69.7882 74.4509 70.4121 73.147 70.9786C72.7694 71.1467 72.392 71.3152 72.0147 71.4842C71.8191 71.5715 71.6235 71.6589 71.4219 71.7489C70.3771 72.2223 69.3431 72.718 68.3091 73.2143C68.1167 73.3064 67.9243 73.3986 67.7261 73.4935C66.6242 74.0224 65.5272 74.5601 64.4336 75.1061C64.5233 75.4007 64.6131 75.6954 64.7055 75.999C64.9644 75.8709 65.2233 75.7428 65.49 75.6108C67.7138 74.5139 69.9477 73.4425 72.196 72.3966C73.6012 71.7424 75.0008 71.0773 76.3976 70.4053C78.0711 69.6012 79.7532 68.8177 81.4418 68.0458C81.6616 67.9451 81.8813 67.8444 82.1078 67.7407C83.1531 67.2623 84.1992 66.7857 85.2466 66.3121C85.6115 66.1453 85.9764 65.9785 86.3412 65.8116C86.5083 65.7369 86.6754 65.6622 86.8476 65.5852C87.757 65.1892 87.757 65.1892 88.3338 64.412C87.8114 64.2278 87.5332 64.1669 86.9982 64.3373C86.8364 64.418 86.6746 64.4987 86.5079 64.5819C86.2308 64.7174 86.2308 64.7174 85.9482 64.8557C85.7506 64.9555 85.553 65.0554 85.3494 65.1583C84.9299 65.3652 84.5103 65.5719 84.0907 65.7786C83.766 65.94 83.766 65.94 83.4347 66.1046C82.7717 66.4308 82.1052 66.7486 81.4367 67.0633C81.2237 67.1637 81.0107 67.2641 80.7913 67.3676C80.3804 67.561 79.9692 67.754 79.5578 67.9465C79.3719 68.0347 79.186 68.1229 78.9946 68.2137C78.7489 68.3293 78.7489 68.3293 78.4982 68.4472C78.0402 68.6731 78.0402 68.6731 77.5807 69.1506C77.3885 69.0481 77.1963 68.9456 76.9982 68.8401C77.6383 68.2587 78.2444 67.8787 79.0318 67.5245C79.2504 67.4253 79.4691 67.3261 79.6944 67.2238C79.9256 67.1207 80.1567 67.0175 80.3949 66.9112C80.6311 66.8043 80.8674 66.6974 81.1107 66.5872C81.801 66.2751 82.4921 65.9648 83.1835 65.6553C83.6806 65.4326 84.1778 65.2099 84.6746 64.9865C85.0591 64.8139 85.4443 64.6426 85.8295 64.4715C86.4359 64.1828 87.0014 63.8626 87.5701 63.5062C87.4206 63.0152 87.271 62.5241 87.1169 62.0181ZM62.5957 73.877C61.5726 74.6045 61.5726 74.6045 61.0844 75.6891C61.1092 75.8258 61.1341 75.9624 61.1597 76.1032C61.9955 76.216 62.7774 76.2276 63.6185 76.1674C63.7327 75.2746 63.4992 74.8097 62.984 74.084C62.8559 74.0157 62.7277 73.9474 62.5957 73.877Z" fill="#1A1A1A"/>
<path d="M63.0438 49.1852C62.3154 51.5143 61.4106 53.8103 59.8227 55.6952C58.3143 55.3664 56.8062 55.0366 55.2982 54.706C54.7872 54.5942 54.2762 54.4825 53.7651 54.3711C51.2164 53.8154 48.6698 53.2542 46.1374 52.6274C45.955 52.5826 45.7726 52.5378 45.5846 52.4916C44.9069 52.3209 44.3035 52.1591 43.6843 51.829C44.1474 50.9488 44.6117 50.0693 45.0772 49.1904C45.2354 48.8912 45.3933 48.5919 45.5509 48.2923C45.7771 47.8622 46.0047 47.4327 46.2324 47.0034C46.3028 46.8689 46.3732 46.7345 46.4457 46.596C46.9504 45.649 46.9504 45.649 47.3972 45.3318C47.9065 45.4071 48.4122 45.5071 48.9152 45.6171C49.0706 45.6506 49.2259 45.6841 49.3859 45.7187C49.8982 45.8298 50.4097 45.9435 50.9213 46.0574C51.2745 46.135 51.6277 46.2124 51.9809 46.2898C52.8866 46.4889 53.7917 46.6908 54.6966 46.8938C55.2077 47.0083 55.7188 47.1221 56.2301 47.2358C57.0002 47.4072 57.7697 47.5809 58.5389 47.7565C58.9617 47.8529 59.3849 47.948 59.8081 48.043C60.0646 48.1025 60.3211 48.162 60.5853 48.2233C60.9195 48.2999 60.9195 48.2999 61.2603 48.378C61.9114 48.574 62.4559 48.8463 63.0438 49.1852ZM59.987 48.9151C59.7262 48.8552 59.4654 48.7952 59.1967 48.7334C58.9155 48.6699 58.6342 48.6065 58.3445 48.5411C58.0528 48.4746 57.7612 48.408 57.4696 48.3412C56.8592 48.2018 56.2487 48.0632 55.6381 47.9251C54.8548 47.748 54.0719 47.5695 53.289 47.3905C52.6872 47.253 52.0853 47.116 51.4834 46.9791C51.0541 46.8815 50.6248 46.7836 50.1955 46.6857C49.8056 46.5976 49.8056 46.5976 49.4078 46.5078C49.1784 46.4558 48.9489 46.4038 48.7125 46.3502C48.1743 46.2236 48.1743 46.2236 47.6691 46.2247C46.7811 47.8904 45.8932 49.5561 44.9783 51.2723C46.0386 51.6779 46.9075 51.9997 47.9861 52.2358C48.2397 52.292 48.4933 52.3481 48.7546 52.406C49.0234 52.4641 49.2922 52.5222 49.5691 52.5821C49.8484 52.6434 50.1277 52.7047 50.4155 52.7678C51.0031 52.8967 51.5909 53.0247 52.1788 53.1521C52.9335 53.3155 53.6878 53.4809 54.4419 53.6467C55.1621 53.805 55.8825 53.962 56.6029 54.1191C56.8745 54.1786 57.146 54.2382 57.4258 54.2996C57.6751 54.3535 57.9244 54.4073 58.1813 54.4628C58.4017 54.5107 58.622 54.5586 58.849 54.608C59.3255 54.733 59.3255 54.733 59.6543 54.6082C59.9532 54.0949 60.2364 53.581 60.5129 53.0559C60.5902 52.9128 60.6675 52.7697 60.747 52.6222C61.2609 51.6541 61.6739 50.6817 62.0474 49.6513C61.3234 49.2653 60.7787 49.0955 59.987 48.9151Z" fill="#38A1FF"/>
<path d="M47.0067 33.9048C46.7595 34.2477 46.7595 34.2477 46.3986 34.5779C45.9782 34.5856 45.9782 34.5856 45.4896 34.4772C45.3064 34.4386 45.1232 34.3999 44.9344 34.3601C44.7372 34.3145 44.54 34.2689 44.3368 34.2219C44.1342 34.1782 43.9315 34.1346 43.7227 34.0896C43.0738 33.9492 42.4261 33.8035 41.7784 33.6576C41.1294 33.5147 40.4802 33.3729 39.8308 33.2317C39.4263 33.1434 39.0221 33.0539 38.6181 32.9631C38.4359 32.9227 38.2536 32.8822 38.0659 32.8405C37.9049 32.8042 37.7439 32.768 37.5781 32.7307C37.2076 32.6367 37.2076 32.6367 36.8994 32.7551C36.5594 33.3496 36.2361 33.9472 35.9182 34.5537C35.8113 34.7561 35.7043 34.9585 35.5941 35.167C35.1997 35.9153 34.8074 36.6647 34.4156 37.4144C34.3375 37.5639 34.2593 37.7134 34.1788 37.8674C32.9632 40.1928 31.7529 42.5208 30.5447 44.85C30.0449 45.8132 29.5442 46.776 29.0433 47.7386C28.6515 48.4919 28.2605 49.2456 27.8696 49.9993C27.6854 50.3543 27.5009 50.7091 27.3162 51.0638C26.1925 53.2215 25.1274 55.3918 24.1443 57.6176C24.9607 57.6845 25.777 57.7508 26.5935 57.8169C26.8399 57.8371 27.0863 57.8573 27.3402 57.8782C28.5789 57.9782 29.8168 58.0697 31.0579 58.1361C31.2764 58.1483 31.495 58.1605 31.7201 58.173C32.1354 58.1954 32.5508 58.2156 32.9662 58.2332C33.1533 58.2435 33.3404 58.2539 33.5331 58.2645C33.6963 58.2721 33.8594 58.2796 34.0275 58.2874C34.5483 58.3981 34.7719 58.6039 35.1316 58.9872C34.8818 59.3231 34.8818 59.3231 34.5235 59.6602C33.846 59.6674 33.2271 59.6349 32.5568 59.5643C32.3619 59.5463 32.1668 59.5283 31.9659 59.5097C31.5523 59.4708 31.1389 59.4301 30.7256 59.3877C30.0986 59.3238 29.4712 59.2655 28.8435 59.2081C28.4409 59.1695 28.0384 59.1306 27.6359 59.0913C27.4503 59.0739 27.2647 59.0565 27.0735 59.0386C24.6067 58.7808 24.6067 58.7808 23.5362 58.2906C23.1608 57.5919 23.1608 57.5919 23.2924 57.147C23.3763 56.9789 23.4603 56.8108 23.5468 56.6376C23.6412 56.4454 23.7355 56.2531 23.8327 56.0551C23.939 55.8462 24.0453 55.6374 24.1547 55.4222C24.2637 55.2026 24.3727 54.9831 24.485 54.7569C24.8382 54.0479 25.1957 53.3413 25.5539 52.6349C25.7832 52.1792 26.0125 51.7234 26.2417 51.2677C26.962 49.8405 27.69 48.4174 28.4201 46.9953C28.5493 46.7434 28.6786 46.4915 28.8117 46.232C29.728 44.4475 30.6478 42.6649 31.5692 40.8832C31.6894 40.6505 31.8096 40.4179 31.9334 40.1782C32.5906 38.9065 33.2511 37.6368 33.9175 36.3699C34.1168 35.9903 34.315 35.6103 34.5123 35.2297C34.7827 34.7087 35.0567 34.1898 35.3319 33.6714C35.4101 33.519 35.4882 33.3667 35.5687 33.2097C36.1049 32.214 36.1049 32.214 36.6592 31.9081C38.6475 31.765 40.7688 32.4329 42.7154 32.8271C43.1754 32.92 43.6358 33.0112 44.0962 33.1022C44.3906 33.1613 44.6849 33.2205 44.9793 33.2798C45.3749 33.3592 45.3749 33.3592 45.7785 33.4402C46.4243 33.5944 46.4243 33.5944 47.0067 33.9048Z" fill="#191919"/>
<path d="M80.9394 38.5311C81.0344 39.4954 80.7275 40.0692 80.3196 40.9131C80.2446 41.0714 80.1695 41.2297 80.0921 41.3929C79.2742 43.1019 78.4032 44.7837 77.5244 46.462C77.2283 47.0275 76.9333 47.5936 76.6384 48.1598C76.0119 49.3627 75.3841 50.5649 74.7561 51.7671C74.0279 53.1612 73.3002 54.5556 72.5737 55.9507C72.2873 56.5001 72 57.049 71.7126 57.5978C71.1764 58.6245 70.6488 59.6554 70.1249 60.6885C70.0292 60.8757 69.9334 61.0628 69.8348 61.2557C69.5464 61.8229 69.2635 62.3925 68.9819 62.9631C68.8933 63.1362 68.8046 63.3093 68.7133 63.4877C68.3383 64.2608 68.1267 64.6987 68.2241 65.5678C68.468 66.1328 68.7487 66.5196 69.1548 66.9805C69.3302 67.217 69.3302 67.217 69.5093 67.4582C69.7956 67.8399 70.1016 68.2066 70.4112 68.5696C70.2447 68.7277 70.0781 68.8857 69.9066 69.0485C68.9483 68.3889 68.5237 67.4689 68.0246 66.4545C67.6649 65.7855 67.4637 65.4765 66.7277 65.2436C66.3535 65.2249 66.3535 65.2249 65.9717 65.2058C65.6477 65.1771 65.3237 65.1478 64.9998 65.1181C64.6568 65.0924 64.3137 65.0672 63.9706 65.0428C63.7941 65.0297 63.6176 65.0166 63.4357 65.0031C63.0042 64.9711 62.5726 64.9399 62.141 64.9089C62.1495 64.5843 62.158 64.2597 62.1667 63.9253C62.6156 63.9289 63.0645 63.935 63.5134 63.9421C63.7634 63.9452 64.0134 63.9483 64.2709 63.9515C65.2569 64.0108 66.2056 64.1687 67.1751 64.3514C67.2563 64.1872 67.3376 64.023 67.4214 63.8539C67.8528 62.9847 68.286 62.1164 68.7201 61.2485C68.8048 61.0792 68.8894 60.9099 68.9766 60.7355C70.4562 57.7824 71.9696 54.8473 73.4916 51.9159C73.5869 51.7323 73.6822 51.5487 73.7804 51.3595C74.757 49.4778 75.7346 47.5966 76.7148 45.7167C77.089 44.9988 77.4623 44.2805 77.8356 43.5621C78.0123 43.2223 78.1894 42.8827 78.3669 42.5433C78.6118 42.0748 78.8556 41.6056 79.0992 41.1364C79.1717 40.9983 79.2443 40.8603 79.319 40.7181C79.6239 40.128 79.831 39.6576 79.943 38.9971C78.6078 38.4169 77.265 38.1277 75.8383 37.8461C75.1545 37.691 75.1545 37.691 74.5721 37.3806C74.7728 37.1584 74.9735 36.9363 75.1802 36.7075C75.8133 36.8335 76.4452 36.9633 77.077 37.0954C77.3421 37.1475 77.3421 37.1475 77.6125 37.2006C78.7789 37.4484 80.0048 37.7515 80.9394 38.5311Z" fill="#191919"/>
<path d="M73.0392 73.4609C73.7435 74.1594 74.2656 74.8511 74.7655 75.7066C74.9095 75.9512 75.0534 76.1958 75.2017 76.4478C75.3562 76.7135 75.5108 76.9791 75.6653 77.2449C75.8275 77.5214 75.9898 77.7979 76.1522 78.0743C76.4902 78.6497 76.8276 79.2255 77.1647 79.8015C77.655 80.6381 78.1499 81.4719 78.6465 82.3049C80.0437 84.6492 81.437 86.9954 82.7918 89.3645C82.8929 89.5406 82.994 89.7167 83.0981 89.8981C83.1888 90.0579 83.2796 90.2177 83.3731 90.3823C83.4903 90.5884 83.4903 90.5884 83.6099 90.7987C83.7968 91.1623 83.7968 91.1623 83.978 91.7576C83.6355 92.3241 83.4238 92.5828 82.7764 92.7555C82.5898 92.7658 82.4033 92.7761 82.2111 92.7867C82.0011 92.8001 81.7911 92.8135 81.5747 92.8273C81.3514 92.8375 81.1282 92.8477 80.8983 92.8582C80.6732 92.8725 80.4481 92.8869 80.2162 92.9016C79.5197 92.9436 78.8236 92.9736 78.1265 93.0011C77.8882 93.0142 77.65 93.0273 77.4046 93.0408C77.0634 93.0537 77.0634 93.0537 76.7153 93.0669C76.5105 93.0761 76.3058 93.0854 76.0948 93.0949C75.5795 93.0145 75.5795 93.0145 75.2229 92.6409C75.0099 92.2123 75.0099 92.2123 75.0227 91.7205C75.2064 91.7179 75.3901 91.7153 75.5793 91.7126C76.266 91.7023 76.9527 91.691 77.6393 91.6789C78.0806 91.6715 78.5218 91.6653 78.9631 91.6591C79.3829 91.6515 79.3829 91.6515 79.8112 91.6437C80.068 91.6396 80.3248 91.6355 80.5893 91.6313C81.3165 91.5903 81.9978 91.481 82.7097 91.3308C81.5567 89.4053 80.398 87.4833 79.2314 85.5661C78.3126 84.0559 77.3972 82.5437 76.483 81.0308C76.3922 80.8805 76.3013 80.7302 76.2078 80.5753C75.6847 79.7092 75.1634 78.842 74.6443 77.9735C74.4842 77.7059 74.3236 77.4386 74.1625 77.1715C73.9394 76.8013 73.7181 76.43 73.4968 76.0587C73.3717 75.8498 73.2467 75.6409 73.1178 75.4257C72.8097 74.8388 72.6142 74.2814 72.4439 73.6422C72.6403 73.5824 72.8368 73.5225 73.0392 73.4609Z" fill="#1A1A1A"/>
<path d="M70.7778 24.3884C70.9744 25.3349 70.8003 26.1894 70.4127 27.0608C70.3113 27.2124 70.21 27.3641 70.1055 27.5203C68.8589 27.4364 67.6641 27.253 66.44 27.0066C66.1576 26.9506 66.1576 26.9506 65.8694 26.8933C65.4717 26.814 65.074 26.7342 64.6764 26.6539C64.0821 26.5343 63.4873 26.4171 62.8925 26.3002C60.3997 25.8034 57.9583 25.2001 55.5202 24.482C55.5597 23.9512 55.5992 23.4204 55.6387 22.8896C55.6843 22.329 55.6843 22.329 55.6548 21.7997C55.7007 21.3372 55.7007 21.3372 55.9375 20.9628C56.3088 20.6642 56.3088 20.6642 56.8155 20.6736C57.0187 20.7178 57.2218 20.7621 57.4312 20.8077C57.6646 20.8567 57.8981 20.9058 58.1386 20.9564C58.5209 21.0433 58.5209 21.0433 58.9109 21.132C59.1745 21.1893 59.438 21.2465 59.7096 21.3056C60.441 21.4662 61.1713 21.6307 61.9014 21.7972C62.3968 21.9095 62.8926 22.0197 63.3886 22.1295C64.248 22.3199 65.1067 22.5133 65.9649 22.7092C66.3004 22.7856 66.6361 22.8614 66.972 22.9365C67.4458 23.043 67.9188 23.1528 68.3917 23.2634C68.664 23.326 68.9364 23.3886 69.217 23.4531C69.9013 23.6738 70.2831 23.8736 70.7778 24.3884ZM68.1942 24.0715C67.9715 24.0211 67.7487 23.9706 67.5192 23.9186C67.2793 23.8655 67.0393 23.8123 66.7921 23.7576C66.5445 23.7019 66.297 23.6462 66.0419 23.5888C65.5181 23.4712 64.9941 23.3542 64.4701 23.2376C63.6697 23.0596 62.8697 22.8799 62.0698 22.7C61.5606 22.5859 61.0513 22.4719 60.5421 22.3579C60.3033 22.3044 60.0646 22.2509 59.8186 22.1958C58.7425 21.9568 57.6708 21.7252 56.5808 21.5571C56.4955 22.3343 56.4103 23.1116 56.3224 23.9124C57.8223 24.346 59.3284 24.6999 60.8549 25.0265C61.0947 25.0782 61.3345 25.1299 61.5816 25.1831C62.0847 25.2913 62.5878 25.3993 63.091 25.5069C63.8646 25.6725 64.6378 25.8396 65.411 26.0067C65.9007 26.1119 66.3904 26.2169 66.8801 26.3219C67.1122 26.3721 67.3443 26.4224 67.5834 26.4741C67.7965 26.5195 68.0097 26.5649 68.2293 26.6116C68.4174 26.652 68.6056 26.6923 68.7995 26.7339C69.2184 26.839 69.2184 26.839 69.5359 26.7181C69.9303 25.7688 69.9303 25.7688 70.0791 24.7638C69.4003 24.402 68.9298 24.2363 68.1942 24.0715Z" fill="#38A1FF"/>
<path d="M44.8847 36.0146C44.4407 36.8474 43.9967 37.6803 43.5393 38.5384C42.6867 38.4003 41.8343 38.2613 40.9822 38.1202C40.5513 38.0492 40.1202 37.9796 39.6891 37.9101C39.4153 37.8646 39.1414 37.8191 38.8593 37.7721C38.4829 37.7105 38.4829 37.7105 38.0989 37.6476C37.3335 37.4844 36.6324 37.2439 35.9037 36.961C35.9207 36.3108 36.1749 35.9394 36.4865 35.3708C36.5921 35.177 36.6976 34.9832 36.8064 34.7836C36.8884 34.6351 36.9704 34.4867 37.0549 34.3337C38.7665 34.5085 40.4487 34.7534 42.1345 35.0938C42.2964 35.1256 42.4583 35.1574 42.6251 35.1901C43.4913 35.3707 44.0899 35.5909 44.8847 36.0146Z" fill="#191919"/>
<path d="M77.3422 40.6023C77.4212 41.4313 77.1786 41.9837 76.8151 42.72C76.6972 42.9595 76.5792 43.199 76.4576 43.4458C76.321 43.7171 76.1842 43.9882 76.0471 44.2593C75.9423 44.4684 75.9423 44.4684 75.8354 44.6816C74.1519 48.034 72.4008 51.353 70.6484 54.6698C70.3217 55.2881 69.9963 55.9071 69.6719 56.5267C69.2834 57.2683 68.892 58.0083 68.4983 58.7471C68.3512 59.0243 68.205 59.302 68.06 59.5803C67.8594 59.9645 67.6548 60.3466 67.45 60.7286C67.3355 60.9452 67.2209 61.1618 67.1029 61.3849C66.7475 61.8797 66.7475 61.8797 66.2976 62.0876C65.6896 62.1755 65.1212 62.1465 64.5087 62.1042C64.2773 62.0898 64.0459 62.0754 63.8075 62.0605C63.2017 61.9839 63.2017 61.9839 62.6192 61.6735C62.7559 61.4172 62.8925 61.1609 63.0332 60.8969C63.4997 60.9368 63.9661 60.9779 64.4325 61.0196C64.8221 61.0537 64.8221 61.0537 65.2196 61.0886C65.8803 61.1681 65.8803 61.1681 66.2686 61.3751C66.3183 61.249 66.3681 61.1228 66.4194 60.9929C66.9044 59.7852 67.4445 58.6293 68.0528 57.4794C68.143 57.307 68.2332 57.1347 68.3261 56.9571C68.52 56.5869 68.7142 56.217 68.9088 55.8472C69.2166 55.2621 69.5231 54.6763 69.8292 54.0903C70.699 52.4257 71.5707 50.7622 72.4443 49.0996C72.9802 48.0795 73.5142 47.0584 74.047 46.0367C74.2502 45.6481 74.4541 45.2599 74.6587 44.8721C74.9437 44.3318 75.2263 43.7904 75.5084 43.2486C75.6362 43.0084 75.6362 43.0084 75.7666 42.7634C76.1566 42.0085 76.3404 41.6359 76.2551 40.7708C75.9807 40.7068 75.7063 40.6428 75.4236 40.5768C74.7593 40.4219 74.3395 40.2482 73.7185 39.9172C73.821 39.725 73.9234 39.5328 74.029 39.3347C76.5713 39.7275 76.5713 39.7275 77.3422 40.6023Z" fill="#191919"/>
<path d="M34.5635 65.6649C34.3638 66.0103 34.3638 66.0103 33.9554 66.338C33.0827 66.309 33.0827 66.309 32.286 66.196C32.918 68.5391 32.918 68.5391 34.3672 70.3701C34.8021 70.5371 34.8021 70.5371 35.4186 70.6083C35.4122 70.8517 35.4122 70.8517 35.4057 71.1C34.3971 71.0931 33.3885 71.0849 32.3799 71.0764C32.0941 71.0744 31.8083 71.0725 31.5139 71.0705C31.1001 71.0668 31.1001 71.0668 30.6779 71.0631C30.4244 71.0611 30.1709 71.0591 29.9096 71.0571C27.9369 70.9995 27.9369 70.9995 27.162 70.1958C26.8307 69.6933 26.8307 69.6933 26.5223 69.1214C26.4106 68.9165 26.2989 68.7115 26.1839 68.5004C26.0701 68.2872 25.9563 68.0741 25.8391 67.8545C25.722 67.6386 25.6049 67.4227 25.4843 67.2003C25.1961 66.6685 24.9096 66.1358 24.6247 65.6022C24.8241 65.266 24.8241 65.266 25.2328 64.9291C25.8122 64.8892 26.3311 64.889 26.9068 64.9236C27.1534 64.9344 27.1534 64.9344 27.405 64.9455C27.931 64.9694 28.4567 64.9982 28.9825 65.027C29.3345 65.0436 29.6864 65.0598 30.0385 65.0758C33.789 65.2521 33.789 65.2521 34.5635 65.6649ZM29.8143 65.8434C29.5986 65.8305 29.383 65.8176 29.1608 65.8043C28.9352 65.7931 28.7096 65.7819 28.4771 65.7705C28.2497 65.7573 28.0222 65.7442 27.7879 65.7307C27.2253 65.6986 26.6627 65.6687 26.1 65.6407C25.728 66.1816 25.728 66.1816 25.8972 66.6528C26.4621 67.9515 27.058 69.2813 28.1456 70.2215C29.6138 70.7615 31.235 70.6121 32.7656 70.4406C32.8344 69.4433 32.5584 68.8363 32.1237 67.9325C32.0609 67.7986 31.9981 67.6647 31.9334 67.5268C31.3847 66.3804 31.1026 65.9138 29.8143 65.8434Z" fill="#1A1A1A"/>
<path d="M40.105 79.5885C39.609 79.7396 39.1129 79.8906 38.6169 80.0417C38.8658 80.6007 39.1204 81.1557 39.3791 81.7102C39.4836 81.9473 39.4836 81.9473 39.5902 82.1893C39.9658 82.9818 40.1434 83.354 40.9492 83.7557C41.5755 83.8841 41.5755 83.8841 42.246 83.815C42.8494 83.7938 42.8494 83.7938 43.266 84.0938C43.3506 84.1955 43.4352 84.2972 43.5224 84.4019C43.4541 84.5301 43.3858 84.6582 43.3154 84.7902C43.1544 84.7885 42.9934 84.7867 42.8275 84.7849C42.0861 84.7771 41.3448 84.7697 40.6035 84.7624C40.3502 84.7597 40.097 84.7569 39.8361 84.7541C39.5859 84.7517 39.3357 84.7493 39.078 84.7468C38.83 84.7436 38.582 84.7404 38.3266 84.7371C37.8673 84.7387 37.4078 84.7526 36.9495 84.7824C35.4871 84.876 35.4871 84.876 34.7978 84.4089C34.2191 83.5109 33.6929 82.5968 33.1924 81.6531C33.0883 81.4635 32.9842 81.2738 32.877 81.0784C32.7793 80.896 32.6816 80.7136 32.581 80.5257C32.4921 80.3601 32.4032 80.1945 32.3116 80.0238C32.1332 79.5771 32.1332 79.5771 32.2496 78.8912C35.567 78.8337 35.567 78.8337 36.1701 78.8248C36.5839 78.8166 36.9976 78.8038 37.4111 78.7871C37.6119 78.7798 37.8128 78.7725 38.0197 78.7651C38.2004 78.7571 38.3811 78.7492 38.5672 78.741C39.2637 78.7884 39.6349 79.0931 40.105 79.5885ZM36.4463 79.6248C36.2648 79.6292 36.0833 79.6337 35.8962 79.6383C35.6098 79.6461 35.6098 79.6461 35.3176 79.6541C35.1259 79.659 34.9342 79.6638 34.7367 79.6688C34.2614 79.6808 33.7862 79.6935 33.3109 79.7063C33.7278 81.2162 34.3153 82.9643 35.46 84.0929C36.8862 84.5554 38.2097 84.2749 39.6011 83.8074C39.263 83.1276 38.9237 82.4484 38.584 81.7694C38.4875 81.5752 38.3909 81.381 38.2915 81.181C38.1992 80.9968 38.107 80.8127 38.0119 80.623C37.9267 80.4522 37.8415 80.2814 37.7537 80.1055C37.4097 79.4744 37.1372 79.6068 36.4463 79.6248Z" fill="#1A1A1A"/>
<path d="M56.434 64.8582C56.2052 65.1985 56.2052 65.1985 55.8259 65.5313C55.2856 65.5568 55.2856 65.5568 54.6214 65.4725C54.2432 65.427 54.2432 65.427 53.8574 65.3804C53.5816 65.3431 53.3058 65.3058 53.0216 65.2674C52.5933 65.2135 52.5933 65.2135 52.1563 65.1586C51.1871 65.0355 50.2193 64.9032 49.2516 64.7691C48.9817 64.7317 48.9817 64.7317 48.7064 64.6936C46.6842 64.4125 44.6631 64.1233 42.6433 63.826C42.4889 63.8033 42.3345 63.7807 42.1754 63.7573C41.7559 63.6951 41.3366 63.6312 40.9173 63.5672C40.6713 63.532 40.4254 63.4968 40.172 63.4605C39.5455 63.3345 39.5455 63.3345 38.7689 62.9205C38.8714 62.7283 38.9738 62.5362 39.0794 62.3381C42.7606 62.6076 46.4107 63.0354 50.0686 63.5258C50.7879 63.6209 51.5075 63.7111 52.2277 63.7992C52.6227 63.849 53.0178 63.8989 53.4129 63.9489C53.6747 63.9795 53.6747 63.9795 53.9419 64.0107C54.8937 64.1351 55.6188 64.3471 56.434 64.8582Z" fill="#38A1FF"/>
<path d="M57.7294 71.7815C57.5928 72.0378 57.4562 72.2941 57.3155 72.5581C55.6251 72.5047 53.9347 72.45 52.2443 72.3944C51.6716 72.3757 51.0987 72.3573 50.5259 72.3392C47.6937 72.2497 44.8632 72.1543 42.0353 71.9706C41.8341 71.9579 41.633 71.9451 41.4258 71.932C40.0617 71.8369 40.0617 71.8369 39.6247 71.6039C39.7613 71.3477 39.8979 71.0914 40.0387 70.8274C42.3758 70.7944 44.7014 70.8517 47.036 70.9639C48.4898 71.0335 49.9434 71.0919 51.3981 71.1391C51.9173 71.1566 52.4364 71.1743 52.9556 71.192C53.2966 71.2032 53.6377 71.2138 53.9789 71.2237C54.4586 71.2377 54.9383 71.2541 55.418 71.271C55.6954 71.2797 55.9729 71.2883 56.2587 71.2973C56.9529 71.3676 56.9529 71.3676 57.7294 71.7815Z" fill="#38A2FF"/>
<path d="M56.8757 74.3181C57.0338 74.4846 57.1918 74.6511 57.3547 74.8227C57.2522 75.0149 57.1498 75.2071 57.0442 75.4051C54.4104 75.4835 51.7833 75.5021 49.1487 75.458C48.5867 75.4488 48.0245 75.441 47.4624 75.4334C42.7198 75.364 42.7198 75.364 41.6959 75.2011C41.6019 75.0687 41.508 74.9363 41.4111 74.8C42.0303 74.2123 42.2231 74.2564 43.0566 74.2416C43.2977 74.2367 43.5387 74.2317 43.7871 74.2266C44.0514 74.224 44.3157 74.2213 44.5881 74.2186C44.8611 74.2143 45.1342 74.2101 45.4155 74.2057C49.2345 74.1594 53.0579 74.2184 56.8757 74.3181Z" fill="#38A2FF"/>
<path d="M67.1577 42.4032C66.957 42.6253 66.7564 42.8474 66.5496 43.0762C56.8508 40.8331 56.8508 40.8331 52.8976 39.8655C52.5216 39.7754 52.5216 39.7754 52.1379 39.6835C51.7997 39.5996 51.7997 39.5996 51.4547 39.514C51.1666 39.4435 51.1666 39.4435 50.8727 39.3716C50.4112 39.21 50.4112 39.21 49.9323 38.7054C50.0006 38.5772 50.0689 38.4491 50.1393 38.3171C53.3658 38.875 56.5499 39.5782 59.7357 40.3329C60.5366 40.5223 61.338 40.7091 62.1396 40.8957C62.6518 41.0164 63.1639 41.1371 63.676 41.2581C63.9142 41.3134 64.1525 41.3687 64.3979 41.4257C64.6189 41.4785 64.84 41.5313 65.0677 41.5857C65.2611 41.6313 65.4544 41.6768 65.6537 41.7238C66.2027 41.8905 66.6619 42.1167 67.1577 42.4032Z" fill="#38A2FF"/>
<path d="M56.0449 60.9113C55.9083 61.1675 55.7717 61.4238 55.631 61.6878C46.6671 60.1303 46.6671 60.1303 43.3194 59.4409C43.1064 59.3979 42.8935 59.355 42.674 59.3107C42.4808 59.2698 42.2876 59.229 42.0885 59.1869C41.926 59.1528 41.7635 59.1187 41.5961 59.0835C41.0746 58.9289 40.6367 58.6993 40.1656 58.4297C40.2681 58.2375 40.3705 58.0453 40.4761 57.8473C44.474 58.5116 48.4709 59.1809 52.4536 59.9317C52.7276 59.9825 53.0017 60.0334 53.2841 60.0858C53.5357 60.1339 53.7874 60.182 54.0466 60.2317C54.265 60.2731 54.4835 60.3146 54.7085 60.3574C55.2684 60.4973 55.2684 60.4973 56.0449 60.9113Z" fill="#38A1FF"/>
<path d="M71.8149 33.6669C71.3102 34.1458 71.3102 34.1458 70.8884 34.1367C70.7195 34.104 70.5506 34.0714 70.3766 34.0377C70.1834 34.0015 69.9902 33.9653 69.7912 33.928C69.5801 33.8853 69.3689 33.8425 69.1514 33.7984C68.8198 33.7342 68.8198 33.7342 68.4816 33.6687C66.0262 33.1856 63.5825 32.6464 61.142 32.0934C60.3753 31.92 59.6081 31.7492 58.8408 31.5786C58.3494 31.468 57.8581 31.3571 57.3668 31.2462C57.1392 31.1957 56.9116 31.1453 56.6772 31.0933C56.4661 31.045 56.2551 30.9968 56.0377 30.9471C55.8533 30.9055 55.6688 30.8639 55.4789 30.8211C54.9361 30.6593 54.4837 30.4328 53.9942 30.1504C54.1607 29.9924 54.3272 29.8343 54.4988 29.6715C55.1009 29.7223 55.1009 29.7223 55.8697 29.8803C56.0106 29.9086 56.1515 29.9368 56.2967 29.9659C56.7673 30.061 57.237 30.1602 57.7067 30.2597C58.0356 30.3275 58.3645 30.3951 58.6935 30.4625C59.586 30.6466 60.4776 30.8349 61.369 31.0243C61.9546 31.1484 62.5406 31.2712 63.1265 31.3938C64.1206 31.6019 65.1141 31.8125 66.1072 32.025C66.4926 32.1073 66.8781 32.1892 67.2638 32.2706C67.8071 32.3857 68.3499 32.5032 68.8926 32.6214C69.0535 32.6551 69.2144 32.6888 69.3802 32.7235C70.279 32.9223 71.0253 33.1925 71.8149 33.6669Z" fill="#38A2FF"/>
<path d="M36.1566 72.4976C36.0883 72.6257 36.02 72.7538 35.9496 72.8858C34.0022 72.835 32.0548 72.7841 30.0484 72.7317C29.9801 72.8598 29.9118 72.988 29.8414 73.12C30.0177 73.544 30.0177 73.544 30.2942 74.0099C30.3924 74.1844 30.4906 74.3589 30.5918 74.5386C30.6966 74.7211 30.8014 74.9036 30.9095 75.0917C31.0135 75.2757 31.1176 75.4597 31.2248 75.6493C31.4829 76.1053 31.7425 76.5604 32.0034 77.0148C32.3656 77.0137 32.3656 77.0137 32.7351 77.0124C33.5774 77.0102 34.4196 77.0111 35.262 77.0134C35.6821 77.014 36.1022 77.0125 36.5224 77.0106C36.7383 77.0119 36.9542 77.0133 37.1766 77.0146C37.3655 77.0147 37.5544 77.0149 37.7491 77.015C38.2022 77.0783 38.2022 77.0783 38.6811 77.5829C37.2913 78.0723 35.9696 77.982 34.5133 77.9477C34.2437 77.9463 33.974 77.9449 33.6961 77.9435C33.4377 77.9378 33.1793 77.9322 32.913 77.9263C32.6774 77.9223 32.4417 77.9183 32.1989 77.9141C31.5894 77.7914 31.5894 77.7914 31.1642 77.3984C30.8171 76.8726 30.4976 76.3456 30.1961 75.7924C30.0841 75.588 29.972 75.3837 29.8566 75.1732C29.742 74.9617 29.6274 74.7502 29.5093 74.5322C29.3917 74.3172 29.2741 74.1022 29.153 73.8807C28.8639 73.3517 28.5757 72.8221 28.2883 72.292C28.973 71.6423 29.3487 71.7554 30.2821 71.7617C30.4283 71.7626 30.5745 71.7635 30.7252 71.7645C31.0343 71.7672 31.3434 71.7711 31.6526 71.7762C32.1254 71.7833 32.5979 71.7846 33.0707 71.7855C33.3712 71.7888 33.6716 71.7925 33.972 71.7965C34.2456 71.7996 34.5191 71.8027 34.801 71.8058C35.4955 71.8909 35.7239 71.9644 36.1566 72.4976Z" fill="#1A1A1A"/>
<path d="M54.2734 68.4434C53.7688 68.9223 53.7688 68.9223 53.1351 68.9423C52.8687 68.9235 52.6022 68.9048 52.3277 68.8854C52.1079 68.8708 52.1079 68.8708 51.8836 68.856C51.3999 68.823 50.9166 68.7862 50.4332 68.7491C50.0985 68.725 49.7639 68.701 49.4292 68.6771C47.0999 68.5071 44.7729 68.3088 42.4475 68.0914C42.2997 68.0781 42.1518 68.0647 41.9995 68.0509C41.5816 68.0126 41.1639 67.9716 40.7463 67.9305C40.51 67.9077 40.2737 67.8848 40.0302 67.8613C39.4297 67.7604 39.4297 67.7604 38.6532 67.3464C38.7557 67.1542 38.8581 66.962 38.9637 66.764C42.3842 66.9323 45.8009 67.147 49.2147 67.4202C49.5898 67.4499 49.965 67.4786 50.3403 67.5064C50.8704 67.546 51.4001 67.5891 51.9298 67.6332C52.089 67.6445 52.2481 67.6557 52.4121 67.6673C53.2144 67.7384 53.7542 67.7915 54.2734 68.4434Z" fill="#38A2FF"/>
<path d="M55.2548 57.2491C55.1182 57.5054 54.9816 57.7616 54.8408 58.0256C53.4648 57.7452 52.0889 57.4641 50.7131 57.1826C50.2456 57.087 49.7781 56.9915 49.3105 56.8962C48.6363 56.7588 47.9622 56.6208 47.2881 56.4828C47.081 56.4407 46.8738 56.3985 46.6603 56.3551C43.2199 55.6489 43.2199 55.6489 42.0285 54.9352C42.1309 54.743 42.2334 54.5508 42.3389 54.3528C44.9217 54.7396 47.4775 55.2474 50.0315 55.7893C50.3871 55.8646 50.7428 55.9395 51.0986 56.0139C51.6065 56.1203 52.1139 56.2288 52.6212 56.338C52.7745 56.3698 52.9277 56.4017 53.0856 56.4346C53.8827 56.6089 54.5576 56.8211 55.2548 57.2491Z" fill="#38A2FF"/>
<path d="M73.8557 79.8795C74.3192 80.5419 74.7192 81.2301 75.1122 81.9361C75.2722 82.216 75.2722 82.216 75.4355 82.5015C75.6968 82.9589 75.9554 83.4177 76.2117 83.8779C75.3759 84.6712 74.3051 84.4445 73.1949 84.4511C72.9617 84.4563 72.7286 84.4615 72.4883 84.4669C72.1542 84.4705 72.1542 84.4705 71.8134 84.4743C71.5064 84.4778 71.5064 84.4778 71.1932 84.4814C70.686 84.4225 70.686 84.4225 70.207 83.9179C70.2754 83.7898 70.3437 83.6616 70.414 83.5296C71.0789 83.5088 71.7437 83.4894 72.4086 83.471C72.5979 83.4649 72.7872 83.4588 72.9823 83.4525C73.1632 83.4477 73.3441 83.4429 73.5305 83.438C73.6976 83.4331 73.8648 83.4282 74.0369 83.4231C74.4517 83.4382 74.4517 83.4382 74.8399 83.6452C74.9082 83.5171 74.9765 83.389 75.0469 83.2569C74.9142 83.1296 74.7816 83.0024 74.6449 82.8712C74.0542 82.2086 73.6366 81.5268 73.1995 80.7578C72.7475 80.2102 72.4856 80.1402 71.7851 80.0223C70.983 79.9973 70.1828 80.029 69.3813 80.0604C68.1265 80.0872 68.1265 80.0872 67.6557 79.716C67.5621 79.6166 67.4685 79.5173 67.372 79.4149C68.1804 78.6477 69.1177 78.8559 70.1915 78.8611C70.5102 78.8546 70.5102 78.8546 70.8354 78.848C72.1207 78.85 72.9265 78.9071 73.8557 79.8795Z" fill="#1A1A1A"/>
<path d="M68.4625 30.1347C68.2959 30.2928 68.1294 30.4508 67.9579 30.6136C67.5569 30.5984 67.5569 30.5984 67.0769 30.4917C66.8967 30.4531 66.7165 30.4144 66.5309 30.3746C66.3357 30.3298 66.1404 30.2849 65.9393 30.2388C65.7372 30.1946 65.5352 30.1505 65.327 30.105C64.6779 29.9626 64.0296 29.8163 63.3813 29.6698C62.9517 29.5749 62.5221 29.4803 62.0924 29.3859C61.0854 29.1641 60.0794 28.9385 59.0736 28.7114C58.631 28.6121 58.1879 28.5154 57.7447 28.4193C57.5286 28.3721 57.3126 28.325 57.09 28.2764C56.8292 28.2204 56.8292 28.2204 56.5631 28.1633C55.8908 27.9788 55.3475 27.6833 54.7572 27.3162C55.5609 26.8844 55.7208 26.9292 56.5824 27.1021C56.8124 27.1472 57.0423 27.1923 57.2793 27.2388C57.5282 27.2906 57.7772 27.3423 58.0338 27.3957C58.2904 27.4475 58.5471 27.4993 58.8115 27.5527C59.5062 27.6946 60.2001 27.8392 60.8938 27.986C61.3389 28.0801 61.7843 28.1732 62.2297 28.2663C62.9722 28.4221 63.714 28.581 64.4553 28.7423C64.8805 28.8345 65.3061 28.9251 65.7316 29.0157C65.991 29.0734 66.2503 29.131 66.5176 29.1905C66.7472 29.2407 66.9768 29.2909 67.2134 29.3427C67.7852 29.5253 68.0637 29.6956 68.4625 30.1347Z" fill="#38A2FF"/>
<path d="M63.6104 35.0274C63.4097 35.2495 63.209 35.4716 63.0023 35.7005C61.6815 35.4246 60.3612 35.1468 59.0413 34.8671C58.5924 34.7723 58.1433 34.678 57.6941 34.5842C57.048 34.4493 56.4023 34.3125 55.7567 34.1752C55.4559 34.113 55.4559 34.113 55.1491 34.0496C54.961 34.0093 54.773 33.9689 54.5793 33.9274C54.4145 33.8927 54.2498 33.858 54.08 33.8223C53.5523 33.6676 53.1119 33.439 52.6359 33.166C52.7383 32.9738 52.8408 32.7816 52.9464 32.5836C55.4152 32.9491 57.8388 33.4398 60.2657 34.0235C60.529 34.0865 60.7923 34.1496 61.0635 34.2145C62.9511 34.676 62.9511 34.676 63.6104 35.0274Z" fill="#38A1FF"/>
<path d="M57.1932 43.3239C56.9925 43.546 56.7919 43.7681 56.5851 43.997C55.5963 43.7554 54.6079 43.5125 53.6198 43.2683C53.2837 43.1855 52.9475 43.103 52.6113 43.0209C52.1275 42.9028 51.6441 42.7832 51.1607 42.6635C51.0107 42.6271 50.8607 42.5908 50.7061 42.5534C49.9885 42.3742 49.4273 42.1757 48.7682 41.8244C48.8707 41.6322 48.9731 41.44 49.0787 41.242C55.5725 42.4044 55.5725 42.4044 57.1932 43.3239Z" fill="#38A1FF"/>
<path d="M70.1535 74.6649C70.8959 75.2099 71.3401 75.7978 71.8322 76.5726C71.9649 76.78 72.0977 76.9873 72.2344 77.201C72.3337 77.359 72.433 77.517 72.5353 77.6798C71.6833 78.4884 70.5496 78.2177 69.4214 78.2013C69.1789 78.2015 68.9365 78.2018 68.6867 78.2021C68.3395 78.1987 68.3395 78.1987 67.9852 78.1953C67.6661 78.1923 67.6661 78.1923 67.3404 78.1893C66.8153 78.1209 66.8153 78.1209 66.3364 77.6163C66.4047 77.4881 66.473 77.36 66.5434 77.228C68.004 77.2662 69.4645 77.3043 70.9693 77.3436C70.5336 76.6177 70.0978 75.8918 69.6489 75.1439C69.8154 74.9858 69.9819 74.8278 70.1535 74.6649Z" fill="#1A1A1A"/>
<path d="M57.6579 36.8404C57.6195 37.0667 57.5811 37.2931 57.5416 37.5263C52.9737 36.6879 52.9737 36.6879 51.4847 35.7934C51.5872 35.6012 51.6897 35.409 51.7952 35.2109C52.5909 35.3832 53.3857 35.5586 54.1805 35.7346C54.4057 35.7833 54.6309 35.832 54.8629 35.8822C55.0805 35.9307 55.2981 35.9792 55.5223 36.0291C55.8221 36.095 55.8221 36.095 56.1279 36.1621C56.6919 36.3243 57.1522 36.5457 57.6579 36.8404Z" fill="#38A2FF"/>
<path d="M65.9075 67.6646C66.1904 68.0546 66.4607 68.454 66.7189 68.8607C66.8517 69.0681 66.9844 69.2754 67.1212 69.4891C67.2205 69.6471 67.3197 69.8051 67.422 69.9679C67.2555 70.1259 67.089 70.284 66.9174 70.4468C66.404 69.9354 65.9897 69.4945 65.6489 68.8512C65.1733 68.1525 64.8548 68.0855 64.031 67.9109C63.3112 67.836 62.5927 67.7879 61.8698 67.756C61.8783 67.4314 61.8868 67.1069 61.8955 66.7725C62.4017 66.7836 62.9077 66.7999 63.4137 66.8183C63.6955 66.8268 63.9773 66.8353 64.2677 66.844C65.0974 66.9611 65.3551 67.0553 65.9075 67.6646Z" fill="#1A1A1A"/>
<path d="M62.0511 68.3512C63.1242 69.8342 63.1242 69.8342 63.5366 70.5922C63.811 71.0939 63.811 71.0939 64.3318 71.2342C64.5292 71.2546 64.5292 71.2546 64.7305 71.2754C64.2077 71.7429 64.007 71.8485 63.2893 71.816C63.1116 71.7829 62.9338 71.7498 62.7506 71.7158C62.5996 71.2197 62.4485 70.7237 62.2974 70.2276C62.209 69.9594 62.1206 69.6912 62.0295 69.4148C61.8442 68.7395 61.8442 68.7395 62.0511 68.3512Z" fill="#1A1A1A"/>
</g>
<defs>
<clipPath id="clip0_429_228">
<rect width="88" height="88" fill="white" transform="translate(41.3965) rotate(28.0612)"/>
</clipPath>
</defs>
</svg>
