<svg width="49" height="49" viewBox="0 0 49 49" fill="none" xmlns="http://www.w3.org/2000/svg">
<path d="M26.705 9.80005L27.8075 9.92255L37.3625 12.8625L37.73 13.23L37.6075 14.3325L36.505 18.2525L37.1175 17.7625L37.975 16.7825L39.2 15.435L39.69 15.3125L40.425 15.8025L42.2625 17.5175L43.2425 18.375L44.4675 19.4775L45.815 20.58L47.53 22.1725L48.1425 22.785L48.02 23.3975L46.4275 25.235L45.325 26.5825L44.2225 27.8075L43.365 28.7875L41.65 30.625L38.5875 33.6875H37.8525L36.26 32.34L35.77 31.9725L35.28 35.035L34.79 38.0975L34.3 38.8325L33.6875 39.2H15.3125L14.7 38.8325L14.21 37.975L13.1075 30.625L10.9025 32.2175L9.9225 32.83L9.31 32.7075L8.2075 31.4825L6.86 29.7675L5.2675 27.685L3.675 25.48L1.8375 22.785L0.98 21.56L0.8575 21.07L0.98 20.7025L3.0625 19.2325L5.2675 17.64L7.595 15.925L9.6775 14.455L10.29 14.3325L11.27 15.435L11.025 12.1275L11.3925 11.76L21.9275 10.29L22.54 10.4125L22.9075 11.8825L23.6425 16.415L23.8875 18.0075L25.725 12.25L26.46 10.045L26.705 9.80005ZM27.0725 10.4125L24.745 17.395L24.01 19.845L24.1325 22.4175L24.255 23.275H28.5425L28.175 23.03L25.235 22.05L25.1125 21.805L26.8275 22.1725L29.4 23.03L29.5225 23.1525H34.1775L35.28 19.6L36.995 13.965V13.475L33.9325 12.495L27.3175 10.4125H27.0725ZM21.315 11.025L12.3725 12.25L11.76 12.3725V13.475L12.495 19.6L13.23 25.1125L13.475 25.48L14.21 25.235L16.66 25.1125L17.5175 24.745L18.7425 23.52L19.11 23.3975L23.765 23.275L23.6425 21.6825L22.1725 11.515L22.05 11.025H21.315ZM9.9225 15.0675L7.595 16.7825L5.88 18.0075L3.675 19.6L1.5925 21.07L2.205 22.1725L3.7975 24.3775L5.39 26.705L7.105 29.0325L8.82 31.4825L9.555 32.34L10.29 31.85L12.495 30.2575L13.1075 29.7675L12.8625 27.0725L12.985 25.48L11.6375 26.3375L10.9025 26.8275L10.4125 26.95L10.9025 26.3375L12.6175 25.1125L12.8625 24.745L12.25 21.4375H11.8825L9.6775 23.03L8.575 23.765L8.2075 23.8875L8.4525 23.3975L10.78 21.6825L12.1275 20.825L11.6375 17.15L10.045 15.0675H9.9225ZM39.5675 16.0475L37.8525 17.885L36.3825 19.4775L35.77 20.2125L35.4025 21.315L35.525 21.6825L36.75 20.335L37.6075 19.355L38.71 18.13V17.885H39.445L40.7925 18.9875L42.5075 20.4575L43.9775 21.805L45.4475 23.1525L45.57 23.6425L44.59 24.8675L43.7325 25.725L42.875 26.705L41.895 27.685L41.405 28.0525L40.7925 27.8075L39.2 26.705L37.6075 25.3575L36.75 24.6225H36.6275L35.77 30.9925L37.73 32.83L38.0975 33.1975L38.5875 33.075L40.0575 31.4825L41.16 30.135L42.63 28.5425L43.7325 27.195L45.2025 25.6025L46.06 24.6225L47.4075 23.03L46.795 22.4175L44.835 20.58L43.855 19.7225L42.63 18.62L41.65 17.7625L40.425 16.66L39.5675 16.0475ZM39.0775 18.4975L37.975 19.7225L37.1175 20.7025L36.015 21.9275V22.1725L37.73 21.9275H38.955L39.0775 22.295V24.3775L40.0575 24.255L41.16 24.01H42.385V24.99L42.0175 26.8275L42.63 26.215L43.9775 24.745L44.835 23.6425L44.59 23.1525L42.9975 21.6825L41.405 20.2125L40.0575 19.11L39.3225 18.4975H39.0775ZM34.9125 22.785L34.79 23.1525L35.4025 23.275L34.9125 22.785ZM19.2325 23.8875L18.2525 24.745L17.395 25.3575L17.0275 25.48L13.965 25.6025L13.23 26.0925L12.985 26.5825L13.1075 27.8075L14.7 37.1175L15.0675 38.22L15.5575 38.5875L16.7825 38.71H26.3375L33.4425 38.5875L34.055 38.0975L34.3 37.24L36.015 25.3575L35.8925 24.5L35.28 23.8875H19.2325Z" fill="#38A1FE"/>
<path d="M25.1125 21.6825L26.8275 22.05L29.4 22.9075L29.5225 23.03L34.9125 23.1525L35.6475 23.3975L36.26 23.8875L36.6275 24.5V25.725L35.8925 30.87L35.6475 32.4625L34.9125 37.485L34.545 38.5875L33.9325 39.0775L33.6875 39.2H15.3125L14.7 38.8325L14.21 37.975L13.23 31.36L12.8625 28.5425L12.74 26.3375L13.1075 25.725L13.72 25.235L14.21 25.1125L16.66 24.99L17.5175 24.6225L18.7425 23.3975L19.11 23.275L28.175 23.1525L25.235 22.1725L24.99 21.805L25.1125 21.6825ZM19.2325 23.8875L18.2525 24.745L17.395 25.3575L17.0275 25.48L13.965 25.6025L13.23 26.0925L12.985 26.5825L13.1075 27.8075L14.7 37.1175L15.0675 38.22L15.5575 38.5875L16.7825 38.71H26.3375L33.4425 38.5875L34.055 38.0975L34.3 37.24L36.015 25.3575L35.8925 24.5L35.28 23.8875H19.2325Z" fill="#191919"/>
<path d="M19.845 12.1274H20.7025L21.1925 12.7399L21.4375 14.6999L21.07 15.3124L19.9675 15.5574L18.2525 15.8024H17.5175L17.0275 15.4349L16.7825 14.2099V12.8624L17.2725 12.4949L19.845 12.1274Z" fill="#38A1FF"/>
<path d="M29.89 14.0875L30.5025 14.21L30.9925 15.925L31.115 16.0475L31.85 14.21L32.585 14.455L33.1975 15.0675L33.6875 16.0475V17.7625L33.1975 18.62L32.34 19.355L31.36 19.7225H30.5025L29.4 19.355L28.42 18.4975L28.0525 17.7625L27.93 16.415L28.2975 15.3125L29.0325 14.455L29.89 14.0875ZM30.135 14.3325L29.4 14.8225L28.665 15.68L28.42 16.5375L28.5425 17.5175L28.91 18.2525L29.7675 18.9875L30.625 19.2325L31.605 19.11L32.34 18.7425L33.075 17.885L32.9525 17.64L30.7475 16.905L30.2575 14.3325H30.135Z" fill="#38A1FF"/>
<path d="M7.595 22.785H7.84V24.1325L8.33 25.1125L8.2075 25.6025L7.2275 26.46L6.7375 26.5825L6.125 25.97L5.5125 24.8675L6.125 24.255L6.9825 23.6425H7.35L7.4725 22.9075L7.595 22.785ZM6.9825 24.255L6.125 24.8675L6.615 25.725L6.9825 25.97L7.9625 25.3575L7.7175 24.8675L7.35 25.3575L6.7375 25.235V24.99L7.105 24.8675V24.255H6.9825Z" fill="#38A2FF"/>
<path d="M9.8 25.8475H10.045V27.195L10.535 28.175L10.4125 28.665L9.4325 29.5225L8.9425 29.645L8.4525 29.155L7.84 28.2975V27.685L9.1875 26.705H9.555L9.6775 25.97L9.8 25.8475ZM9.1875 27.3175L8.33 27.93L8.82 28.7875L9.1875 29.0325L9.6775 28.5425L8.9425 28.2975L8.82 28.0525H9.31L9.4325 27.3175H9.1875ZM9.8 27.93L9.6775 28.5425L10.1675 28.42L9.9225 27.93H9.8Z" fill="#38A2FF"/>
<path d="M5.39 19.845L5.7575 19.9675V21.315L6.125 21.9275L6.0025 22.54L5.0225 23.3975L4.5325 23.52L3.92 22.9075L3.3075 21.805L3.92 21.1925L4.7775 20.58H5.145L5.39 19.845ZM4.7775 21.1925L3.92 21.805L4.41 22.6625L4.7775 22.9075L5.88 22.295L5.39 21.805L5.2675 22.295H4.655L4.5325 21.9275H4.9L5.0225 21.1925H4.7775Z" fill="#38A2FF"/>
<path d="M20.2125 18.2524H21.9275V18.4974L20.335 18.8649L15.0675 19.5999H13.5975L13.72 19.2324L16.66 18.7424L20.2125 18.2524Z" fill="#38A1FF"/>
<path d="M20.335 17.0275H21.6825L21.805 17.2725L20.4575 17.64L15.0675 18.375H13.475V18.13L14.945 17.7625L20.335 17.0275Z" fill="#38A1FF"/>
<path d="M20.2125 19.4775H22.05V19.7225L20.335 20.09L14.8225 20.825H13.8425V20.4575L15.8025 20.09L20.2125 19.4775Z" fill="#38A1FF"/>
<path d="M25.3575 20.7025L26.5825 20.825L31.36 22.295L32.34 22.785V23.03L31.2375 22.9075L27.195 21.6825L25.48 21.07L25.3575 20.7025Z" fill="#38A1FF"/>
<path d="M25.725 19.6L26.8275 19.7225L31.9725 21.315L32.7075 21.6825V21.9275L31.4825 21.805L26.3375 20.2125L25.725 19.845V19.6Z" fill="#38A1FF"/>
<path d="M14.7 12.74H15.8025L15.925 13.3525L15.5575 13.475V13.23L14.455 13.3525L14.8225 15.435V16.0475H14.3325L13.965 13.965V13.475L13.1075 13.5975L12.6175 13.8425L12.495 13.72V13.1075L14.7 12.74Z" fill="#38A1FF"/>
<path d="M30.7475 12.3726L31.9725 12.4951L32.095 12.9851L31.2375 15.3126H30.9925L30.5025 13.2301V12.4951L30.7475 12.3726Z" fill="#38A1FF"/>
<path d="M10.535 18.4976H10.9025L10.78 18.9876L8.4525 20.7026L7.2275 21.5601L6.615 21.6826L6.7375 21.1926L8.33 19.9676L10.29 18.6201L10.535 18.4976Z" fill="#38A2FF"/>
<path d="M9.9225 17.7625H10.4125L10.1675 18.2525L8.575 19.4775L6.615 20.825L6.125 20.9475L6.2475 20.4575L7.595 19.355L9.9225 17.7625Z" fill="#38A2FF"/>
<path d="M25.1125 21.6825L26.8275 22.05L29.4 22.9075L29.5225 23.275H28.5425L25.235 22.1725L24.99 21.805L25.1125 21.6825Z" fill="#38A0FC"/>
<path d="M40.5475 20.825L41.2825 21.07L41.405 21.315V22.05L41.0375 22.4175H40.3025L39.935 22.1725L39.8125 21.56L40.18 20.9475L40.5475 20.825Z" fill="#38A1FF"/>
<path d="M16.5375 21.1925H17.2725V21.6825L14.945 22.05H13.965V21.6825L14.8225 21.4375L16.5375 21.1925Z" fill="#38A1FF"/>
<path d="M10.535 22.9075H10.9025L10.78 23.3975L9.555 24.3775L9.065 24.6225H8.6975L8.82 24.1325L10.535 22.9075Z" fill="#38A2FF"/>
</svg>
