<svg width="49" height="49" viewBox="0 0 49 49" fill="none" xmlns="http://www.w3.org/2000/svg">
<path d="M30.625 3.67505H32.34L32.83 9.67755L32.9525 11.3925L33.075 11.6375L41.5275 13.3525L41.65 12.3725L41.895 11.515H42.14L42.0175 12.8625L41.895 13.475H42.5075L43.12 10.6575L43.61 10.045L44.345 9.92255L44.9575 10.29L45.2025 10.6575V11.515L44.7125 13.8425L44.59 14.0875L45.6925 14.21L45.815 14.5775L43.855 24.255L46.9175 24.8675L47.53 25.2351L47.8975 25.8475L47.775 26.8275L45.6925 31.7275L46.305 31.9725L47.1625 32.9525L47.4075 33.5651V35.2801L46.9175 36.26L45.9375 37.1175L44.835 37.4851H43.9775L43.2425 37.2401L42.875 38.3425L42.385 39.3225L41.7725 39.69H40.67L25.235 36.5051V36.75L23.52 37.2401H23.03L23.3975 38.465V39.2001L21.805 39.5676H21.315L21.6825 41.405L20.7025 41.7725L8.4525 44.7126L6.37 45.2025H6.0025L4.5325 39.3225L1.5925 27.0725L1.1025 24.99V24.745L2.8175 24.255H3.3075L2.94 22.785L3.0625 22.295L5.0225 21.805L4.7775 20.58V19.9675L10.78 18.4975L12.1275 18.13L11.27 6.61505V5.14505L25.725 4.04255L30.625 3.67505ZM43.9775 10.29L43.4875 10.78L42.875 13.475V13.72L44.2225 13.965L44.4675 13.23L44.835 11.515V10.6575L44.345 10.29H43.9775ZM29.89 11.3925L27.685 22.295V22.6625L34.9125 24.1325L35.28 23.3975L33.32 22.9075L30.87 22.4175H30.5025V22.05L31.9725 22.4175L35.035 23.03L35.8925 22.9075H36.8725L42.875 24.1325H43.4875L44.2225 20.7025L45.325 15.19V14.5775L44.4675 14.3325L43.7325 17.7625L43.12 18.4975L42.7525 18.62H41.7725L41.16 18.2525L40.7925 17.395L41.0375 15.8025L41.405 14.0875V13.72L37.975 12.985L29.89 11.3925ZM41.7725 13.8425L41.5275 14.5775L41.0375 16.905L41.16 17.7625L41.895 18.375H42.7525L43.365 17.885L43.7325 16.66L44.2225 14.3325L43.4875 14.0875H42.7525L42.2625 16.66L42.0175 16.415L42.5075 13.965L41.7725 13.8425ZM19.9675 16.66L10.29 18.9875L5.145 20.2125L5.39 21.56L6.0025 21.6825L18.2525 18.7425H18.4975L19.9675 24.745L22.9075 36.8726L24.01 36.75L24.8675 36.5051L24.6225 35.1575L21.6825 23.03L20.2125 16.905L19.9675 16.66ZM12.985 22.1725L1.8375 24.8675L1.5925 24.99L1.715 26.0925L4.7775 38.71L6.2475 44.835L10.045 43.9776L21.1925 41.2826L21.07 40.18L18.13 28.0525L17.5175 25.6025L15.3125 26.0925L14.21 26.215L13.23 22.1725H12.985ZM13.5975 22.54L14.3325 25.725L14.455 25.97L15.8025 25.725L17.15 25.3575L16.5375 24.745L15.0675 23.5201L13.8425 22.54H13.5975ZM45.4475 32.095L43.855 35.7701L43.4875 36.6275V36.995L43.855 37.1175H44.9575L45.815 36.75L46.6725 36.015L47.04 35.2801L47.1625 34.3L46.795 33.0751L46.1825 32.34L45.815 32.095H45.4475Z" fill="#150274"/>
<path d="M23.1525 22.05L24.3775 22.1725L31.605 23.6425L34.4225 24.255H35.1575L35.6475 23.275L36.015 23.03L37.24 23.1525L43.855 24.5L46.795 25.1125L47.4075 25.48L47.53 25.725V26.5825L45.9375 30.38L43.855 35.28L42.5075 38.465L42.0175 39.2L41.65 39.445L40.425 39.3225L33.1975 37.8525L27.93 36.75L25.1125 36.1375L23.765 30.7475L22.9075 27.195L22.785 26.5825V22.4175L23.1525 22.05Z" fill="#6052BC"/>
<path d="M31.9725 4.28748H32.095L32.585 10.1675V11.6375L31.605 11.515L29.645 11.1475L29.5225 12.25L27.8075 20.9475L27.44 22.54L26.3375 22.4175L23.8875 21.9275H23.03L22.6625 22.295L22.54 25.3575L22.295 24.8675L21.6825 22.295L20.9475 19.11L20.335 16.66V16.2925L19.2325 16.66L16.5375 17.2725L12.985 18.13H12.495L12.3725 17.64L11.6375 7.47248V6.00248L12.25 6.49248L13.3525 7.96248H14.5775L20.7025 7.47248H21.9275L22.1725 10.78V11.6375L21.1925 12.25L20.9475 12.74V13.72L21.4375 14.455L21.9275 14.7H22.785L23.52 14.3325L23.8875 13.5975V12.6175L23.3975 12.005L23.03 11.76L22.4175 11.6375L22.1725 9.18748V7.47248L24.01 7.22748L28.91 6.85998H30.625L30.87 6.24748L31.9725 4.28748Z" fill="#FCCDC3"/>
<path d="M17.885 18.9875H18.375L19.6 23.8875L20.335 27.0725L21.315 30.9925L21.9275 33.565L22.785 37.24L23.03 38.3425V38.955L21.4375 39.3225H21.07L20.335 36.26L19.7225 33.9325L19.11 31.2375L18.13 27.3175L17.7625 25.6025V25.235L17.2725 24.99L15.19 23.3975L13.3525 21.9275L10.6575 22.54L6.2475 23.6425L4.0425 24.1325H3.5525L3.3075 23.03V22.54L7.2275 21.56L9.8 20.9475L12.8625 20.2125L17.0275 19.2325L17.885 18.9875Z" fill="#5F51BB"/>
<path d="M17.15 35.28L17.7625 35.4025L18.7425 39.445V39.935L17.0275 40.425L8.2075 42.5075H7.84L6.86 38.465V37.73L17.15 35.28Z" fill="#F9CBC2"/>
<path d="M29.5225 4.04248H31.85L30.9925 5.75748L30.5025 6.61498L22.785 7.22748L14.0875 7.83998H13.475L11.8825 5.87998L11.6375 5.38998L21.315 4.65498L29.5225 4.04248Z" fill="#FACCC2"/>
<path d="M32.7075 9.67749H32.83L32.9525 11.3925L33.075 11.6375L41.5275 13.3525L41.65 12.3725L41.895 11.515H42.14L42.0175 12.8625L41.895 13.475H42.5075L43.12 10.6575L43.61 10.045L44.345 9.92249L44.9575 10.29L45.2025 10.6575V11.515L44.7125 13.8425L44.59 14.0875L45.6925 14.21L45.815 14.5775L43.855 24.255L46.4275 24.745V25.1125L44.9575 24.8675L38.3425 23.52L36.6275 23.1525H36.015L35.525 23.6425L35.1575 24.3775L34.055 24.255L32.4625 23.8875V23.6425L33.6875 23.765L34.9125 24.01L35.1575 23.52L34.4225 23.275L30.5025 22.4175V22.05L33.81 22.6625L35.035 22.9075L35.8925 22.785H36.8725L43.4875 24.1325L43.7325 22.54L45.2025 15.19V14.5775L44.59 14.455L43.855 17.7625L43.12 18.62L42.7525 18.7425H41.7725L41.0375 18.2525L40.67 17.395L40.915 15.8025L41.405 13.72L39.8125 13.475L31.9725 11.8825V11.6375H32.585V9.92249L32.7075 9.67749ZM43.9775 10.29L43.4875 10.78L42.875 13.475V13.72L44.2225 13.965L44.4675 13.23L44.835 11.515V10.6575L44.345 10.29H43.9775ZM41.7725 13.8425L41.5275 14.5775L41.0375 16.905L41.16 17.7625L41.895 18.375H42.7525L43.365 17.885L43.7325 16.66L44.2225 14.3325L43.4875 14.0875H42.7525L42.2625 16.66L42.0175 16.415L42.5075 13.965L41.7725 13.8425Z" fill="#130072"/>
<path d="M31.36 4.77747L31.605 4.89997L31.36 5.63497L30.625 6.85997L22.785 7.47247H22.1725L22.4175 10.4125V11.6375H23.03L23.765 12.25L24.01 12.6175V13.5975L23.6425 14.3325L23.1525 14.7L22.785 14.8225H21.9275L21.1925 14.3325L20.825 13.72V12.74L21.315 12.005L21.9275 11.6375H22.1725L21.9275 9.18747V7.47247L17.5175 7.83997L14.5775 8.08497H13.3525L11.76 6.12497L11.515 6.61497V5.75747L12.1275 6.00247L13.475 7.71747L17.395 7.47247L27.685 6.73747L28.91 6.61497H30.5025L30.7475 5.87997L31.36 4.77747Z" fill="#341E7C"/>
<path d="M46.4275 24.8676L47.285 24.9901L47.775 25.4801L47.8975 26.4601L46.4275 30.0126L45.6925 31.7276L46.305 31.9726L47.1625 32.9526L47.4075 33.5651V35.2801L46.9175 36.2601L45.9375 37.1176L44.835 37.4851H43.9775L43.2425 37.2401L42.875 38.3426L42.385 39.3226L41.7725 39.6901H40.67L25.8475 36.6276L25.3575 36.5051V36.2601H26.215L29.7675 36.9951L33.9325 37.8526L40.915 39.3226H41.65L42.2625 38.7101L43.4875 35.8926L45.2025 31.8501L46.55 28.6651L47.4075 26.5826V25.7251L47.04 25.3576L46.4275 25.1126V24.8676ZM45.4475 32.0951L43.855 35.7701L43.4875 36.6276V36.9951L43.855 37.1176H44.9575L45.815 36.7501L46.6725 36.0151L47.04 35.2801L47.1625 34.3001L46.795 33.0751L46.1825 32.3401L45.815 32.0951H45.4475Z" fill="#160375"/>
<path d="M30.625 3.67505H32.34L32.7075 8.08505V9.92255L32.4625 10.1675L31.9725 4.41005L31.7275 4.90005H31.4825L31.7275 4.16505H29.5225L19.6 4.90005L11.76 5.51255L11.8825 5.88005H11.6375L11.76 7.47255L12.495 17.64V18.13H12.1275L11.27 6.61505V5.14505L25.725 4.04255L30.625 3.67505Z" fill="#1C0975"/>
<path d="M17.15 35.28L17.7625 35.4025L18.7425 39.445V39.935L17.0275 40.425L8.2075 42.5075H7.84L6.86 38.465V37.73L17.15 35.28ZM17.0275 35.6475L13.23 36.505L10.9025 37.1175L7.595 37.8525L7.2275 37.975L7.35 39.0775L7.9625 41.65L8.085 42.14L9.4325 41.895L12.495 41.16L16.2925 40.3025L18.375 39.69L18.2525 38.8325L17.5175 35.6475H17.0275Z" fill="#220D77"/>
<path d="M29.645 11.1475L30.9925 11.27L32.095 11.515L31.85 11.8825L30.0125 11.515L27.8075 22.295L27.685 22.6625L28.91 22.785L32.4625 23.52V23.8875L30.9925 23.6425L26.705 22.785L23.765 22.1725H22.9075V22.4175L22.54 22.54L22.785 22.05L23.03 21.805H23.8875L27.44 22.54L27.5625 21.315L28.2975 17.885L29.645 11.1475ZM22.6625 22.54H22.785V26.3375H22.6625V22.54Z" fill="#190675"/>
<path d="M21.9275 11.8824H22.785L23.3975 12.2499L23.765 12.7399V13.5974L23.3975 14.2099L22.785 14.5774H22.05L21.315 14.0874L21.07 13.5974V12.8624L21.56 12.1274L21.9275 11.8824Z" fill="#F9CBC2"/>
<path d="M30.625 3.67505H32.34L32.7075 8.08505V9.92255L32.4625 10.1675L31.9725 4.41005L31.7275 4.90005H31.4825L31.7275 4.16505H29.5225L24.8675 4.53255H24.1325L24.255 4.16505L30.625 3.67505Z" fill="#210D76"/>
<path d="M20.09 16.2925H20.335L20.825 18.0075L21.4375 20.58L22.1725 23.6425V24.01H21.805L20.09 16.905L19.9675 16.7825L14.3325 18.13L13.8425 18.0075L13.965 17.7625L17.0275 17.0275L20.09 16.2925Z" fill="#251078"/>
<path d="M17.15 35.28L17.7625 35.4025L18.7425 39.445V39.935L18.0075 40.0575L18.13 39.69H18.375L17.5175 36.26V35.6475L14.455 36.3825L11.3925 37.1175L9.065 37.6075L9.1875 37.24L11.025 36.75L17.15 35.28Z" fill="#220D77"/>
<path d="M16.5375 32.585H17.0275V32.9525L6.37 35.525L6.125 35.4025V35.1575L7.9625 34.6675L16.5375 32.585Z" fill="#130072"/>
<path d="M15.68 28.665H16.0475V29.0325L10.045 30.5025L5.5125 31.605H5.2675V31.2375L7.4725 30.625L15.68 28.665Z" fill="#130072"/>
<path d="M16.17 30.625H16.5375V30.9925L6.0025 33.565H5.7575V33.1975L7.9625 32.585L16.17 30.625Z" fill="#130072"/>
<path d="M30.9925 19.7225L32.2175 19.845L41.16 21.6825V22.05L40.0575 21.9275L30.9925 20.09V19.7225Z" fill="#130072"/>
<path d="M24.01 4.16504L24.255 4.28754L24.1325 4.53254L21.315 4.77754L15.0675 5.26754H14.3325L14.455 4.90004L24.01 4.16504Z" fill="#1F0B75"/>
<path d="M11.515 5.75745L12.1275 6.00245L13.475 7.71745L17.395 7.47245L20.7025 7.22745H21.56L21.315 7.47245L19.4775 7.71745L14.5775 8.08495H13.3525L11.76 6.12495L11.515 6.61495V5.75745Z" fill="#321C7C"/>
<path d="M31.36 4.77747L31.605 4.89997L31.36 5.63497L30.625 6.85997L24.01 7.34997H22.05V7.96247L21.9275 7.47247H21.315L21.56 7.22747L28.91 6.61497H30.5025L30.7475 5.87997L31.36 4.77747Z" fill="#301A7B"/>
<path d="M20.09 16.2925H20.335L20.4575 16.905L19.9675 16.7825L14.3325 18.13L13.8425 18.0075L13.965 17.7625L17.0275 17.0275L20.09 16.2925Z" fill="#230E77"/>
<path d="M16.2925 38.465H16.5375L16.415 38.8325L13.475 39.5675L10.9025 40.18L9.9225 40.425H9.31V40.18L11.6375 39.5675L14.21 38.955L16.2925 38.465Z" fill="#351F7D"/>
<path d="M15.925 37.24H16.17V37.485L13.475 38.22L10.4125 38.955L9.4325 39.2H8.9425V38.955L11.1475 38.3425L13.72 37.73L15.925 37.24Z" fill="#37207E"/>
<path d="M17.64 39.8125L18.13 39.935L18.0075 40.18L12.8625 41.405L12.3725 41.2825L12.495 41.0375L16.2925 40.18L17.64 39.8125Z" fill="#240F77"/>
<path d="M8.9425 37.24L9.1875 37.3625L8.82 37.73L7.2275 37.975L7.84 40.67V41.0375H7.4725L6.86 38.465V37.73L8.9425 37.24Z" fill="#210D77"/>
<path d="M17.395 35.28L17.7625 35.4025L18.7425 39.445V39.935L18.0075 40.0575L18.13 39.69H18.375L17.5175 36.26V35.525L17.2725 35.4025L17.395 35.28Z" fill="#1F0B76"/>
<path d="M46.6725 19.6H47.04V20.58H48.02V20.9475H47.04V21.9275H46.6725V20.9475H45.6925V20.58H46.6725V19.6Z" fill="#120071"/>
<path d="M32.34 4.77747H32.4625L32.7075 8.08497V9.92247L32.4625 10.1675L32.095 5.63497V4.89997L32.34 4.77747Z" fill="#240F77"/>
<path d="M29.645 11.1475L30.9925 11.27L32.095 11.515L31.85 11.8825L30.0125 11.515L29.5225 13.8425L29.155 13.965L29.2775 12.8625L29.645 11.1475Z" fill="#220D77"/>
<path d="M23.03 21.8051H23.8875L26.3375 22.2951L26.0925 22.5401L24.8675 22.4176L23.765 22.1726H22.9075V22.4176L22.54 22.5401L22.785 22.0501L23.03 21.8051ZM22.6625 22.5401H22.785V26.3376H22.6625V22.5401Z" fill="#281682"/>
<path d="M11.8825 13.23H12.1275L12.3725 15.68L12.495 18.13H12.1275L11.8825 14.8225V13.23Z" fill="#200B76"/>
<path d="M24.01 4.16504L24.255 4.28754L24.1325 4.53254L21.315 4.77754L19.2325 4.90004L19.355 4.53254L24.01 4.16504Z" fill="#1D0975"/>
<path d="M25.1125 39.6899H25.48V40.7924H26.46V41.0374H25.48V42.0174H25.1125V41.0374H24.1325V40.7924H25.1125V39.6899Z" fill="#120071"/>
<path d="M25.97 6.85999H26.5825L26.46 7.10499L26.0925 7.22749L24.01 7.34999H22.05V7.96249L21.9275 7.47249H21.315L21.56 7.22749L25.97 6.85999Z" fill="#251077"/>
<path d="M1.47 20.09L2.3275 20.2125L2.45 21.07L2.0825 21.4375L1.225 21.315L1.1025 20.4575L1.47 20.09ZM1.5925 20.4575L1.47 20.9475L2.0825 21.07L1.96 20.4575H1.5925Z" fill="#130072"/>
<path d="M20.7025 7.22754H21.56L21.315 7.47254L19.4775 7.71754L16.66 7.84004L16.7825 7.59504L17.395 7.47254L20.7025 7.22754Z" fill="#301B7B"/>
<path d="M35.035 3.55249L35.6475 3.79749L35.8925 4.40999L35.6475 4.89999L34.9125 5.02249L34.4225 4.65499L34.545 3.79749L35.035 3.55249ZM34.9125 3.91999L34.79 4.53249L35.28 4.65499L35.525 4.16499L35.28 3.91999H34.9125Z" fill="#130072"/>
<path d="M23.1525 11.8824L23.6425 12.1274L24.01 12.6174V13.5974L23.6425 14.3324L23.1525 14.6999L22.785 14.8224H21.9275V14.5774L23.03 14.3324L23.52 13.9649L23.6425 13.5974V12.7399L23.1525 12.1274V11.8824Z" fill="#2D177A"/>
<path d="M29.2775 13.8425H29.4L29.2775 15.0675L28.7875 17.5175L28.42 17.64L28.665 16.0475L29.0325 14.21L29.2775 13.8425Z" fill="#180573"/>
<path d="M27.3175 3.92004L27.5625 4.04254L27.44 4.28754L24.8675 4.53254H24.1325L24.255 4.16504L27.3175 3.92004Z" fill="#230E77"/>
<path d="M17.15 35.28L17.395 35.4025L17.5175 35.6475L14.455 36.3825H14.21L14.3325 36.015L16.17 35.525L17.15 35.28Z" fill="#230E77"/>
<path d="M21.1925 20.9475L21.56 21.07L22.1725 23.6425V24.01H21.805L21.1925 21.4375V20.9475Z" fill="#210C77"/>
<path d="M16.2925 38.465H16.5375L16.415 38.8325L13.475 39.5675H13.23V39.2L16.2925 38.465Z" fill="#402881"/>
<path d="M11.6375 9.92249H11.8825L12.1275 13.23H11.76L11.6375 11.515V9.92249Z" fill="#190674"/>
<path d="M6.9825 38.465L7.35 38.5875L7.84 40.67V41.0375H7.4725L6.9825 38.955V38.465Z" fill="#240F77"/>
<path d="M20.09 16.2925H20.335L20.4575 16.905L19.9675 16.7825L18.375 17.15L17.885 17.0275L18.4975 16.66L20.09 16.2925Z" fill="#210C76"/>
<path d="M11.1475 38.3425L11.8825 38.465L11.3925 38.71L9.4325 39.2H8.9425V38.955L11.1475 38.3425Z" fill="#3F2881"/>
<path d="M14.0875 36.015L14.3325 36.1375L13.965 36.505L11.6375 36.995L11.76 36.6275L13.5975 36.1375L14.0875 36.015Z" fill="#200C76"/>
<path d="M12.1275 41.16L12.495 41.2825L12.3725 41.5275L10.29 42.0175L9.8 41.895L9.9225 41.65L12.1275 41.16Z" fill="#1E0A75"/>
<path d="M31.36 4.77747L31.605 4.89997L31.36 5.63497L30.625 6.85997H29.5225L29.7675 6.61497H30.5025L30.7475 5.87997L31.36 4.77747Z" fill="#2F197B"/>
<path d="M22.295 10.4125H22.4175V11.6375H23.03L23.1525 12.005H21.6825V11.76L22.1725 11.6375L22.295 10.4125Z" fill="#321C7C"/>
<path d="M18.2525 38.5875H18.4975L18.7425 39.445V39.935L18.0075 40.0575L18.13 39.69H18.375L18.2525 38.5875Z" fill="#1D0975"/>
<path d="M10.1675 13.3525H10.4125L10.29 13.8425L9.6775 14.21H9.1875L9.31 13.8425L10.1675 13.3525Z" fill="#140073"/>
<path d="M15.925 37.24H16.17V37.485L14.945 37.8525H14.21V37.6075L15.925 37.24Z" fill="#301A7B"/>
<path d="M8.6975 14.9449H8.9425V16.2924H8.575V15.0674L8.6975 14.9449Z" fill="#130072"/>
<path d="M9.31 14.5775L9.9225 14.8225L10.4125 15.0675V15.435L9.8 15.3125L9.1875 14.945L9.31 14.5775Z" fill="#140073"/>
<path d="M8.085 14.5775H8.33V14.945L7.4725 15.435H7.105L7.35 14.945L8.085 14.5775Z" fill="#140073"/>
<path d="M7.105 13.3525L7.84 13.5975L8.33 13.965V14.21L7.7175 14.0875L7.105 13.72V13.3525Z" fill="#130072"/>
<path d="M8.6975 12.495H8.9425V13.8425H8.575V12.6175L8.6975 12.495Z" fill="#130072"/>
<path d="M23.1525 11.8824L23.6425 12.1274L24.01 12.6174V13.5974H23.765L23.52 12.4949L23.1525 12.1274V11.8824Z" fill="#251077"/>
<path d="M10.29 39.9351H10.9025V40.1801L9.9225 40.4251H9.31V40.1801L10.29 39.9351Z" fill="#3B247F"/>
<path d="M17.395 7.47253H18.375L18.2525 7.71753L16.66 7.84003L16.7825 7.59503L17.395 7.47253Z" fill="#331D7C"/>
<path d="M28.7875 16.2925H28.91L28.7875 17.5175L28.42 17.64L28.665 16.415L28.7875 16.2925Z" fill="#190574"/>
<path d="M13.72 39.0775L14.455 39.2L13.965 39.445L13.23 39.5675V39.2L13.72 39.0775Z" fill="#483084"/>
<path d="M25.235 22.1725L26.3375 22.295L26.0925 22.54L24.8675 22.4175L25.235 22.1725Z" fill="#311D82"/>
<path d="M16.2925 38.465H16.5375L16.415 38.8325L15.19 38.955L15.435 38.71L16.2925 38.465Z" fill="#2C177A"/>
<path d="M9.6775 38.71L10.045 38.8325L9.9225 39.0775L8.9425 39.2V38.955L9.6775 38.71Z" fill="#493184"/>
<path d="M23.6425 13.5975H23.8875L23.765 14.21L23.3975 14.5775L23.03 14.455L23.52 13.965L23.6425 13.5975Z" fill="#331D7C"/>
<path d="M21.4375 11.8824H21.6825L21.4375 12.3724L21.07 12.8624L20.9475 12.4949L21.4375 11.8824Z" fill="#351F7D"/>
<path d="M11.515 5.75745L12.1275 6.00245L12.3725 6.36995L11.8825 6.24745L11.76 6.12495L11.515 6.61495V5.75745Z" fill="#4A3184"/>
<path d="M24.1325 21.9275L25.235 22.1725V22.295H24.3775L24.1325 22.1725V21.9275Z" fill="#241079"/>
</svg>
