<svg width="124" height="124" viewBox="0 0 124 124" fill="none" xmlns="http://www.w3.org/2000/svg">
    <g clip-path="url(#clip0_429_1772)">
        <path
            d="M91.3285 69.8961C91.7437 69.7253 91.7437 69.7253 92.1673 69.551C94.063 72.1221 95.9587 74.6932 97.9118 77.3422C98.4377 76.9544 98.9636 76.5667 99.5055 76.1672C100.475 75.9991 100.475 75.9991 100.99 76.2436C102.051 77.0633 102.82 78.071 103.079 79.392C102.926 80.7475 102.562 81.806 101.484 82.6733C101.238 82.8583 100.99 83.0423 100.743 83.2256C100.607 83.3273 100.471 83.429 100.33 83.5338C99.8729 83.8754 99.4144 84.2157 98.9559 84.5561C98.6282 84.8003 98.3006 85.0446 97.9729 85.289C96.8953 86.0921 95.8162 86.8932 94.7369 87.6941C94.5533 87.8304 94.3697 87.9666 94.1805 88.1071C92.4486 89.3924 90.7162 90.677 88.9825 91.9599C86.7653 93.6006 84.5509 95.2448 82.3399 96.8939C80.785 98.0533 79.227 99.2086 77.6669 100.361C76.7353 101.049 75.805 101.739 74.878 102.434C74.0052 103.087 73.1288 103.736 72.2495 104.38C71.928 104.617 71.608 104.856 71.2894 105.097C68.3859 107.288 68.3859 107.288 66.5362 107.221C65.2713 107.004 64.7674 106.699 63.9835 105.655C63.4358 104.868 63.1649 104.455 63.0413 103.497C63.3825 102.801 63.3825 102.801 65.1533 101.495C63.3868 99.0994 61.6204 96.7036 59.8004 94.2352C60.0342 94.0629 60.2679 93.8905 60.5087 93.713C62.2752 96.1088 64.0416 98.5046 65.8616 100.973C76.146 93.3902 86.4304 85.8075 97.0264 77.995C95.1308 75.4239 93.2351 72.8528 91.2819 70.2038C91.2973 70.1022 91.3126 70.0007 91.3285 69.8961ZM64.1659 103.863C64.5536 104.389 64.9414 104.915 65.3409 105.457C77.3199 96.6247 89.2989 87.7925 101.641 78.6927C101.296 78.2253 100.952 77.7578 100.596 77.2761C99.8191 77.1586 99.579 77.4139 98.9658 77.8599C98.7598 78.0139 98.7598 78.0139 98.5496 78.1711C98.403 78.2785 98.2565 78.3858 98.1055 78.4965C97.6119 78.8588 97.1203 79.2237 96.6286 79.5886C96.2763 79.848 95.9239 80.1073 95.5714 80.3665C94.6122 81.0724 93.6547 81.7804 92.6976 82.4889C91.6977 83.2285 90.6965 83.9662 89.6954 84.7042C88.0145 85.9439 86.3345 87.1849 84.6552 88.4267C82.7108 89.8647 80.765 91.3008 78.8184 92.7358C76.9493 94.1137 75.081 95.4926 73.2131 96.8721C72.4165 97.4604 71.6197 98.0484 70.8227 98.6361C69.8853 99.3276 68.9485 100.02 68.0122 100.713C67.6675 100.968 67.3225 101.223 66.9773 101.477C66.5082 101.823 66.0399 102.17 65.5718 102.517C65.4331 102.619 65.2945 102.72 65.1517 102.825C64.4932 103.228 64.4932 103.228 64.1659 103.863ZM66.5249 105.951C67.397 106.266 67.6931 106.121 68.5148 105.753C69.1723 105.416 69.7524 105.006 70.3469 104.569C70.477 104.474 70.6072 104.378 70.7413 104.28C71.1731 103.964 71.603 103.646 72.0329 103.327C72.3438 103.098 72.6547 102.87 72.9657 102.642C73.8073 102.024 74.6471 101.404 75.4867 100.783C76.3667 100.133 77.248 99.4844 78.129 98.8356C79.6081 97.7462 81.086 96.6552 82.5632 95.5633C84.27 94.302 85.9785 93.0432 87.6881 91.7858C89.1575 90.7049 90.6259 89.6226 92.0934 88.5391C92.9692 87.8926 93.8453 87.2465 94.7223 86.6016C95.5468 85.9954 96.3699 85.3874 97.192 84.7781C97.4935 84.555 97.7955 84.3326 98.0979 84.1108C98.5115 83.8074 98.9233 83.5019 99.3348 83.1958C99.6808 82.9403 99.6808 82.9403 100.034 82.6798C101.002 81.8566 101.57 81.2417 101.762 79.9698C90.1341 88.5434 78.5057 97.1171 66.5249 105.951Z"
            fill="#020064" />
        <path
            d="M44.6328 28.0648C45.8887 28.0652 47.1309 28.1059 48.3709 28.3154C48.4607 28.1355 48.4607 28.1355 48.5524 27.952C48.6318 27.7944 48.7112 27.6369 48.793 27.4746C48.9105 27.2405 48.9105 27.2405 49.0305 27.0016C49.8614 25.448 51.7085 24.2016 53.3077 23.4957C55.492 22.8789 57.6541 23.0471 59.6998 24.0326C60.9057 24.7084 61.5903 25.4665 62.325 26.6199C62.8774 27.4331 62.8774 27.4331 63.7093 27.8734C64.0403 27.8748 64.3714 27.8685 64.7021 27.8558C66.7871 27.9503 68.7552 29.3959 70.1751 30.8258C71.8912 32.7295 72.8977 35.1746 72.8354 37.7487C72.6642 40.0849 72.1215 42.1508 70.5519 43.9413C69.9455 44.4396 69.9455 44.4396 69.4894 44.7246C69.3171 44.4909 69.1448 44.2571 68.9672 44.0163C69.0912 43.8485 69.2151 43.6806 69.3428 43.5077C70.9092 41.302 71.8301 39.1431 71.5377 36.3811C70.9665 33.896 69.7544 31.8053 67.6418 30.3382C66.2137 29.5177 64.5788 29.0004 62.9218 29.0136C62.177 28.7892 61.9614 28.2613 61.544 27.6228C60.467 26.0654 59.3011 25.1546 57.5353 24.4797C55.3621 24.2256 53.4635 24.5854 51.6764 25.8708C50.8345 26.5841 50.3187 27.3672 49.8288 28.3509C49.4805 28.9335 49.1541 29.3426 48.623 29.7695C48.0269 29.7648 48.0269 29.7648 47.3593 29.6079C43.7917 28.9357 40.319 29.8811 37.2977 31.833C34.1985 34.0761 32.219 37.1368 31.3718 40.8489C31.3312 41.0184 31.2906 41.1878 31.2487 41.3625C30.4291 45.5129 32.0797 49.0471 34.0041 52.5748C33.5619 53.1266 33.1035 53.5446 32.5515 53.9874C31.1471 55.2208 30.3882 56.7453 30.2586 58.6164C30.2137 58.9454 30.2137 58.9454 30.1679 59.2811C30.2592 61.2089 31.1692 62.8634 32.5623 64.1622C34.191 65.4911 35.8144 65.9242 37.8978 65.7612C38.7276 65.6437 39.486 65.4292 40.2813 65.1665C40.4537 65.4002 40.626 65.634 40.8036 65.8748C39.2418 66.9503 37.8231 67.2477 35.9309 67.0555C34.1415 66.7232 32.2829 65.9824 31.09 64.5634C30.9503 64.4084 30.9503 64.4084 30.8079 64.2503C29.3368 62.4795 28.7292 60.2851 28.9151 58.0107C29.3547 55.5579 30.6252 53.9252 32.4659 52.3422C32.3705 52.1807 32.275 52.0193 32.1767 51.8529C30.7564 49.3498 29.8989 46.8133 29.8067 43.9162C29.7989 43.7116 29.7911 43.507 29.7831 43.2962C29.7226 35.2845 36.7605 28.415 44.6328 28.0648Z"
            fill="#030064" />
        <path
            d="M51.2344 41.2398C54.6285 40.4044 57.9257 40.6769 61.0005 42.4111C61.4536 42.723 61.4536 42.723 61.8453 43.2542C61.88 43.0905 61.9147 42.9268 61.9504 42.7581C62.3741 40.9961 62.3741 40.9961 63.0964 40.2476C63.994 39.8153 64.7534 39.5739 65.7449 39.7864C66.5207 40.0864 66.862 40.4758 67.3278 41.1541C67.8733 42.4788 67.6193 43.9711 67.5042 45.3685C67.479 45.7298 67.4543 46.0911 67.43 46.4525C67.3827 47.1416 67.3309 47.8301 67.2749 48.5186C67.2294 49.0829 67.1992 49.64 67.1795 50.2065C67.1352 51.183 66.8797 51.5356 66.1668 52.1971C64.7979 53.0065 63.2762 52.8306 61.7462 52.6889C61.3901 52.6589 61.0341 52.6292 60.678 52.6C60.5049 52.5857 60.3318 52.5714 60.1535 52.5567C59.253 52.4911 58.3513 52.4736 57.4488 52.4589C56.541 52.3851 55.7648 52.29 55.0591 51.6839C54.4827 50.8996 54.0832 50.3337 54.1311 49.3348C54.3133 48.3721 54.4911 48.0884 55.2515 47.5179C55.3861 47.4148 55.5208 47.3116 55.6595 47.2053C56.1365 46.9227 56.5171 46.8405 57.0643 46.7792C54.8399 46.0869 53.2146 46.3658 51.1767 47.4131C50.9769 47.5233 50.9769 47.5233 50.773 47.6358C49.8624 48.1219 49.2316 48.2507 48.2091 48.1149C47.3068 47.8271 46.8905 47.2291 46.4188 46.4282C45.9427 43.4089 48.6872 42.0312 51.2344 41.2398ZM47.4217 45.1933C47.3849 45.9331 47.3849 45.9331 47.6697 46.4797C48.2141 46.9463 48.6106 46.9859 49.3181 47.0239C49.9655 46.9116 50.4204 46.606 50.9934 46.2841C52.9982 45.2308 54.7101 45.0803 56.9428 45.5022C58.3612 45.9438 59.2844 46.5894 60.2247 47.7291C59.4566 48.1403 58.8563 48.0632 58.0033 47.9832C57.05 47.9323 56.6538 47.9218 55.7836 48.3556C55.3195 48.8313 55.3195 48.8313 55.1541 49.3322C55.2033 49.9472 55.3234 50.2998 55.6673 50.8159C56.6777 51.3625 57.6496 51.4195 58.7722 51.4821C58.9504 51.4935 59.1286 51.505 59.3123 51.5168C60.7777 51.608 62.2443 51.6806 63.7122 51.7177C63.9068 51.7261 64.1015 51.7344 64.302 51.743C65.0547 51.719 65.3537 51.4767 65.8746 50.9434C66.016 50.3992 66.0703 49.9608 66.1072 49.4052C66.1308 49.1888 66.1544 48.9723 66.1787 48.7492C66.3636 47.0483 66.4548 45.3538 66.5063 43.6443C66.524 43.3994 66.5418 43.1544 66.5601 42.9021C66.5624 41.9899 66.281 41.6375 65.6479 40.9972C65.0512 40.7365 65.0512 40.7365 64.4174 40.8111C63.8334 41.092 63.8334 41.092 63.3549 41.5945C63.1647 42.3225 63.1647 42.3225 63.1445 43.1163C63.1273 43.3826 63.1102 43.649 63.0925 43.9234C63.084 44.1269 63.0756 44.3305 63.0668 44.5402C62.8484 44.611 62.6301 44.6819 62.4051 44.7548C61.9546 44.4986 61.9546 44.4986 61.4395 44.1172C58.727 42.2314 55.9046 41.6204 52.6398 42.0251C50.7928 42.3823 48.0321 43.2576 47.4217 45.1933Z"
            fill="#030064" />
        <path
            d="M50.7024 74.9647C50.9682 74.9377 51.234 74.9106 51.5079 74.8827C51.7839 74.8581 52.0599 74.8334 52.3443 74.808C52.6201 74.7802 52.896 74.7525 53.1802 74.7239C53.9152 74.6519 54.6487 74.5819 55.3854 74.5303C55.5607 74.5172 55.736 74.5041 55.9166 74.4907C56.6232 74.5511 56.8994 74.76 57.4514 75.1989C57.6349 75.3428 57.8184 75.4867 58.0075 75.6349C58.2026 75.7926 58.3978 75.9502 58.5988 76.1126C58.8015 76.2736 59.0043 76.4345 59.2131 76.6004C59.6414 76.9415 60.0686 77.2839 60.4947 77.6275C61.1468 78.1525 61.8027 78.6723 62.4593 79.1915C62.8749 79.5236 63.2903 79.856 63.7054 80.1887C63.9996 80.4216 63.9996 80.4216 64.2998 80.6592C64.4818 80.8068 64.6637 80.9544 64.8512 81.1066C65.0912 81.2992 65.0912 81.2992 65.336 81.4957C65.8439 82.0112 66.1209 82.427 66.3596 83.1123C66.1243 83.9928 65.659 84.6268 65.0962 85.3333C64.9404 85.5302 64.7845 85.7271 64.6239 85.93C64.3717 86.2442 64.3717 86.2442 64.1143 86.5647C63.8542 86.8913 63.8542 86.8913 63.5888 87.2244C63.2222 87.6839 62.8551 88.1428 62.4871 88.6011C62.017 89.1865 61.5494 89.7739 61.0825 90.3619C60.6348 90.9251 60.185 91.4867 59.7353 92.0484C59.5683 92.2586 59.4013 92.4689 59.2291 92.6855C59.0715 92.8812 58.9139 93.0769 58.7514 93.2785C58.6139 93.4502 58.4764 93.622 58.3347 93.799C57.863 94.3127 57.4525 94.699 56.8457 95.0469C55.786 95.0648 55.2091 94.637 54.3986 93.9917C54.2839 93.9014 54.1692 93.8112 54.051 93.7182C53.6739 93.4203 53.2998 93.1191 52.9257 92.8176C52.6628 92.6082 52.3998 92.399 52.1366 92.1899C51.5858 91.7513 51.0364 91.3111 50.4879 90.8696C49.7882 90.3065 49.0854 89.7475 48.3816 89.1896C47.8378 88.758 47.2956 88.3244 46.7538 87.8902C46.4955 87.6834 46.2367 87.4773 45.9775 87.2717C43.256 85.11 43.256 85.11 42.5056 83.7533C42.5271 82.7309 43.3778 81.9174 44.0021 81.1519C44.1195 81.0059 44.2369 80.8598 44.3579 80.7093C44.6061 80.4013 44.855 80.094 45.1048 79.7873C45.4853 79.3194 45.8626 78.8491 46.2397 78.3784C46.4818 78.0788 46.724 77.7793 46.9665 77.48C47.0786 77.3401 47.1908 77.2002 47.3063 77.0561C48.3095 75.8303 49.065 75.1228 50.7024 74.9647ZM46.6183 79.6571C46.3658 79.9717 46.1123 80.2856 45.8578 80.5987C45.4917 81.0491 45.1287 81.5019 44.7662 81.9552C44.6515 82.0954 44.5367 82.2355 44.4185 82.3799C44.1454 82.7249 43.8963 83.0886 43.6521 83.4547C43.9251 84.2968 44.2846 84.5109 44.9747 85.0606C45.09 85.1531 45.2052 85.2455 45.3239 85.3408C45.7055 85.6463 46.0887 85.9496 46.4721 86.2527C46.7376 86.4643 47.0031 86.6761 47.2685 86.8879C47.8252 87.3317 48.3827 87.7744 48.9409 88.2163C49.6563 88.7829 50.3699 89.3516 51.0829 89.9211C51.631 90.3586 52.18 90.7951 52.7292 91.2313C52.9926 91.4406 53.2558 91.6502 53.5187 91.8601C53.8865 92.1533 54.2553 92.4452 54.6244 92.7368C54.8342 92.9032 55.0439 93.0697 55.2599 93.2411C55.8041 93.6697 55.8041 93.6697 56.5471 93.9005C57.6929 92.8784 58.6241 91.7365 59.5731 90.5323C59.7351 90.3283 59.8971 90.1243 60.0639 89.9141C60.578 89.2663 61.0908 88.6175 61.6035 87.9686C61.9531 87.5276 62.3028 87.0866 62.6526 86.6458C63.5071 85.5683 64.3605 84.49 65.2131 83.4109C64.9735 82.6691 64.6508 82.3305 64.0422 81.8524C63.8707 81.7163 63.6992 81.5802 63.5224 81.4399C63.244 81.2233 63.244 81.2233 62.9599 81.0022C62.6753 80.7775 62.6753 80.7775 62.385 80.5483C61.7786 80.07 61.1704 79.5943 60.5621 79.1185C60.1507 78.7948 59.7395 78.4709 59.3283 78.1469C58.3201 77.3527 57.3103 76.5605 56.2993 75.7698C56.1803 75.9197 56.1803 75.9197 56.0588 76.0726C55.6988 76.5251 55.3378 76.9767 54.9767 77.4283C54.8518 77.5856 54.7269 77.7428 54.5983 77.9048C54.4173 78.1308 54.4173 78.1308 54.2327 78.3612C54.1219 78.5002 54.0111 78.6392 53.8969 78.7823C53.5877 79.1358 53.5877 79.1358 53.0565 79.5274C51.8011 78.5588 50.5457 77.5902 49.2523 76.5922C48.2149 77.3571 47.4233 78.6514 46.6183 79.6571ZM50.7065 76.3401C51.4004 77.0779 52.0899 77.6911 52.9349 78.2504C53.1784 77.9932 53.4204 77.7345 53.6618 77.4753C53.8642 77.2595 53.8642 77.2595 54.0706 77.0393C54.4272 76.6115 54.6489 76.2118 54.8917 75.7143C54.2273 75.7935 53.563 75.8734 52.8987 75.9538C52.709 75.9763 52.5193 75.9988 52.3239 76.022C52.1436 76.044 51.9633 76.0659 51.7776 76.0885C51.6106 76.1085 51.4436 76.1286 51.2716 76.1493C50.9 76.1763 50.9 76.1763 50.7065 76.3401Z"
            fill="#020064" />
        <path
            d="M43.4091 54.3018C43.553 54.1855 43.6969 54.0691 43.8453 53.9492C45.0245 53.3367 46.4487 53.6064 47.7371 53.7074C49.2049 53.8163 50.6693 53.8938 52.1405 53.9437C53.0392 54.0239 53.8586 54.1085 54.5813 54.6809C55.1586 55.4464 55.4506 56.0227 55.4407 56.9963C55.3105 57.9079 55.0059 58.4005 54.2956 58.9766C53.7584 59.3105 53.2155 59.4895 52.603 59.6352C54.4238 60.1887 55.9315 60.194 57.6711 59.345C58.1076 59.1044 58.5434 58.8622 58.9782 58.6184C59.7725 58.226 60.2751 58.1713 61.1506 58.253C62.2052 58.6349 62.69 59.3098 63.202 60.2938C63.3122 61.0662 63.236 61.7425 62.8764 62.4472C60.1649 64.7321 57.3107 65.782 53.7384 65.5919C51.4032 65.3772 49.5317 64.4717 47.4679 63.4213C47.4535 63.5503 47.439 63.6794 47.4242 63.8123C47.2635 64.8052 47.0912 65.4622 46.2854 66.104C45.4474 66.6219 44.8282 66.8104 43.8334 66.6477C42.9289 66.0877 42.2879 65.5441 41.9946 64.5013C41.9007 63.451 41.9526 62.4391 42.0228 61.3885C42.0358 61.1763 42.0488 60.9642 42.0621 60.7456C42.0884 60.3163 42.1153 59.8871 42.1429 59.4579C42.1778 58.8993 42.2085 58.3408 42.2369 57.7819C42.2452 57.624 42.2535 57.4661 42.262 57.3034C42.284 56.8818 42.3059 56.4602 42.3278 56.0386C42.4122 55.1223 42.7055 54.8525 43.4091 54.3018ZM43.3456 56.3474C43.2982 56.9548 43.2725 57.5381 43.2704 58.1453C43.2559 59.2032 43.2346 60.2539 43.1424 61.3083C43.1209 61.5586 43.1209 61.5586 43.099 61.8139C43.0703 62.1313 43.039 62.4484 43.0046 62.7652C42.9187 63.7519 43.0159 64.373 43.5813 65.1936C44.2475 65.4714 44.7006 65.5955 45.416 65.4809C45.9775 65.0669 46.0791 64.6973 46.2749 64.0276C46.3201 63.4986 46.3467 62.9746 46.3564 62.4438C46.4234 62.0047 46.4234 62.0047 46.9547 61.6131C47.1101 61.7201 47.2655 61.8271 47.4256 61.9374C50.4505 63.9545 53.3217 64.9078 56.9757 64.3378C58.9582 63.9051 60.5508 63.0904 62.0465 61.6924C62.204 61.1645 62.2051 60.8711 62.1044 60.3344C61.6704 59.6694 61.2813 59.4926 60.5264 59.2599C59.861 59.4351 59.2802 59.7651 58.6716 60.0808C56.6442 61.0104 54.6952 61.4285 52.4972 60.8428C51.4347 60.4315 50.4334 59.8588 49.5267 59.17C49.4205 58.8424 49.4205 58.8424 49.3121 58.5082C50.3093 58.3688 51.2197 58.303 52.2257 58.3588C53.0123 58.3739 53.2038 58.3702 53.8685 57.8992C54.3132 57.2165 54.3132 57.2165 54.3452 56.4373C53.881 55.6311 53.6435 55.2553 52.7294 55.0075C52.4634 54.9918 52.1975 54.9761 51.9235 54.9599C51.4898 54.9309 51.4898 54.9309 51.0474 54.9012C50.7604 54.8887 50.4736 54.8761 50.178 54.8632C49.9301 54.85 49.6822 54.8369 49.4268 54.8233C48.7388 54.7915 48.0512 54.7716 47.3628 54.7522C47.0178 54.7338 47.0178 54.7338 46.6659 54.715C46.445 54.7045 46.2241 54.694 45.9965 54.6832C45.801 54.6727 45.6055 54.6622 45.404 54.6514C44.1631 54.7334 43.6775 55.1568 43.3456 56.3474Z"
            fill="#030064" />
        <path
            d="M74.296 58.2643C76.8508 56.8385 76.8508 56.8385 78.0375 57.0453C79.5011 57.562 79.5011 57.562 79.8965 58.0983C80.1569 57.9819 80.1569 57.9819 80.4225 57.8632C82.4668 56.9686 84.5345 56.1356 86.6122 55.3222C86.9303 55.1975 87.2482 55.0721 87.5657 54.946C88.0194 54.7662 88.474 54.5889 88.9289 54.4123C89.1947 54.3081 89.4605 54.204 89.7343 54.0966C90.9115 53.7265 90.9115 53.7265 91.5474 53.8814C92.4766 54.8898 92.944 56.0191 93.4298 57.2875C93.5033 57.4751 93.5768 57.6626 93.6525 57.8559C93.8066 58.2503 93.9596 58.6452 94.1116 59.0404C94.3435 59.6428 94.5791 60.2436 94.8153 60.8443C94.9651 61.2293 95.1147 61.6145 95.2641 61.9997C95.334 62.1779 95.4039 62.3562 95.4759 62.5399C96.345 64.8129 96.345 64.8129 96.2025 65.7559C95.2686 66.5137 94.4031 67.0118 93.2762 67.454C93.0608 67.5395 93.0608 67.5395 92.841 67.6267C92.3717 67.8122 91.9012 67.9946 91.4305 68.1767C91.1015 68.3053 90.7725 68.434 90.4436 68.5629C89.7567 68.8313 89.0692 69.098 88.3813 69.3637C87.5 69.7042 86.6208 70.0496 85.7419 70.3963C85.0643 70.6629 84.3855 70.9265 83.7063 71.1894C83.3816 71.3155 83.0572 71.4427 82.7332 71.5709C82.2808 71.7494 81.8271 71.9239 81.3728 72.0973C81.1152 72.1975 80.8575 72.2976 80.592 72.4008C79.8516 72.5899 79.5351 72.5983 78.8567 72.2583C77.8805 71.1526 77.399 69.4979 76.8635 68.1459C76.7739 67.9214 76.6843 67.6969 76.5919 67.4657C76.4042 66.9938 76.2171 66.5216 76.0307 66.0491C75.7453 65.3273 75.4555 64.6074 75.1656 63.8873C74.9831 63.4271 74.8008 62.9668 74.6188 62.5064C74.4887 62.185 74.4887 62.185 74.356 61.8572C73.3376 59.2455 73.3376 59.2455 74.296 58.2643ZM74.8259 59.3769C75.1957 60.7624 75.6596 62.0855 76.1804 63.421C76.261 63.6283 76.3415 63.8356 76.4245 64.0491C76.594 64.4842 76.764 64.9192 76.9345 65.3539C77.1947 66.0193 77.4516 66.686 77.7084 67.3527C77.874 67.7766 78.0399 68.2005 78.206 68.6242C78.2821 68.8232 78.3582 69.0222 78.4367 69.2273C78.51 69.4122 78.5834 69.5972 78.659 69.7879C78.7222 69.9501 78.7854 70.1124 78.8506 70.2796C79.1302 70.7956 79.4685 71.1043 79.9192 71.4749C81.8811 70.7254 83.8415 69.9718 85.7998 69.213C86.7092 68.8608 87.6191 68.51 88.5302 68.1624C89.4089 67.827 90.2863 67.4881 91.1627 67.1465C91.4977 67.0167 91.8334 66.8882 92.1695 66.761C92.6392 66.583 93.1068 66.4004 93.5743 66.2167C93.8414 66.1138 94.1085 66.0109 94.3837 65.905C94.9987 65.6354 94.9987 65.6354 95.1487 65.129C95.107 64.5886 94.9923 64.1754 94.7977 63.6691C94.6895 63.3835 94.6895 63.3835 94.5792 63.0922C94.4993 62.8888 94.4195 62.6854 94.3372 62.4759C94.256 62.2659 94.1747 62.0559 94.091 61.8395C93.9186 61.3963 93.7451 60.9535 93.5705 60.5112C93.3034 59.8319 93.0427 59.1504 92.7823 58.4685C92.6141 58.0385 92.4456 57.6086 92.2767 57.1789C92.199 56.9739 92.1213 56.769 92.0412 56.5578C91.9658 56.3699 91.8903 56.182 91.8125 55.9884C91.7476 55.8221 91.6826 55.6558 91.6156 55.4845C91.39 55.0745 91.39 55.0745 90.9354 54.9639C90.3436 54.974 89.9618 55.1124 89.4189 55.3482C89.219 55.4333 89.019 55.5185 88.813 55.6063C88.5982 55.6997 88.3835 55.7931 88.1623 55.8893C87.7034 56.0813 87.2445 56.2729 86.7854 56.4641C86.0634 56.7672 85.3428 57.0726 84.6247 57.3848C83.9304 57.6854 83.2322 57.9751 82.5327 58.2634C82.3209 58.3585 82.1091 58.4536 81.8909 58.5516C80.9886 58.9156 80.3808 59.1558 79.4226 58.8889C78.7942 58.6106 78.7942 58.6106 78.2338 58.3032C77.584 58.0336 77.2741 58.0953 76.6113 58.2997C75.9501 58.5779 75.3633 58.8943 74.8259 59.3769Z"
            fill="#020064" />
        <path
            d="M59.7386 74.874C64.2965 71.5135 68.8544 68.153 73.5504 64.6906C73.8965 64.9766 73.8965 64.9766 74.2497 65.2683C74.1713 65.7867 73.7296 65.9578 73.3321 66.2522C73.2047 66.3451 73.0774 66.438 72.9462 66.5337C72.7468 66.6808 72.7468 66.6808 72.5432 66.831C72.1014 67.1565 71.6587 67.4808 71.216 67.8051C70.9103 68.0299 70.6047 68.2549 70.2992 68.4799C69.4932 69.0731 68.6864 69.6653 67.8795 70.2572C67.0568 70.861 66.2349 71.4657 65.4129 72.0704C63.7988 73.2575 62.1839 74.4435 60.5685 75.6288C60.2947 75.3797 60.0208 75.1307 59.7386 74.874Z"
            fill="#020064" />
        <path
            d="M60.3 81.5667C60.6462 81.8527 60.6462 81.8527 60.9993 82.1445C59.4004 84.2586 57.7993 86.371 56.1434 88.441C56.0331 88.58 55.9229 88.719 55.8093 88.8621C55.3172 89.4727 54.8795 89.9366 54.2435 90.4055C54.0281 90.1134 53.8127 89.8212 53.5908 89.5202C54.4025 88.4913 55.2158 87.4635 56.0304 86.4369C56.3072 86.0875 56.5836 85.7379 56.8596 85.3879C57.2568 84.8845 57.6553 84.3823 58.0542 83.8803C58.177 83.724 58.2998 83.5676 58.4264 83.4066C58.9973 82.6908 59.5122 82.057 60.3 81.5667Z"
            fill="#020064" />
        <path
            d="M58.5097 79.8802C58.7093 80.2549 58.7093 80.2549 58.8548 80.719C58.483 81.335 58.0975 81.8624 57.6528 82.4253C57.4797 82.6514 57.3066 82.8775 57.1282 83.1105C56.6281 83.763 56.1221 84.4106 55.6137 85.0566C55.4004 85.3283 55.188 85.6005 54.9763 85.8734C54.6676 86.2711 54.3568 86.667 54.0453 87.0625C53.9513 87.1845 53.8573 87.3064 53.7604 87.4321C53.2786 88.0383 52.9094 88.4702 52.1456 88.6725C51.9733 88.4387 51.8009 88.205 51.6234 87.9642C52.4316 86.9374 53.2416 85.9121 54.0532 84.888C54.3289 84.5397 54.6041 84.1909 54.8789 83.8418C55.2745 83.3392 55.6718 82.838 56.0695 82.337C56.1914 82.1814 56.3133 82.0257 56.4389 81.8654C57.0674 81.0773 57.6522 80.4332 58.5097 79.8802Z"
            fill="#020064" />
        <path
            d="M56.5423 78.3239C56.7606 78.6759 56.7606 78.6759 56.8875 79.1628C56.6094 79.6724 56.6094 79.6724 56.1569 80.2428C55.9911 80.455 55.8253 80.6673 55.6544 80.8859C55.474 81.1111 55.2936 81.3363 55.1078 81.5683C54.8378 81.9157 54.5678 82.263 54.2981 82.6105C53.9306 83.0817 53.5588 83.5493 53.1865 84.0166C52.9955 84.2568 52.8052 84.4976 52.6156 84.7389C52.337 85.0933 52.0566 85.4461 51.7756 85.7986C51.6117 86.0056 51.4476 86.2126 51.2787 86.4258C50.84 86.9016 50.84 86.9016 50.1782 87.1162C50.0059 86.8825 49.8336 86.6487 49.656 86.4079C50.4354 85.4019 51.217 84.3976 52.0005 83.3947C52.2665 83.0537 52.5319 82.7121 52.7967 82.3702C53.1785 81.8774 53.5623 81.3864 53.9465 80.8955C54.1222 80.6674 54.1222 80.6674 54.3014 80.4346C54.9784 79.5748 55.628 78.9279 56.5423 78.3239Z"
            fill="#020064" />
        <path
            d="M51.5092 80.3948C51.6816 80.6286 51.8539 80.8623 52.0315 81.1031C51.3285 82.2296 50.5696 83.2405 49.6985 84.2412C49.5844 84.3737 49.4704 84.5062 49.3529 84.6428C49.0756 84.9648 48.7972 85.2858 48.5185 85.6066C48.2447 85.3575 47.9708 85.1084 47.6887 84.8518C48.1574 84.2298 48.6289 83.61 49.1009 82.9905C49.2335 82.8145 49.3661 82.6386 49.5027 82.4572C49.6323 82.2877 49.7618 82.1182 49.8953 81.9435C50.0137 81.7876 50.132 81.6316 50.2539 81.4709C50.6359 81.0339 51.0307 80.7206 51.5092 80.3948Z"
            fill="#030064" />
    </g>
    <defs>
        <clipPath id="clip0_429_1772">
            <rect width="88" height="88" fill="white"
                transform="translate(0.473999 52.6968) rotate(-36.4015)" />
        </clipPath>
    </defs>
</svg>