<svg width="108" height="115" viewBox="0 0 108 115" fill="none" xmlns="http://www.w3.org/2000/svg">
<g clip-path="url(#clip0_429_365)">
<path d="M53.7628 20.1293L55.1711 18.3898L57.1441 17.8929L59.7196 17.6219L60.8943 17.7876L62.6338 19.1959L63.0028 21.3271L64.4637 21.4627L65.6987 22.2008L66.5496 23.4132L67.9045 36.2906L67.3924 36.9231L66.7297 36.1248L65.4651 24.106L64.6142 22.8935L63.2813 22.5998L63.334 24.4749L64.6588 37.0661L64.0789 38.4291L65.3736 50.7341L65.3885 53.6259L65.1474 56.8339L64.6502 60.3582L63.641 64.515L63.0008 65.3057L62.0219 64.2514L59.9813 59.9814L58.513 55.6513L57.8655 52.2474L57.4364 49.5439L56.3223 38.9559L55.4714 37.7434L53.6649 20.5736L53.7628 20.1293ZM55.0355 19.8507L54.7417 21.1836L56.0364 33.4887L56.925 33.6845L62.9345 33.0522L63.1303 32.1636L61.8657 20.1447L61.1729 19.0603L59.6819 18.6385L56.5341 18.9697L55.1635 19.6926L55.0355 19.8507ZM56.187 34.9195L56.458 37.495L57.2185 37.8489L63.228 37.2166L63.5819 36.4561L63.3411 34.1667L62.4525 33.9709L56.443 34.6032L56.187 34.9195ZM57.339 38.9936L58.6036 51.0125L58.95 51.5547L64.1009 51.0127L64.2666 49.8379L63.0622 38.3914L62.1736 38.1956L57.595 38.6773L57.339 38.9936ZM58.9123 52.5713L59.4694 55.1167L60.5612 58.6184L61.0657 59.2887L63.6412 59.0177L63.9651 57.971L64.3342 54.6048L64.3494 51.9992L62.4743 52.0519L59.0403 52.4132L58.9123 52.5713ZM61.3142 60.2752L61.9769 61.0735L63.1215 60.953L63.6035 60.0343L61.7284 60.087L61.3142 60.2752ZM62.2253 62.06L62.7599 63.0164L63.0838 61.9697L62.2253 62.06Z" fill="#030064"/>
<path d="M43.8952 77.5872L58.4902 59.5596L59.1228 60.0717L45.198 77.5948L44.972 78.1972L46.9524 81.8948L52.4568 91.5869L55.13 96.369L56.5532 97.5212L57.3515 96.8586L87.6939 59.3802L87.8897 58.4916L87.227 57.6933L80.186 55.3962L68.5138 51.7057L67.4671 51.3818L66.8044 50.5835L67.1885 50.1091L72.8665 51.8263L83.492 55.193L87.8371 56.6165L88.816 57.6708L89.0946 58.9435L88.9966 59.3878L57.502 98.2894L56.2294 98.568L55.785 98.47L54.3618 97.3178L49.0456 88.0399L43.8876 78.89L43.8952 77.5872Z" fill="#020064"/>
<path d="M57.8573 70.0422L60.5458 66.7213L61.3064 67.0753L61.3365 67.3615L58.8061 70.8104L58.0002 72.7758L58.5725 72.7156L59.913 71.7066L67.3687 62.8208L69.0933 61.3373L70.622 60.7425L71.5407 61.2245L71.6913 62.6553L70.8854 64.6208L56.5464 82.3321L55.9138 81.82L68.8144 65.562L70.4186 62.9339L70.6144 62.0453L69.2438 62.7682L68.5736 63.2727L60.8618 72.4747L58.9791 73.8301L57.5483 73.9807L56.8857 73.1824L57.0213 71.7215L57.8573 70.0422Z" fill="#020064"/>
</g>
<defs>
<clipPath id="clip0_429_365">
<rect width="81.3861" height="81.3861" fill="white" transform="translate(0 63.2546) rotate(-51.0065)"/>
</clipPath>
</defs>
</svg>
