<svg width="176" height="245" viewBox="0 0 176 245" fill="none" xmlns="http://www.w3.org/2000/svg">
    <path fill-rule="evenodd" clip-rule="evenodd"
        d="M71.6661 103.735C71.4856 104.083 70.9571 107.602 73.0326 107.602C73.3952 107.603 73.7459 107.473 74.0205 107.236C74.2952 107 74.4753 106.672 74.528 106.313C74.9663 102.368 72.388 102.381 71.6661 103.735ZM90.3586 103.683C90.4746 105.05 90.6293 106.262 91.9958 106.262C92.3584 106.262 92.7091 106.132 92.9837 105.896C93.2583 105.659 93.4385 105.331 93.4912 104.972C93.519 104.143 93.4278 103.314 93.2205 102.51C92.4728 101.131 90.1652 101.466 90.3586 103.683ZM81.3346 116.136C81.7343 116.136 85.202 115.969 86.0142 115.337C86.2591 115.157 86.2333 114.809 86.2333 114.486C86.1561 110.83 85.8027 107.184 85.1763 103.58C85.1763 103.387 85.0087 103.348 84.9055 103.374C84.8024 103.4 84.7508 103.58 84.7637 103.89C84.7637 104.947 84.6735 105.308 85.0473 111.225C85.2923 115.092 85.1891 114.009 85.2665 114.654C84.0576 115.097 82.8163 115.446 81.5538 115.698C80.7159 115.879 81.3088 116.136 81.3346 116.136ZM85.4083 125.057C84.4518 125.57 83.3971 125.873 82.3144 125.947C82.2597 125.947 82.2072 125.968 82.1685 126.007C82.1298 126.046 82.1081 126.098 82.1081 126.153C82.1081 126.208 82.1298 126.26 82.1685 126.299C82.2072 126.338 82.2597 126.359 82.3144 126.359C82.92 126.577 83.567 126.655 84.2072 126.589C84.8473 126.522 85.4642 126.311 86.0118 125.973C86.5594 125.635 87.0236 125.178 87.37 124.635C87.7164 124.093 87.9359 123.479 88.0123 122.84C88.0191 122.814 88.0207 122.786 88.0169 122.76C88.0131 122.733 88.0041 122.707 87.9903 122.684C87.9765 122.66 87.9583 122.64 87.9366 122.623C87.915 122.607 87.8903 122.595 87.8641 122.589C87.8379 122.582 87.8105 122.58 87.7837 122.584C87.7569 122.588 87.731 122.597 87.7077 122.611C87.6844 122.624 87.664 122.643 87.6477 122.664C87.6314 122.686 87.6195 122.711 87.6127 122.737C87.0907 123.688 86.3312 124.487 85.4083 125.057ZM27.6292 25.6391C30.9423 36.7127 42.6605 36.1713 44.027 36.9964C44.027 37.1253 46.7084 47.4513 47.7913 48.8693C48.3972 49.6557 49.8539 49.3463 50.8208 49.1658C53.0897 48.7146 55.7195 48.5728 57.6403 47.0387C58.1302 46.6391 57.8466 45.0148 57.7176 44.4605C57.3073 42.1425 56.7388 39.8554 56.016 37.6151C55.7317 36.9393 55.4906 36.246 55.2941 35.5396C56.1837 34.7516 57.1512 34.0562 58.1817 33.4641C59.8827 32.3054 61.3957 30.8923 62.6679 29.2744C65.1294 25.6684 66.2422 21.3106 65.8107 16.9659C65.3793 12.6212 63.4314 8.56723 60.3088 5.51566C50.7563 -3.85635 33.4819 -0.801103 27.8742 11.0203C25.9533 15.1197 26.3272 21.3334 27.6292 25.6391ZM57.0473 46.4199C55.3328 47.7993 52.806 47.9798 50.6016 48.431C50.0086 48.5599 48.6035 48.908 48.2296 48.431C47.5002 47.3781 46.9754 46.1973 46.6826 44.9503C50.0219 44.4797 53.288 43.5874 56.4027 42.2947C56.8241 43.6295 57.0414 45.0203 57.0473 46.4199ZM56.2609 41.7662C52.9669 42.3801 49.7321 43.2772 46.5924 44.4476C46.2594 42.9514 45.8288 41.4786 45.3033 40.0387C48.6339 39.6899 51.9005 38.883 55.0105 37.6409C55.5306 39.0037 55.9612 40.3989 56.2996 41.8177L56.2609 41.7662ZM28.6863 11.4199C34.0878 0.255989 50.6016 -2.56722 59.6256 6.26336C62.5586 9.14017 64.3934 12.952 64.8124 17.0389C65.2315 21.1258 64.2084 25.2306 61.9202 28.6428C59.69 31.7882 55.1781 33.954 54.4819 35.0884C54.237 35.4881 54.6882 36.5065 54.9718 37.2284C53.5022 37.512 51.8908 37.8601 50.4469 38.1824C50.0602 36.4162 48.2554 29.2873 47.585 27.6115C47.3272 26.9411 47.0952 26.9927 46.4119 27.186C42.6477 27.186 38.5095 26.2321 37.1817 22.687C37.0213 22.2714 36.9088 21.8389 36.8465 21.3978C36.6661 19.5415 38.1357 17.3757 39.76 17.5304C39.5279 18.9485 39.76 21.6556 40.9718 22.4678C42.1836 23.28 43.55 21.9908 43.55 20.8306C43.4813 19.9939 43.2093 19.1867 42.7578 18.479C42.3062 17.7714 41.6887 17.1846 40.9589 16.7698C41.1615 16.3096 41.4618 15.899 41.839 15.5664C42.2162 15.2338 42.6612 14.9872 43.1431 14.8437C43.6251 14.7002 44.1325 14.6633 44.6301 14.7354C45.1278 14.8076 45.6038 14.9871 46.0252 15.2615C45.0068 17.2468 46.0252 21.7974 47.83 20.7275C49.6348 19.6575 49.0418 17.0276 47.9202 15.5709C47.3788 14.8619 47.2628 15.0553 47.5335 14.849C49.6348 13.3149 52.0197 15.0939 53.0252 17.4273C54.469 20.6372 51.3751 24.5949 49.4156 25.7938C49.3678 25.8228 49.3334 25.8697 49.3201 25.9241C49.3068 25.9785 49.3157 26.036 49.3447 26.0838C49.3738 26.1317 49.4207 26.1661 49.4751 26.1793C49.5294 26.1926 49.5869 26.1838 49.6348 26.1547C52.0326 24.7496 55.062 20.6114 53.6827 17.1308C52.3033 13.6501 48.8355 12.3094 46.644 14.3849C46.0922 14.0063 45.4624 13.7563 44.8012 13.6534C44.1399 13.5504 43.464 13.5972 42.8232 13.7902C42.1824 13.9831 41.593 14.3174 41.0986 14.7684C40.6042 15.2194 40.2172 15.7756 39.9663 16.396C37.5685 16.0866 35.5445 18.884 35.8152 21.4236C35.9609 22.5461 36.3851 23.6142 37.0494 24.5307C37.7137 25.4471 38.5968 26.1827 39.6182 26.6704C40.83 27.2505 45.1357 28.3076 46.8373 27.8177C47.4304 29.1068 49.5832 36.6741 49.9699 38.2597C44.2462 39.5488 45.4064 40.1547 45.1228 39.3168C44.7876 38.2726 44.5814 36.7385 44.2977 36.6354C37.1817 35.024 30.7618 33.838 28.364 25.3941C27.1909 21.3076 26.8815 15.2486 28.6863 11.4199ZM41.1007 18.479C41.5892 18.8256 41.5462 18.5825 41.8465 19.1007C42.1468 19.619 42.3321 20.1957 42.3898 20.7919C42.3898 21.14 41.6035 22.0811 41.1007 21.0497C40.7158 20.0084 40.579 18.8917 40.7011 17.7882L41.1007 18.479ZM46.7342 15.8159C47.7655 16.8214 48.4101 19.1676 47.2885 19.8509C46.8998 19.2628 46.6481 18.5948 46.5522 17.8964C46.4562 17.198 46.5184 16.487 46.7342 15.8159ZM8.06013 65.0222C13.3069 63.385 19.6624 64.803 22.1117 70.6041C26.353 80.4273 15.1375 85.4292 15.2535 85.9449C15.5113 87.234 15.9754 89.49 16.1688 90.792C16.1842 90.9014 16.2424 91.0002 16.3306 91.0667C16.4189 91.1332 16.5299 91.1619 16.6393 91.1465C16.7487 91.1311 16.8476 91.0729 16.914 90.9847C16.9805 90.8964 17.0092 90.7854 16.9938 90.676C16.8391 89.3868 16.6716 87.5305 16.4911 86.1898C18.3138 85.4586 20.0003 84.4258 21.48 83.1345C30.5813 72.396 20.4229 58.8472 7.44135 63.0885C5.38578 63.6879 3.56773 64.9122 2.23947 66.5916C0.911206 68.271 0.138588 70.3221 0.0288124 72.4605C-0.383711 77.5397 3.66418 81.9227 10.2001 81.3555C10.2986 81.3382 10.3879 81.2867 10.4522 81.21C10.5165 81.1334 10.5517 81.0366 10.5517 80.9366C10.5517 80.8365 10.5165 80.7397 10.4522 80.6631C10.3879 80.5864 10.2986 80.5349 10.2001 80.5176C4.39898 80.8141 1.29217 76.6502 1.84649 72.6539C1.97491 70.8982 2.63989 69.2245 3.75133 67.8594C4.86278 66.4943 6.36697 65.5038 8.06013 65.0222ZM104.346 31.3886C104.455 31.4177 104.572 31.4021 104.67 31.3453C104.767 31.2885 104.839 31.1951 104.868 31.0857C104.897 30.9763 104.881 30.8598 104.824 30.7619C104.768 30.664 104.674 30.5926 104.565 30.5636C98.9829 28.9908 97.3715 24.0534 99.1763 20.431C99.8792 18.8131 101.063 17.4505 102.566 16.5281C104.07 15.6057 105.821 15.168 107.581 15.2744C117.276 15.5194 121.53 24.4402 117.895 30.8085C115.484 35.1658 112.261 36.3389 108.136 36.8803C108.005 36.8987 107.885 36.9589 107.792 37.0519C107.699 37.1449 107.638 37.2657 107.62 37.396C107.478 38.582 107.169 40.9153 106.937 42.2689C106.915 42.3766 106.936 42.4887 106.997 42.5806C107.057 42.6725 107.151 42.7366 107.259 42.7588C107.367 42.781 107.479 42.7595 107.571 42.6991C107.663 42.6387 107.727 42.5442 107.749 42.4365C108.046 41.0442 108.445 39.407 108.716 38.0277C110.674 37.9223 112.601 37.4865 114.414 36.7385C118.784 34.1603 121.44 30.0866 121.092 24.93C120.279 12.8251 102.618 8.49357 97.5391 19.7735C95.5667 24.3628 97.9645 29.9448 104.346 31.3886ZM175.97 91.8749C175.822 89.4853 174.97 87.193 173.521 85.2874C172.127 83.7187 170.426 82.4519 168.524 81.5651C166.622 80.6782 164.558 80.1902 162.46 80.1308C160.324 80.0319 158.211 80.599 156.412 81.7537C154.613 82.9085 153.217 84.5938 152.418 86.5765C150.394 91.2561 152.83 96.7091 159.186 98.2561C159.242 98.2816 159.304 98.2944 159.366 98.2936C159.428 98.2927 159.489 98.2783 159.545 98.2513C159.601 98.2243 159.65 98.1854 159.69 98.1373C159.729 98.0892 159.757 98.0331 159.773 97.9729C159.788 97.9127 159.79 97.8499 159.778 97.7888C159.767 97.7278 159.742 97.6701 159.705 97.6197C159.669 97.5693 159.622 97.5274 159.568 97.497C159.514 97.4667 159.454 97.4486 159.392 97.4439C153.849 95.7681 152.198 90.9983 154.016 87.3113C154.719 85.6935 155.903 84.3309 157.406 83.4085C158.91 82.4861 160.661 82.0484 162.421 82.1548C164.209 82.2045 165.968 82.6162 167.592 83.3651C169.217 84.1141 170.672 85.1846 171.871 86.5121C173.078 88.0881 173.796 89.9845 173.933 91.9651C174.849 103.335 162.602 103.374 162.486 104.276C162.331 105.565 162.047 107.834 161.802 109.149C161.78 109.257 161.802 109.369 161.862 109.461C161.923 109.553 162.017 109.617 162.125 109.639C162.232 109.661 162.345 109.64 162.436 109.579C162.528 109.519 162.592 109.425 162.615 109.317C162.924 107.938 163.311 106.287 163.582 104.908C165.543 104.798 167.473 104.362 169.292 103.619C173.598 101.092 176.318 97.083 175.97 91.8749ZM21.9055 100.564C22.4598 98.269 20.7968 95.8583 19.1467 96.0517C18.0765 95.9359 16.9988 95.9058 15.9239 95.9614C13.1264 96.6318 11.8115 100.293 14.4414 102.085C17.4579 104.096 21.364 102.704 21.9055 100.564ZM19.9073 100.306C19.4495 100.688 18.8887 100.926 18.2959 100.989C14.7894 101.479 14.0417 98.4108 16.4008 97.4053L19.1725 96.8896C20.3714 96.9927 20.6421 99.5581 19.9073 100.241V100.306ZM105.867 47.1934C102.863 46.0977 99.6146 49.4881 101.742 52.35C103.869 55.2118 108.084 55.2118 109.296 53.3039C110.508 51.396 109.773 48.5083 108.149 48.1474C108.007 48.0829 106.885 47.5673 105.867 47.1934ZM107.491 52.35C106.915 52.5462 106.297 52.59 105.698 52.4771C105.1 52.3641 104.541 52.0983 104.075 51.7054C103.694 51.4318 103.381 51.0746 103.16 50.6612C102.786 49.617 104.127 48.547 105.106 48.4826L107.891 48.8822C108.974 49.4623 108.432 51.989 107.491 52.3886V52.35ZM162.976 115.105C162.718 114.989 161.39 114.435 160.707 114.177C157.69 113.081 154.454 116.472 156.582 119.333C158.709 122.195 162.911 122.195 164.136 120.287C165.361 118.38 164.613 115.466 162.976 115.105ZM162.318 119.372C161.741 119.567 161.124 119.61 160.526 119.497C159.927 119.384 159.368 119.119 158.902 118.728C158.524 118.445 158.212 118.085 157.987 117.67C157.626 116.639 158.954 115.569 159.933 115.505L162.718 115.904C163.801 116.446 163.259 118.96 162.318 119.372Z"
        fill="black" />
    <path fill-rule="evenodd" clip-rule="evenodd"
        d="M152.443 186.214C149.865 173.529 139.836 153.985 127.795 148.996L125.372 143.93C125.354 143.893 125.329 143.861 125.298 143.835C125.267 143.808 125.231 143.789 125.192 143.778C125.153 143.767 125.112 143.765 125.071 143.771C125.031 143.777 124.993 143.792 124.959 143.814L122.381 145.477C121.562 140.005 119.061 134.923 115.226 130.936C117.907 126.798 122.2 125.534 126.635 125.341C130.309 125.186 133.016 124.967 135.143 121.821C139.359 115.608 138.366 109.549 133.416 103.774C125.874 94.9817 122.909 97.6115 119.235 92.7515C112.248 83.6244 110.662 70.1271 100.375 63.1014C87.226 54.1934 80.1357 61.3739 77.377 63.5912C73.342 61.1419 64.3438 61.9927 60.4764 65.3058C57.1891 68.1161 52.8319 71.7515 51.1431 75.8122C47.5464 84.385 47.9331 94.5305 42.6735 102.304C41.3843 104.238 39.1799 105.54 37.6201 107.37C35.479 110.055 33.6577 112.979 32.1928 116.085C30.2849 119.694 28.8281 123.704 30.5685 127.442C32.9018 132.444 38.1228 137.214 43.6919 136.853C46.9147 136.634 51.1818 134.7 54.2112 135.976C56.016 136.724 56.7122 138.464 58.0786 139.921C61.1726 143.363 68.3917 144.407 72.388 142.022C67.9921 147.617 59.6772 148.973 47.9847 155.418C30.0399 165.293 25.876 175.166 23.9552 186.652C23.2204 190.226 21.9047 193.63 21.5574 197.262C20.4488 215.993 26.1339 239.739 44.5685 243.671C49.6219 244.753 55.4101 245.45 60.412 244.199C69.8871 241.84 81.1928 235.459 89.4949 230.276C93.3623 227.866 107.672 218.21 114.324 216.947C114.724 220.387 115.591 223.757 116.902 226.963C122.226 237.908 130.747 244.38 142.685 241.569C150.419 239.752 152.624 231.514 152.83 223.625C156.71 215.297 153.629 192.273 152.443 186.214ZM107.839 125.856C110.134 126.282 111.707 128.435 113.408 130.188C117.907 134.687 121.001 139.508 121.93 145.658C118.204 148.03 115.78 149.525 115.729 149.602C115.677 149.68 113.885 145.116 112.802 144.562C111.182 143.758 109.713 142.68 108.458 141.378C107.491 140.308 106.305 138.426 106.46 137.008C107.145 136.643 107.893 136.411 108.664 136.324V135.525C104.681 135.641 103.314 139.276 102.953 140.089C102.696 140.669 102.335 141.249 101.51 141.159C100.685 141.068 100.388 140.114 100.697 139.263C101.007 138.413 101.755 134.674 107.027 133.862C107.093 133.853 107.157 133.83 107.214 133.797C107.272 133.763 107.322 133.718 107.362 133.665C107.402 133.611 107.431 133.551 107.448 133.486C107.465 133.422 107.468 133.354 107.459 133.288C107.45 133.222 107.427 133.159 107.394 133.101C107.36 133.044 107.315 132.994 107.262 132.954C107.208 132.914 107.148 132.884 107.083 132.868C107.019 132.851 106.951 132.847 106.885 132.857C105.782 132.997 104.712 133.333 103.727 133.849C102.841 134.282 102.055 134.893 101.418 135.646C100.781 136.398 100.308 137.274 100.027 138.219C99.4083 139.985 97.2426 139.199 97.7582 137.678C98.2771 136.198 99.0492 134.82 100.04 133.604C101.14 132.555 102.462 131.767 103.907 131.297C105.042 130.833 106.009 131.052 106.267 130.678C106.524 130.304 105.918 129.054 105.609 128.68C103.946 126.694 99.1634 128.409 97.3328 126.192C96.1597 124.735 98.6219 124.683 99.6146 124.554C102.399 124.245 105.042 125.328 107.839 125.856ZM112.57 157.801C108.885 159.002 105.126 159.963 101.316 160.676C102.605 153.341 103.482 147.05 103.353 144.768C106.357 145.348 109.799 145.761 113.563 146.38C114.581 148.068 115.136 149.486 115.381 149.886L112.88 151.472C112.751 151.639 112.777 150.943 112.57 157.801ZM98.5704 195.044C99.1413 197.52 99.5461 200.031 99.7822 202.56C94.4967 202.225 90.4617 202.289 88.4764 202.212C88.5538 198.59 88.5925 197.468 88.6569 196.707C91.9104 195.883 95.226 195.327 98.5704 195.044ZM78.2923 163.293C85.6055 163.345 92.9091 162.75 100.117 161.514C97.8227 173.89 94.3291 188.766 92.679 191.744C88.889 181.405 89.2757 181.367 78.2923 163.293ZM93.7619 191.577C95.8503 186.897 99.0216 172.936 101.136 161.308C104.984 160.587 108.778 159.604 112.493 158.368C112.093 172.291 111.977 189.669 112.815 203.63C110.366 203.411 106.808 203.102 103.353 202.831C103.134 200.742 102.27 193.472 101.535 191.564C101.342 191.048 101.11 190.842 100.246 190.816C98.0904 190.91 95.9446 191.165 93.8264 191.577H93.7619ZM98.3641 142.396C97.0585 141.633 96.0155 140.491 95.3733 139.122C95.9701 139.373 96.5926 139.559 97.2297 139.676C97.4713 139.948 97.7831 140.148 98.131 140.255C98.4788 140.362 98.8493 140.371 99.2021 140.282C99.7822 140.101 99.4083 140.024 99.7177 140.836C99.8365 141.163 100.037 141.455 100.299 141.683C100.562 141.912 100.879 142.07 101.219 142.142C101.56 142.214 101.913 142.198 102.246 142.096C102.578 141.994 102.88 141.809 103.121 141.558C103.624 141.107 103.662 140.566 104.268 139.405C104.861 139.289 105.441 139.135 106.009 138.967C107.543 142.989 112.351 144.936 112.686 145.232C107.027 144.394 102.012 143.866 98.4286 142.396H98.3641ZM73.6514 140.849C76.7453 137.265 76.1136 134.7 72.9295 132.16C66.4838 127.107 67.2831 128.461 64.5759 122.814C61.3917 113.648 64.1376 99.2101 66.4967 89.8123C67.1413 87.234 71.5372 84.4752 74.7343 84.8877C79.1689 85.455 77.3125 87.7883 81.1026 89.1161C81.7606 89.3085 82.4412 89.4125 83.1265 89.4255C83.1672 89.4382 83.2099 89.4428 83.2523 89.439C83.2947 89.4351 83.3359 89.423 83.3736 89.4033C83.4113 89.3835 83.4448 89.3565 83.4721 89.3238C83.4993 89.2912 83.5199 89.2534 83.5326 89.2128C83.5453 89.1722 83.5499 89.1294 83.5461 89.087C83.5423 89.0447 83.5301 89.0034 83.5104 88.9657C83.4906 88.928 83.4636 88.8946 83.431 88.8673C83.3983 88.84 83.3605 88.8194 83.3199 88.8067C81.3093 87.6008 79.456 86.1502 77.8024 84.4881C78.5888 81.2782 80.5869 79.525 84.3383 79.4992C86.9166 79.4992 88.9534 81.4587 90.784 83.1345C93.0013 85.1585 95.3862 90.6244 95.2057 93.6281C94.798 97.1086 95.6138 100.623 97.5133 103.567C98.8024 105.81 101.226 107.757 102.67 109.652C103.469 110.709 103.005 115.427 102.541 117.503C101.935 119.321 100.646 122.788 100.349 123.575C94.9608 123.768 95.1928 126.656 97.7711 127.893C95.3604 130.781 89.4691 133.991 93.6846 138.039C94.587 139.934 96.0308 142.525 97.9645 143.311C99.3367 143.868 100.756 144.299 102.206 144.601C102.489 146.599 101.561 153.212 100.143 160.908C92.7445 162.139 85.2504 162.704 77.7508 162.597C73.0971 154.978 68.4691 147.759 67.296 146.599C69.9005 145.275 72.1137 143.293 73.7159 140.849H73.6514ZM64.8595 147.643C67.4378 146.676 66.1486 146.844 66.7674 147.321C67.3862 147.798 71.6403 154.54 76.5777 162.545C70.7251 162.455 64.1376 162.017 61.6495 161.733C62.3972 161.14 60.4635 150.956 59.7158 149.667C61.5851 148.919 63.3125 148.262 64.9239 147.643H64.8595ZM58.7619 150.066C59.8219 153.862 60.5423 157.745 60.9147 161.669C55.3522 160.871 49.8956 159.458 44.6458 157.453C49.1445 154.576 53.89 152.104 58.8263 150.066H58.7619ZM59.935 243.271C55.1007 244.483 49.4414 243.774 44.5685 242.73C36.9497 241.092 31.6771 236 28.248 229.477C22.795 219.164 21.1707 203.836 22.8337 193.098C23.1688 190.945 23.5943 188.818 23.9552 186.652C26.0049 174.367 33.469 165.111 43.8853 158.111C54.1081 161.862 60.9792 163.177 77.0418 163.267C88.1671 181.315 88.412 183.12 91.5962 191.95C90.6164 192.131 86.0787 193.046 85.3052 193.678C84.9958 193.923 84.9958 194.413 85.3052 202.16C73.574 202.392 62.1007 204.223 51.3107 211.184C50.0215 201.89 51.504 199.079 54.5077 193.755C59.226 185.389 58.3751 183.842 55.3972 179.085C54.9063 178.443 54.555 177.705 54.3659 176.919C54.3659 176.61 53.0768 176.184 54.8945 179.381C57.4727 184.074 58.1689 185.183 53.6053 193.24C50.2665 199.144 48.9 202.173 50.911 211.455C50.0086 212.061 48.9773 212.744 47.9847 213.544C46.4682 214.611 45.045 215.806 43.7306 217.114C43.7049 217.164 43.7 217.222 43.7169 217.275C43.7339 217.328 43.7712 217.372 43.8208 217.398C43.8704 217.424 43.9281 217.429 43.9813 217.412C44.0345 217.395 44.0788 217.357 44.1044 217.308C44.504 216.599 51.1689 212.151 52.9608 211.236C62.9645 206.195 74.0252 201.838 92.1376 203.037C91.9094 210.701 92.7028 218.361 94.4967 225.816C85.1892 231.695 71.9626 240.28 59.9995 243.271H59.935ZM95.296 225.3C93.6398 218.03 92.9078 210.581 93.1173 203.127C112.686 204.416 106.55 204.004 112.867 204.416C113.099 208.181 113.447 212.267 113.963 216.019C108.909 216.96 99.8209 222.503 95.3604 225.3H95.296ZM142.143 240.641C130.76 243.335 122.677 237.122 117.546 226.602C111.874 215 112.815 164.608 113.138 151.768L124.92 144.472C140.828 178.827 142.736 182.076 146.307 193.459C150.922 207.962 157.007 237.212 142.208 240.641H142.143ZM152.534 220.917C152.235 214.014 151.171 207.166 149.362 200.497C145.276 184.602 140.854 176.636 128.62 150.917L128.981 150.724C139.784 156.499 148.937 174.431 151.335 186.407C152.65 192.66 155.163 213.105 152.598 220.917H152.534Z"
        fill="black" />
</svg>