<svg width="217" height="217" viewBox="0 0 217 217" fill="none" xmlns="http://www.w3.org/2000/svg">
<g clip-path="url(#clip0_376_60)">
<path fill-rule="evenodd" clip-rule="evenodd" d="M168.024 132.4C168.407 136.09 168.037 139.845 167.088 143.462L167.088 143.462C163.94 153.975 153.655 161.203 143.56 165.504C143.335 165.623 143.16 165.491 143.109 165.305C142.977 165.361 142.846 165.416 142.714 165.47C142.209 164.426 141.686 163.358 141.171 162.307L141.171 162.306L141.17 162.305L141.168 162.3C140.091 160.099 139.05 157.975 138.283 156.304L138.282 156.303C137.95 155.581 137.526 154.854 136.902 154.214C136.786 154.116 136.666 154.029 136.544 153.953L135.132 150.517L135.131 150.517C134.932 149.833 134.463 149.539 133.77 149.373C133.463 149.305 133.156 149.251 132.847 149.208L132.143 146.609L132.142 146.61C131.963 145.994 131.966 145.3 132.424 144.755C134.125 141.074 134.451 136.817 133.228 132.884C132.861 131.376 132.303 129.913 131.59 128.524C139.294 119.674 146.694 110.469 152.793 100.771C140.364 86.9516 126.303 73.9671 109.832 65.23C102.508 71.8899 93.8604 81.1601 86.0541 91.4294C85.164 91.2458 84.2611 91.1216 83.3491 91.0608C79.2641 90.5305 75.1267 91.5824 71.7921 93.8903C71.5632 94.1626 71.1982 94.3204 70.8904 94.4101L70.8018 94.4177C70.7312 94.4245 70.6731 94.4297 70.6151 94.433C70.3396 94.4488 70.0617 94.4224 68.4655 94.2721L68.4614 94.2716L68.4561 94.2712C68.1389 94.2408 67.7692 94.2064 67.3376 94.166C67.239 93.8517 67.1264 93.5407 67.0009 93.2329L67.0013 93.2323C66.8307 92.6491 66.3873 92.2212 65.7082 92.145L62.0837 91.3437C61.9865 91.236 61.8803 91.1327 61.763 91.0341C61.0252 90.5299 60.2365 90.2363 59.4676 90.0334C57.8351 89.6023 55.239 89.0859 52.4212 88.5554C56.3306 85.0804 59.4089 82.2615 62.3489 76.6573C64.9636 71.674 66.3397 65.8375 66.3143 60.4732C66.3054 58.5828 66.3279 56.6788 66.5213 54.8384C67.274 47.6756 72.9308 42.1033 79.3186 39.3421C88.9349 35.1853 101.65 36.0836 110.228 39.8879C113.13 41.1766 115.443 42.7476 117.809 44.3536C121.417 46.8035 125.145 49.3351 131.264 51.0701C135.958 52.3085 138.778 52.5171 141.556 52.7228C143.226 52.8464 144.882 52.969 146.922 53.3135C151.432 54.1656 157.243 57.1516 160.967 59.5466C167.166 63.3651 173.284 67.6956 177.585 73.6353C183.687 82.1194 185.335 93.5109 179.134 101.776C177.976 103.282 176.565 104.524 175.155 105.764C173.526 107.198 171.9 108.628 170.671 110.46C166.979 115.903 167.417 122.659 167.828 128.988C167.903 130.143 167.976 131.283 168.024 132.4ZM122.182 159.147C122.204 161.055 122.328 165.325 122.542 169.815C116.649 169.645 110.935 167.936 105.576 164.091C106.534 164.082 107.259 163.763 107.797 162.853L107.797 162.852C110.716 158.052 113.119 152.02 114.437 146.531C111.182 141.248 106.567 135.184 102.665 130.46C108.336 134.947 113.323 139.172 118.003 143.667L118.566 143.049C119.212 142.34 119.859 141.628 120.508 140.914L120.508 140.915C120.508 141.664 120.508 142.409 120.545 143.131C120.575 144.202 120.855 145.25 121.192 146.231C121.38 146.778 121.682 147.06 122.004 147.359C122.259 147.596 122.524 147.843 122.754 148.242C122.773 148.284 122.795 148.331 122.819 148.38C122.896 148.538 122.985 148.723 123.002 148.914C123.227 149.883 123.455 150.891 123.661 151.895C123.411 152.112 123.171 152.341 122.94 152.581C122.543 153.053 122.185 153.519 122.386 154.207C122.443 155.363 122.559 156.515 122.75 157.64C122.25 158.234 122.236 158.434 122.209 158.84C122.202 158.929 122.196 159.03 122.182 159.147ZM41.0339 108.861C41.2519 109.892 41.592 110.901 42.0413 111.863C44.0649 116.041 47.9549 118.433 51.5162 120.602C51.7019 120.19 52.0744 119.862 52.6873 119.652C57.6512 117.203 62.794 115.37 68.1847 114.209C68.4192 114.155 68.6186 114.104 68.7944 114.06L68.7962 114.06L68.7972 114.059L68.7979 114.059C69.8755 113.785 70.0736 113.735 72.1294 114.376C77.7477 116.102 84.3492 118.485 90.0121 120.766C87.8147 119.117 85.5182 117.403 83.1098 115.604L83.1095 115.604L83.1077 115.602L83.1019 115.598L83.0999 115.597L83.0937 115.591L83.0883 115.588C80.3138 113.515 77.3902 111.333 74.2987 109.01C75.0372 107.72 75.8042 106.431 76.5964 105.146C76.2043 105.21 75.815 105.268 75.4301 105.315C74.3706 105.47 73.2894 105.374 72.2655 105.21C71.6942 105.118 71.3642 104.869 71.0149 104.603C70.7379 104.393 70.4485 104.174 70.0165 104.016C69.971 104.005 69.9213 103.991 69.8691 103.976C69.7005 103.927 69.5024 103.871 69.3112 103.888C68.2629 103.798 67.218 103.75 66.1867 103.73C66.0346 103.976 65.8717 104.217 65.6991 104.453C65.2748 104.957 64.9815 105.259 64.2607 105.335C63.15 105.451 62.0381 105.541 60.9373 105.558L60.9368 105.558C60.355 106.277 60.1679 106.323 59.7402 106.429L59.7394 106.429L59.7386 106.43C59.6512 106.451 59.5543 106.475 59.4412 106.508C56.4256 106.997 47.4036 108.27 41.0339 108.861ZM129.146 131.31L129.118 131.341C129.152 131.466 129.184 131.591 129.214 131.716C129.193 131.581 129.17 131.446 129.146 131.31ZM127.778 59.6386C127.825 60.1905 126.816 69.3167 126.69 69.8559L126.69 69.8553C126.352 71.3045 125.567 70.6342 125.442 69.7527C125.286 68.6542 125.724 60.6992 126.174 59.3355C126.542 58.4833 127.645 58.8297 127.778 59.6386ZM137.214 78.2617C139.817 75.9028 144.502 70.6866 145.223 69.4274C145.544 68.7685 144.651 68.0155 144.134 68.5118C143.996 68.6434 137.528 76.7411 136.794 77.7931C136.44 78.0762 136.859 78.5448 137.214 78.2617ZM154.723 86.5929C153.586 87.0846 148.867 88.2477 146.497 88.3869C145.699 88.4336 145.733 87.7892 146.387 87.5765C147.907 87.0833 153.493 85.6449 154.374 85.487C154.818 85.5118 155.259 86.231 154.723 86.5929Z" fill="black"/>
<path d="M73.964 164.263C72.2793 164.221 71.9239 163.861 70.3802 163.689C70.1221 163.711 70.0053 163.99 70.5002 164.196C71.2959 164.526 72.6689 164.87 73.8929 164.9C74.2102 164.976 74.4885 164.388 73.964 164.263Z" fill="black"/>
<path d="M72.5257 165.89C69.7592 165.582 69.5004 165.363 68.9248 165.18C68.8196 165.147 68.4834 165.613 68.8872 165.853C70.0982 166.576 71.6857 166.589 72.2647 166.653C73.8809 166.833 73.7197 165.786 72.5256 165.889L72.5257 165.89Z" fill="black"/>
<path d="M97.4023 128.583C93.5559 133.019 90.2753 136.852 87.0321 141.676C86.8032 141.948 87.5615 142.507 87.7796 142.109C91.1481 137.274 94.3436 133.64 98.0869 129.119C98.5662 128.541 97.9732 127.924 97.4023 128.583Z" fill="black"/>
<path fill-rule="evenodd" clip-rule="evenodd" d="M89.1596 120.128C82.4243 117.539 72.423 114.145 70.229 113.489C69.7606 113.348 69.5631 113.403 69.3345 113.468C69.293 113.479 69.2501 113.491 69.204 113.502C63.5185 114.569 58.1608 116.736 52.894 119.129C51.989 119.541 51.0117 119.986 50.9839 121.125C51.0706 122.127 51.3398 123.05 51.8595 123.952C51.8595 123.952 54.2323 129.541 54.7066 130.629C53.3215 132.787 52.5802 134.251 52.011 135.375C51.8827 135.628 51.7628 135.865 51.6462 136.088C51.142 136.826 51.0353 137.782 51.1684 138.591C51.5845 139.754 52.0579 140.849 52.5885 141.876C52.9976 142.788 53.3871 143.658 53.7617 144.494C57.4972 152.835 59.7167 157.791 64.5105 167.353C64.6466 167.574 64.8712 167.573 65.0938 167.455C72.8949 169.605 80.9287 170.603 89.0423 170.786C89.3912 170.794 89.7418 170.803 90.0941 170.813C91.6631 170.856 93.2605 170.9 94.8492 170.788C96.5023 170.672 97.6151 169.428 98.6793 168.24C98.907 167.984 99.1327 167.733 99.3608 167.495C99.6254 167.219 99.891 166.944 100.157 166.669C100.888 165.912 101.621 165.154 102.335 164.372C103.174 164.448 104.013 164.512 104.85 164.559C105.749 164.733 106.683 164.59 107.459 164.081C108.157 163.389 108.775 162.515 109.201 161.595L109.203 161.595C111.679 157.187 113.718 152.443 114.741 147.416C114.906 146.609 114.861 146.254 114.593 145.858C112.105 142.183 107.524 136.047 103.499 131.122C102.564 130.378 101.611 129.626 100.636 128.866C100.705 128.951 100.773 129.035 100.841 129.12C105.789 134.918 109.796 139.997 114.021 146.342C106.361 145.803 98.8229 144.583 91.3423 142.627C89.9076 142.256 88.2975 141.624 86.7545 141.019C86.0634 140.747 85.3854 140.482 84.7427 140.247C84.634 139.77 80.5231 132.759 77.6223 127.812C77.1984 127.089 76.8004 126.41 76.4443 125.802C75.9973 125.039 75.5379 124.274 75.0756 123.506C73.2621 120.49 71.4126 117.412 70.1456 114.103C78.202 116.715 81.3855 117.937 84.8879 119.28C86.4727 119.889 88.1234 120.521 90.3202 121.32L90.3208 121.321C90.6087 121.425 90.8955 121.533 91.1805 121.645C90.5161 121.145 89.8429 120.639 89.1596 120.128ZM52.3548 120.185C51.2241 120.977 51.7153 122.064 52.16 123.042C53.593 126.195 54.7594 128.877 55.7826 131.231C57.763 135.787 59.2073 139.11 61.013 142.221C61.2221 142.581 61.4216 142.956 61.6196 143.327C61.9562 143.96 62.2877 144.583 62.6511 145.108C62.7842 145.3 62.9158 145.516 63.0518 145.739C63.5051 146.482 64.0057 147.302 64.7579 147.577C65.5345 147.86 66.3352 147.505 67.0603 147.183C67.2483 147.1 67.4308 147.019 67.6069 146.952C69.1687 146.218 71.9527 145.15 75.097 143.944C77.9422 142.853 81.0822 141.649 83.8769 140.477C83.7401 140.11 80.2256 133.957 74.4814 124.268C74.1654 123.735 73.843 123.201 73.5195 122.666C71.8979 119.982 70.2484 117.254 69.2285 114.301C64.4979 115.288 59.8462 116.692 55.4466 118.719C54.4088 119.124 53.3137 119.597 52.3548 120.185ZM52.4965 139.857C52.5958 140.046 52.6931 140.23 52.7782 140.408L52.786 140.426C56.6821 149.144 60.5783 157.863 64.9201 166.308C69.6158 158.971 76.2599 149.95 83.593 141.492C81.2268 142.446 78.8474 143.369 76.4678 144.292C73.7954 145.328 71.1231 146.364 68.4706 147.445C67.4436 147.976 66.463 148.313 65.4035 148.468C64.4585 148.487 63.5273 147.936 63.0184 147.16C60.0916 142.626 57.1608 136.221 55.008 131.314C54.2512 132.578 52.3368 135.808 51.8701 137.205C51.5714 138.1 52.0565 139.021 52.4965 139.857ZM98.2738 167.325C98.7694 166.777 99.3389 166.146 100.066 165.415C100.433 165.034 100.796 164.648 101.157 164.259C100.199 164.163 99.2392 164.056 98.2795 163.949L98.1713 163.938C89.9606 163.021 81.8877 160.572 78.8828 159.105C78.1558 158.726 77.8867 157.802 78.2656 157.075C78.3299 156.913 78.5261 156.502 78.812 155.901C80.0928 153.216 83.1813 146.74 84.3704 141.805C84.2408 141.986 83.8645 142.429 83.2783 143.118C80.5882 146.279 73.4823 154.629 65.6061 166.741C74.5541 169.345 83.2185 170.147 92.7596 169.959C93.7155 170.066 94.7178 169.979 95.6412 169.71C96.6362 169.137 97.3149 168.385 98.2738 167.325ZM99.37 163.203C101.475 163.463 103.512 163.705 105.596 163.674L105.596 163.674C106.681 163.658 107.187 162.928 107.733 162.141C107.789 162.06 107.846 161.978 107.904 161.896C109.502 159.64 112.321 153.521 113.846 147.194C111.03 147.084 102.371 146.269 95.666 144.799C92.2771 144.132 88.6671 142.929 85.3647 141.595C84.7286 146.049 80.0209 155.536 79.3513 156.885C79.3023 156.985 79.275 157.04 79.2727 157.045C79.0056 157.757 78.9323 158.217 79.5912 158.538C80.0568 158.814 80.5115 158.964 80.9663 159.114C87.0193 161.327 93.7577 162.676 99.37 163.203Z" fill="black"/>
<path fill-rule="evenodd" clip-rule="evenodd" d="M75.1361 91.7084C78.6318 90.3483 82.6054 90.2391 86.3207 91.0796C86.1735 91.2723 86.0267 91.4653 85.8802 91.6586C81.5691 90.7859 77.1734 91.1621 73.2507 93.2599C72.9872 93.4119 72.7325 93.6004 72.4755 93.7908C71.8524 94.2524 71.2153 94.7243 70.4094 94.7047C69.3944 94.6605 68.407 94.5833 67.4242 94.4541C67.3755 94.2829 67.3224 94.1131 67.2656 93.9441C68.6756 94.028 69.0428 94.0654 69.3269 94.0939C69.5322 94.1143 69.6936 94.1308 70.1728 94.1571C70.6167 94.1819 71.107 94.0133 71.4612 93.7302C72.5918 92.9382 73.7904 92.2034 75.1361 91.7084ZM65.9161 104.146C66.5813 104.154 67.2403 104.165 67.8858 104.201C68.5122 104.147 69.1494 104.218 69.7295 104.357C70.0782 104.495 70.3756 104.694 70.6734 104.893C70.8224 104.992 70.9708 105.092 71.1262 105.183C72.1146 105.666 73.1385 105.83 74.2661 105.732C74.9715 105.671 75.6774 105.61 76.3689 105.516C76.5247 105.262 76.6822 105.006 76.8402 104.752C74.2315 105.123 72.4488 105.366 70.8354 104.009C69.847 103.527 68.755 103.306 67.6274 103.403C67.2167 103.38 66.8125 103.363 66.4114 103.351C66.2581 103.622 66.0928 103.887 65.9161 104.146Z" fill="black"/>
<path fill-rule="evenodd" clip-rule="evenodd" d="M122.088 147.621C120.377 146.182 120.267 143.533 120.287 141.157L120.908 140.475C120.916 140.842 120.918 141.174 120.921 141.486C120.929 142.743 120.935 143.692 121.376 145.458C121.484 145.888 121.771 146.37 122.122 146.782C123.441 147.891 123.682 149.367 124.029 151.589C123.845 151.736 123.665 151.888 123.49 152.047C123.332 151.187 123.156 150.324 122.945 149.503C122.823 148.819 122.576 148.147 122.088 147.621ZM133.184 149.26C133.078 148.798 132.908 148.06 132.624 146.836L132.624 146.836C132.466 146.471 132.423 145.97 132.448 145.526C132.644 144.878 132.909 144.287 133.298 143.685C134.036 142.037 134.714 138.079 134 134.284C133.648 132.316 132.921 130.153 131.916 128.149L131.561 128.556C133.903 133.301 134.555 139.213 132.473 143.867C132.141 144.401 131.944 145.049 131.873 145.686C131.995 146.37 132.117 147.054 132.365 147.727C132.484 148.236 132.621 148.721 132.767 149.198C132.907 149.216 133.045 149.237 133.184 149.26ZM129.145 131.659C129.119 131.571 129.094 131.485 129.067 131.398C129.255 131.186 129.443 130.973 129.631 130.76C129.679 130.998 129.722 131.238 129.76 131.479C129.861 131.912 129.303 132.024 129.145 131.659Z" fill="black"/>
<path d="M121.855 109.379C122.259 108.786 122.362 107.947 122.115 107.274C121.742 106.612 121.197 106.154 120.539 105.832C117.842 104.411 113.556 100.688 111.974 98.7457C111.602 98.0838 111.046 97.5007 110.376 97.0537C108.373 96.1584 106.63 98.1649 107.472 99.9555C107.54 100.013 107.483 100.081 107.551 100.138C108.084 101.084 109.629 101.243 108.516 103.273C108.348 103.784 106.136 109.144 105.904 109.817C105.81 110.086 106.473 110.23 106.597 110.033C107.249 108.99 108.135 105.946 108.703 104.709C109.091 103.865 109.439 103.005 109.671 102.038C109.731 101.275 109.416 100.545 108.746 100.098C108.065 99.5261 107.785 98.4774 108.619 97.9004C109.635 97.2446 110.405 98.1246 111.04 98.8902C112.757 101.312 117.274 105.113 119.955 106.388C120.75 106.824 121.818 107.489 121.346 108.603C120.921 109.523 119.84 109.427 119.159 108.855C118.672 108.329 117.898 108.143 117.215 108.266C115.139 109.163 111.278 112.138 110.032 112.776C109.501 113.048 110.188 113.518 110.437 113.379C112.094 112.452 114.869 110.419 116.686 109.447C117.04 109.164 117.473 109.064 117.86 109.157C118.257 109.375 118.53 109.604 118.87 109.89C119.812 110.566 121.202 110.336 121.855 109.379Z" fill="black"/>
<path d="M66.2365 104.09C68.1144 101.277 68.8006 96.792 67.0943 92.8456C66.9365 92.4806 66.7215 92.1836 66.3921 92.0228C65.9373 91.8727 65.4253 91.7908 64.9134 91.7088C64.0118 91.4625 63.1161 91.2843 62.1998 91.1508C60.046 88.8812 54.2362 88.9086 40.1861 86.0214C40.0608 86.0322 40.0265 86.3469 40.2186 86.3972C46.0999 87.9272 52.6659 88.7299 58.2712 90.0749C59.4204 90.228 60.534 90.6996 61.5333 91.3075C62.5078 92.3592 63.1281 93.694 63.3153 95.1293C63.8723 97.9211 63.3589 100.742 61.9928 103.196C61.7283 103.787 61.3386 104.389 60.8808 104.933C60.7199 105.263 60.491 105.535 60.1368 105.818C59.8971 105.965 59.5893 106.055 59.2135 106.087C58.6551 106.198 58.0967 106.31 57.5275 106.296C47.4172 107.691 42.1376 108.408 35.2692 108.726C34.7 108.712 34.8331 109.521 35.3342 109.477C38.9923 109.495 41.511 109.069 45.6184 108.714C51.5401 108.107 55.2821 107.465 59.1526 106.849C59.6537 106.806 60.0187 106.648 60.441 106.422C60.5926 106.281 60.7388 106.136 60.8793 105.985C62.517 105.93 63.2555 105.819 64.4753 105.631C65.2734 105.373 65.9245 104.875 66.2354 104.09L66.2365 104.09ZM62.1099 105.268C61.8955 105.274 61.686 105.274 61.4791 105.271C63.3558 102.77 64.2102 99.7656 64.1511 96.7605C64.0711 94.6842 63.2674 92.5873 62.633 91.6813C64.7475 92.2504 65.1263 92.0381 66.1951 92.6703C66.5462 93.0818 66.8401 93.5612 66.9515 94.1196C68.1958 98.1784 67.1935 102.002 65.2553 104.427C64.5891 105.261 63.1796 105.238 62.1093 105.267L62.1099 105.268Z" fill="black"/>
<path d="M145.346 170.84C143.276 165.564 138.698 156.401 138.07 155.312C137.74 154.714 137.264 154.205 136.697 153.813C136.272 152.52 135.533 150.558 135.363 150.182C135.215 149.856 135.031 149.571 134.784 149.411C134.057 149.032 133.158 148.857 132.338 148.865C130.066 148.684 128.034 149.017 125.638 150.202C124.976 150.574 124.257 151.015 123.674 151.571C123.022 152.069 122.507 152.681 122.186 153.34C121.954 154.307 122.04 155.309 122.184 156.243C122.233 157.979 122.554 157.101 122.017 157.962C121.821 158.61 121.761 159.372 121.815 159.999C121.851 160.413 122.129 177.801 123.318 183.221C123.361 183.722 124.238 183.646 124.07 183.156C123.638 180.353 123.401 177.537 123.276 174.704C123.124 171.27 122.606 163.866 122.624 159.866C122.616 159.046 122.494 158.362 123.066 157.682C123.924 156.661 124.93 155.88 126.003 155.156C128.093 153.776 130.623 153.115 133.161 153.275C134.482 153.223 135.789 153.741 136.924 154.464C137.695 155.344 138.351 156.36 138.699 157.466C140.911 161.882 143.066 166.366 145.153 170.793C145.185 171.168 145.493 171.079 145.346 170.839L145.346 170.84ZM124.567 155.344C123.748 156.076 124.204 155.536 122.957 156.78C122.918 156.561 122.887 156.342 122.867 156.122C122.781 155.119 122.39 153.745 123.155 152.878C124.392 151.476 125.978 150.488 127.7 149.96C130.238 148.991 133.34 149.327 134.521 150.025C134.843 150.385 135.673 152.477 136.04 153.429C133.011 151.961 128.056 152.555 124.568 155.343L124.567 155.344Z" fill="black"/>
<path d="M136.391 102.316C141.073 89.0931 126.102 75.5219 113.392 81.5839C107.448 84.3698 104.617 91.0524 103.576 97.2641C102.982 100.887 102.732 104.478 101.876 107.957C101.425 107.689 101.058 107.552 100.581 107.873C99.404 108.859 98.2951 109.901 97.3898 111.116C96.2345 112.352 95.2153 113.702 94.1961 115.053C94.0816 115.189 94.0352 115.382 94.1713 115.496C95.9795 117.79 101.832 123.558 106.444 126.048C106.638 126.094 106.763 126.084 106.877 125.947C108.844 123.843 111.411 120.918 112.853 118.425C113.11 117.851 112.851 117.501 112.513 117.104C121.381 113.428 123.768 114.305 130.585 109.634C133.269 107.824 135.261 105.317 136.39 102.315L136.391 102.316ZM111.805 118.706C110.236 120.972 108.486 123.194 106.599 125.201C103.248 123.379 97.4895 118.366 94.9796 115.199C95.6261 114.332 96.3016 113.474 97.0045 112.637C100.489 115.6 105.992 120.477 107.873 122.138C108.009 122.252 108.192 122.173 108.306 122.037C108.363 121.969 108.353 121.844 108.274 121.661C107.586 121.069 98.6451 113.232 97.3848 112.19C97.9702 111.511 98.5745 110.848 99.1997 110.208C100.999 111.708 102.921 113.074 104.78 114.637C109.813 118.868 108.879 118.232 110.282 119.411C110.554 119.64 110.898 119.232 110.625 119.003C106.908 115.394 102.97 112.355 99.5169 109.887C99.8344 109.57 100.157 109.259 100.485 108.955C101.106 108.216 101.247 108.202 102.124 108.939C106.448 111.74 111.12 116.251 112.23 117.785C112.252 118.036 111.966 118.376 111.805 118.705L111.805 118.706ZM121.918 113.035C118.615 114.124 114.93 114.728 112.034 116.588C107.773 112.043 106.916 111.294 102.48 108.348C104.41 103.597 103.09 98.5079 106.443 90.264C108.8 84.4689 114.087 80.4612 120.841 80.8771C130.877 81.5849 138.839 91.8879 135.814 101.482C133.885 107.645 127.619 111.09 121.918 113.035Z" fill="black"/>
<path d="M64.8006 94.5656C65.0965 94.8144 65.5381 94.7761 65.7867 94.4804C66.0353 94.1847 65.9973 93.743 65.7014 93.4943C65.4056 93.2456 64.964 93.2839 64.7154 93.5796C64.4667 93.8753 64.5048 94.3169 64.8006 94.5656Z" fill="black"/>
<path d="M132.486 151.645C132.782 151.894 133.224 151.856 133.472 151.56C133.721 151.264 133.683 150.823 133.387 150.574C133.091 150.325 132.65 150.363 132.401 150.659C132.152 150.955 132.19 151.397 132.486 151.645Z" fill="black"/>
<path d="M89.4488 99.5587C89.8958 98.8889 89.5434 98.3432 89.1146 97.8836C88.5049 97.2307 87.8107 96.671 87.0729 96.1668C84.2461 94.0103 80.2223 92.5259 76.2373 92.7486C75.9759 92.645 75.9403 92.9636 76.2017 93.0673C78.1707 93.2125 80.1165 93.6368 82.0484 94.2657C84.9018 95.1946 86.6016 96.6999 88.2479 98.0842C88.6562 98.4275 89.1435 98.9534 88.4026 99.1437C85.473 99.3965 82.4657 98.8959 79.4377 97.6469C79.2444 97.6005 79.1191 97.6114 79.0046 97.7475C77.3229 99.7476 75.0093 100.858 72.4313 101.282C71.6223 101.415 70.7345 101.366 69.9147 101.373C69.527 101.281 69.4159 102.041 69.8545 102.136C70.7494 102.331 71.6987 102.292 72.5643 102.091C75.2246 101.681 77.4907 100.669 79.4376 98.4701C81.919 99.5009 84.5312 99.9937 87.2833 100.06C87.9778 100.063 89.0017 100.227 89.4487 99.5576L89.4488 99.5587Z" fill="black"/>
<path fill-rule="evenodd" clip-rule="evenodd" d="M153.316 100.979C153.488 100.774 153.466 100.524 153.262 100.352C140.372 86.1864 126.967 74.0331 110.176 64.8216C109.861 64.6252 109.55 64.8464 109.469 65.115C105.411 68.6165 99.039 75.3818 95.3547 79.5468C91.1989 84.2647 87.1287 89.2429 83.3498 94.4175C83.6671 94.5581 83.9807 94.7076 84.2904 94.8658C92.357 83.7142 100.345 75.566 107.511 68.2554C108.338 67.4121 109.153 66.5799 109.957 65.7556C119.31 70.9097 125.73 75.6727 132.649 81.5454C132.249 82.0116 131.719 82.7056 130.935 83.733C129.093 86.1459 125.85 90.3951 119.594 97.8355C107.858 112.14 103.677 116.552 97.2022 123.386C96.8203 123.789 96.431 124.201 96.0312 124.623C88.687 119.06 80.2343 112.833 76.2796 109.919L76.2784 109.919L76.2567 109.903C75.8011 109.567 75.4058 109.275 75.0793 109.035C77.2262 105.353 79.3876 101.945 81.5495 98.7705C81.2006 98.6655 80.8533 98.5518 80.5085 98.4291C78.1877 101.812 76.0086 105.269 74.0259 108.782C73.9795 108.976 73.9904 109.101 74.1265 109.215C79.9934 113.567 85.7357 117.931 91.5454 122.351L92.4857 123.066C101.837 130.17 110.032 136.396 117.831 143.872C118.035 144.044 118.282 144.019 118.458 143.818C120.159 141.868 122.141 139.688 124.318 137.294L124.318 137.293C124.78 136.784 125.252 136.266 125.731 135.737C125.627 135.518 125.525 135.297 125.428 135.074C124.044 136.617 122.6 138.126 121.158 139.633L121.157 139.634C120.126 140.712 119.096 141.789 118.088 142.876C111.389 136.553 104.192 130.822 96.8794 125.265C107.394 114.564 130.433 85.9295 133.226 82.0368C137.703 85.8667 143.512 91.1754 152.297 100.719C145.249 111.556 136.962 121.875 128.434 131.659C128.595 131.844 128.753 132.032 128.906 132.222C136.541 123.713 145.583 113.134 153.315 100.979L153.316 100.979Z" fill="black"/>
<path d="M132.785 140.18C132.539 136.604 130.539 133.18 128.113 130.675C127.49 130.035 126.798 129.337 126.06 128.833C125.584 128.433 124.914 127.986 124.299 128.165C123.683 128.345 123.576 129.3 123.688 129.859C124.062 132.765 125.079 135.557 126.667 138.067C125.567 139.451 124.846 141.065 124.485 142.728C124.128 144.369 124.009 146.65 124.643 148.205C124.717 148.389 124.858 148.502 125.04 148.423C125.223 148.344 125.337 148.208 125.258 148.026C125.182 147.149 124.992 146.408 124.916 145.531C124.891 142.839 125.725 140.496 127.27 138.448C127.384 138.312 127.431 138.119 127.295 138.004C126.198 136.269 125.341 134.387 124.792 132.414C124.623 131.924 124.512 131.366 124.468 130.865C124.3 130.374 124.257 129.873 124.281 129.429C124.342 128.667 125.011 129.114 125.352 129.4C128.908 132.39 131.073 135.277 132.362 140.406C132.498 140.52 132.806 140.431 132.784 140.18L132.785 140.18Z" fill="black"/>
</g>
<defs>
<clipPath id="clip0_376_60">
<rect width="153.31" height="153.31" fill="white" transform="translate(98.802 0.920532) rotate(40.0578)"/>
</clipPath>
</defs>
</svg>
